<?xml version="1.0" encoding="UTF-8"?>
<svg xmlns="http://www.w3.org/2000/svg" xmlns:xlink="http://www.w3.org/1999/xlink" width="312.438pt" height="201.81pt" viewBox="0 0 312.438 201.81">
<defs>
<g>
<g id="glyph-0-0">
<path d="M 3.328125 -3.015625 C 3.390625 -3.265625 3.625 -4.1875 4.3125 -4.1875 C 4.359375 -4.1875 4.609375 -4.1875 4.8125 -4.0625 C 4.53125 -4 4.34375 -3.765625 4.34375 -3.515625 C 4.34375 -3.359375 4.453125 -3.171875 4.71875 -3.171875 C 4.9375 -3.171875 5.25 -3.34375 5.25 -3.75 C 5.25 -4.265625 4.671875 -4.40625 4.328125 -4.40625 C 3.75 -4.40625 3.40625 -3.875 3.28125 -3.65625 C 3.03125 -4.3125 2.5 -4.40625 2.203125 -4.40625 C 1.171875 -4.40625 0.59375 -3.125 0.59375 -2.875 C 0.59375 -2.765625 0.703125 -2.765625 0.71875 -2.765625 C 0.796875 -2.765625 0.828125 -2.796875 0.84375 -2.875 C 1.1875 -3.9375 1.84375 -4.1875 2.1875 -4.1875 C 2.375 -4.1875 2.71875 -4.09375 2.71875 -3.515625 C 2.71875 -3.203125 2.546875 -2.546875 2.1875 -1.140625 C 2.03125 -0.53125 1.671875 -0.109375 1.234375 -0.109375 C 1.171875 -0.109375 0.953125 -0.109375 0.734375 -0.234375 C 0.984375 -0.296875 1.203125 -0.5 1.203125 -0.78125 C 1.203125 -1.046875 0.984375 -1.125 0.84375 -1.125 C 0.53125 -1.125 0.296875 -0.875 0.296875 -0.546875 C 0.296875 -0.09375 0.78125 0.109375 1.21875 0.109375 C 1.890625 0.109375 2.25 -0.59375 2.265625 -0.640625 C 2.390625 -0.28125 2.75 0.109375 3.34375 0.109375 C 4.375 0.109375 4.9375 -1.171875 4.9375 -1.421875 C 4.9375 -1.53125 4.859375 -1.53125 4.828125 -1.53125 C 4.734375 -1.53125 4.71875 -1.484375 4.6875 -1.421875 C 4.359375 -0.34375 3.6875 -0.109375 3.375 -0.109375 C 2.984375 -0.109375 2.828125 -0.421875 2.828125 -0.765625 C 2.828125 -0.984375 2.875 -1.203125 2.984375 -1.640625 Z M 3.328125 -3.015625 "/>
</g>
<g id="glyph-0-1">
<path d="M 4.84375 -3.796875 C 4.890625 -3.9375 4.890625 -3.953125 4.890625 -4.03125 C 4.890625 -4.203125 4.75 -4.296875 4.59375 -4.296875 C 4.5 -4.296875 4.34375 -4.234375 4.25 -4.09375 C 4.234375 -4.03125 4.140625 -3.734375 4.109375 -3.546875 C 4.03125 -3.296875 3.96875 -3.015625 3.90625 -2.75 L 3.453125 -0.953125 C 3.421875 -0.8125 2.984375 -0.109375 2.328125 -0.109375 C 1.828125 -0.109375 1.71875 -0.546875 1.71875 -0.921875 C 1.71875 -1.375 1.890625 -2 2.21875 -2.875 C 2.375 -3.28125 2.421875 -3.390625 2.421875 -3.59375 C 2.421875 -4.03125 2.109375 -4.40625 1.609375 -4.40625 C 0.65625 -4.40625 0.296875 -2.953125 0.296875 -2.875 C 0.296875 -2.765625 0.390625 -2.765625 0.40625 -2.765625 C 0.515625 -2.765625 0.515625 -2.796875 0.5625 -2.953125 C 0.84375 -3.890625 1.234375 -4.1875 1.578125 -4.1875 C 1.65625 -4.1875 1.828125 -4.1875 1.828125 -3.875 C 1.828125 -3.625 1.71875 -3.359375 1.65625 -3.171875 C 1.25 -2.109375 1.078125 -1.546875 1.078125 -1.078125 C 1.078125 -0.1875 1.703125 0.109375 2.296875 0.109375 C 2.6875 0.109375 3.015625 -0.0625 3.296875 -0.34375 C 3.171875 0.171875 3.046875 0.671875 2.65625 1.203125 C 2.390625 1.53125 2.015625 1.828125 1.5625 1.828125 C 1.421875 1.828125 0.96875 1.796875 0.796875 1.40625 C 0.953125 1.40625 1.09375 1.40625 1.21875 1.28125 C 1.328125 1.203125 1.421875 1.0625 1.421875 0.875 C 1.421875 0.5625 1.15625 0.53125 1.0625 0.53125 C 0.828125 0.53125 0.5 0.6875 0.5 1.171875 C 0.5 1.671875 0.9375 2.046875 1.5625 2.046875 C 2.578125 2.046875 3.609375 1.140625 3.890625 0.015625 Z M 4.84375 -3.796875 "/>
</g>
<g id="glyph-1-0">
<path d="M 3.421875 -3.40625 C 3.25 -3.734375 2.984375 -3.96875 2.578125 -3.96875 C 1.53125 -3.96875 0.375 -2.71875 0.375 -1.359375 C 0.375 -0.375 1 0.09375 1.609375 0.09375 C 2.1875 0.09375 2.65625 -0.390625 2.8125 -0.5625 C 2.90625 -0.0625 3.359375 0.09375 3.640625 0.09375 C 3.90625 0.09375 4.125 -0.015625 4.328125 -0.390625 C 4.484375 -0.6875 4.609375 -1.25 4.609375 -1.28125 C 4.609375 -1.328125 4.578125 -1.390625 4.5 -1.390625 C 4.390625 -1.390625 4.375 -1.34375 4.34375 -1.171875 C 4.140625 -0.390625 3.953125 -0.125 3.671875 -0.125 C 3.4375 -0.125 3.390625 -0.34375 3.390625 -0.53125 C 3.390625 -0.703125 3.4375 -0.890625 3.515625 -1.203125 L 3.734375 -2.125 C 3.796875 -2.34375 3.96875 -3.015625 4 -3.15625 C 4.03125 -3.28125 4.09375 -3.5 4.09375 -3.53125 C 4.09375 -3.671875 3.96875 -3.78125 3.8125 -3.78125 C 3.6875 -3.78125 3.46875 -3.71875 3.421875 -3.40625 Z M 2.84375 -1.09375 C 2.796875 -0.921875 2.796875 -0.921875 2.65625 -0.75 C 2.328125 -0.359375 1.96875 -0.125 1.625 -0.125 C 1.1875 -0.125 1.046875 -0.578125 1.046875 -0.96875 C 1.046875 -1.40625 1.296875 -2.4375 1.515625 -2.875 C 1.796875 -3.40625 2.21875 -3.734375 2.578125 -3.734375 C 3.171875 -3.734375 3.3125 -3.015625 3.3125 -2.953125 C 3.3125 -2.921875 3.296875 -2.859375 3.28125 -2.828125 Z M 2.84375 -1.09375 "/>
</g>
<g id="glyph-1-1">
<path d="M 2.140625 -5.921875 C 2.171875 -6.046875 2.171875 -6.0625 2.171875 -6.09375 C 2.171875 -6.171875 2.125 -6.21875 2.046875 -6.21875 C 1.921875 -6.21875 1.125 -6.15625 0.953125 -6.140625 C 0.859375 -6.125 0.765625 -6.109375 0.765625 -5.96875 C 0.765625 -5.84375 0.859375 -5.84375 1 -5.84375 C 1.421875 -5.84375 1.421875 -5.78125 1.421875 -5.703125 C 1.421875 -5.65625 1.421875 -5.625 1.359375 -5.390625 L 0.890625 -3.5 C 0.765625 -3 0.640625 -2.53125 0.546875 -2.109375 C 0.484375 -1.890625 0.421875 -1.625 0.421875 -1.34375 C 0.421875 -0.5625 0.859375 0.09375 1.625 0.09375 C 2.671875 0.09375 3.828125 -1.171875 3.828125 -2.515625 C 3.828125 -3.421875 3.25 -3.96875 2.578125 -3.96875 C 2.125 -3.96875 1.734375 -3.65625 1.53125 -3.453125 Z M 1.40625 -2.9375 C 1.65625 -3.296875 2.109375 -3.734375 2.5625 -3.734375 C 2.984375 -3.734375 3.15625 -3.3125 3.15625 -2.890625 C 3.15625 -2.5 2.90625 -1.375 2.625 -0.90625 C 2.296875 -0.328125 1.90625 -0.125 1.625 -0.125 C 1.171875 -0.125 1 -0.578125 1 -1.03125 C 1 -1.34375 1.0625 -1.59375 1.265625 -2.40625 Z M 1.40625 -2.9375 "/>
</g>
</g>
<clipPath id="clip-0">
<path clip-rule="nonzero" d="M 221 9 L 312.4375 9 L 312.4375 201.808594 L 221 201.808594 Z M 221 9 "/>
</clipPath>
<clipPath id="clip-1">
<path clip-rule="nonzero" d="M 0 9 L 91 9 L 91 201.808594 L 0 201.808594 Z M 0 9 "/>
</clipPath>
</defs>
<path fill="none" stroke-width="0.3985" stroke-linecap="butt" stroke-linejoin="miter" stroke="rgb(0%, 0%, 0%)" stroke-opacity="1" stroke-miterlimit="10" d="M -127.558844 -0.00084375 L 127.159906 -0.00084375 " transform="matrix(1, 0, 0, -1, 156.219, 107.339)"/>
<path fill="none" stroke-width="0.3985" stroke-linecap="round" stroke-linejoin="round" stroke="rgb(0%, 0%, 0%)" stroke-opacity="1" stroke-miterlimit="10" d="M -2.071687 2.389781 C -1.692781 0.956187 -0.849031 0.280406 -0.001375 -0.00084375 C -0.849031 -0.278188 -1.692781 -0.957875 -2.071687 -2.391469 " transform="matrix(1, 0, 0, -1, 283.5795, 107.339)"/>
<g fill="rgb(0%, 0%, 0%)" fill-opacity="1">
<use xlink:href="#glyph-0-0" x="287.297" y="109.483"/>
</g>
<path fill="none" stroke-width="0.3985" stroke-linecap="butt" stroke-linejoin="miter" stroke="rgb(0%, 0%, 0%)" stroke-opacity="1" stroke-miterlimit="10" d="M -0.00025 -89.289906 L -0.00025 88.893687 " transform="matrix(1, 0, 0, -1, 156.219, 107.339)"/>
<path fill="none" stroke-width="0.3985" stroke-linecap="round" stroke-linejoin="round" stroke="rgb(0%, 0%, 0%)" stroke-opacity="1" stroke-miterlimit="10" d="M -2.073892 2.390875 C -1.694986 0.957281 -0.851236 0.277594 0.00032625 0.00025 C -0.851236 -0.277094 -1.694986 -0.956781 -2.073892 -2.390375 " transform="matrix(0, -1, -1, 0, 156.219, 18.24642)"/>
<g fill="rgb(0%, 0%, 0%)" fill-opacity="1">
<use xlink:href="#glyph-0-1" x="153.598" y="12.591"/>
</g>
<path fill="none" stroke-width="0.79701" stroke-linecap="butt" stroke-linejoin="miter" stroke="rgb(50%, 50%, 50%)" stroke-opacity="1" stroke-dasharray="2.98883 2.98883" stroke-miterlimit="10" d="M -76.535406 -51.024281 L -76.535406 51.022594 L 76.534906 51.022594 L 76.534906 -51.024281 Z M -76.535406 -51.024281 " transform="matrix(1, 0, 0, -1, 156.219, 107.339)"/>
<path fill="none" stroke-width="0.3985" stroke-linecap="butt" stroke-linejoin="miter" stroke="rgb(35.68573%, 64.312744%, 64.312744%)" stroke-opacity="1" stroke-dasharray="2.98883 2.98883" stroke-miterlimit="10" d="M -114.804937 -76.536 L 114.804438 76.534312 " transform="matrix(1, 0, 0, -1, 156.219, 107.339)"/>
<path fill="none" stroke-width="0.3985" stroke-linecap="butt" stroke-linejoin="miter" stroke="rgb(35.68573%, 64.312744%, 64.312744%)" stroke-opacity="1" stroke-dasharray="2.98883 2.98883" stroke-miterlimit="10" d="M -114.804937 76.534312 L 114.804438 -76.536 " transform="matrix(1, 0, 0, -1, 156.219, 107.339)"/>
<g clip-path="url(#clip-0)">
<path fill="none" stroke-width="0.79701" stroke-linecap="butt" stroke-linejoin="miter" stroke="rgb(83.137512%, 65.879822%, 32.548523%)" stroke-opacity="1" stroke-miterlimit="10" d="M 150.839594 -86.653188 L 147.476313 -84.043813 L 144.2185 -81.489125 L 141.058344 -78.993031 L 137.995844 -76.547719 L 135.023188 -74.161 L 132.152094 -71.821156 L 129.370844 -69.532094 L 126.671625 -67.289906 L 124.070063 -65.094594 L 121.542719 -62.946156 L 119.109125 -60.840688 L 116.753656 -58.774281 L 114.476313 -56.750844 L 112.281 -54.766469 L 110.163813 -52.81725 L 108.116938 -50.911 L 106.152094 -49.032094 L 104.257563 -47.19225 L 102.429438 -45.383656 L 100.679438 -43.602406 L 98.995844 -41.856313 L 97.382563 -40.137563 L 95.831781 -38.446156 L 94.355219 -36.782094 L 92.933344 -35.141469 L 91.585688 -33.528188 L 90.296625 -31.934438 L 89.070063 -30.364125 L 87.902094 -28.81725 L 86.800531 -27.286 L 85.753656 -25.778188 L 84.769281 -24.282094 L 83.8435 -22.809438 L 82.9685 -21.3485 L 82.156 -19.903188 L 81.402094 -18.469594 L 80.702875 -17.051625 L 80.058344 -15.645375 L 79.472406 -14.250844 L 78.93725 -12.864125 L 78.456781 -11.485219 L 78.031 -10.114125 L 77.659906 -8.75475 L 77.3435 -7.395375 L 77.077875 -6.043813 L 76.866938 -4.696156 L 76.706781 -3.352406 L 76.601313 -2.012563 L 76.550531 -0.668813 L 76.546625 0.659312 L 76.605219 1.999156 L 76.706781 3.342906 L 76.866938 4.68275 L 77.073969 6.030406 L 77.339594 7.381969 L 77.656 8.741344 L 78.027094 10.104625 L 78.452875 11.471812 L 78.933344 12.850719 L 79.464594 14.237437 L 80.054438 15.631969 L 80.695063 17.042125 L 81.398188 18.456187 L 82.152094 19.889781 L 82.964594 21.335094 L 83.831781 22.796031 L 84.757563 24.272594 L 85.741938 25.764781 L 86.788813 27.272594 L 87.894281 28.803844 L 89.058344 30.354625 L 90.284906 31.921031 L 91.570063 33.514781 L 92.921625 35.128062 L 94.339594 36.768687 L 95.823969 38.428844 L 97.366938 40.124156 L 98.980219 41.842906 L 100.667719 43.589 L 102.413813 45.366344 L 104.238031 47.174937 L 106.136469 49.014781 L 108.101313 50.893687 L 110.144281 52.799937 L 112.261469 54.749156 L 114.456781 56.733531 L 116.730219 58.756969 L 119.089594 60.819469 L 121.523188 62.928844 L 124.042719 65.077281 L 126.652094 67.268687 L 129.347406 69.510875 L 132.128656 71.799937 L 134.99975 74.139781 L 137.9685 76.530406 L 141.031 78.971812 L 144.191156 81.464 L 147.448969 84.018687 L 150.81225 86.628062 " transform="matrix(1, 0, 0, -1, 156.219, 107.339)"/>
</g>
<g clip-path="url(#clip-1)">
<path fill="none" stroke-width="0.79701" stroke-linecap="butt" stroke-linejoin="miter" stroke="rgb(83.137512%, 65.879822%, 32.548523%)" stroke-opacity="1" stroke-miterlimit="10" d="M -150.840094 -86.653188 L -147.476812 -84.043813 L -144.219 -81.489125 L -141.058844 -78.993031 L -137.996344 -76.547719 L -135.023687 -74.161 L -132.152594 -71.821156 L -129.371344 -69.532094 L -126.672125 -67.289906 L -124.066656 -65.094594 L -121.543219 -62.946156 L -119.109625 -60.840688 L -116.754156 -58.774281 L -114.476812 -56.750844 L -112.2815 -54.766469 L -110.164312 -52.81725 L -108.117437 -50.911 L -106.152594 -49.032094 L -104.254156 -47.19225 L -102.429937 -45.383656 L -100.679937 -43.602406 L -98.996344 -41.856313 L -97.383062 -40.137563 L -95.832281 -38.446156 L -94.351812 -36.782094 L -92.933844 -35.141469 L -91.586187 -33.528188 L -90.297125 -31.934438 L -89.070562 -30.364125 L -87.902594 -28.81725 L -86.801031 -27.286 L -85.754156 -25.778188 L -84.769781 -24.282094 L -83.840094 -22.809438 L -82.969 -21.3485 L -82.1565 -19.903188 L -81.402594 -18.469594 L -80.703375 -17.051625 L -80.058844 -15.645375 L -79.469 -14.250844 L -78.93775 -12.864125 L -78.457281 -11.485219 L -78.0315 -10.114125 L -77.6565 -8.75475 L -77.344 -7.395375 L -77.078375 -6.043813 L -76.867437 -4.696156 L -76.707281 -3.352406 L -76.601812 -2.012563 L -76.547125 -0.668813 L -76.547125 0.659312 L -76.601812 1.999156 L -76.703375 3.342906 L -76.867437 4.68275 L -77.074469 6.030406 L -77.340094 7.381969 L -77.6565 8.741344 L -78.027594 10.104625 L -78.453375 11.471812 L -78.933844 12.850719 L -79.465094 14.237437 L -80.054937 15.631969 L -80.695562 17.042125 L -81.394781 18.456187 L -82.152594 19.889781 L -82.965094 21.335094 L -83.832281 22.796031 L -84.758062 24.272594 L -85.742437 25.764781 L -86.789312 27.272594 L -87.894781 28.803844 L -89.058844 30.354625 L -90.285406 31.921031 L -91.570562 33.514781 L -92.922125 35.128062 L -94.340094 36.768687 L -95.824469 38.428844 L -97.367437 40.124156 L -98.980719 41.842906 L -100.664312 43.589 L -102.414312 45.366344 L -104.238531 47.174937 L -106.133062 49.014781 L -108.101812 50.893687 L -110.144781 52.799937 L -112.261969 54.749156 L -114.457281 56.733531 L -116.730719 58.756969 L -119.090094 60.819469 L -121.523687 62.928844 L -124.043219 65.077281 L -126.648687 67.268687 L -129.344 69.510875 L -132.129156 71.799937 L -135.00025 74.139781 L -137.965094 76.530406 L -141.0315 78.971812 L -144.191656 81.464 L -147.449469 84.018687 L -150.81275 86.628062 " transform="matrix(1, 0, 0, -1, 156.219, 107.339)"/>
</g>
<path fill-rule="nonzero" fill="rgb(83.137512%, 65.879822%, 32.548523%)" fill-opacity="1" stroke-width="0.3985" stroke-linecap="butt" stroke-linejoin="miter" stroke="rgb(83.137512%, 65.879822%, 32.548523%)" stroke-opacity="1" stroke-miterlimit="10" d="M 78.327875 -0.00084375 C 78.327875 0.991344 77.527094 1.792125 76.534906 1.792125 C 75.546625 1.792125 74.741938 0.991344 74.741938 -0.00084375 C 74.741938 -0.989125 75.546625 -1.793813 76.534906 -1.793813 C 77.527094 -1.793813 78.327875 -0.989125 78.327875 -0.00084375 Z M 78.327875 -0.00084375 " transform="matrix(1, 0, 0, -1, 156.219, 107.339)"/>
<path fill-rule="nonzero" fill="rgb(83.137512%, 65.879822%, 32.548523%)" fill-opacity="1" stroke-width="0.3985" stroke-linecap="butt" stroke-linejoin="miter" stroke="rgb(83.137512%, 65.879822%, 32.548523%)" stroke-opacity="1" stroke-miterlimit="10" d="M -74.742437 -0.00084375 C -74.742437 0.991344 -75.547125 1.792125 -76.535406 1.792125 C -77.527594 1.792125 -78.328375 0.991344 -78.328375 -0.00084375 C -78.328375 -0.989125 -77.527594 -1.793813 -76.535406 -1.793813 C -75.547125 -1.793813 -74.742437 -0.989125 -74.742437 -0.00084375 Z M -74.742437 -0.00084375 " transform="matrix(1, 0, 0, -1, 156.219, 107.339)"/>
<path fill-rule="nonzero" fill="rgb(50%, 50%, 50%)" fill-opacity="1" stroke-width="0.3985" stroke-linecap="butt" stroke-linejoin="miter" stroke="rgb(50%, 50%, 50%)" stroke-opacity="1" stroke-miterlimit="10" d="M 78.327875 51.022594 C 78.327875 52.014781 77.527094 52.815562 76.534906 52.815562 C 75.546625 52.815562 74.741938 52.014781 74.741938 51.022594 C 74.741938 50.034312 75.546625 49.229625 76.534906 49.229625 C 77.527094 49.229625 78.327875 50.034312 78.327875 51.022594 Z M 78.327875 51.022594 " transform="matrix(1, 0, 0, -1, 156.219, 107.339)"/>
<path fill-rule="nonzero" fill="rgb(50%, 50%, 50%)" fill-opacity="1" stroke-width="0.3985" stroke-linecap="butt" stroke-linejoin="miter" stroke="rgb(50%, 50%, 50%)" stroke-opacity="1" stroke-miterlimit="10" d="M 78.327875 -51.024281 C 78.327875 -50.032094 77.527094 -49.231313 76.534906 -49.231313 C 75.546625 -49.231313 74.741938 -50.032094 74.741938 -51.024281 C 74.741938 -52.012563 75.546625 -52.81725 76.534906 -52.81725 C 77.527094 -52.81725 78.327875 -52.012563 78.327875 -51.024281 Z M 78.327875 -51.024281 " transform="matrix(1, 0, 0, -1, 156.219, 107.339)"/>
<path fill-rule="nonzero" fill="rgb(50%, 50%, 50%)" fill-opacity="1" stroke-width="0.3985" stroke-linecap="butt" stroke-linejoin="miter" stroke="rgb(50%, 50%, 50%)" stroke-opacity="1" stroke-miterlimit="10" d="M -74.742437 51.022594 C -74.742437 52.014781 -75.547125 52.815562 -76.535406 52.815562 C -77.527594 52.815562 -78.328375 52.014781 -78.328375 51.022594 C -78.328375 50.034312 -77.527594 49.229625 -76.535406 49.229625 C -75.547125 49.229625 -74.742437 50.034312 -74.742437 51.022594 Z M -74.742437 51.022594 " transform="matrix(1, 0, 0, -1, 156.219, 107.339)"/>
<path fill-rule="nonzero" fill="rgb(50%, 50%, 50%)" fill-opacity="1" stroke-width="0.3985" stroke-linecap="butt" stroke-linejoin="miter" stroke="rgb(50%, 50%, 50%)" stroke-opacity="1" stroke-miterlimit="10" d="M -74.742437 -51.024281 C -74.742437 -50.032094 -75.547125 -49.231313 -76.535406 -49.231313 C -77.527594 -49.231313 -78.328375 -50.032094 -78.328375 -51.024281 C -78.328375 -52.012563 -77.527594 -52.81725 -76.535406 -52.81725 C -75.547125 -52.81725 -74.742437 -52.012563 -74.742437 -51.024281 Z M -74.742437 -51.024281 " transform="matrix(1, 0, 0, -1, 156.219, 107.339)"/>
<g fill="rgb(0%, 0%, 0%)" fill-opacity="1">
<use xlink:href="#glyph-1-0" x="230.313" y="119.473"/>
</g>
<g fill="rgb(0%, 0%, 0%)" fill-opacity="1">
<use xlink:href="#glyph-1-1" x="161.898" y="59.429"/>
</g>
</svg>
