<?xml version="1.0" encoding="UTF-8"?>
<svg xmlns="http://www.w3.org/2000/svg" xmlns:xlink="http://www.w3.org/1999/xlink" width="283.109pt" height="164.244pt" viewBox="0 0 283.109 164.244">
<defs>
<g>
<g id="glyph-0-0">
<path d="M 4.46875 -2 C 4.46875 -3.1875 3.65625 -4.1875 2.578125 -4.1875 C 2.109375 -4.1875 1.671875 -4.03125 1.3125 -3.671875 L 1.3125 -5.625 C 1.515625 -5.5625 1.84375 -5.5 2.15625 -5.5 C 3.390625 -5.5 4.09375 -6.40625 4.09375 -6.53125 C 4.09375 -6.59375 4.0625 -6.640625 3.984375 -6.640625 C 3.984375 -6.640625 3.953125 -6.640625 3.90625 -6.609375 C 3.703125 -6.515625 3.21875 -6.3125 2.546875 -6.3125 C 2.15625 -6.3125 1.6875 -6.390625 1.21875 -6.59375 C 1.140625 -6.625 1.125 -6.625 1.109375 -6.625 C 1 -6.625 1 -6.546875 1 -6.390625 L 1 -3.4375 C 1 -3.265625 1 -3.1875 1.140625 -3.1875 C 1.21875 -3.1875 1.234375 -3.203125 1.28125 -3.265625 C 1.390625 -3.421875 1.75 -3.96875 2.5625 -3.96875 C 3.078125 -3.96875 3.328125 -3.515625 3.40625 -3.328125 C 3.5625 -2.953125 3.59375 -2.578125 3.59375 -2.078125 C 3.59375 -1.71875 3.59375 -1.125 3.34375 -0.703125 C 3.109375 -0.3125 2.734375 -0.0625 2.28125 -0.0625 C 1.5625 -0.0625 0.984375 -0.59375 0.8125 -1.171875 C 0.84375 -1.171875 0.875 -1.15625 0.984375 -1.15625 C 1.3125 -1.15625 1.484375 -1.40625 1.484375 -1.640625 C 1.484375 -1.890625 1.3125 -2.140625 0.984375 -2.140625 C 0.84375 -2.140625 0.5 -2.0625 0.5 -1.609375 C 0.5 -0.75 1.1875 0.21875 2.296875 0.21875 C 3.453125 0.21875 4.46875 -0.734375 4.46875 -2 Z M 4.46875 -2 "/>
</g>
<g id="glyph-0-1">
<path d="M 2.9375 -6.375 C 2.9375 -6.625 2.9375 -6.640625 2.703125 -6.640625 C 2.078125 -6 1.203125 -6 0.890625 -6 L 0.890625 -5.6875 C 1.09375 -5.6875 1.671875 -5.6875 2.1875 -5.953125 L 2.1875 -0.78125 C 2.1875 -0.421875 2.15625 -0.3125 1.265625 -0.3125 L 0.953125 -0.3125 L 0.953125 0 C 1.296875 -0.03125 2.15625 -0.03125 2.5625 -0.03125 C 2.953125 -0.03125 3.828125 -0.03125 4.171875 0 L 4.171875 -0.3125 L 3.859375 -0.3125 C 2.953125 -0.3125 2.9375 -0.421875 2.9375 -0.78125 Z M 2.9375 -6.375 "/>
</g>
<g id="glyph-0-2">
<path d="M 4.578125 -3.1875 C 4.578125 -3.984375 4.53125 -4.78125 4.1875 -5.515625 C 3.734375 -6.484375 2.90625 -6.640625 2.5 -6.640625 C 1.890625 -6.640625 1.171875 -6.375 0.75 -5.453125 C 0.4375 -4.765625 0.390625 -3.984375 0.390625 -3.1875 C 0.390625 -2.4375 0.421875 -1.546875 0.84375 -0.78125 C 1.265625 0.015625 2 0.21875 2.484375 0.21875 C 3.015625 0.21875 3.78125 0.015625 4.21875 -0.9375 C 4.53125 -1.625 4.578125 -2.40625 4.578125 -3.1875 Z M 2.484375 0 C 2.09375 0 1.5 -0.25 1.328125 -1.203125 C 1.21875 -1.796875 1.21875 -2.71875 1.21875 -3.3125 C 1.21875 -3.953125 1.21875 -4.609375 1.296875 -5.140625 C 1.484375 -6.328125 2.234375 -6.421875 2.484375 -6.421875 C 2.8125 -6.421875 3.46875 -6.234375 3.65625 -5.25 C 3.765625 -4.6875 3.765625 -3.9375 3.765625 -3.3125 C 3.765625 -2.5625 3.765625 -1.890625 3.65625 -1.25 C 3.5 -0.296875 2.9375 0 2.484375 0 Z M 2.484375 0 "/>
</g>
<g id="glyph-0-3">
<path d="M 1.265625 -0.765625 L 2.328125 -1.796875 C 3.875 -3.171875 4.46875 -3.703125 4.46875 -4.703125 C 4.46875 -5.84375 3.578125 -6.640625 2.359375 -6.640625 C 1.234375 -6.640625 0.5 -5.71875 0.5 -4.828125 C 0.5 -4.28125 1 -4.28125 1.03125 -4.28125 C 1.203125 -4.28125 1.546875 -4.390625 1.546875 -4.8125 C 1.546875 -5.0625 1.359375 -5.328125 1.015625 -5.328125 C 0.9375 -5.328125 0.921875 -5.328125 0.890625 -5.3125 C 1.109375 -5.96875 1.65625 -6.328125 2.234375 -6.328125 C 3.140625 -6.328125 3.5625 -5.515625 3.5625 -4.703125 C 3.5625 -3.90625 3.078125 -3.125 2.515625 -2.5 L 0.609375 -0.375 C 0.5 -0.265625 0.5 -0.234375 0.5 0 L 4.203125 0 L 4.46875 -1.734375 L 4.234375 -1.734375 C 4.171875 -1.4375 4.109375 -1 4 -0.84375 C 3.9375 -0.765625 3.28125 -0.765625 3.0625 -0.765625 Z M 1.265625 -0.765625 "/>
</g>
<g id="glyph-0-4">
<path d="M 3.484375 -3.875 L 2.203125 -4.171875 C 1.578125 -4.328125 1.203125 -4.859375 1.203125 -5.4375 C 1.203125 -6.140625 1.734375 -6.75 2.515625 -6.75 C 4.171875 -6.75 4.390625 -5.109375 4.453125 -4.671875 C 4.46875 -4.609375 4.46875 -4.546875 4.578125 -4.546875 C 4.703125 -4.546875 4.703125 -4.59375 4.703125 -4.78125 L 4.703125 -6.78125 C 4.703125 -6.953125 4.703125 -7.03125 4.59375 -7.03125 C 4.53125 -7.03125 4.515625 -7.015625 4.453125 -6.890625 L 4.09375 -6.328125 C 3.796875 -6.625 3.390625 -7.03125 2.5 -7.03125 C 1.390625 -7.03125 0.5625 -6.15625 0.5625 -5.09375 C 0.5625 -4.265625 1.09375 -3.53125 1.859375 -3.265625 C 1.96875 -3.234375 2.484375 -3.109375 3.1875 -2.9375 C 3.453125 -2.875 3.75 -2.796875 4.03125 -2.4375 C 4.234375 -2.171875 4.34375 -1.84375 4.34375 -1.515625 C 4.34375 -0.8125 3.84375 -0.09375 3 -0.09375 C 2.71875 -0.09375 1.953125 -0.140625 1.421875 -0.625 C 0.84375 -1.171875 0.8125 -1.796875 0.8125 -2.15625 C 0.796875 -2.265625 0.71875 -2.265625 0.6875 -2.265625 C 0.5625 -2.265625 0.5625 -2.1875 0.5625 -2.015625 L 0.5625 -0.015625 C 0.5625 0.15625 0.5625 0.21875 0.671875 0.21875 C 0.734375 0.21875 0.75 0.203125 0.8125 0.09375 C 0.8125 0.078125 0.84375 0.046875 1.171875 -0.484375 C 1.484375 -0.140625 2.125 0.21875 3.015625 0.21875 C 4.171875 0.21875 4.96875 -0.75 4.96875 -1.859375 C 4.96875 -2.84375 4.3125 -3.671875 3.484375 -3.875 Z M 3.484375 -3.875 "/>
</g>
<g id="glyph-0-5">
<path d="M 3.890625 -0.78125 L 3.890625 0.109375 L 5.328125 0 L 5.328125 -0.3125 C 4.640625 -0.3125 4.5625 -0.375 4.5625 -0.875 L 4.5625 -4.40625 L 3.09375 -4.296875 L 3.09375 -3.984375 C 3.78125 -3.984375 3.875 -3.921875 3.875 -3.421875 L 3.875 -1.65625 C 3.875 -0.78125 3.390625 -0.109375 2.65625 -0.109375 C 1.828125 -0.109375 1.78125 -0.578125 1.78125 -1.09375 L 1.78125 -4.40625 L 0.3125 -4.296875 L 0.3125 -3.984375 C 1.09375 -3.984375 1.09375 -3.953125 1.09375 -3.078125 L 1.09375 -1.578125 C 1.09375 -0.796875 1.09375 0.109375 2.609375 0.109375 C 3.171875 0.109375 3.609375 -0.171875 3.890625 -0.78125 Z M 3.890625 -0.78125 "/>
</g>
<g id="glyph-0-6">
<path d="M 1.09375 -3.421875 L 1.09375 -0.75 C 1.09375 -0.3125 0.984375 -0.3125 0.3125 -0.3125 L 0.3125 0 C 0.671875 -0.015625 1.171875 -0.03125 1.453125 -0.03125 C 1.703125 -0.03125 2.21875 -0.015625 2.5625 0 L 2.5625 -0.3125 C 1.890625 -0.3125 1.78125 -0.3125 1.78125 -0.75 L 1.78125 -2.59375 C 1.78125 -3.625 2.5 -4.1875 3.125 -4.1875 C 3.765625 -4.1875 3.875 -3.65625 3.875 -3.078125 L 3.875 -0.75 C 3.875 -0.3125 3.765625 -0.3125 3.09375 -0.3125 L 3.09375 0 C 3.4375 -0.015625 3.953125 -0.03125 4.21875 -0.03125 C 4.46875 -0.03125 5 -0.015625 5.328125 0 L 5.328125 -0.3125 C 4.671875 -0.3125 4.5625 -0.3125 4.5625 -0.75 L 4.5625 -2.59375 C 4.5625 -3.625 5.265625 -4.1875 5.90625 -4.1875 C 6.53125 -4.1875 6.640625 -3.65625 6.640625 -3.078125 L 6.640625 -0.75 C 6.640625 -0.3125 6.53125 -0.3125 5.859375 -0.3125 L 5.859375 0 C 6.203125 -0.015625 6.71875 -0.03125 6.984375 -0.03125 C 7.25 -0.03125 7.765625 -0.015625 8.109375 0 L 8.109375 -0.3125 C 7.59375 -0.3125 7.34375 -0.3125 7.328125 -0.609375 L 7.328125 -2.515625 C 7.328125 -3.375 7.328125 -3.671875 7.015625 -4.03125 C 6.875 -4.203125 6.546875 -4.40625 5.96875 -4.40625 C 5.140625 -4.40625 4.6875 -3.8125 4.53125 -3.421875 C 4.390625 -4.296875 3.65625 -4.40625 3.203125 -4.40625 C 2.46875 -4.40625 2 -3.984375 1.71875 -3.359375 L 1.71875 -4.40625 L 0.3125 -4.296875 L 0.3125 -3.984375 C 1.015625 -3.984375 1.09375 -3.921875 1.09375 -3.421875 Z M 1.09375 -3.421875 "/>
</g>
<g id="glyph-1-0">
<path d="M 1.90625 -0.53125 C 1.90625 -0.8125 1.671875 -1.0625 1.390625 -1.0625 C 1.09375 -1.0625 0.859375 -0.8125 0.859375 -0.53125 C 0.859375 -0.234375 1.09375 0 1.390625 0 C 1.671875 0 1.90625 -0.234375 1.90625 -0.53125 Z M 1.90625 -0.53125 "/>
</g>
<g id="glyph-1-1">
<path d="M 0.875 -0.59375 C 0.84375 -0.4375 0.78125 -0.203125 0.78125 -0.15625 C 0.78125 0.015625 0.921875 0.109375 1.078125 0.109375 C 1.203125 0.109375 1.375 0.03125 1.453125 -0.171875 C 1.453125 -0.1875 1.578125 -0.65625 1.640625 -0.90625 L 1.859375 -1.796875 C 1.90625 -2.03125 1.96875 -2.25 2.03125 -2.46875 C 2.0625 -2.640625 2.140625 -2.9375 2.15625 -2.96875 C 2.296875 -3.28125 2.828125 -4.1875 3.78125 -4.1875 C 4.234375 -4.1875 4.3125 -3.8125 4.3125 -3.484375 C 4.3125 -2.875 3.828125 -1.59375 3.671875 -1.171875 C 3.578125 -0.9375 3.5625 -0.8125 3.5625 -0.703125 C 3.5625 -0.234375 3.921875 0.109375 4.390625 0.109375 C 5.328125 0.109375 5.6875 -1.34375 5.6875 -1.421875 C 5.6875 -1.53125 5.609375 -1.53125 5.578125 -1.53125 C 5.46875 -1.53125 5.46875 -1.5 5.421875 -1.34375 C 5.21875 -0.671875 4.890625 -0.109375 4.40625 -0.109375 C 4.234375 -0.109375 4.171875 -0.203125 4.171875 -0.4375 C 4.171875 -0.6875 4.25 -0.921875 4.34375 -1.140625 C 4.53125 -1.671875 4.953125 -2.765625 4.953125 -3.34375 C 4.953125 -4 4.53125 -4.40625 3.8125 -4.40625 C 2.90625 -4.40625 2.421875 -3.765625 2.25 -3.53125 C 2.203125 -4.09375 1.796875 -4.40625 1.328125 -4.40625 C 0.875 -4.40625 0.6875 -4.015625 0.59375 -3.84375 C 0.421875 -3.5 0.296875 -2.90625 0.296875 -2.875 C 0.296875 -2.765625 0.390625 -2.765625 0.40625 -2.765625 C 0.515625 -2.765625 0.515625 -2.78125 0.578125 -3 C 0.75 -3.703125 0.953125 -4.1875 1.3125 -4.1875 C 1.5 -4.1875 1.609375 -4.0625 1.609375 -3.734375 C 1.609375 -3.515625 1.578125 -3.40625 1.453125 -2.890625 Z M 0.875 -0.59375 "/>
</g>
<g id="glyph-2-0">
<path d="M 2.328125 -4.4375 C 2.328125 -4.625 2.328125 -4.625 2.125 -4.625 C 1.671875 -4.1875 1.046875 -4.1875 0.765625 -4.1875 L 0.765625 -3.9375 C 0.921875 -3.9375 1.390625 -3.9375 1.765625 -4.125 L 1.765625 -0.578125 C 1.765625 -0.34375 1.765625 -0.25 1.078125 -0.25 L 0.8125 -0.25 L 0.8125 0 C 0.9375 0 1.796875 -0.03125 2.046875 -0.03125 C 2.265625 -0.03125 3.140625 0 3.296875 0 L 3.296875 -0.25 L 3.03125 -0.25 C 2.328125 -0.25 2.328125 -0.34375 2.328125 -0.578125 Z M 2.328125 -4.4375 "/>
</g>
<g id="glyph-2-1">
<path d="M 1.90625 -2.328125 C 2.453125 -2.328125 2.84375 -1.953125 2.84375 -1.203125 C 2.84375 -0.34375 2.328125 -0.078125 1.9375 -0.078125 C 1.65625 -0.078125 1.03125 -0.15625 0.75 -0.578125 C 1.078125 -0.578125 1.15625 -0.8125 1.15625 -0.96875 C 1.15625 -1.1875 0.984375 -1.34375 0.765625 -1.34375 C 0.578125 -1.34375 0.375 -1.21875 0.375 -0.9375 C 0.375 -0.28125 1.09375 0.140625 1.9375 0.140625 C 2.90625 0.140625 3.578125 -0.515625 3.578125 -1.203125 C 3.578125 -1.75 3.140625 -2.296875 2.375 -2.453125 C 3.09375 -2.71875 3.359375 -3.234375 3.359375 -3.671875 C 3.359375 -4.21875 2.734375 -4.625 1.953125 -4.625 C 1.1875 -4.625 0.59375 -4.25 0.59375 -3.6875 C 0.59375 -3.453125 0.75 -3.328125 0.953125 -3.328125 C 1.171875 -3.328125 1.3125 -3.484375 1.3125 -3.671875 C 1.3125 -3.875 1.171875 -4.03125 0.953125 -4.046875 C 1.203125 -4.34375 1.671875 -4.421875 1.9375 -4.421875 C 2.25 -4.421875 2.6875 -4.265625 2.6875 -3.671875 C 2.6875 -3.375 2.59375 -3.046875 2.40625 -2.84375 C 2.1875 -2.578125 1.984375 -2.5625 1.640625 -2.53125 C 1.46875 -2.515625 1.453125 -2.515625 1.421875 -2.515625 C 1.40625 -2.515625 1.34375 -2.5 1.34375 -2.421875 C 1.34375 -2.328125 1.40625 -2.328125 1.53125 -2.328125 Z M 1.90625 -2.328125 "/>
</g>
<g id="glyph-3-0">
<path d="M 3.421875 -5.5 C 3.46875 -5.71875 3.5 -5.8125 3.65625 -5.84375 C 3.734375 -5.84375 4.03125 -5.84375 4.21875 -5.84375 C 4.9375 -5.84375 5.921875 -5.84375 5.921875 -4.9375 C 5.921875 -4.609375 5.78125 -3.9375 5.28125 -3.546875 C 5.0625 -3.40625 4.609375 -3.171875 3.890625 -3.171875 L 2.828125 -3.171875 Z M 4.8125 -3.046875 C 6.03125 -3.359375 6.78125 -4.03125 6.78125 -4.765625 C 6.78125 -5.546875 5.921875 -6.125 4.734375 -6.125 L 2.140625 -6.125 C 1.96875 -6.125 1.859375 -6.125 1.859375 -5.96875 C 1.859375 -5.84375 1.953125 -5.84375 2.140625 -5.84375 C 2.171875 -5.84375 2.328125 -5.84375 2.46875 -5.828125 C 2.625 -5.8125 2.6875 -5.796875 2.6875 -5.6875 C 2.6875 -5.65625 2.6875 -5.609375 2.65625 -5.515625 L 1.4375 -0.6875 C 1.359375 -0.359375 1.34375 -0.28125 0.671875 -0.28125 C 0.5 -0.28125 0.40625 -0.28125 0.40625 -0.109375 C 0.40625 -0.015625 0.46875 0 0.53125 0 C 0.6875 0 0.953125 -0.015625 1.109375 -0.015625 C 1.296875 -0.03125 1.3125 -0.03125 1.65625 -0.03125 C 1.953125 -0.03125 1.96875 -0.03125 2.234375 -0.015625 C 2.40625 -0.015625 2.640625 0 2.8125 0 C 2.875 0 2.984375 0 2.984375 -0.15625 C 2.984375 -0.28125 2.890625 -0.28125 2.703125 -0.28125 C 2.671875 -0.28125 2.515625 -0.28125 2.375 -0.296875 C 2.171875 -0.328125 2.15625 -0.359375 2.15625 -0.4375 C 2.15625 -0.46875 2.15625 -0.484375 2.203125 -0.640625 L 2.78125 -2.953125 L 3.890625 -2.953125 C 4.6875 -2.953125 4.890625 -2.484375 4.890625 -2.140625 C 4.890625 -2.078125 4.890625 -2.015625 4.84375 -1.828125 C 4.625 -1 4.625 -0.921875 4.625 -0.78125 C 4.625 0.03125 5.390625 0.203125 5.84375 0.203125 C 6.625 0.203125 6.953125 -0.703125 6.953125 -0.859375 C 6.953125 -0.921875 6.890625 -0.953125 6.828125 -0.953125 C 6.734375 -0.953125 6.734375 -0.921875 6.6875 -0.8125 C 6.53125 -0.34375 6.203125 -0.03125 5.875 -0.03125 C 5.53125 -0.03125 5.515625 -0.296875 5.515625 -0.5625 C 5.515625 -0.78125 5.578125 -1.296875 5.59375 -1.359375 C 5.609375 -1.5 5.65625 -1.859375 5.65625 -2 C 5.65625 -2.515625 5.328125 -2.859375 4.8125 -3.046875 Z M 4.8125 -3.046875 "/>
</g>
<g id="glyph-3-1">
<path d="M 3.421875 -5.421875 C 3.5 -5.765625 3.53125 -5.84375 4.359375 -5.84375 C 4.609375 -5.84375 4.6875 -5.84375 4.6875 -6.015625 C 4.6875 -6.125 4.578125 -6.125 4.546875 -6.125 C 4.34375 -6.125 4.109375 -6.109375 3.890625 -6.109375 C 3.671875 -6.109375 3.46875 -6.09375 3.25 -6.09375 C 3.046875 -6.09375 2.828125 -6.09375 2.625 -6.109375 C 2.46875 -6.109375 2.1875 -6.125 2.03125 -6.125 C 1.984375 -6.125 1.859375 -6.125 1.859375 -5.96875 C 1.859375 -5.84375 1.9375 -5.84375 2.125 -5.84375 C 2.15625 -5.84375 2.328125 -5.84375 2.46875 -5.828125 C 2.625 -5.8125 2.6875 -5.796875 2.6875 -5.6875 C 2.6875 -5.65625 2.671875 -5.609375 2.640625 -5.515625 L 1.4375 -0.6875 C 1.359375 -0.359375 1.34375 -0.28125 0.65625 -0.28125 C 0.5 -0.28125 0.390625 -0.28125 0.390625 -0.109375 C 0.390625 0 0.484375 0 0.640625 0 L 4.875 0 C 5.09375 0 5.109375 -0.015625 5.171875 -0.203125 C 5.265625 -0.421875 5.90625 -2.125 5.90625 -2.203125 C 5.90625 -2.265625 5.84375 -2.3125 5.78125 -2.3125 C 5.6875 -2.3125 5.6875 -2.28125 5.609375 -2.09375 C 5.3125 -1.296875 4.921875 -0.28125 3.34375 -0.28125 L 2.453125 -0.28125 C 2.328125 -0.28125 2.3125 -0.28125 2.28125 -0.28125 C 2.1875 -0.296875 2.15625 -0.3125 2.15625 -0.375 C 2.15625 -0.390625 2.15625 -0.40625 2.203125 -0.578125 Z M 3.421875 -5.421875 "/>
</g>
<g id="glyph-3-2">
<path d="M 1.625 -1.046875 C 1.1875 -0.328125 0.796875 -0.3125 0.4375 -0.28125 C 0.375 -0.265625 0.328125 -0.203125 0.328125 -0.109375 C 0.328125 -0.0625 0.375 0 0.453125 0 C 0.625 0 1.046875 -0.03125 1.21875 -0.03125 C 1.421875 -0.03125 1.90625 0 2.09375 0 C 2.15625 0 2.265625 0 2.265625 -0.15625 C 2.265625 -0.265625 2.15625 -0.28125 2.140625 -0.28125 C 2.046875 -0.28125 1.71875 -0.3125 1.71875 -0.578125 C 1.71875 -0.703125 1.8125 -0.875 1.84375 -0.921875 L 2.546875 -2.078125 L 4.890625 -2.078125 C 4.921875 -1.859375 4.9375 -1.5625 4.96875 -1.34375 C 5 -0.984375 5.0625 -0.59375 5.0625 -0.5625 C 5.0625 -0.4375 4.9375 -0.28125 4.40625 -0.28125 C 4.328125 -0.28125 4.203125 -0.28125 4.203125 -0.109375 C 4.203125 -0.015625 4.28125 0 4.34375 0 C 4.515625 0 4.734375 -0.015625 4.90625 -0.015625 C 5.078125 -0.015625 5.296875 -0.03125 5.4375 -0.03125 C 5.734375 -0.03125 5.765625 -0.03125 5.96875 -0.015625 C 6.109375 -0.015625 6.328125 0 6.46875 0 C 6.515625 0 6.640625 0 6.640625 -0.15625 C 6.640625 -0.28125 6.53125 -0.28125 6.4375 -0.28125 C 5.890625 -0.28125 5.890625 -0.34375 5.859375 -0.59375 L 5.234375 -6.171875 C 5.203125 -6.375 5.203125 -6.421875 5.046875 -6.421875 C 4.921875 -6.421875 4.875 -6.359375 4.796875 -6.25 Z M 2.71875 -2.34375 L 4.53125 -5.3125 L 4.859375 -2.34375 Z M 2.71875 -2.34375 "/>
</g>
<g id="glyph-3-3">
<path d="M 4.03125 -6.375 C 4.09375 -6.5 4.09375 -6.515625 4.09375 -6.53125 C 4.09375 -6.640625 4 -6.734375 3.90625 -6.734375 C 3.78125 -6.734375 3.734375 -6.65625 3.734375 -6.640625 L 0.5625 1.890625 C 0.515625 2.015625 0.515625 2.03125 0.515625 2.046875 C 0.515625 2.15625 0.59375 2.25 0.703125 2.25 C 0.796875 2.25 0.859375 2.203125 0.921875 2.03125 Z M 4.03125 -6.375 "/>
</g>
<g id="glyph-4-0">
<path d="M 1.75 -2.078125 C 1.71875 -2.53125 1.296875 -2.640625 1.078125 -2.640625 C 0.84375 -2.640625 0.6875 -2.5 0.59375 -2.3125 C 0.4375 -2.0625 0.359375 -1.75 0.359375 -1.71875 C 0.359375 -1.65625 0.421875 -1.640625 0.46875 -1.640625 C 0.5625 -1.640625 0.578125 -1.671875 0.609375 -1.765625 C 0.71875 -2.25 0.875 -2.4375 1.0625 -2.4375 C 1.28125 -2.4375 1.28125 -2.203125 1.28125 -2.140625 C 1.28125 -2.046875 1.21875 -1.796875 1.171875 -1.640625 C 1.125 -1.46875 1.078125 -1.234375 1.046875 -1.09375 C 1 -0.953125 0.96875 -0.796875 0.921875 -0.640625 C 0.875 -0.46875 0.8125 -0.171875 0.8125 -0.140625 C 0.8125 0 0.90625 0.0625 1.015625 0.0625 C 1.125 0.0625 1.234375 -0.015625 1.28125 -0.109375 C 1.28125 -0.140625 1.34375 -0.34375 1.375 -0.46875 L 1.5 -1 C 1.546875 -1.15625 1.5625 -1.265625 1.609375 -1.40625 C 1.65625 -1.609375 1.859375 -1.921875 2.09375 -2.140625 C 2.203125 -2.265625 2.46875 -2.4375 2.78125 -2.4375 C 3.171875 -2.4375 3.171875 -2.140625 3.171875 -2.015625 C 3.171875 -1.671875 2.921875 -1.03125 2.8125 -0.765625 C 2.765625 -0.65625 2.734375 -0.5625 2.734375 -0.453125 C 2.734375 -0.15625 3 0.0625 3.328125 0.0625 C 3.9375 0.0625 4.234375 -0.734375 4.234375 -0.859375 C 4.234375 -0.875 4.234375 -0.953125 4.125 -0.953125 C 4.046875 -0.953125 4.03125 -0.921875 4 -0.796875 C 3.90625 -0.484375 3.65625 -0.140625 3.34375 -0.140625 C 3.234375 -0.140625 3.1875 -0.234375 3.1875 -0.359375 C 3.1875 -0.46875 3.234375 -0.578125 3.28125 -0.703125 C 3.375 -0.9375 3.640625 -1.609375 3.640625 -1.9375 C 3.640625 -2.4375 3.265625 -2.640625 2.8125 -2.640625 C 2.515625 -2.640625 2.140625 -2.546875 1.75 -2.078125 Z M 1.75 -2.078125 "/>
</g>
<g id="glyph-5-0">
<path d="M 6.34375 -2.96875 C 6.46875 -2.96875 6.640625 -2.96875 6.640625 -3.15625 C 6.640625 -3.359375 6.453125 -3.359375 6.3125 -3.359375 L 0.84375 -3.359375 C 0.703125 -3.359375 0.515625 -3.359375 0.515625 -3.15625 C 0.515625 -2.96875 0.6875 -2.96875 0.8125 -2.96875 Z M 6.3125 -1.140625 C 6.453125 -1.140625 6.640625 -1.140625 6.640625 -1.34375 C 6.640625 -1.53125 6.46875 -1.53125 6.34375 -1.53125 L 0.8125 -1.53125 C 0.6875 -1.53125 0.515625 -1.53125 0.515625 -1.34375 C 0.515625 -1.140625 0.703125 -1.140625 0.84375 -1.140625 Z M 6.3125 -1.140625 "/>
</g>
<g id="glyph-5-1">
<path d="M 2.71875 -5.734375 C 2.71875 -5.953125 2.71875 -5.96875 2.5 -5.96875 C 1.9375 -5.40625 1.109375 -5.40625 0.828125 -5.40625 L 0.828125 -5.125 C 1 -5.125 1.546875 -5.125 2.03125 -5.359375 L 2.03125 -0.71875 C 2.03125 -0.390625 2.015625 -0.28125 1.171875 -0.28125 L 0.890625 -0.28125 L 0.890625 0 C 1.203125 -0.03125 2.015625 -0.03125 2.375 -0.03125 C 2.75 -0.03125 3.546875 -0.03125 3.875 0 L 3.875 -0.28125 L 3.59375 -0.28125 C 2.75 -0.28125 2.71875 -0.390625 2.71875 -0.71875 Z M 2.71875 -5.734375 "/>
</g>
<g id="glyph-5-2">
<path d="M 2.734375 -3.15625 C 3.5625 -3.46875 3.96875 -4.125 3.96875 -4.75 C 3.96875 -5.4375 3.203125 -5.96875 2.265625 -5.96875 C 1.34375 -5.96875 0.640625 -5.4375 0.640625 -4.765625 C 0.640625 -4.46875 0.828125 -4.296875 1.09375 -4.296875 C 1.359375 -4.296875 1.546875 -4.484375 1.546875 -4.75 C 1.546875 -5.0625 1.328125 -5.1875 1.015625 -5.1875 C 1.25 -5.5625 1.796875 -5.75 2.25 -5.75 C 2.984375 -5.75 3.125 -5.15625 3.125 -4.734375 C 3.125 -4.46875 3.078125 -4.03125 2.859375 -3.6875 C 2.578125 -3.296875 2.265625 -3.28125 2 -3.25 C 1.78125 -3.234375 1.765625 -3.234375 1.6875 -3.234375 C 1.609375 -3.234375 1.53125 -3.21875 1.53125 -3.125 C 1.53125 -3 1.609375 -3 1.765625 -3 L 2.171875 -3 C 2.953125 -3 3.296875 -2.375 3.296875 -1.53125 C 3.296875 -0.375 2.6875 -0.046875 2.234375 -0.046875 C 2.0625 -0.046875 1.1875 -0.09375 0.796875 -0.765625 C 1.109375 -0.71875 1.359375 -0.9375 1.359375 -1.25 C 1.359375 -1.546875 1.140625 -1.734375 0.875 -1.734375 C 0.65625 -1.734375 0.390625 -1.59375 0.390625 -1.21875 C 0.390625 -0.421875 1.21875 0.203125 2.265625 0.203125 C 3.375 0.203125 4.21875 -0.609375 4.21875 -1.53125 C 4.21875 -2.3125 3.59375 -2.96875 2.734375 -3.15625 Z M 2.734375 -3.15625 "/>
</g>
</g>
<clipPath id="clip-0">
<path clip-rule="nonzero" d="M 26.675781 18.628906 L 265.308594 18.628906 L 265.308594 92 L 26.675781 92 Z M 26.675781 18.628906 "/>
</clipPath>
<clipPath id="clip-1">
<path clip-rule="nonzero" d="M 26.675781 81 L 265.308594 81 L 265.308594 143.875 L 26.675781 143.875 Z M 26.675781 81 "/>
</clipPath>
<clipPath id="clip-2">
<path clip-rule="nonzero" d="M 26.675781 86 L 265.308594 86 L 265.308594 87 L 26.675781 87 Z M 26.675781 86 "/>
</clipPath>
</defs>
<path fill="none" stroke-width="0.19925" stroke-linecap="butt" stroke-linejoin="miter" stroke="rgb(50%, 50%, 50%)" stroke-opacity="1" stroke-miterlimit="10" d="M 47.725344 44.843 L 47.725344 49.093 M 95.451906 44.843 L 95.451906 49.093 M 143.178469 44.843 L 143.178469 49.093 M 190.905031 44.843 L 190.905031 49.093 M 238.631594 44.843 L 238.631594 49.093 " transform="matrix(1, 0, 0, -1, 26.677, 190.843)"/>
<path fill="none" stroke-width="0.19925" stroke-linecap="butt" stroke-linejoin="miter" stroke="rgb(50%, 50%, 50%)" stroke-opacity="1" stroke-miterlimit="10" d="M -2.126219 62.62425 L 2.127687 62.62425 M -2.126219 104.370344 L 2.127687 104.370344 M -2.126219 156.56175 L 2.127687 156.56175 " transform="matrix(1, 0, 0, -1, 26.677, 190.843)"/>
<path fill="none" stroke-width="0.3985" stroke-linecap="butt" stroke-linejoin="miter" stroke="rgb(0%, 0%, 0%)" stroke-opacity="1" stroke-miterlimit="10" d="M -0.00121875 46.968 L 236.639406 46.968 " transform="matrix(1, 0, 0, -1, 26.677, 190.843)"/>
<path fill-rule="nonzero" fill="rgb(0%, 0%, 0%)" fill-opacity="1" d="M 265.308594 143.875 L 262.121094 142.28125 L 263.316406 143.875 L 262.121094 145.46875 "/>
<path fill="none" stroke-width="0.3985" stroke-linecap="butt" stroke-linejoin="miter" stroke="rgb(0%, 0%, 0%)" stroke-opacity="1" stroke-miterlimit="10" d="M -0.00121875 46.968 L -0.00121875 170.221906 " transform="matrix(1, 0, 0, -1, 26.677, 190.843)"/>
<path fill-rule="nonzero" fill="rgb(0%, 0%, 0%)" fill-opacity="1" d="M 26.675781 18.628906 L 25.082031 21.816406 L 26.675781 20.621094 L 28.269531 21.816406 "/>
<g fill="rgb(0%, 0%, 0%)" fill-opacity="1">
<use xlink:href="#glyph-0-0" x="71.913" y="155.942"/>
</g>
<g fill="rgb(0%, 0%, 0%)" fill-opacity="1">
<use xlink:href="#glyph-0-1" x="117.148" y="155.942"/>
<use xlink:href="#glyph-0-2" x="122.1293" y="155.942"/>
</g>
<g fill="rgb(0%, 0%, 0%)" fill-opacity="1">
<use xlink:href="#glyph-0-1" x="164.874" y="155.942"/>
<use xlink:href="#glyph-0-0" x="169.8553" y="155.942"/>
</g>
<g fill="rgb(0%, 0%, 0%)" fill-opacity="1">
<use xlink:href="#glyph-0-3" x="212.6" y="155.942"/>
<use xlink:href="#glyph-0-2" x="217.5813" y="155.942"/>
</g>
<g fill="rgb(0%, 0%, 0%)" fill-opacity="1">
<use xlink:href="#glyph-0-3" x="260.326" y="155.942"/>
<use xlink:href="#glyph-0-0" x="265.3073" y="155.942"/>
</g>
<g fill="rgb(0%, 0%, 0%)" fill-opacity="1">
<use xlink:href="#glyph-0-2" x="8.302" y="131.43"/>
</g>
<g fill="rgb(0%, 0%, 0%)" fill-opacity="1">
<use xlink:href="#glyph-1-0" x="13.2833" y="131.43"/>
</g>
<g fill="rgb(0%, 0%, 0%)" fill-opacity="1">
<use xlink:href="#glyph-0-3" x="16.05091" y="131.43"/>
</g>
<g fill="rgb(0%, 0%, 0%)" fill-opacity="1">
<use xlink:href="#glyph-2-0" x="15.865" y="85.041"/>
</g>
<path fill="none" stroke-width="0.398" stroke-linecap="butt" stroke-linejoin="miter" stroke="rgb(0%, 0%, 0%)" stroke-opacity="1" stroke-miterlimit="10" d="M -0.00171875 0.00034375 L 3.970937 0.00034375 " transform="matrix(1, 0, 0, -1, 15.865, 86.473)"/>
<g fill="rgb(0%, 0%, 0%)" fill-opacity="1">
<use xlink:href="#glyph-2-1" x="15.865" y="92.399"/>
</g>
<g fill="rgb(0%, 0%, 0%)" fill-opacity="1">
<use xlink:href="#glyph-0-2" x="8.302" y="37.496"/>
</g>
<g fill="rgb(0%, 0%, 0%)" fill-opacity="1">
<use xlink:href="#glyph-1-0" x="13.2833" y="37.496"/>
</g>
<g fill="rgb(0%, 0%, 0%)" fill-opacity="1">
<use xlink:href="#glyph-0-0" x="16.05091" y="37.496"/>
</g>
<g clip-path="url(#clip-0)">
<path fill="none" stroke-width="0.79701" stroke-linecap="butt" stroke-linejoin="miter" stroke="rgb(35.68573%, 64.312744%, 64.312744%)" stroke-opacity="1" stroke-miterlimit="10" d="M 9.545656 313.120344 L 19.092531 195.698469 L 28.6355 162.354719 L 38.182375 146.776594 L 47.725344 137.772687 L 57.272219 131.917219 L 66.819094 127.803937 L 76.362062 124.760969 L 85.908937 122.413312 L 95.451906 120.550031 L 104.998781 119.034406 L 114.545656 117.784406 L 124.088625 116.725812 L 133.6355 115.823469 L 143.178469 115.042219 L 152.725344 114.362531 L 162.272219 113.764875 L 171.815188 113.233625 L 181.362063 112.757062 L 190.905031 112.331281 L 200.451906 111.948469 L 209.998781 111.596906 L 219.54175 111.284406 L 229.088625 110.987531 " transform="matrix(1, 0, 0, -1, 26.677, 190.843)"/>
</g>
<g clip-path="url(#clip-1)">
<path fill="none" stroke-width="0.79701" stroke-linecap="butt" stroke-linejoin="miter" stroke="rgb(83.137512%, 65.879822%, 32.548523%)" stroke-opacity="1" stroke-miterlimit="10" d="M 9.545656 -0.00075 L 19.092531 39.139875 L 28.6355 57.983625 L 38.182375 68.495344 L 47.725344 75.147687 L 57.272219 79.729719 L 66.819094 83.073469 L 76.362062 85.620344 L 85.908937 87.620344 L 95.451906 89.237531 L 104.998781 90.573469 L 114.545656 91.690656 L 124.088625 92.639875 L 133.6355 93.456281 L 143.178469 94.167219 L 152.725344 94.792219 L 162.272219 95.343 L 171.815188 95.835187 L 181.362063 96.276594 L 190.905031 96.675031 L 200.451906 97.034406 L 209.998781 97.366437 L 219.54175 97.663312 L 229.088625 97.940656 " transform="matrix(1, 0, 0, -1, 26.677, 190.843)"/>
</g>
<g clip-path="url(#clip-2)">
<path fill="none" stroke-width="0.79701" stroke-linecap="butt" stroke-linejoin="miter" stroke="rgb(78.823853%, 48.234558%, 51.763916%)" stroke-opacity="1" stroke-dasharray="2.98883 2.98883" stroke-miterlimit="10" d="M -0.00121875 104.370344 L 238.631594 104.370344 " transform="matrix(1, 0, 0, -1, 26.677, 190.843)"/>
</g>
<path fill-rule="nonzero" fill="rgb(35.68573%, 64.312744%, 64.312744%)" fill-opacity="1" stroke-width="0.79701" stroke-linecap="butt" stroke-linejoin="miter" stroke="rgb(35.68573%, 64.312744%, 64.312744%)" stroke-opacity="1" stroke-miterlimit="10" d="M 30.131594 162.354719 C 30.131594 163.182844 29.459719 163.850812 28.6355 163.850812 C 27.811281 163.850812 27.143312 163.182844 27.143312 162.354719 C 27.143312 161.5305 27.811281 160.862531 28.6355 160.862531 C 29.459719 160.862531 30.131594 161.5305 30.131594 162.354719 Z M 30.131594 162.354719 " transform="matrix(1, 0, 0, -1, 26.677, 190.843)"/>
<path fill-rule="nonzero" fill="rgb(35.68573%, 64.312744%, 64.312744%)" fill-opacity="1" stroke-width="0.79701" stroke-linecap="butt" stroke-linejoin="miter" stroke="rgb(35.68573%, 64.312744%, 64.312744%)" stroke-opacity="1" stroke-miterlimit="10" d="M 39.674562 146.776594 C 39.674562 147.600812 39.006594 148.268781 38.182375 148.268781 C 37.35425 148.268781 36.686281 147.600812 36.686281 146.776594 C 36.686281 145.948469 37.35425 145.2805 38.182375 145.2805 C 39.006594 145.2805 39.674562 145.948469 39.674562 146.776594 Z M 39.674562 146.776594 " transform="matrix(1, 0, 0, -1, 26.677, 190.843)"/>
<path fill-rule="nonzero" fill="rgb(35.68573%, 64.312744%, 64.312744%)" fill-opacity="1" stroke-width="0.79701" stroke-linecap="butt" stroke-linejoin="miter" stroke="rgb(35.68573%, 64.312744%, 64.312744%)" stroke-opacity="1" stroke-miterlimit="10" d="M 49.221437 137.772687 C 49.221437 138.596906 48.553469 139.268781 47.725344 139.268781 C 46.901125 139.268781 46.233156 138.596906 46.233156 137.772687 C 46.233156 136.948469 46.901125 136.276594 47.725344 136.276594 C 48.553469 136.276594 49.221437 136.948469 49.221437 137.772687 Z M 49.221437 137.772687 " transform="matrix(1, 0, 0, -1, 26.677, 190.843)"/>
<path fill-rule="nonzero" fill="rgb(35.68573%, 64.312744%, 64.312744%)" fill-opacity="1" stroke-width="0.79701" stroke-linecap="butt" stroke-linejoin="miter" stroke="rgb(35.68573%, 64.312744%, 64.312744%)" stroke-opacity="1" stroke-miterlimit="10" d="M 58.764406 131.917219 C 58.764406 132.741437 58.096437 133.409406 57.272219 133.409406 C 56.448 133.409406 55.776125 132.741437 55.776125 131.917219 C 55.776125 131.089094 56.448 130.421125 57.272219 130.421125 C 58.096437 130.421125 58.764406 131.089094 58.764406 131.917219 Z M 58.764406 131.917219 " transform="matrix(1, 0, 0, -1, 26.677, 190.843)"/>
<path fill-rule="nonzero" fill="rgb(35.68573%, 64.312744%, 64.312744%)" fill-opacity="1" stroke-width="0.79701" stroke-linecap="butt" stroke-linejoin="miter" stroke="rgb(35.68573%, 64.312744%, 64.312744%)" stroke-opacity="1" stroke-miterlimit="10" d="M 68.311281 127.803937 C 68.311281 128.628156 67.643312 129.296125 66.819094 129.296125 C 65.990969 129.296125 65.323 128.628156 65.323 127.803937 C 65.323 126.975812 65.990969 126.307844 66.819094 126.307844 C 67.643312 126.307844 68.311281 126.975812 68.311281 127.803937 Z M 68.311281 127.803937 " transform="matrix(1, 0, 0, -1, 26.677, 190.843)"/>
<path fill-rule="nonzero" fill="rgb(35.68573%, 64.312744%, 64.312744%)" fill-opacity="1" stroke-width="0.79701" stroke-linecap="butt" stroke-linejoin="miter" stroke="rgb(35.68573%, 64.312744%, 64.312744%)" stroke-opacity="1" stroke-miterlimit="10" d="M 77.858156 124.760969 C 77.858156 125.585187 77.186281 126.253156 76.362062 126.253156 C 75.537844 126.253156 74.869875 125.585187 74.869875 124.760969 C 74.869875 123.932844 75.537844 123.264875 76.362062 123.264875 C 77.186281 123.264875 77.858156 123.932844 77.858156 124.760969 Z M 77.858156 124.760969 " transform="matrix(1, 0, 0, -1, 26.677, 190.843)"/>
<path fill-rule="nonzero" fill="rgb(35.68573%, 64.312744%, 64.312744%)" fill-opacity="1" stroke-width="0.79701" stroke-linecap="butt" stroke-linejoin="miter" stroke="rgb(35.68573%, 64.312744%, 64.312744%)" stroke-opacity="1" stroke-miterlimit="10" d="M 87.401125 122.413312 C 87.401125 123.241437 86.733156 123.909406 85.908937 123.909406 C 85.080812 123.909406 84.412844 123.241437 84.412844 122.413312 C 84.412844 121.589094 85.080812 120.921125 85.908937 120.921125 C 86.733156 120.921125 87.401125 121.589094 87.401125 122.413312 Z M 87.401125 122.413312 " transform="matrix(1, 0, 0, -1, 26.677, 190.843)"/>
<path fill-rule="nonzero" fill="rgb(35.68573%, 64.312744%, 64.312744%)" fill-opacity="1" stroke-width="0.79701" stroke-linecap="butt" stroke-linejoin="miter" stroke="rgb(35.68573%, 64.312744%, 64.312744%)" stroke-opacity="1" stroke-miterlimit="10" d="M 96.948 120.550031 C 96.948 121.378156 96.280031 122.046125 95.451906 122.046125 C 94.627687 122.046125 93.959719 121.378156 93.959719 120.550031 C 93.959719 119.725812 94.627687 119.057844 95.451906 119.057844 C 96.280031 119.057844 96.948 119.725812 96.948 120.550031 Z M 96.948 120.550031 " transform="matrix(1, 0, 0, -1, 26.677, 190.843)"/>
<path fill-rule="nonzero" fill="rgb(35.68573%, 64.312744%, 64.312744%)" fill-opacity="1" stroke-width="0.79701" stroke-linecap="butt" stroke-linejoin="miter" stroke="rgb(35.68573%, 64.312744%, 64.312744%)" stroke-opacity="1" stroke-miterlimit="10" d="M 106.494875 119.034406 C 106.494875 119.862531 105.823 120.5305 104.998781 120.5305 C 104.174562 120.5305 103.502687 119.862531 103.502687 119.034406 C 103.502687 118.210187 104.174562 117.542219 104.998781 117.542219 C 105.823 117.542219 106.494875 118.210187 106.494875 119.034406 Z M 106.494875 119.034406 " transform="matrix(1, 0, 0, -1, 26.677, 190.843)"/>
<path fill-rule="nonzero" fill="rgb(35.68573%, 64.312744%, 64.312744%)" fill-opacity="1" stroke-width="0.79701" stroke-linecap="butt" stroke-linejoin="miter" stroke="rgb(35.68573%, 64.312744%, 64.312744%)" stroke-opacity="1" stroke-miterlimit="10" d="M 116.037844 117.784406 C 116.037844 118.608625 115.369875 119.276594 114.545656 119.276594 C 113.717531 119.276594 113.049562 118.608625 113.049562 117.784406 C 113.049562 116.956281 113.717531 116.288312 114.545656 116.288312 C 115.369875 116.288312 116.037844 116.956281 116.037844 117.784406 Z M 116.037844 117.784406 " transform="matrix(1, 0, 0, -1, 26.677, 190.843)"/>
<path fill-rule="nonzero" fill="rgb(35.68573%, 64.312744%, 64.312744%)" fill-opacity="1" stroke-width="0.79701" stroke-linecap="butt" stroke-linejoin="miter" stroke="rgb(35.68573%, 64.312744%, 64.312744%)" stroke-opacity="1" stroke-miterlimit="10" d="M 125.584719 116.725812 C 125.584719 117.550031 124.912844 118.218 124.088625 118.218 C 123.264406 118.218 122.596437 117.550031 122.596437 116.725812 C 122.596437 115.897687 123.264406 115.229719 124.088625 115.229719 C 124.912844 115.229719 125.584719 115.897687 125.584719 116.725812 Z M 125.584719 116.725812 " transform="matrix(1, 0, 0, -1, 26.677, 190.843)"/>
<path fill-rule="nonzero" fill="rgb(35.68573%, 64.312744%, 64.312744%)" fill-opacity="1" stroke-width="0.79701" stroke-linecap="butt" stroke-linejoin="miter" stroke="rgb(35.68573%, 64.312744%, 64.312744%)" stroke-opacity="1" stroke-miterlimit="10" d="M 135.127688 115.823469 C 135.127688 116.647687 134.459719 117.315656 133.6355 117.315656 C 132.807375 117.315656 132.139406 116.647687 132.139406 115.823469 C 132.139406 114.995344 132.807375 114.327375 133.6355 114.327375 C 134.459719 114.327375 135.127688 114.995344 135.127688 115.823469 Z M 135.127688 115.823469 " transform="matrix(1, 0, 0, -1, 26.677, 190.843)"/>
<path fill-rule="nonzero" fill="rgb(35.68573%, 64.312744%, 64.312744%)" fill-opacity="1" stroke-width="0.79701" stroke-linecap="butt" stroke-linejoin="miter" stroke="rgb(35.68573%, 64.312744%, 64.312744%)" stroke-opacity="1" stroke-miterlimit="10" d="M 144.674563 115.042219 C 144.674563 115.866437 144.006594 116.538312 143.178469 116.538312 C 142.35425 116.538312 141.686281 115.866437 141.686281 115.042219 C 141.686281 114.218 142.35425 113.546125 143.178469 113.546125 C 144.006594 113.546125 144.674563 114.218 144.674563 115.042219 Z M 144.674563 115.042219 " transform="matrix(1, 0, 0, -1, 26.677, 190.843)"/>
<path fill-rule="nonzero" fill="rgb(35.68573%, 64.312744%, 64.312744%)" fill-opacity="1" stroke-width="0.79701" stroke-linecap="butt" stroke-linejoin="miter" stroke="rgb(35.68573%, 64.312744%, 64.312744%)" stroke-opacity="1" stroke-miterlimit="10" d="M 154.221438 114.362531 C 154.221438 115.18675 153.549563 115.854719 152.725344 115.854719 C 151.901125 115.854719 151.22925 115.18675 151.22925 114.362531 C 151.22925 113.538312 151.901125 112.866437 152.725344 112.866437 C 153.549563 112.866437 154.221438 113.538312 154.221438 114.362531 Z M 154.221438 114.362531 " transform="matrix(1, 0, 0, -1, 26.677, 190.843)"/>
<path fill-rule="nonzero" fill="rgb(35.68573%, 64.312744%, 64.312744%)" fill-opacity="1" stroke-width="0.79701" stroke-linecap="butt" stroke-linejoin="miter" stroke="rgb(35.68573%, 64.312744%, 64.312744%)" stroke-opacity="1" stroke-miterlimit="10" d="M 163.764406 113.764875 C 163.764406 114.589094 163.096438 115.257062 162.272219 115.257062 C 161.444094 115.257062 160.776125 114.589094 160.776125 113.764875 C 160.776125 112.93675 161.444094 112.268781 162.272219 112.268781 C 163.096438 112.268781 163.764406 112.93675 163.764406 113.764875 Z M 163.764406 113.764875 " transform="matrix(1, 0, 0, -1, 26.677, 190.843)"/>
<path fill-rule="nonzero" fill="rgb(35.68573%, 64.312744%, 64.312744%)" fill-opacity="1" stroke-width="0.79701" stroke-linecap="butt" stroke-linejoin="miter" stroke="rgb(35.68573%, 64.312744%, 64.312744%)" stroke-opacity="1" stroke-miterlimit="10" d="M 173.311281 113.233625 C 173.311281 114.057844 172.639406 114.725812 171.815188 114.725812 C 170.990969 114.725812 170.323 114.057844 170.323 113.233625 C 170.323 112.4055 170.990969 111.737531 171.815188 111.737531 C 172.639406 111.737531 173.311281 112.4055 173.311281 113.233625 Z M 173.311281 113.233625 " transform="matrix(1, 0, 0, -1, 26.677, 190.843)"/>
<path fill-rule="nonzero" fill="rgb(35.68573%, 64.312744%, 64.312744%)" fill-opacity="1" stroke-width="0.79701" stroke-linecap="butt" stroke-linejoin="miter" stroke="rgb(35.68573%, 64.312744%, 64.312744%)" stroke-opacity="1" stroke-miterlimit="10" d="M 182.85425 112.757062 C 182.85425 113.581281 182.186281 114.253156 181.362063 114.253156 C 180.533938 114.253156 179.865969 113.581281 179.865969 112.757062 C 179.865969 111.932844 180.533938 111.264875 181.362063 111.264875 C 182.186281 111.264875 182.85425 111.932844 182.85425 112.757062 Z M 182.85425 112.757062 " transform="matrix(1, 0, 0, -1, 26.677, 190.843)"/>
<path fill-rule="nonzero" fill="rgb(35.68573%, 64.312744%, 64.312744%)" fill-opacity="1" stroke-width="0.79701" stroke-linecap="butt" stroke-linejoin="miter" stroke="rgb(35.68573%, 64.312744%, 64.312744%)" stroke-opacity="1" stroke-miterlimit="10" d="M 192.401125 112.331281 C 192.401125 113.1555 191.733156 113.827375 190.905031 113.827375 C 190.080813 113.827375 189.412844 113.1555 189.412844 112.331281 C 189.412844 111.507062 190.080813 110.839094 190.905031 110.839094 C 191.733156 110.839094 192.401125 111.507062 192.401125 112.331281 Z M 192.401125 112.331281 " transform="matrix(1, 0, 0, -1, 26.677, 190.843)"/>
<path fill-rule="nonzero" fill="rgb(35.68573%, 64.312744%, 64.312744%)" fill-opacity="1" stroke-width="0.79701" stroke-linecap="butt" stroke-linejoin="miter" stroke="rgb(35.68573%, 64.312744%, 64.312744%)" stroke-opacity="1" stroke-miterlimit="10" d="M 201.948 111.948469 C 201.948 112.772687 201.276125 113.440656 200.451906 113.440656 C 199.627688 113.440656 198.955813 112.772687 198.955813 111.948469 C 198.955813 111.120344 199.627688 110.452375 200.451906 110.452375 C 201.276125 110.452375 201.948 111.120344 201.948 111.948469 Z M 201.948 111.948469 " transform="matrix(1, 0, 0, -1, 26.677, 190.843)"/>
<path fill-rule="nonzero" fill="rgb(35.68573%, 64.312744%, 64.312744%)" fill-opacity="1" stroke-width="0.79701" stroke-linecap="butt" stroke-linejoin="miter" stroke="rgb(35.68573%, 64.312744%, 64.312744%)" stroke-opacity="1" stroke-miterlimit="10" d="M 211.490969 111.596906 C 211.490969 112.421125 210.823 113.089094 209.998781 113.089094 C 209.170656 113.089094 208.502688 112.421125 208.502688 111.596906 C 208.502688 110.768781 209.170656 110.100812 209.998781 110.100812 C 210.823 110.100812 211.490969 110.768781 211.490969 111.596906 Z M 211.490969 111.596906 " transform="matrix(1, 0, 0, -1, 26.677, 190.843)"/>
<path fill-rule="nonzero" fill="rgb(35.68573%, 64.312744%, 64.312744%)" fill-opacity="1" stroke-width="0.79701" stroke-linecap="butt" stroke-linejoin="miter" stroke="rgb(35.68573%, 64.312744%, 64.312744%)" stroke-opacity="1" stroke-miterlimit="10" d="M 221.037844 111.284406 C 221.037844 112.108625 220.365969 112.776594 219.54175 112.776594 C 218.717531 112.776594 218.049563 112.108625 218.049563 111.284406 C 218.049563 110.456281 218.717531 109.788312 219.54175 109.788312 C 220.365969 109.788312 221.037844 110.456281 221.037844 111.284406 Z M 221.037844 111.284406 " transform="matrix(1, 0, 0, -1, 26.677, 190.843)"/>
<path fill-rule="nonzero" fill="rgb(35.68573%, 64.312744%, 64.312744%)" fill-opacity="1" stroke-width="0.79701" stroke-linecap="butt" stroke-linejoin="miter" stroke="rgb(35.68573%, 64.312744%, 64.312744%)" stroke-opacity="1" stroke-miterlimit="10" d="M 230.580813 110.987531 C 230.580813 111.815656 229.912844 112.483625 229.088625 112.483625 C 228.2605 112.483625 227.592531 111.815656 227.592531 110.987531 C 227.592531 110.163312 228.2605 109.495344 229.088625 109.495344 C 229.912844 109.495344 230.580813 110.163312 230.580813 110.987531 Z M 230.580813 110.987531 " transform="matrix(1, 0, 0, -1, 26.677, 190.843)"/>
<path fill-rule="nonzero" fill="rgb(83.137512%, 65.879822%, 32.548523%)" fill-opacity="1" stroke-width="0.79701" stroke-linecap="butt" stroke-linejoin="miter" stroke="rgb(83.137512%, 65.879822%, 32.548523%)" stroke-opacity="1" stroke-miterlimit="10" d="M 27.143312 56.487531 L 30.131594 56.487531 L 30.131594 59.479719 L 27.143312 59.479719 Z M 27.143312 56.487531 " transform="matrix(1, 0, 0, -1, 26.677, 190.843)"/>
<path fill-rule="nonzero" fill="rgb(83.137512%, 65.879822%, 32.548523%)" fill-opacity="1" stroke-width="0.79701" stroke-linecap="butt" stroke-linejoin="miter" stroke="rgb(83.137512%, 65.879822%, 32.548523%)" stroke-opacity="1" stroke-miterlimit="10" d="M 36.686281 66.99925 L 39.674562 66.99925 L 39.674562 69.987531 L 36.686281 69.987531 Z M 36.686281 66.99925 " transform="matrix(1, 0, 0, -1, 26.677, 190.843)"/>
<path fill-rule="nonzero" fill="rgb(83.137512%, 65.879822%, 32.548523%)" fill-opacity="1" stroke-width="0.79701" stroke-linecap="butt" stroke-linejoin="miter" stroke="rgb(83.137512%, 65.879822%, 32.548523%)" stroke-opacity="1" stroke-miterlimit="10" d="M 46.233156 73.6555 L 49.221437 73.6555 L 49.221437 76.643781 L 46.233156 76.643781 Z M 46.233156 73.6555 " transform="matrix(1, 0, 0, -1, 26.677, 190.843)"/>
<path fill-rule="nonzero" fill="rgb(83.137512%, 65.879822%, 32.548523%)" fill-opacity="1" stroke-width="0.79701" stroke-linecap="butt" stroke-linejoin="miter" stroke="rgb(83.137512%, 65.879822%, 32.548523%)" stroke-opacity="1" stroke-miterlimit="10" d="M 55.776125 78.233625 L 58.764406 78.233625 L 58.764406 81.225812 L 55.776125 81.225812 Z M 55.776125 78.233625 " transform="matrix(1, 0, 0, -1, 26.677, 190.843)"/>
<path fill-rule="nonzero" fill="rgb(83.137512%, 65.879822%, 32.548523%)" fill-opacity="1" stroke-width="0.79701" stroke-linecap="butt" stroke-linejoin="miter" stroke="rgb(83.137512%, 65.879822%, 32.548523%)" stroke-opacity="1" stroke-miterlimit="10" d="M 65.323 81.577375 L 68.311281 81.577375 L 68.311281 84.565656 L 65.323 84.565656 Z M 65.323 81.577375 " transform="matrix(1, 0, 0, -1, 26.677, 190.843)"/>
<path fill-rule="nonzero" fill="rgb(83.137512%, 65.879822%, 32.548523%)" fill-opacity="1" stroke-width="0.79701" stroke-linecap="butt" stroke-linejoin="miter" stroke="rgb(83.137512%, 65.879822%, 32.548523%)" stroke-opacity="1" stroke-miterlimit="10" d="M 74.869875 84.12425 L 77.858156 84.12425 L 77.858156 87.112531 L 74.869875 87.112531 Z M 74.869875 84.12425 " transform="matrix(1, 0, 0, -1, 26.677, 190.843)"/>
<path fill-rule="nonzero" fill="rgb(83.137512%, 65.879822%, 32.548523%)" fill-opacity="1" stroke-width="0.79701" stroke-linecap="butt" stroke-linejoin="miter" stroke="rgb(83.137512%, 65.879822%, 32.548523%)" stroke-opacity="1" stroke-miterlimit="10" d="M 84.412844 86.12425 L 87.401125 86.12425 L 87.401125 89.116437 L 84.412844 89.116437 Z M 84.412844 86.12425 " transform="matrix(1, 0, 0, -1, 26.677, 190.843)"/>
<path fill-rule="nonzero" fill="rgb(83.137512%, 65.879822%, 32.548523%)" fill-opacity="1" stroke-width="0.79701" stroke-linecap="butt" stroke-linejoin="miter" stroke="rgb(83.137512%, 65.879822%, 32.548523%)" stroke-opacity="1" stroke-miterlimit="10" d="M 93.959719 87.741437 L 96.948 87.741437 L 96.948 90.729719 L 93.959719 90.729719 Z M 93.959719 87.741437 " transform="matrix(1, 0, 0, -1, 26.677, 190.843)"/>
<path fill-rule="nonzero" fill="rgb(83.137512%, 65.879822%, 32.548523%)" fill-opacity="1" stroke-width="0.79701" stroke-linecap="butt" stroke-linejoin="miter" stroke="rgb(83.137512%, 65.879822%, 32.548523%)" stroke-opacity="1" stroke-miterlimit="10" d="M 103.502687 89.077375 L 106.494875 89.077375 L 106.494875 92.065656 L 103.502687 92.065656 Z M 103.502687 89.077375 " transform="matrix(1, 0, 0, -1, 26.677, 190.843)"/>
<path fill-rule="nonzero" fill="rgb(83.137512%, 65.879822%, 32.548523%)" fill-opacity="1" stroke-width="0.79701" stroke-linecap="butt" stroke-linejoin="miter" stroke="rgb(83.137512%, 65.879822%, 32.548523%)" stroke-opacity="1" stroke-miterlimit="10" d="M 113.049562 90.194562 L 116.037844 90.194562 L 116.037844 93.18675 L 113.049562 93.18675 Z M 113.049562 90.194562 " transform="matrix(1, 0, 0, -1, 26.677, 190.843)"/>
<path fill-rule="nonzero" fill="rgb(83.137512%, 65.879822%, 32.548523%)" fill-opacity="1" stroke-width="0.79701" stroke-linecap="butt" stroke-linejoin="miter" stroke="rgb(83.137512%, 65.879822%, 32.548523%)" stroke-opacity="1" stroke-miterlimit="10" d="M 122.596437 91.143781 L 125.584719 91.143781 L 125.584719 94.132062 L 122.596437 94.132062 Z M 122.596437 91.143781 " transform="matrix(1, 0, 0, -1, 26.677, 190.843)"/>
<path fill-rule="nonzero" fill="rgb(83.137512%, 65.879822%, 32.548523%)" fill-opacity="1" stroke-width="0.79701" stroke-linecap="butt" stroke-linejoin="miter" stroke="rgb(83.137512%, 65.879822%, 32.548523%)" stroke-opacity="1" stroke-miterlimit="10" d="M 132.139406 91.964094 L 135.127688 91.964094 L 135.127688 94.952375 L 132.139406 94.952375 Z M 132.139406 91.964094 " transform="matrix(1, 0, 0, -1, 26.677, 190.843)"/>
<path fill-rule="nonzero" fill="rgb(83.137512%, 65.879822%, 32.548523%)" fill-opacity="1" stroke-width="0.79701" stroke-linecap="butt" stroke-linejoin="miter" stroke="rgb(83.137512%, 65.879822%, 32.548523%)" stroke-opacity="1" stroke-miterlimit="10" d="M 141.686281 92.675031 L 144.674563 92.675031 L 144.674563 95.663312 L 141.686281 95.663312 Z M 141.686281 92.675031 " transform="matrix(1, 0, 0, -1, 26.677, 190.843)"/>
<path fill-rule="nonzero" fill="rgb(83.137512%, 65.879822%, 32.548523%)" fill-opacity="1" stroke-width="0.79701" stroke-linecap="butt" stroke-linejoin="miter" stroke="rgb(83.137512%, 65.879822%, 32.548523%)" stroke-opacity="1" stroke-miterlimit="10" d="M 151.22925 93.296125 L 154.221438 93.296125 L 154.221438 96.288312 L 151.22925 96.288312 Z M 151.22925 93.296125 " transform="matrix(1, 0, 0, -1, 26.677, 190.843)"/>
<path fill-rule="nonzero" fill="rgb(83.137512%, 65.879822%, 32.548523%)" fill-opacity="1" stroke-width="0.79701" stroke-linecap="butt" stroke-linejoin="miter" stroke="rgb(83.137512%, 65.879822%, 32.548523%)" stroke-opacity="1" stroke-miterlimit="10" d="M 160.776125 93.850812 L 163.764406 93.850812 L 163.764406 96.839094 L 160.776125 96.839094 Z M 160.776125 93.850812 " transform="matrix(1, 0, 0, -1, 26.677, 190.843)"/>
<path fill-rule="nonzero" fill="rgb(83.137512%, 65.879822%, 32.548523%)" fill-opacity="1" stroke-width="0.79701" stroke-linecap="butt" stroke-linejoin="miter" stroke="rgb(83.137512%, 65.879822%, 32.548523%)" stroke-opacity="1" stroke-miterlimit="10" d="M 170.323 94.343 L 173.311281 94.343 L 173.311281 97.331281 L 170.323 97.331281 Z M 170.323 94.343 " transform="matrix(1, 0, 0, -1, 26.677, 190.843)"/>
<path fill-rule="nonzero" fill="rgb(83.137512%, 65.879822%, 32.548523%)" fill-opacity="1" stroke-width="0.79701" stroke-linecap="butt" stroke-linejoin="miter" stroke="rgb(83.137512%, 65.879822%, 32.548523%)" stroke-opacity="1" stroke-miterlimit="10" d="M 179.865969 94.784406 L 182.85425 94.784406 L 182.85425 97.772687 L 179.865969 97.772687 Z M 179.865969 94.784406 " transform="matrix(1, 0, 0, -1, 26.677, 190.843)"/>
<path fill-rule="nonzero" fill="rgb(83.137512%, 65.879822%, 32.548523%)" fill-opacity="1" stroke-width="0.79701" stroke-linecap="butt" stroke-linejoin="miter" stroke="rgb(83.137512%, 65.879822%, 32.548523%)" stroke-opacity="1" stroke-miterlimit="10" d="M 189.412844 95.182844 L 192.401125 95.182844 L 192.401125 98.171125 L 189.412844 98.171125 Z M 189.412844 95.182844 " transform="matrix(1, 0, 0, -1, 26.677, 190.843)"/>
<path fill-rule="nonzero" fill="rgb(83.137512%, 65.879822%, 32.548523%)" fill-opacity="1" stroke-width="0.79701" stroke-linecap="butt" stroke-linejoin="miter" stroke="rgb(83.137512%, 65.879822%, 32.548523%)" stroke-opacity="1" stroke-miterlimit="10" d="M 198.955813 95.542219 L 201.948 95.542219 L 201.948 98.5305 L 198.955813 98.5305 Z M 198.955813 95.542219 " transform="matrix(1, 0, 0, -1, 26.677, 190.843)"/>
<path fill-rule="nonzero" fill="rgb(83.137512%, 65.879822%, 32.548523%)" fill-opacity="1" stroke-width="0.79701" stroke-linecap="butt" stroke-linejoin="miter" stroke="rgb(83.137512%, 65.879822%, 32.548523%)" stroke-opacity="1" stroke-miterlimit="10" d="M 208.502688 95.870344 L 211.490969 95.870344 L 211.490969 98.858625 L 208.502688 98.858625 Z M 208.502688 95.870344 " transform="matrix(1, 0, 0, -1, 26.677, 190.843)"/>
<path fill-rule="nonzero" fill="rgb(83.137512%, 65.879822%, 32.548523%)" fill-opacity="1" stroke-width="0.79701" stroke-linecap="butt" stroke-linejoin="miter" stroke="rgb(83.137512%, 65.879822%, 32.548523%)" stroke-opacity="1" stroke-miterlimit="10" d="M 218.049563 96.171125 L 221.037844 96.171125 L 221.037844 99.159406 L 218.049563 99.159406 Z M 218.049563 96.171125 " transform="matrix(1, 0, 0, -1, 26.677, 190.843)"/>
<path fill-rule="nonzero" fill="rgb(83.137512%, 65.879822%, 32.548523%)" fill-opacity="1" stroke-width="0.79701" stroke-linecap="butt" stroke-linejoin="miter" stroke="rgb(83.137512%, 65.879822%, 32.548523%)" stroke-opacity="1" stroke-miterlimit="10" d="M 227.592531 96.444562 L 230.580813 96.444562 L 230.580813 99.43675 L 227.592531 99.43675 Z M 227.592531 96.444562 " transform="matrix(1, 0, 0, -1, 26.677, 190.843)"/>
<g fill="rgb(0%, 0%, 0%)" fill-opacity="1">
<use xlink:href="#glyph-1-1" x="268.827" y="146.021"/>
</g>
<g fill="rgb(0%, 0%, 0%)" fill-opacity="1">
<use xlink:href="#glyph-0-4" x="16.992" y="15.11"/>
<use xlink:href="#glyph-0-5" x="22.527221" y="15.11"/>
<use xlink:href="#glyph-0-6" x="28.062441" y="15.11"/>
</g>
<path fill-rule="nonzero" fill="rgb(100%, 100%, 100%)" fill-opacity="1" stroke-width="0.3985" stroke-linecap="butt" stroke-linejoin="miter" stroke="rgb(0%, 0%, 0%)" stroke-opacity="1" stroke-miterlimit="10" d="M 170.487063 128.858625 L 231.276125 128.858625 L 231.276125 168.260969 L 170.487063 168.260969 Z M 170.487063 128.858625 " transform="matrix(1, 0, 0, -1, 26.677, 190.843)"/>
<path fill="none" stroke-width="0.79701" stroke-linecap="butt" stroke-linejoin="miter" stroke="rgb(35.68573%, 64.312744%, 64.312744%)" stroke-opacity="1" stroke-miterlimit="10" d="M 0.00178125 -0.0008125 L 17.009594 -0.0008125 " transform="matrix(1, 0, 0, -1, 200.549, 30.382)"/>
<path fill-rule="nonzero" fill="rgb(35.68573%, 64.312744%, 64.312744%)" fill-opacity="1" stroke-width="0.79701" stroke-linecap="butt" stroke-linejoin="miter" stroke="rgb(35.68573%, 64.312744%, 64.312744%)" stroke-opacity="1" stroke-miterlimit="10" d="M 9.997875 -0.0008125 C 9.997875 0.823406 9.329906 1.495281 8.505688 1.495281 C 7.677563 1.495281 7.009594 0.823406 7.009594 -0.0008125 C 7.009594 -0.825031 7.677563 -1.493 8.505688 -1.493 C 9.329906 -1.493 9.997875 -0.825031 9.997875 -0.0008125 Z M 9.997875 -0.0008125 " transform="matrix(1, 0, 0, -1, 200.549, 30.382)"/>
<g fill="rgb(0%, 0%, 0%)" fill-opacity="1">
<use xlink:href="#glyph-3-0" x="230.422" y="32.698"/>
</g>
<g fill="rgb(0%, 0%, 0%)" fill-opacity="1">
<use xlink:href="#glyph-4-0" x="237.395" y="33.695"/>
</g>
<path fill="none" stroke-width="0.79701" stroke-linecap="butt" stroke-linejoin="miter" stroke="rgb(83.137512%, 65.879822%, 32.548523%)" stroke-opacity="1" stroke-miterlimit="10" d="M 0.00178125 -0.00028125 L 17.009594 -0.00028125 " transform="matrix(1, 0, 0, -1, 200.549, 41.988)"/>
<path fill-rule="nonzero" fill="rgb(83.137512%, 65.879822%, 32.548523%)" fill-opacity="1" stroke-width="0.79701" stroke-linecap="butt" stroke-linejoin="miter" stroke="rgb(83.137512%, 65.879822%, 32.548523%)" stroke-opacity="1" stroke-miterlimit="10" d="M 7.009594 -1.492469 L 9.997875 -1.492469 L 9.997875 1.495812 L 7.009594 1.495812 Z M 7.009594 -1.492469 " transform="matrix(1, 0, 0, -1, 200.549, 41.988)"/>
<g fill="rgb(0%, 0%, 0%)" fill-opacity="1">
<use xlink:href="#glyph-3-1" x="230.773" y="44.305"/>
</g>
<g fill="rgb(0%, 0%, 0%)" fill-opacity="1">
<use xlink:href="#glyph-4-0" x="237.044" y="45.301"/>
</g>
<path fill="none" stroke-width="0.79701" stroke-linecap="butt" stroke-linejoin="miter" stroke="rgb(78.823853%, 48.234558%, 51.763916%)" stroke-opacity="1" stroke-dasharray="2.98883 2.98883" stroke-miterlimit="10" d="M 0.00178125 -0.00053125 L 17.009594 -0.00053125 " transform="matrix(1, 0, 0, -1, 200.549, 53.894)"/>
<g fill="rgb(0%, 0%, 0%)" fill-opacity="1">
<use xlink:href="#glyph-3-2" x="219.948" y="56.509"/>
</g>
<g fill="rgb(0%, 0%, 0%)" fill-opacity="1">
<use xlink:href="#glyph-5-0" x="229.413828" y="56.509"/>
</g>
<g fill="rgb(0%, 0%, 0%)" fill-opacity="1">
<use xlink:href="#glyph-5-1" x="239.145959" y="56.509"/>
</g>
<g fill="rgb(0%, 0%, 0%)" fill-opacity="1">
<use xlink:href="#glyph-3-3" x="243.753792" y="56.509"/>
</g>
<g fill="rgb(0%, 0%, 0%)" fill-opacity="1">
<use xlink:href="#glyph-5-2" x="248.361625" y="56.509"/>
</g>
</svg>
