<?xml version="1.0" encoding="UTF-8"?>
<svg xmlns="http://www.w3.org/2000/svg" xmlns:xlink="http://www.w3.org/1999/xlink" width="289.667pt" height="219.344pt" viewBox="0 0 289.667 219.344">
<defs>
<g>
<g id="glyph-0-0">
<path d="M 3.71875 -3.765625 C 3.53125 -4.140625 3.25 -4.40625 2.796875 -4.40625 C 1.640625 -4.40625 0.40625 -2.9375 0.40625 -1.484375 C 0.40625 -0.546875 0.953125 0.109375 1.71875 0.109375 C 1.921875 0.109375 2.421875 0.0625 3.015625 -0.640625 C 3.09375 -0.21875 3.453125 0.109375 3.921875 0.109375 C 4.28125 0.109375 4.5 -0.125 4.671875 -0.4375 C 4.828125 -0.796875 4.96875 -1.40625 4.96875 -1.421875 C 4.96875 -1.53125 4.875 -1.53125 4.84375 -1.53125 C 4.75 -1.53125 4.734375 -1.484375 4.703125 -1.34375 C 4.53125 -0.703125 4.359375 -0.109375 3.953125 -0.109375 C 3.671875 -0.109375 3.65625 -0.375 3.65625 -0.5625 C 3.65625 -0.78125 3.671875 -0.875 3.78125 -1.3125 C 3.890625 -1.71875 3.90625 -1.828125 4 -2.203125 L 4.359375 -3.59375 C 4.421875 -3.875 4.421875 -3.890625 4.421875 -3.9375 C 4.421875 -4.109375 4.3125 -4.203125 4.140625 -4.203125 C 3.890625 -4.203125 3.75 -3.984375 3.71875 -3.765625 Z M 3.078125 -1.1875 C 3.015625 -1 3.015625 -0.984375 2.875 -0.8125 C 2.4375 -0.265625 2.03125 -0.109375 1.75 -0.109375 C 1.25 -0.109375 1.109375 -0.65625 1.109375 -1.046875 C 1.109375 -1.546875 1.421875 -2.765625 1.65625 -3.234375 C 1.96875 -3.8125 2.40625 -4.1875 2.8125 -4.1875 C 3.453125 -4.1875 3.59375 -3.375 3.59375 -3.3125 C 3.59375 -3.25 3.578125 -3.1875 3.5625 -3.140625 Z M 3.078125 -1.1875 "/>
</g>
<g id="glyph-0-1">
<path d="M 2.375 -6.8125 C 2.375 -6.8125 2.375 -6.921875 2.25 -6.921875 C 2.03125 -6.921875 1.296875 -6.84375 1.03125 -6.8125 C 0.953125 -6.8125 0.84375 -6.796875 0.84375 -6.625 C 0.84375 -6.5 0.9375 -6.5 1.09375 -6.5 C 1.5625 -6.5 1.578125 -6.4375 1.578125 -6.328125 C 1.578125 -6.265625 1.5 -5.921875 1.453125 -5.71875 L 0.625 -2.46875 C 0.515625 -1.96875 0.46875 -1.796875 0.46875 -1.453125 C 0.46875 -0.515625 1 0.109375 1.734375 0.109375 C 2.90625 0.109375 4.140625 -1.375 4.140625 -2.8125 C 4.140625 -3.71875 3.609375 -4.40625 2.8125 -4.40625 C 2.359375 -4.40625 1.9375 -4.109375 1.640625 -3.8125 Z M 1.453125 -3.046875 C 1.5 -3.265625 1.5 -3.28125 1.59375 -3.390625 C 2.078125 -4.03125 2.53125 -4.1875 2.796875 -4.1875 C 3.15625 -4.1875 3.421875 -3.890625 3.421875 -3.25 C 3.421875 -2.65625 3.09375 -1.515625 2.90625 -1.140625 C 2.578125 -0.46875 2.125 -0.109375 1.734375 -0.109375 C 1.390625 -0.109375 1.0625 -0.375 1.0625 -1.109375 C 1.0625 -1.3125 1.0625 -1.5 1.21875 -2.125 Z M 1.453125 -3.046875 "/>
</g>
<g id="glyph-0-2">
<path d="M 3.328125 -3.015625 C 3.390625 -3.265625 3.625 -4.1875 4.3125 -4.1875 C 4.359375 -4.1875 4.609375 -4.1875 4.8125 -4.0625 C 4.53125 -4 4.34375 -3.765625 4.34375 -3.515625 C 4.34375 -3.359375 4.453125 -3.171875 4.71875 -3.171875 C 4.9375 -3.171875 5.25 -3.34375 5.25 -3.75 C 5.25 -4.265625 4.671875 -4.40625 4.328125 -4.40625 C 3.75 -4.40625 3.40625 -3.875 3.28125 -3.65625 C 3.03125 -4.3125 2.5 -4.40625 2.203125 -4.40625 C 1.171875 -4.40625 0.59375 -3.125 0.59375 -2.875 C 0.59375 -2.765625 0.703125 -2.765625 0.71875 -2.765625 C 0.796875 -2.765625 0.828125 -2.796875 0.84375 -2.875 C 1.1875 -3.9375 1.84375 -4.1875 2.1875 -4.1875 C 2.375 -4.1875 2.71875 -4.09375 2.71875 -3.515625 C 2.71875 -3.203125 2.546875 -2.546875 2.1875 -1.140625 C 2.03125 -0.53125 1.671875 -0.109375 1.234375 -0.109375 C 1.171875 -0.109375 0.953125 -0.109375 0.734375 -0.234375 C 0.984375 -0.296875 1.203125 -0.5 1.203125 -0.78125 C 1.203125 -1.046875 0.984375 -1.125 0.84375 -1.125 C 0.53125 -1.125 0.296875 -0.875 0.296875 -0.546875 C 0.296875 -0.09375 0.78125 0.109375 1.21875 0.109375 C 1.890625 0.109375 2.25 -0.59375 2.265625 -0.640625 C 2.390625 -0.28125 2.75 0.109375 3.34375 0.109375 C 4.375 0.109375 4.9375 -1.171875 4.9375 -1.421875 C 4.9375 -1.53125 4.859375 -1.53125 4.828125 -1.53125 C 4.734375 -1.53125 4.71875 -1.484375 4.6875 -1.421875 C 4.359375 -0.34375 3.6875 -0.109375 3.375 -0.109375 C 2.984375 -0.109375 2.828125 -0.421875 2.828125 -0.765625 C 2.828125 -0.984375 2.875 -1.203125 2.984375 -1.640625 Z M 3.328125 -3.015625 "/>
</g>
<g id="glyph-0-3">
<path d="M 4.84375 -3.796875 C 4.890625 -3.9375 4.890625 -3.953125 4.890625 -4.03125 C 4.890625 -4.203125 4.75 -4.296875 4.59375 -4.296875 C 4.5 -4.296875 4.34375 -4.234375 4.25 -4.09375 C 4.234375 -4.03125 4.140625 -3.734375 4.109375 -3.546875 C 4.03125 -3.296875 3.96875 -3.015625 3.90625 -2.75 L 3.453125 -0.953125 C 3.421875 -0.8125 2.984375 -0.109375 2.328125 -0.109375 C 1.828125 -0.109375 1.71875 -0.546875 1.71875 -0.921875 C 1.71875 -1.375 1.890625 -2 2.21875 -2.875 C 2.375 -3.28125 2.421875 -3.390625 2.421875 -3.59375 C 2.421875 -4.03125 2.109375 -4.40625 1.609375 -4.40625 C 0.65625 -4.40625 0.296875 -2.953125 0.296875 -2.875 C 0.296875 -2.765625 0.390625 -2.765625 0.40625 -2.765625 C 0.515625 -2.765625 0.515625 -2.796875 0.5625 -2.953125 C 0.84375 -3.890625 1.234375 -4.1875 1.578125 -4.1875 C 1.65625 -4.1875 1.828125 -4.1875 1.828125 -3.875 C 1.828125 -3.625 1.71875 -3.359375 1.65625 -3.171875 C 1.25 -2.109375 1.078125 -1.546875 1.078125 -1.078125 C 1.078125 -0.1875 1.703125 0.109375 2.296875 0.109375 C 2.6875 0.109375 3.015625 -0.0625 3.296875 -0.34375 C 3.171875 0.171875 3.046875 0.671875 2.65625 1.203125 C 2.390625 1.53125 2.015625 1.828125 1.5625 1.828125 C 1.421875 1.828125 0.96875 1.796875 0.796875 1.40625 C 0.953125 1.40625 1.09375 1.40625 1.21875 1.28125 C 1.328125 1.203125 1.421875 1.0625 1.421875 0.875 C 1.421875 0.5625 1.15625 0.53125 1.0625 0.53125 C 0.828125 0.53125 0.5 0.6875 0.5 1.171875 C 0.5 1.671875 0.9375 2.046875 1.5625 2.046875 C 2.578125 2.046875 3.609375 1.140625 3.890625 0.015625 Z M 4.84375 -3.796875 "/>
</g>
<g id="glyph-1-0">
<path d="M 3.359375 -3.59375 L 4.15625 -3.59375 C 4.34375 -3.59375 4.4375 -3.59375 4.4375 -3.75 C 4.4375 -3.859375 4.34375 -3.859375 4.171875 -3.859375 L 3.40625 -3.859375 C 3.5 -4.40625 3.625 -5.140625 3.75 -5.625 C 3.828125 -5.96875 4.046875 -6.09375 4.21875 -6.09375 C 4.28125 -6.09375 4.484375 -6.078125 4.640625 -5.96875 C 4.453125 -5.9375 4.203125 -5.78125 4.203125 -5.484375 C 4.203125 -5.25 4.375 -5.15625 4.53125 -5.15625 C 4.78125 -5.15625 5.03125 -5.359375 5.03125 -5.6875 C 5.03125 -6.09375 4.640625 -6.328125 4.21875 -6.328125 C 3.8125 -6.328125 3.40625 -6.03125 3.21875 -5.671875 C 3.015625 -5.28125 2.953125 -4.9375 2.765625 -3.859375 L 2.125 -3.859375 C 1.953125 -3.859375 1.84375 -3.859375 1.84375 -3.703125 C 1.84375 -3.59375 1.953125 -3.59375 2.109375 -3.59375 L 2.71875 -3.59375 C 2.46875 -2.28125 2.15625 -0.5 1.953125 0.4375 C 1.84375 0.9375 1.703125 1.609375 1.28125 1.609375 C 1.140625 1.609375 0.953125 1.5625 0.875 1.484375 C 1.09375 1.453125 1.3125 1.265625 1.3125 1 C 1.3125 0.765625 1.140625 0.671875 0.984375 0.671875 C 0.734375 0.671875 0.484375 0.875 0.484375 1.203125 C 0.484375 1.625 0.890625 1.84375 1.28125 1.84375 C 2.1875 1.84375 2.609375 0.34375 2.75 -0.421875 Z M 3.359375 -3.59375 "/>
</g>
<g id="glyph-1-1">
<path d="M 4.40625 -3.625 C 4.078125 -3.5625 3.984375 -3.28125 3.984375 -3.140625 C 3.984375 -2.96875 4.109375 -2.8125 4.328125 -2.8125 C 4.578125 -2.8125 4.828125 -3.03125 4.828125 -3.34375 C 4.828125 -3.765625 4.375 -3.96875 3.953125 -3.96875 C 3.421875 -3.96875 3.109375 -3.484375 3 -3.296875 C 2.828125 -3.734375 2.4375 -3.96875 2 -3.96875 C 1.046875 -3.96875 0.515625 -2.8125 0.515625 -2.578125 C 0.515625 -2.5 0.578125 -2.46875 0.640625 -2.46875 C 0.71875 -2.46875 0.75 -2.515625 0.765625 -2.578125 C 1.046875 -3.46875 1.640625 -3.734375 1.984375 -3.734375 C 2.25 -3.734375 2.46875 -3.5625 2.46875 -3.140625 C 2.46875 -2.828125 2.09375 -1.390625 1.96875 -0.953125 C 1.90625 -0.6875 1.625 -0.125 1.140625 -0.125 C 0.953125 -0.125 0.765625 -0.1875 0.6875 -0.234375 C 0.921875 -0.28125 1.109375 -0.5 1.109375 -0.71875 C 1.109375 -0.953125 0.9375 -1.046875 0.765625 -1.046875 C 0.5 -1.046875 0.265625 -0.828125 0.265625 -0.515625 C 0.265625 -0.078125 0.75 0.09375 1.125 0.09375 C 1.65625 0.09375 1.953125 -0.328125 2.09375 -0.578125 C 2.3125 0.015625 2.84375 0.09375 3.078125 0.09375 C 4.046875 0.09375 4.5625 -1.0625 4.5625 -1.28125 C 4.5625 -1.328125 4.53125 -1.390625 4.453125 -1.390625 C 4.34375 -1.390625 4.34375 -1.359375 4.296875 -1.21875 C 4.09375 -0.578125 3.578125 -0.125 3.109375 -0.125 C 2.859375 -0.125 2.609375 -0.28125 2.609375 -0.71875 C 2.609375 -0.921875 2.734375 -1.40625 2.8125 -1.75 C 2.859375 -1.90625 3.09375 -2.875 3.109375 -2.9375 C 3.21875 -3.265625 3.484375 -3.734375 3.953125 -3.734375 C 4.109375 -3.734375 4.28125 -3.71875 4.40625 -3.625 Z M 4.40625 -3.625 "/>
</g>
<g id="glyph-1-2">
<path d="M 4.375 -3.53125 C 4.375 -3.671875 4.25 -3.78125 4.09375 -3.78125 C 3.9375 -3.78125 3.75 -3.671875 3.703125 -3.421875 C 3.5 -3.765625 3.21875 -3.96875 2.859375 -3.96875 C 1.765625 -3.96875 0.65625 -2.6875 0.65625 -1.4375 C 0.65625 -0.59375 1.1875 0 1.90625 0 C 2.3125 0 2.671875 -0.21875 2.96875 -0.5 C 2.859375 0 2.703125 0.59375 2.640625 0.765625 C 2.59375 0.859375 2.265625 1.609375 1.359375 1.609375 C 1.1875 1.609375 0.890625 1.609375 0.671875 1.546875 C 0.84375 1.46875 1 1.28125 1 1.078125 C 1 0.890625 0.84375 0.765625 0.65625 0.765625 C 0.453125 0.765625 0.15625 0.921875 0.15625 1.296875 C 0.15625 1.734375 0.65625 1.84375 1.375 1.84375 C 2.53125 1.84375 3.203125 1.171875 3.34375 0.59375 Z M 3.140625 -1.171875 C 3.109375 -1 3.09375 -0.984375 2.953125 -0.8125 C 2.5 -0.296875 2.109375 -0.21875 1.9375 -0.21875 C 1.5 -0.21875 1.34375 -0.65625 1.34375 -1.0625 C 1.34375 -1.40625 1.546875 -2.40625 1.828125 -2.9375 C 2.046875 -3.359375 2.453125 -3.734375 2.859375 -3.734375 C 3.4375 -3.734375 3.59375 -3.0625 3.59375 -2.984375 C 3.59375 -2.953125 3.5625 -2.890625 3.5625 -2.84375 Z M 3.140625 -1.171875 "/>
</g>
<g id="glyph-1-3">
<path d="M 4.5 -3.453125 C 4.515625 -3.5 4.53125 -3.546875 4.53125 -3.609375 C 4.53125 -3.71875 4.453125 -3.859375 4.25 -3.859375 C 4.140625 -3.859375 3.96875 -3.796875 3.90625 -3.625 C 3.890625 -3.59375 3.796875 -3.21875 3.75 -3.015625 L 3.296875 -1.234375 C 3.234375 -0.96875 3.234375 -0.953125 3.203125 -0.875 C 3.203125 -0.828125 2.828125 -0.125 2.171875 -0.125 C 1.625 -0.125 1.625 -0.6875 1.625 -0.859375 C 1.625 -1.265625 1.734375 -1.703125 2.125 -2.703125 C 2.203125 -2.921875 2.25 -3.046875 2.25 -3.203125 C 2.25 -3.65625 1.921875 -3.96875 1.484375 -3.96875 C 0.625 -3.96875 0.265625 -2.6875 0.265625 -2.578125 C 0.265625 -2.5 0.328125 -2.46875 0.390625 -2.46875 C 0.484375 -2.46875 0.5 -2.53125 0.53125 -2.640625 C 0.71875 -3.3125 1.078125 -3.734375 1.453125 -3.734375 C 1.671875 -3.734375 1.671875 -3.5625 1.671875 -3.4375 C 1.671875 -3.296875 1.625 -3.125 1.546875 -2.921875 C 1.125 -1.796875 1.015625 -1.421875 1.015625 -1 C 1.015625 0 1.828125 0.09375 2.15625 0.09375 C 2.59375 0.09375 2.90625 -0.140625 3.0625 -0.296875 C 2.953125 0.15625 2.859375 0.5625 2.5 1.015625 C 2.234375 1.375 1.875 1.609375 1.484375 1.609375 C 1.234375 1.609375 0.9375 1.53125 0.8125 1.28125 C 1.28125 1.28125 1.34375 0.875 1.34375 0.796875 C 1.34375 0.59375 1.203125 0.46875 1 0.46875 C 0.796875 0.46875 0.5 0.640625 0.5 1.046875 C 0.5 1.515625 0.921875 1.84375 1.484375 1.84375 C 2.390625 1.84375 3.375 1.0625 3.625 0.015625 Z M 4.5 -3.453125 "/>
</g>
<g id="glyph-1-4">
<path d="M 4.703125 -5.921875 C 4.734375 -6.046875 4.734375 -6.0625 4.734375 -6.09375 C 4.734375 -6.171875 4.6875 -6.21875 4.59375 -6.21875 C 4.46875 -6.21875 3.6875 -6.15625 3.5 -6.140625 C 3.421875 -6.125 3.3125 -6.109375 3.3125 -5.96875 C 3.3125 -5.84375 3.421875 -5.84375 3.5625 -5.84375 C 3.984375 -5.84375 3.984375 -5.78125 3.984375 -5.703125 C 3.984375 -5.640625 3.90625 -5.328125 3.859375 -5.140625 L 3.6875 -4.453125 C 3.59375 -4.109375 3.5 -3.765625 3.421875 -3.40625 C 3.25 -3.734375 2.984375 -3.96875 2.578125 -3.96875 C 1.53125 -3.96875 0.375 -2.71875 0.375 -1.359375 C 0.375 -0.375 1 0.09375 1.609375 0.09375 C 2.1875 0.09375 2.65625 -0.390625 2.8125 -0.5625 C 2.90625 -0.0625 3.359375 0.09375 3.640625 0.09375 C 3.90625 0.09375 4.125 -0.015625 4.328125 -0.390625 C 4.484375 -0.6875 4.609375 -1.25 4.609375 -1.28125 C 4.609375 -1.328125 4.578125 -1.390625 4.5 -1.390625 C 4.390625 -1.390625 4.375 -1.34375 4.34375 -1.171875 C 4.140625 -0.390625 3.953125 -0.125 3.671875 -0.125 C 3.4375 -0.125 3.390625 -0.34375 3.390625 -0.53125 C 3.390625 -0.65625 3.4375 -0.90625 3.4375 -0.9375 Z M 2.84375 -1.078125 C 2.8125 -0.9375 2.796875 -0.921875 2.65625 -0.75 C 2.328125 -0.359375 1.96875 -0.125 1.625 -0.125 C 1.1875 -0.125 1.046875 -0.578125 1.046875 -0.96875 C 1.046875 -1.40625 1.296875 -2.4375 1.515625 -2.875 C 1.796875 -3.40625 2.21875 -3.734375 2.578125 -3.734375 C 3.171875 -3.734375 3.3125 -3.015625 3.3125 -2.96875 C 3.3125 -2.921875 3.296875 -2.875 3.28125 -2.828125 Z M 2.84375 -1.078125 "/>
</g>
<g id="glyph-2-0">
<path d="M 3.0625 2.140625 C 3.0625 2.09375 3.03125 2.0625 2.984375 2 C 1.828125 0.9375 1.46875 -0.671875 1.46875 -2.25 C 1.46875 -3.625 1.734375 -5.3125 3 -6.515625 C 3.046875 -6.5625 3.0625 -6.578125 3.0625 -6.625 C 3.0625 -6.6875 3.015625 -6.734375 2.953125 -6.734375 C 2.84375 -6.734375 2.03125 -6.078125 1.546875 -5.109375 C 1.125 -4.25 0.90625 -3.3125 0.90625 -2.25 C 0.90625 -1.609375 0.984375 -0.578125 1.484375 0.46875 C 2.015625 1.578125 2.84375 2.234375 2.953125 2.234375 C 3.015625 2.234375 3.0625 2.203125 3.0625 2.140625 Z M 3.0625 2.140625 "/>
</g>
<g id="glyph-2-1">
<path d="M 2.671875 -2.25 C 2.671875 -2.984375 2.5625 -3.96875 2.09375 -4.96875 C 1.5625 -6.078125 0.734375 -6.734375 0.625 -6.734375 C 0.53125 -6.734375 0.515625 -6.65625 0.515625 -6.625 C 0.515625 -6.578125 0.53125 -6.5625 0.59375 -6.5 C 1.125 -6.03125 2.109375 -4.8125 2.109375 -2.25 C 2.109375 -0.96875 1.875 0.8125 0.578125 2.03125 C 0.5625 2.046875 0.515625 2.09375 0.515625 2.140625 C 0.515625 2.15625 0.53125 2.234375 0.625 2.234375 C 0.734375 2.234375 1.546875 1.59375 2.03125 0.609375 C 2.453125 -0.25 2.671875 -1.171875 2.671875 -2.25 Z M 2.671875 -2.25 "/>
</g>
<g id="glyph-2-2">
<path d="M 6.34375 -2.96875 C 6.46875 -2.96875 6.640625 -2.96875 6.640625 -3.15625 C 6.640625 -3.359375 6.453125 -3.359375 6.3125 -3.359375 L 0.84375 -3.359375 C 0.703125 -3.359375 0.515625 -3.359375 0.515625 -3.15625 C 0.515625 -2.96875 0.6875 -2.96875 0.8125 -2.96875 Z M 6.3125 -1.140625 C 6.453125 -1.140625 6.640625 -1.140625 6.640625 -1.34375 C 6.640625 -1.53125 6.46875 -1.53125 6.34375 -1.53125 L 0.8125 -1.53125 C 0.6875 -1.53125 0.515625 -1.53125 0.515625 -1.34375 C 0.515625 -1.140625 0.703125 -1.140625 0.84375 -1.140625 Z M 6.3125 -1.140625 "/>
</g>
<g id="glyph-2-3">
<path d="M 3.671875 -6.234375 C 3.625 -6.34375 3.59375 -6.421875 3.453125 -6.421875 C 3.3125 -6.421875 3.296875 -6.375 3.234375 -6.21875 L 1.3125 -0.890625 C 1.203125 -0.59375 1 -0.28125 0.3125 -0.28125 L 0.3125 0 C 0.640625 -0.03125 0.890625 -0.03125 1.21875 -0.03125 C 1.53125 -0.03125 1.734375 -0.015625 2.234375 0 L 2.234375 -0.28125 C 1.71875 -0.28125 1.5625 -0.5625 1.5625 -0.734375 C 1.5625 -0.8125 1.59375 -0.859375 1.609375 -0.90625 L 2.03125 -2.0625 L 4.34375 -2.0625 L 4.828125 -0.703125 C 4.875 -0.625 4.875 -0.59375 4.875 -0.546875 C 4.875 -0.28125 4.375 -0.28125 4.140625 -0.28125 L 4.140625 0 C 4.546875 -0.03125 5.015625 -0.03125 5.421875 -0.03125 C 5.828125 -0.03125 5.859375 -0.03125 6.59375 0 L 6.59375 -0.28125 L 6.453125 -0.28125 C 5.890625 -0.28125 5.796875 -0.359375 5.703125 -0.609375 Z M 4.25 -2.34375 L 2.125 -2.34375 L 3.1875 -5.28125 Z M 4.25 -2.34375 "/>
</g>
<g id="glyph-2-4">
<path d="M 1.59375 -2.046875 C 1.59375 -2.421875 1.6875 -3.734375 2.71875 -3.734375 C 2.703125 -3.71875 2.5625 -3.609375 2.5625 -3.40625 C 2.5625 -3.15625 2.75 -3 2.953125 -3 C 3.140625 -3 3.34375 -3.140625 3.34375 -3.40625 C 3.34375 -3.6875 3.078125 -3.96875 2.671875 -3.96875 C 2.140625 -3.96875 1.765625 -3.59375 1.546875 -3.03125 L 1.546875 -3.96875 L 0.265625 -3.859375 L 0.265625 -3.59375 C 0.875 -3.59375 0.953125 -3.53125 0.953125 -3.078125 L 0.953125 -0.6875 C 0.953125 -0.28125 0.859375 -0.28125 0.265625 -0.28125 L 0.265625 0 C 0.75 -0.015625 0.859375 -0.03125 1.3125 -0.03125 C 1.671875 -0.03125 1.890625 -0.015625 2.453125 0 L 2.453125 -0.28125 L 2.28125 -0.28125 C 1.625 -0.28125 1.59375 -0.375 1.59375 -0.703125 Z M 1.59375 -2.046875 "/>
</g>
<g id="glyph-2-5">
<path d="M 3.59375 -2.046875 C 3.78125 -2.046875 3.828125 -2.046875 3.828125 -2.25 C 3.828125 -3.171875 3.328125 -4.015625 2.171875 -4.015625 C 1.109375 -4.015625 0.265625 -3.078125 0.265625 -1.96875 C 0.265625 -0.796875 1.203125 0.09375 2.296875 0.09375 C 3.390625 0.09375 3.828125 -0.859375 3.828125 -1.0625 C 3.828125 -1.125 3.78125 -1.1875 3.703125 -1.1875 C 3.609375 -1.1875 3.59375 -1.125 3.578125 -1.078125 C 3.28125 -0.171875 2.46875 -0.15625 2.34375 -0.15625 C 1.90625 -0.15625 1.546875 -0.390625 1.34375 -0.703125 C 1.046875 -1.140625 1.03125 -1.671875 1.03125 -2.046875 Z M 1.046875 -2.265625 C 1.125 -3.65625 1.921875 -3.796875 2.171875 -3.796875 C 2.671875 -3.796875 3.203125 -3.421875 3.21875 -2.265625 Z M 1.046875 -2.265625 "/>
</g>
<g id="glyph-2-6">
<path d="M 3.0625 -0.640625 C 3.109375 -0.265625 3.375 0.046875 3.765625 0.046875 C 3.984375 0.046875 4.546875 -0.078125 4.546875 -0.796875 L 4.546875 -1.296875 L 4.296875 -1.296875 L 4.296875 -0.8125 C 4.296875 -0.703125 4.296875 -0.265625 3.96875 -0.265625 C 3.65625 -0.265625 3.65625 -0.6875 3.65625 -0.828125 L 3.65625 -2.40625 C 3.65625 -2.921875 3.65625 -3.21875 3.25 -3.59375 C 2.921875 -3.890625 2.484375 -4.015625 2.03125 -4.015625 C 1.28125 -4.015625 0.65625 -3.640625 0.65625 -3.0625 C 0.65625 -2.796875 0.84375 -2.640625 1.078125 -2.640625 C 1.3125 -2.640625 1.484375 -2.8125 1.484375 -3.046875 C 1.484375 -3.4375 1.09375 -3.484375 1.078125 -3.484375 C 1.328125 -3.71875 1.765625 -3.796875 2.015625 -3.796875 C 2.46875 -3.796875 2.984375 -3.453125 2.984375 -2.65625 L 2.984375 -2.375 C 2.5 -2.34375 1.828125 -2.3125 1.234375 -2.015625 C 0.578125 -1.703125 0.390625 -1.234375 0.390625 -0.875 C 0.390625 -0.140625 1.25 0.09375 1.859375 0.09375 C 2.59375 0.09375 2.9375 -0.390625 3.0625 -0.640625 Z M 2.984375 -1.265625 C 2.984375 -0.390625 2.3125 -0.125 1.921875 -0.125 C 1.5 -0.125 1.109375 -0.4375 1.109375 -0.875 C 1.109375 -1.46875 1.609375 -2.09375 2.984375 -2.15625 Z M 2.984375 -1.265625 "/>
</g>
<g id="glyph-3-0">
<path d="M 6.046875 -2.046875 C 6.21875 -2.046875 6.390625 -2.046875 6.390625 -2.25 C 6.390625 -2.4375 6.203125 -2.4375 6.046875 -2.4375 L 1.109375 -2.4375 C 0.953125 -2.4375 0.765625 -2.4375 0.765625 -2.25 C 0.765625 -2.046875 0.9375 -2.046875 1.109375 -2.046875 Z M 6.046875 -2.046875 "/>
</g>
<g id="glyph-4-0">
<path d="M 8.25 0.453125 C 7.84375 0.484375 7.8125 0.796875 7.8125 0.890625 C 7.8125 1.1875 8.046875 1.34375 8.25 1.34375 C 8.46875 1.34375 8.703125 1.1875 8.703125 0.875 C 8.703125 0.390625 8.21875 0 7.6875 0 C 6.765625 0 6.25 1.1875 5.84375 2.5625 C 5.609375 3.34375 4.453125 7.828125 3.5 13.140625 C 3.34375 14 2.90625 16.46875 2.546875 17.828125 C 2.40625 18.34375 2.03125 19.703125 1.515625 19.703125 C 1.4375 19.703125 1.171875 19.6875 0.953125 19.484375 C 1.359375 19.4375 1.40625 19.125 1.40625 19.046875 C 1.40625 18.734375 1.15625 18.59375 0.953125 18.59375 C 0.75 18.59375 0.515625 18.734375 0.515625 19.046875 C 0.515625 19.546875 1 19.921875 1.53125 19.921875 C 2.4375 19.921875 2.96875 18.734375 3.375 17.375 C 3.609375 16.578125 4.765625 12.09375 5.71875 6.796875 C 5.859375 5.921875 6.3125 3.453125 6.65625 2.109375 C 6.8125 1.59375 7.1875 0.21875 7.6875 0.21875 C 7.765625 0.21875 8.03125 0.234375 8.25 0.453125 Z M 8.25 0.453125 "/>
</g>
<g id="glyph-4-1">
<path d="M 1.859375 10.375 L 3.640625 10.375 L 3.640625 9.984375 L 2.25 9.984375 L 2.25 0.015625 L 3.640625 0.015625 L 3.640625 -0.375 L 1.859375 -0.375 Z M 1.859375 10.375 "/>
</g>
<g id="glyph-4-2">
<path d="M 1.96875 10.375 L 1.96875 -0.375 L 0.1875 -0.375 L 0.1875 0.015625 L 1.59375 0.015625 L 1.59375 9.984375 L 0.1875 9.984375 L 0.1875 10.375 Z M 1.96875 10.375 "/>
</g>
<g id="glyph-5-0">
<path d="M 1.6875 -3.96875 C 1.6875 -4 1.703125 -4.03125 1.703125 -4.0625 C 1.703125 -4.15625 1.578125 -4.15625 1.515625 -4.140625 L 0.84375 -4.09375 C 0.734375 -4.09375 0.65625 -4.078125 0.65625 -3.9375 C 0.65625 -3.84375 0.734375 -3.84375 0.828125 -3.84375 C 1 -3.84375 1.046875 -3.828125 1.125 -3.8125 C 1.125 -3.703125 1.125 -3.6875 1.09375 -3.578125 L 0.8125 -2.46875 C 0.765625 -2.296875 0.53125 -1.34375 0.515625 -1.265625 C 0.484375 -1.125 0.484375 -1.015625 0.484375 -0.953125 C 0.484375 -0.28125 0.921875 0.0625 1.421875 0.0625 C 2.21875 0.0625 3.015625 -0.765625 3.015625 -1.625 C 3.015625 -2.234375 2.59375 -2.640625 2.046875 -2.640625 C 1.6875 -2.640625 1.375 -2.40625 1.265625 -2.3125 Z M 1.15625 -1.890625 C 1.34375 -2.140625 1.6875 -2.4375 2.03125 -2.4375 C 2.34375 -2.4375 2.515625 -2.203125 2.515625 -1.859375 C 2.515625 -1.640625 2.390625 -1 2.171875 -0.640625 C 1.96875 -0.3125 1.671875 -0.140625 1.421875 -0.140625 C 1.234375 -0.140625 0.921875 -0.25 0.921875 -0.765625 C 0.921875 -0.953125 0.953125 -1.046875 1.015625 -1.359375 C 1.0625 -1.5 1.125 -1.78125 1.15625 -1.890625 Z M 1.15625 -1.890625 "/>
</g>
<g id="glyph-5-1">
<path d="M 3.109375 -1.921875 C 3.140625 -2.0625 3.203125 -2.28125 3.203125 -2.328125 C 3.203125 -2.453125 3.09375 -2.53125 2.984375 -2.53125 C 2.8125 -2.53125 2.71875 -2.375 2.703125 -2.28125 C 2.609375 -2.421875 2.40625 -2.640625 2.046875 -2.640625 C 1.28125 -2.640625 0.453125 -1.84375 0.453125 -0.953125 C 0.453125 -0.3125 0.90625 0.0625 1.40625 0.0625 C 1.8125 0.0625 2.15625 -0.21875 2.296875 -0.359375 C 2.421875 0.015625 2.8125 0.0625 2.953125 0.0625 C 3.171875 0.0625 3.328125 -0.0625 3.4375 -0.25 C 3.578125 -0.484375 3.671875 -0.828125 3.671875 -0.859375 C 3.671875 -0.875 3.65625 -0.953125 3.546875 -0.953125 C 3.46875 -0.953125 3.453125 -0.90625 3.421875 -0.8125 C 3.328125 -0.4375 3.203125 -0.140625 2.96875 -0.140625 C 2.765625 -0.140625 2.75 -0.359375 2.75 -0.4375 C 2.75 -0.515625 2.8125 -0.765625 2.859375 -0.921875 Z M 2.328125 -0.78125 C 2.296875 -0.671875 2.296875 -0.671875 2.21875 -0.578125 C 1.890625 -0.203125 1.578125 -0.140625 1.4375 -0.140625 C 1.1875 -0.140625 0.953125 -0.296875 0.953125 -0.71875 C 0.953125 -0.96875 1.078125 -1.5625 1.28125 -1.890625 C 1.453125 -2.21875 1.765625 -2.4375 2.046875 -2.4375 C 2.5 -2.4375 2.609375 -1.96875 2.609375 -1.921875 L 2.59375 -1.84375 Z M 2.328125 -0.78125 "/>
</g>
</g>
</defs>
<path fill="none" stroke-width="0.19925" stroke-linecap="butt" stroke-linejoin="miter" stroke="rgb(50%, 50%, 50%)" stroke-opacity="1" stroke-miterlimit="10" d="M 36.822906 13.23375 L 36.822906 17.48375 M 220.944 13.23375 L 220.944 17.48375 " transform="matrix(1, 0, 0, -1, 5.181, 171.64)"/>
<path fill="none" stroke-width="0.3985" stroke-linecap="butt" stroke-linejoin="miter" stroke="rgb(0%, 0%, 0%)" stroke-opacity="1" stroke-miterlimit="10" d="M -0.0013125 15.35875 L 264.983063 15.35875 " transform="matrix(1, 0, 0, -1, 5.181, 171.64)"/>
<path fill-rule="nonzero" fill="rgb(0%, 0%, 0%)" fill-opacity="1" d="M 272.15625 156.28125 L 268.96875 154.6875 L 270.164062 156.28125 L 268.96875 157.875 "/>
<path fill="none" stroke-width="0.3985" stroke-linecap="butt" stroke-linejoin="miter" stroke="rgb(0%, 0%, 0%)" stroke-opacity="1" stroke-miterlimit="10" d="M 13.807281 -0.000625 L 13.807281 151.600937 " transform="matrix(1, 0, 0, -1, 5.181, 171.64)"/>
<path fill-rule="nonzero" fill="rgb(0%, 0%, 0%)" fill-opacity="1" d="M 18.988281 18.046875 L 17.394531 21.234375 L 18.988281 20.039062 L 20.585938 21.234375 "/>
<path fill-rule="nonzero" fill="rgb(87.136841%, 92.861938%, 92.861938%)" fill-opacity="1" d="M 42.003906 62.546875 L 43.753906 61.164062 L 46.492188 59.097656 L 49.230469 57.132812 L 51.96875 55.277344 L 54.707031 53.539062 L 57.445312 51.925781 L 60.183594 50.4375 L 62.921875 49.082031 L 65.660156 47.859375 L 68.398438 46.777344 L 71.136719 45.839844 L 73.875 45.042969 L 76.613281 44.394531 L 79.351562 43.890625 L 82.089844 43.535156 L 84.828125 43.324219 L 87.566406 43.261719 L 90.304688 43.34375 L 93.042969 43.566406 L 95.78125 43.925781 L 98.519531 44.421875 L 101.257812 45.050781 L 103.996094 45.804688 L 106.738281 46.679688 L 109.476562 47.671875 L 112.214844 48.773438 L 114.953125 49.980469 L 117.691406 51.285156 L 120.429688 52.675781 L 123.167969 54.148438 L 125.90625 55.695312 L 128.644531 57.308594 L 131.382812 58.976562 L 134.121094 60.691406 L 136.859375 62.449219 L 139.597656 64.234375 L 142.335938 66.042969 L 145.074219 67.859375 L 147.8125 69.683594 L 150.550781 71.503906 L 153.289062 73.308594 L 156.027344 75.089844 L 158.765625 76.84375 L 161.503906 78.554688 L 164.242188 80.222656 L 166.980469 81.835938 L 169.71875 83.386719 L 172.457031 84.875 L 175.195312 86.285156 L 177.933594 87.621094 L 180.671875 88.871094 L 183.414062 90.035156 L 186.152344 91.105469 L 188.890625 92.078125 L 191.628906 92.953125 L 194.367188 93.730469 L 197.105469 94.402344 L 199.84375 94.972656 L 202.582031 95.4375 L 205.320312 95.800781 L 208.058594 96.0625 L 210.796875 96.222656 L 213.535156 96.285156 L 216.273438 96.25 L 219.011719 96.125 L 221.75 95.914062 L 224.488281 95.617188 L 226.125 95.394531 L 226.125 108.519531 L 224.488281 109.269531 L 221.75 110.566406 L 219.011719 111.894531 L 216.273438 113.246094 L 213.535156 114.609375 L 210.796875 115.980469 L 208.058594 117.347656 L 205.320312 118.699219 L 202.582031 120.035156 L 199.84375 121.339844 L 197.105469 122.609375 L 194.367188 123.832031 L 191.628906 125.003906 L 188.890625 126.113281 L 186.152344 127.160156 L 183.414062 128.132812 L 180.671875 129.027344 L 177.933594 129.835938 L 175.195312 130.558594 L 172.457031 131.191406 L 169.71875 131.730469 L 166.980469 132.175781 L 164.242188 132.519531 L 161.503906 132.769531 L 158.765625 132.921875 L 156.027344 132.976562 L 153.289062 132.933594 L 150.550781 132.800781 L 147.8125 132.578125 L 145.074219 132.273438 L 142.335938 131.882812 L 139.597656 131.421875 L 136.859375 130.890625 L 134.121094 130.292969 L 131.382812 129.640625 L 128.644531 128.941406 L 125.90625 128.203125 L 123.167969 127.425781 L 120.429688 126.628906 L 117.691406 125.816406 L 114.953125 124.992188 L 112.214844 124.175781 L 109.476562 123.363281 L 106.738281 122.574219 L 103.996094 121.808594 L 101.257812 121.082031 L 98.519531 120.394531 L 95.78125 119.761719 L 93.042969 119.1875 L 90.304688 118.675781 L 87.566406 118.234375 L 84.828125 117.875 L 82.089844 117.59375 L 79.351562 117.398438 L 76.613281 117.296875 L 73.875 117.285156 L 71.136719 117.371094 L 68.398438 117.554688 L 65.660156 117.835938 L 62.921875 118.210938 L 60.183594 118.6875 L 57.445312 119.253906 L 54.707031 119.917969 L 51.96875 120.671875 L 49.230469 121.507812 L 46.492188 122.429688 L 43.753906 123.425781 L 42.003906 124.105469 Z M 42.003906 62.546875 "/>
<g fill="rgb(0%, 0%, 0%)" fill-opacity="1">
<use xlink:href="#glyph-0-0" x="39.371" y="166.216"/>
</g>
<g fill="rgb(0%, 0%, 0%)" fill-opacity="1">
<use xlink:href="#glyph-0-1" x="223.984" y="168.845"/>
</g>
<path fill="none" stroke-width="1.19553" stroke-linecap="butt" stroke-linejoin="miter" stroke="rgb(35.68573%, 64.312744%, 64.312744%)" stroke-opacity="1" stroke-miterlimit="10" d="M 27.619781 101.304062 L 30.358062 103.714219 L 33.096344 106.054062 L 35.834625 108.307969 L 38.572906 110.475937 L 41.311188 112.542344 L 44.049469 114.507187 L 46.78775 116.362656 L 49.526031 118.100937 L 52.264313 119.714219 L 55.002594 121.2025 L 57.740875 122.557969 L 60.479156 123.780625 L 63.217438 124.862656 L 65.955719 125.800156 L 68.694 126.597031 L 71.432281 127.245469 L 74.170563 127.749375 L 76.908844 128.104844 L 79.647125 128.315781 L 82.385406 128.378281 L 85.123688 128.29625 L 87.861969 128.073594 L 90.60025 127.714219 L 93.338531 127.218125 L 96.076813 126.589219 L 98.815094 125.835312 L 101.557281 124.960312 L 104.295563 123.968125 L 107.033844 122.866562 L 109.772125 121.659531 L 112.510406 120.354844 L 115.248688 118.964219 L 117.986969 117.491562 L 120.72525 115.944687 L 123.463531 114.331406 L 126.201813 112.663437 L 128.940094 110.948594 L 131.678375 109.190781 L 134.416656 107.405625 L 137.154937 105.597031 L 139.893219 103.780625 L 142.6315 101.956406 L 145.369781 100.136094 L 148.108062 98.331406 L 150.846344 96.550156 L 153.584625 94.79625 L 156.322906 93.085312 L 159.061187 91.417344 L 161.799469 89.804062 L 164.53775 88.253281 L 167.276031 86.765 L 170.014312 85.354844 L 172.752594 84.018906 L 175.490875 82.768906 L 178.233062 81.604844 L 180.971344 80.534531 L 183.709625 79.561875 L 186.447906 78.686875 L 189.186187 77.909531 L 191.924469 77.237656 L 194.66275 76.667344 L 197.401031 76.2025 L 200.139312 75.839219 L 202.877594 75.5775 L 205.615875 75.417344 L 208.354156 75.354844 L 211.092437 75.39 L 213.830719 75.515 L 216.569 75.725937 L 219.307281 76.022812 L 222.045562 76.397812 L 224.783844 76.847031 L 227.522125 77.35875 L 230.260406 77.932969 L 232.998687 78.561875 L 235.736969 79.23375 L 238.47525 79.944687 L 241.213531 80.686875 L 243.951812 81.448594 " transform="matrix(1, 0, 0, -1, 5.181, 171.64)"/>
<path fill="none" stroke-width="1.19553" stroke-linecap="butt" stroke-linejoin="miter" stroke="rgb(97.645569%, 45.095825%, 8.625793%)" stroke-opacity="1" stroke-miterlimit="10" d="M 27.619781 43.589219 L 30.358062 44.8275 L 33.096344 46.015 L 35.834625 47.147812 L 38.572906 48.214219 L 41.311188 49.210312 L 44.049469 50.132187 L 46.78775 50.968125 L 49.526031 51.722031 L 52.264313 52.386094 L 55.002594 52.9525 L 57.740875 53.429062 L 60.479156 53.804062 L 63.217438 54.085312 L 65.955719 54.268906 L 68.694 54.354844 L 71.432281 54.343125 L 74.170563 54.241562 L 76.908844 54.04625 L 79.647125 53.765 L 82.385406 53.405625 L 85.123688 52.964219 L 87.861969 52.4525 L 90.60025 51.878281 L 93.338531 51.245469 L 96.076813 50.557969 L 98.815094 49.831406 L 101.557281 49.065781 L 104.295563 48.276719 L 107.033844 47.464219 L 109.772125 46.647812 L 112.510406 45.823594 L 115.248688 45.011094 L 117.986969 44.214219 L 120.72525 43.436875 L 123.463531 42.698594 L 126.201813 41.999375 L 128.940094 41.347031 L 131.678375 40.749375 L 134.416656 40.218125 L 137.154937 39.757187 L 139.893219 39.366562 L 142.6315 39.061875 L 145.369781 38.839219 L 148.108062 38.706406 L 150.846344 38.663437 L 153.584625 38.718125 L 156.322906 38.870469 L 159.061187 39.120469 L 161.799469 39.464219 L 164.53775 39.909531 L 167.276031 40.448594 L 170.014312 41.081406 L 172.752594 41.804062 L 175.490875 42.612656 L 178.233062 43.507187 L 180.971344 44.479844 L 183.709625 45.526719 L 186.447906 46.636094 L 189.186187 47.807969 L 191.924469 49.030625 L 194.66275 50.300156 L 197.401031 51.604844 L 200.139312 52.940781 L 202.877594 54.292344 L 205.615875 55.659531 L 208.354156 57.030625 L 211.092437 58.393906 L 213.830719 59.745469 L 216.569 61.073594 L 219.307281 62.370469 L 222.045562 63.628281 L 224.783844 64.839219 L 227.522125 65.991562 L 230.260406 67.085312 L 232.998687 68.112656 L 235.736969 69.065781 L 238.47525 69.936875 L 241.213531 70.725937 L 243.951812 71.425156 " transform="matrix(1, 0, 0, -1, 5.181, 171.64)"/>
<path fill="none" stroke-width="0.3985" stroke-linecap="butt" stroke-linejoin="miter" stroke="rgb(39.216614%, 45.489502%, 54.508972%)" stroke-opacity="1" stroke-dasharray="2.98883 2.98883" stroke-miterlimit="10" d="M 36.822906 15.35875 L 36.822906 116.729844 " transform="matrix(1, 0, 0, -1, 5.181, 171.64)"/>
<path fill="none" stroke-width="0.3985" stroke-linecap="butt" stroke-linejoin="miter" stroke="rgb(39.216614%, 45.489502%, 54.508972%)" stroke-opacity="1" stroke-dasharray="2.98883 2.98883" stroke-miterlimit="10" d="M 220.944 15.35875 L 220.944 110.585312 " transform="matrix(1, 0, 0, -1, 5.181, 171.64)"/>
<path fill="none" stroke-width="1.19553" stroke-linecap="butt" stroke-linejoin="miter" stroke="rgb(83.137512%, 65.879822%, 32.548523%)" stroke-opacity="1" stroke-miterlimit="10" d="M 128.885406 63.741562 L 128.885406 109.050156 " transform="matrix(1, 0, 0, -1, 5.181, 171.64)"/>
<path fill-rule="nonzero" fill="rgb(83.137512%, 65.879822%, 32.548523%)" fill-opacity="1" d="M 136.058594 107.898438 C 136.058594 106.796875 135.164062 105.90625 134.066406 105.90625 C 132.964844 105.90625 132.074219 106.796875 132.074219 107.898438 C 132.074219 109 132.964844 109.890625 134.066406 109.890625 C 135.164062 109.890625 136.058594 109 136.058594 107.898438 Z M 136.058594 107.898438 "/>
<path fill-rule="nonzero" fill="rgb(83.137512%, 65.879822%, 32.548523%)" fill-opacity="1" d="M 136.058594 62.589844 C 136.058594 61.488281 135.164062 60.597656 134.066406 60.597656 C 132.964844 60.597656 132.074219 61.488281 132.074219 62.589844 C 132.074219 63.6875 132.964844 64.582031 134.066406 64.582031 C 135.164062 64.582031 136.058594 63.6875 136.058594 62.589844 Z M 136.058594 62.589844 "/>
<path fill="none" stroke-width="0.79701" stroke-linecap="butt" stroke-linejoin="miter" stroke="rgb(83.137512%, 65.879822%, 32.548523%)" stroke-opacity="1" stroke-miterlimit="10" d="M 142.694 64.538437 L 142.694 108.253281 " transform="matrix(1, 0, 0, -1, 5.181, 171.64)"/>
<path fill="none" stroke-width="0.79701" stroke-linecap="round" stroke-linejoin="round" stroke="rgb(83.137512%, 65.879822%, 32.548523%)" stroke-opacity="1" stroke-miterlimit="10" d="M -2.551121 3.110175 C -2.086277 1.242987 -1.047215 0.364081 -0.00034 0.0008 C -1.047215 -0.362481 -2.086277 -1.245294 -2.551121 -3.112481 " transform="matrix(0, 1, 1, 0, 147.8742, 107.50034)"/>
<path fill="none" stroke-width="0.79701" stroke-linecap="round" stroke-linejoin="round" stroke="rgb(83.137512%, 65.879822%, 32.548523%)" stroke-opacity="1" stroke-miterlimit="10" d="M -2.551713 3.112481 C -2.082963 1.245294 -1.047806 0.362481 -0.00093125 -0.0008 C -1.047806 -0.364081 -2.082963 -1.242987 -2.551713 -3.110175 " transform="matrix(0, -1, -1, 0, 147.8742, 62.98735)"/>
<g fill="rgb(83.137512%, 65.879822%, 32.548523%)" fill-opacity="1">
<use xlink:href="#glyph-1-0" x="153.693" y="87.87"/>
</g>
<g fill="rgb(83.137512%, 65.879822%, 32.548523%)" fill-opacity="1">
<use xlink:href="#glyph-2-0" x="159.142778" y="87.87"/>
</g>
<g fill="rgb(83.137512%, 65.879822%, 32.548523%)" fill-opacity="1">
<use xlink:href="#glyph-1-1" x="162.726648" y="87.87"/>
</g>
<g fill="rgb(83.137512%, 65.879822%, 32.548523%)" fill-opacity="1">
<use xlink:href="#glyph-2-1" x="167.950473" y="87.87"/>
</g>
<g fill="rgb(83.137512%, 65.879822%, 32.548523%)" fill-opacity="1">
<use xlink:href="#glyph-3-0" x="173.578682" y="87.87"/>
</g>
<g fill="rgb(83.137512%, 65.879822%, 32.548523%)" fill-opacity="1">
<use xlink:href="#glyph-1-2" x="182.799728" y="87.87"/>
</g>
<g fill="rgb(83.137512%, 65.879822%, 32.548523%)" fill-opacity="1">
<use xlink:href="#glyph-2-0" x="187.507984" y="87.87"/>
</g>
<g fill="rgb(83.137512%, 65.879822%, 32.548523%)" fill-opacity="1">
<use xlink:href="#glyph-1-1" x="191.091854" y="87.87"/>
</g>
<g fill="rgb(83.137512%, 65.879822%, 32.548523%)" fill-opacity="1">
<use xlink:href="#glyph-2-1" x="196.315679" y="87.87"/>
</g>
<g fill="rgb(35.68573%, 64.312744%, 64.312744%)" fill-opacity="1">
<use xlink:href="#glyph-1-3" x="215.833" y="52.221"/>
</g>
<g fill="rgb(35.68573%, 64.312744%, 64.312744%)" fill-opacity="1">
<use xlink:href="#glyph-2-2" x="223.250006" y="52.221"/>
</g>
<g fill="rgb(35.68573%, 64.312744%, 64.312744%)" fill-opacity="1">
<use xlink:href="#glyph-1-0" x="232.982137" y="52.221"/>
</g>
<g fill="rgb(35.68573%, 64.312744%, 64.312744%)" fill-opacity="1">
<use xlink:href="#glyph-2-0" x="238.431915" y="52.221"/>
</g>
<g fill="rgb(35.68573%, 64.312744%, 64.312744%)" fill-opacity="1">
<use xlink:href="#glyph-1-1" x="242.015785" y="52.221"/>
</g>
<g fill="rgb(35.68573%, 64.312744%, 64.312744%)" fill-opacity="1">
<use xlink:href="#glyph-2-1" x="247.239609" y="52.221"/>
</g>
<g fill="rgb(97.645569%, 45.095825%, 8.625793%)" fill-opacity="1">
<use xlink:href="#glyph-1-3" x="215.833" y="108.161"/>
</g>
<g fill="rgb(97.645569%, 45.095825%, 8.625793%)" fill-opacity="1">
<use xlink:href="#glyph-2-2" x="223.250006" y="108.161"/>
</g>
<g fill="rgb(97.645569%, 45.095825%, 8.625793%)" fill-opacity="1">
<use xlink:href="#glyph-1-2" x="232.982137" y="108.161"/>
</g>
<g fill="rgb(97.645569%, 45.095825%, 8.625793%)" fill-opacity="1">
<use xlink:href="#glyph-2-0" x="237.69936" y="108.161"/>
</g>
<g fill="rgb(97.645569%, 45.095825%, 8.625793%)" fill-opacity="1">
<use xlink:href="#glyph-1-1" x="241.28323" y="108.161"/>
</g>
<g fill="rgb(97.645569%, 45.095825%, 8.625793%)" fill-opacity="1">
<use xlink:href="#glyph-2-1" x="246.507054" y="108.161"/>
</g>
<g fill="rgb(0%, 0%, 0%)" fill-opacity="1">
<use xlink:href="#glyph-1-1" x="131.451" y="166.733"/>
</g>
<path fill="none" stroke-width="0.3985" stroke-linecap="butt" stroke-linejoin="miter" stroke="rgb(0%, 0%, 0%)" stroke-opacity="1" stroke-miterlimit="10" d="M 128.885406 15.35875 L 128.885406 13.823594 " transform="matrix(1, 0, 0, -1, 5.181, 171.64)"/>
<g fill="rgb(0%, 0%, 0%)" fill-opacity="1">
<use xlink:href="#glyph-0-2" x="275.671" y="158.426"/>
</g>
<g fill="rgb(0%, 0%, 0%)" fill-opacity="1">
<use xlink:href="#glyph-0-3" x="16.368" y="12.592"/>
</g>
<g fill="rgb(0%, 0%, 0%)" fill-opacity="1">
<use xlink:href="#glyph-2-3" x="105.87" y="202.823"/>
<use xlink:href="#glyph-2-4" x="112.780404" y="202.823"/>
<use xlink:href="#glyph-2-5" x="116.384897" y="202.823"/>
<use xlink:href="#glyph-2-6" x="120.484335" y="202.823"/>
</g>
<g fill="rgb(0%, 0%, 0%)" fill-opacity="1">
<use xlink:href="#glyph-2-2" x="128.167644" y="202.823"/>
</g>
<g fill="rgb(0%, 0%, 0%)" fill-opacity="1">
<use xlink:href="#glyph-4-0" x="137.891" y="190.619"/>
</g>
<g fill="rgb(0%, 0%, 0%)" fill-opacity="1">
<use xlink:href="#glyph-5-0" x="147.107" y="193.082"/>
</g>
<g fill="rgb(0%, 0%, 0%)" fill-opacity="1">
<use xlink:href="#glyph-5-1" x="143.011" y="211.042"/>
</g>
<g fill="rgb(0%, 0%, 0%)" fill-opacity="1">
<use xlink:href="#glyph-4-1" x="150.879" y="195.58"/>
</g>
<g fill="rgb(0%, 0%, 0%)" fill-opacity="1">
<use xlink:href="#glyph-1-0" x="154.718" y="202.823"/>
</g>
<g fill="rgb(0%, 0%, 0%)" fill-opacity="1">
<use xlink:href="#glyph-2-0" x="160.167778" y="202.823"/>
</g>
<g fill="rgb(0%, 0%, 0%)" fill-opacity="1">
<use xlink:href="#glyph-1-1" x="163.751648" y="202.823"/>
</g>
<g fill="rgb(0%, 0%, 0%)" fill-opacity="1">
<use xlink:href="#glyph-2-1" x="168.975473" y="202.823"/>
</g>
<g fill="rgb(0%, 0%, 0%)" fill-opacity="1">
<use xlink:href="#glyph-3-0" x="174.603682" y="202.823"/>
</g>
<g fill="rgb(0%, 0%, 0%)" fill-opacity="1">
<use xlink:href="#glyph-1-2" x="183.824728" y="202.823"/>
</g>
<g fill="rgb(0%, 0%, 0%)" fill-opacity="1">
<use xlink:href="#glyph-2-0" x="188.532984" y="202.823"/>
</g>
<g fill="rgb(0%, 0%, 0%)" fill-opacity="1">
<use xlink:href="#glyph-1-1" x="192.116854" y="202.823"/>
</g>
<g fill="rgb(0%, 0%, 0%)" fill-opacity="1">
<use xlink:href="#glyph-2-1" x="197.340679" y="202.823"/>
</g>
<g fill="rgb(0%, 0%, 0%)" fill-opacity="1">
<use xlink:href="#glyph-4-2" x="200.928" y="195.58"/>
</g>
<g fill="rgb(0%, 0%, 0%)" fill-opacity="1">
<use xlink:href="#glyph-1-4" x="206.303" y="202.823"/>
<use xlink:href="#glyph-1-1" x="211.077608" y="202.823"/>
</g>
</svg>
