<?xml version="1.0" encoding="UTF-8"?>
<svg xmlns="http://www.w3.org/2000/svg" xmlns:xlink="http://www.w3.org/1999/xlink" width="221.121pt" height="142.728pt" viewBox="0 0 221.121 142.728">
<defs>
<g>
<g id="glyph-0-0">
<path d="M 3.328125 -3.015625 C 3.390625 -3.265625 3.625 -4.1875 4.3125 -4.1875 C 4.359375 -4.1875 4.609375 -4.1875 4.8125 -4.0625 C 4.53125 -4 4.34375 -3.765625 4.34375 -3.515625 C 4.34375 -3.359375 4.453125 -3.171875 4.71875 -3.171875 C 4.9375 -3.171875 5.25 -3.34375 5.25 -3.75 C 5.25 -4.265625 4.671875 -4.40625 4.328125 -4.40625 C 3.75 -4.40625 3.40625 -3.875 3.28125 -3.65625 C 3.03125 -4.3125 2.5 -4.40625 2.203125 -4.40625 C 1.171875 -4.40625 0.59375 -3.125 0.59375 -2.875 C 0.59375 -2.765625 0.703125 -2.765625 0.71875 -2.765625 C 0.796875 -2.765625 0.828125 -2.796875 0.84375 -2.875 C 1.1875 -3.9375 1.84375 -4.1875 2.1875 -4.1875 C 2.375 -4.1875 2.71875 -4.09375 2.71875 -3.515625 C 2.71875 -3.203125 2.546875 -2.546875 2.1875 -1.140625 C 2.03125 -0.53125 1.671875 -0.109375 1.234375 -0.109375 C 1.171875 -0.109375 0.953125 -0.109375 0.734375 -0.234375 C 0.984375 -0.296875 1.203125 -0.5 1.203125 -0.78125 C 1.203125 -1.046875 0.984375 -1.125 0.84375 -1.125 C 0.53125 -1.125 0.296875 -0.875 0.296875 -0.546875 C 0.296875 -0.09375 0.78125 0.109375 1.21875 0.109375 C 1.890625 0.109375 2.25 -0.59375 2.265625 -0.640625 C 2.390625 -0.28125 2.75 0.109375 3.34375 0.109375 C 4.375 0.109375 4.9375 -1.171875 4.9375 -1.421875 C 4.9375 -1.53125 4.859375 -1.53125 4.828125 -1.53125 C 4.734375 -1.53125 4.71875 -1.484375 4.6875 -1.421875 C 4.359375 -0.34375 3.6875 -0.109375 3.375 -0.109375 C 2.984375 -0.109375 2.828125 -0.421875 2.828125 -0.765625 C 2.828125 -0.984375 2.875 -1.203125 2.984375 -1.640625 Z M 3.328125 -3.015625 "/>
</g>
<g id="glyph-0-1">
<path d="M 4.84375 -3.796875 C 4.890625 -3.9375 4.890625 -3.953125 4.890625 -4.03125 C 4.890625 -4.203125 4.75 -4.296875 4.59375 -4.296875 C 4.5 -4.296875 4.34375 -4.234375 4.25 -4.09375 C 4.234375 -4.03125 4.140625 -3.734375 4.109375 -3.546875 C 4.03125 -3.296875 3.96875 -3.015625 3.90625 -2.75 L 3.453125 -0.953125 C 3.421875 -0.8125 2.984375 -0.109375 2.328125 -0.109375 C 1.828125 -0.109375 1.71875 -0.546875 1.71875 -0.921875 C 1.71875 -1.375 1.890625 -2 2.21875 -2.875 C 2.375 -3.28125 2.421875 -3.390625 2.421875 -3.59375 C 2.421875 -4.03125 2.109375 -4.40625 1.609375 -4.40625 C 0.65625 -4.40625 0.296875 -2.953125 0.296875 -2.875 C 0.296875 -2.765625 0.390625 -2.765625 0.40625 -2.765625 C 0.515625 -2.765625 0.515625 -2.796875 0.5625 -2.953125 C 0.84375 -3.890625 1.234375 -4.1875 1.578125 -4.1875 C 1.65625 -4.1875 1.828125 -4.1875 1.828125 -3.875 C 1.828125 -3.625 1.71875 -3.359375 1.65625 -3.171875 C 1.25 -2.109375 1.078125 -1.546875 1.078125 -1.078125 C 1.078125 -0.1875 1.703125 0.109375 2.296875 0.109375 C 2.6875 0.109375 3.015625 -0.0625 3.296875 -0.34375 C 3.171875 0.171875 3.046875 0.671875 2.65625 1.203125 C 2.390625 1.53125 2.015625 1.828125 1.5625 1.828125 C 1.421875 1.828125 0.96875 1.796875 0.796875 1.40625 C 0.953125 1.40625 1.09375 1.40625 1.21875 1.28125 C 1.328125 1.203125 1.421875 1.0625 1.421875 0.875 C 1.421875 0.5625 1.15625 0.53125 1.0625 0.53125 C 0.828125 0.53125 0.5 0.6875 0.5 1.171875 C 0.5 1.671875 0.9375 2.046875 1.5625 2.046875 C 2.578125 2.046875 3.609375 1.140625 3.890625 0.015625 Z M 4.84375 -3.796875 "/>
</g>
<g id="glyph-1-0">
<path d="M 2.03125 -2.15625 L 2.765625 -2.15625 C 2.640625 -1.625 2.5625 -1.234375 2.5625 -0.84375 C 2.5625 -0.546875 2.65625 0.0625 2.9375 0.0625 C 3.09375 0.0625 3.21875 -0.078125 3.21875 -0.21875 C 3.21875 -0.265625 3.203125 -0.3125 3.1875 -0.34375 C 2.96875 -0.734375 2.921875 -1.125 2.921875 -1.4375 C 2.921875 -1.53125 2.921875 -1.796875 3 -2.15625 L 3.796875 -2.15625 C 3.859375 -2.15625 4.125 -2.15625 4.125 -2.40625 C 4.125 -2.578125 3.953125 -2.578125 3.859375 -2.578125 L 1.46875 -2.578125 C 1.359375 -2.578125 1.078125 -2.578125 0.765625 -2.28125 C 0.578125 -2.109375 0.359375 -1.8125 0.359375 -1.765625 C 0.359375 -1.671875 0.4375 -1.671875 0.46875 -1.671875 C 0.53125 -1.671875 0.546875 -1.6875 0.59375 -1.734375 C 0.6875 -1.890625 0.921875 -2.15625 1.40625 -2.15625 L 1.796875 -2.15625 C 1.59375 -1.40625 1.1875 -0.609375 1.109375 -0.453125 C 1.0625 -0.359375 0.984375 -0.203125 0.984375 -0.140625 C 0.984375 -0.015625 1.078125 0.0625 1.203125 0.0625 C 1.40625 0.0625 1.484375 -0.15625 1.546875 -0.34375 C 1.65625 -0.71875 1.65625 -0.734375 1.75 -1.046875 Z M 2.03125 -2.15625 "/>
</g>
<g id="glyph-2-0">
<path d="M 3.21875 -1.125 L 3 -1.125 C 2.984375 -1.03125 2.921875 -0.640625 2.84375 -0.578125 C 2.796875 -0.53125 2.3125 -0.53125 2.21875 -0.53125 L 1.109375 -0.53125 L 1.875 -1.15625 C 2.078125 -1.328125 2.609375 -1.703125 2.796875 -1.890625 C 2.96875 -2.0625 3.21875 -2.375 3.21875 -2.796875 C 3.21875 -3.546875 2.546875 -3.984375 1.734375 -3.984375 C 0.96875 -3.984375 0.4375 -3.46875 0.4375 -2.90625 C 0.4375 -2.609375 0.6875 -2.5625 0.75 -2.5625 C 0.90625 -2.5625 1.078125 -2.671875 1.078125 -2.890625 C 1.078125 -3.015625 1 -3.21875 0.734375 -3.21875 C 0.875 -3.515625 1.234375 -3.75 1.65625 -3.75 C 2.28125 -3.75 2.609375 -3.28125 2.609375 -2.796875 C 2.609375 -2.375 2.328125 -1.9375 1.921875 -1.546875 L 0.5 -0.25 C 0.4375 -0.1875 0.4375 -0.1875 0.4375 0 L 3.03125 0 Z M 3.21875 -1.125 "/>
</g>
<g id="glyph-3-0">
<path d="M 2.453125 -3.3125 L 3.46875 -3.3125 C 3.34375 -2.75 3.109375 -1.8125 3.109375 -1.0625 C 3.109375 -1 3.109375 -0.671875 3.1875 -0.34375 C 3.28125 -0.015625 3.359375 0.09375 3.53125 0.09375 C 3.71875 0.09375 3.921875 -0.0625 3.921875 -0.265625 C 3.921875 -0.328125 3.90625 -0.359375 3.859375 -0.46875 C 3.578125 -1.109375 3.578125 -1.765625 3.578125 -1.96875 C 3.578125 -2.203125 3.578125 -2.59375 3.734375 -3.3125 L 4.78125 -3.3125 C 4.890625 -3.3125 5.234375 -3.3125 5.234375 -3.625 C 5.234375 -3.859375 5.03125 -3.859375 4.859375 -3.859375 L 1.765625 -3.859375 C 1.546875 -3.859375 1.234375 -3.859375 0.8125 -3.4375 C 0.5625 -3.203125 0.234375 -2.703125 0.234375 -2.640625 C 0.234375 -2.53125 0.34375 -2.53125 0.375 -2.53125 C 0.4375 -2.53125 0.453125 -2.5625 0.515625 -2.640625 C 0.953125 -3.3125 1.5 -3.3125 1.671875 -3.3125 L 2.1875 -3.3125 C 1.796875 -1.953125 1.1875 -0.6875 1.125 -0.546875 C 1.0625 -0.421875 0.96875 -0.234375 0.96875 -0.15625 C 0.96875 -0.046875 1.046875 0.09375 1.25 0.09375 C 1.5625 0.09375 1.65625 -0.21875 1.84375 -0.953125 Z M 2.453125 -3.3125 "/>
</g>
<g id="glyph-3-1">
<path d="M 4.5 -3.453125 C 4.515625 -3.5 4.53125 -3.546875 4.53125 -3.609375 C 4.53125 -3.71875 4.453125 -3.859375 4.25 -3.859375 C 4.140625 -3.859375 3.96875 -3.796875 3.90625 -3.625 C 3.890625 -3.59375 3.796875 -3.21875 3.75 -3.015625 L 3.296875 -1.234375 C 3.234375 -0.96875 3.234375 -0.953125 3.203125 -0.875 C 3.203125 -0.828125 2.828125 -0.125 2.171875 -0.125 C 1.625 -0.125 1.625 -0.6875 1.625 -0.859375 C 1.625 -1.265625 1.734375 -1.703125 2.125 -2.703125 C 2.203125 -2.921875 2.25 -3.046875 2.25 -3.203125 C 2.25 -3.65625 1.921875 -3.96875 1.484375 -3.96875 C 0.625 -3.96875 0.265625 -2.6875 0.265625 -2.578125 C 0.265625 -2.5 0.328125 -2.46875 0.390625 -2.46875 C 0.484375 -2.46875 0.5 -2.53125 0.53125 -2.640625 C 0.71875 -3.3125 1.078125 -3.734375 1.453125 -3.734375 C 1.671875 -3.734375 1.671875 -3.5625 1.671875 -3.4375 C 1.671875 -3.296875 1.625 -3.125 1.546875 -2.921875 C 1.125 -1.796875 1.015625 -1.421875 1.015625 -1 C 1.015625 0 1.828125 0.09375 2.15625 0.09375 C 2.59375 0.09375 2.90625 -0.140625 3.0625 -0.296875 C 2.953125 0.15625 2.859375 0.5625 2.5 1.015625 C 2.234375 1.375 1.875 1.609375 1.484375 1.609375 C 1.234375 1.609375 0.9375 1.53125 0.8125 1.28125 C 1.28125 1.28125 1.34375 0.875 1.34375 0.796875 C 1.34375 0.59375 1.203125 0.46875 1 0.46875 C 0.796875 0.46875 0.5 0.640625 0.5 1.046875 C 0.5 1.515625 0.921875 1.84375 1.484375 1.84375 C 2.390625 1.84375 3.375 1.0625 3.625 0.015625 Z M 4.5 -3.453125 "/>
</g>
<g id="glyph-3-2">
<path d="M 4.40625 -3.625 C 4.078125 -3.5625 3.984375 -3.28125 3.984375 -3.140625 C 3.984375 -2.96875 4.109375 -2.8125 4.328125 -2.8125 C 4.578125 -2.8125 4.828125 -3.03125 4.828125 -3.34375 C 4.828125 -3.765625 4.375 -3.96875 3.953125 -3.96875 C 3.421875 -3.96875 3.109375 -3.484375 3 -3.296875 C 2.828125 -3.734375 2.4375 -3.96875 2 -3.96875 C 1.046875 -3.96875 0.515625 -2.8125 0.515625 -2.578125 C 0.515625 -2.5 0.578125 -2.46875 0.640625 -2.46875 C 0.71875 -2.46875 0.75 -2.515625 0.765625 -2.578125 C 1.046875 -3.46875 1.640625 -3.734375 1.984375 -3.734375 C 2.25 -3.734375 2.46875 -3.5625 2.46875 -3.140625 C 2.46875 -2.828125 2.09375 -1.390625 1.96875 -0.953125 C 1.90625 -0.6875 1.625 -0.125 1.140625 -0.125 C 0.953125 -0.125 0.765625 -0.1875 0.6875 -0.234375 C 0.921875 -0.28125 1.109375 -0.5 1.109375 -0.71875 C 1.109375 -0.953125 0.9375 -1.046875 0.765625 -1.046875 C 0.5 -1.046875 0.265625 -0.828125 0.265625 -0.515625 C 0.265625 -0.078125 0.75 0.09375 1.125 0.09375 C 1.65625 0.09375 1.953125 -0.328125 2.09375 -0.578125 C 2.3125 0.015625 2.84375 0.09375 3.078125 0.09375 C 4.046875 0.09375 4.5625 -1.0625 4.5625 -1.28125 C 4.5625 -1.328125 4.53125 -1.390625 4.453125 -1.390625 C 4.34375 -1.390625 4.34375 -1.359375 4.296875 -1.21875 C 4.09375 -0.578125 3.578125 -0.125 3.109375 -0.125 C 2.859375 -0.125 2.609375 -0.28125 2.609375 -0.71875 C 2.609375 -0.921875 2.734375 -1.40625 2.8125 -1.75 C 2.859375 -1.90625 3.09375 -2.875 3.109375 -2.9375 C 3.21875 -3.265625 3.484375 -3.734375 3.953125 -3.734375 C 4.109375 -3.734375 4.28125 -3.71875 4.40625 -3.625 Z M 4.40625 -3.625 "/>
</g>
<g id="glyph-4-0">
<path d="M 6.046875 -2.046875 C 6.21875 -2.046875 6.390625 -2.046875 6.390625 -2.25 C 6.390625 -2.4375 6.203125 -2.4375 6.046875 -2.4375 L 1.109375 -2.4375 C 0.953125 -2.4375 0.765625 -2.4375 0.765625 -2.25 C 0.765625 -2.046875 0.9375 -2.046875 1.109375 -2.046875 Z M 6.046875 -2.046875 "/>
</g>
<g id="glyph-5-0">
<path d="M 6.84375 -3.265625 C 7 -3.265625 7.1875 -3.265625 7.1875 -3.453125 C 7.1875 -3.65625 7 -3.65625 6.859375 -3.65625 L 0.890625 -3.65625 C 0.75 -3.65625 0.5625 -3.65625 0.5625 -3.453125 C 0.5625 -3.265625 0.75 -3.265625 0.890625 -3.265625 Z M 6.859375 -1.328125 C 7 -1.328125 7.1875 -1.328125 7.1875 -1.53125 C 7.1875 -1.71875 7 -1.71875 6.84375 -1.71875 L 0.890625 -1.71875 C 0.75 -1.71875 0.5625 -1.71875 0.5625 -1.53125 C 0.5625 -1.328125 0.75 -1.328125 0.890625 -1.328125 Z M 6.859375 -1.328125 "/>
</g>
<g id="glyph-5-1">
<path d="M 2.078125 -1.9375 C 2.296875 -1.890625 3.109375 -1.734375 3.109375 -1.015625 C 3.109375 -0.515625 2.765625 -0.109375 1.984375 -0.109375 C 1.140625 -0.109375 0.78125 -0.671875 0.59375 -1.53125 C 0.5625 -1.65625 0.5625 -1.6875 0.453125 -1.6875 C 0.328125 -1.6875 0.328125 -1.625 0.328125 -1.453125 L 0.328125 -0.125 C 0.328125 0.046875 0.328125 0.109375 0.4375 0.109375 C 0.484375 0.109375 0.5 0.09375 0.6875 -0.09375 C 0.703125 -0.109375 0.703125 -0.125 0.890625 -0.3125 C 1.328125 0.09375 1.78125 0.109375 1.984375 0.109375 C 3.125 0.109375 3.59375 -0.5625 3.59375 -1.28125 C 3.59375 -1.796875 3.296875 -2.109375 3.171875 -2.21875 C 2.84375 -2.546875 2.453125 -2.625 2.03125 -2.703125 C 1.46875 -2.8125 0.8125 -2.9375 0.8125 -3.515625 C 0.8125 -3.875 1.0625 -4.28125 1.921875 -4.28125 C 3.015625 -4.28125 3.078125 -3.375 3.09375 -3.078125 C 3.09375 -2.984375 3.1875 -2.984375 3.203125 -2.984375 C 3.34375 -2.984375 3.34375 -3.03125 3.34375 -3.21875 L 3.34375 -4.234375 C 3.34375 -4.390625 3.34375 -4.46875 3.234375 -4.46875 C 3.1875 -4.46875 3.15625 -4.46875 3.03125 -4.34375 C 3 -4.3125 2.90625 -4.21875 2.859375 -4.1875 C 2.484375 -4.46875 2.078125 -4.46875 1.921875 -4.46875 C 0.703125 -4.46875 0.328125 -3.796875 0.328125 -3.234375 C 0.328125 -2.890625 0.484375 -2.609375 0.75 -2.390625 C 1.078125 -2.140625 1.359375 -2.078125 2.078125 -1.9375 Z M 2.078125 -1.9375 "/>
</g>
<g id="glyph-5-2">
<path d="M 1.109375 -2.515625 C 1.171875 -4 2.015625 -4.25 2.359375 -4.25 C 3.375 -4.25 3.484375 -2.90625 3.484375 -2.515625 Z M 1.109375 -2.296875 L 3.890625 -2.296875 C 4.109375 -2.296875 4.140625 -2.296875 4.140625 -2.515625 C 4.140625 -3.5 3.59375 -4.46875 2.359375 -4.46875 C 1.203125 -4.46875 0.28125 -3.4375 0.28125 -2.1875 C 0.28125 -0.859375 1.328125 0.109375 2.46875 0.109375 C 3.6875 0.109375 4.140625 -1 4.140625 -1.1875 C 4.140625 -1.28125 4.0625 -1.3125 4 -1.3125 C 3.921875 -1.3125 3.890625 -1.25 3.875 -1.171875 C 3.53125 -0.140625 2.625 -0.140625 2.53125 -0.140625 C 2.03125 -0.140625 1.640625 -0.4375 1.40625 -0.8125 C 1.109375 -1.28125 1.109375 -1.9375 1.109375 -2.296875 Z M 1.109375 -2.296875 "/>
</g>
<g id="glyph-5-3">
<path d="M 1.171875 -2.171875 C 1.171875 -3.796875 1.984375 -4.21875 2.515625 -4.21875 C 2.609375 -4.21875 3.234375 -4.203125 3.578125 -3.84375 C 3.171875 -3.8125 3.109375 -3.515625 3.109375 -3.390625 C 3.109375 -3.125 3.296875 -2.9375 3.5625 -2.9375 C 3.828125 -2.9375 4.03125 -3.09375 4.03125 -3.40625 C 4.03125 -4.078125 3.265625 -4.46875 2.5 -4.46875 C 1.25 -4.46875 0.34375 -3.390625 0.34375 -2.15625 C 0.34375 -0.875 1.328125 0.109375 2.484375 0.109375 C 3.8125 0.109375 4.140625 -1.09375 4.140625 -1.1875 C 4.140625 -1.28125 4.03125 -1.28125 4 -1.28125 C 3.921875 -1.28125 3.890625 -1.25 3.875 -1.1875 C 3.59375 -0.265625 2.9375 -0.140625 2.578125 -0.140625 C 2.046875 -0.140625 1.171875 -0.5625 1.171875 -2.171875 Z M 1.171875 -2.171875 "/>
</g>
<g id="glyph-6-0">
<path d="M 6.34375 -2.96875 C 6.46875 -2.96875 6.640625 -2.96875 6.640625 -3.15625 C 6.640625 -3.359375 6.453125 -3.359375 6.3125 -3.359375 L 0.84375 -3.359375 C 0.703125 -3.359375 0.515625 -3.359375 0.515625 -3.15625 C 0.515625 -2.96875 0.6875 -2.96875 0.8125 -2.96875 Z M 6.3125 -1.140625 C 6.453125 -1.140625 6.640625 -1.140625 6.640625 -1.34375 C 6.640625 -1.53125 6.46875 -1.53125 6.34375 -1.53125 L 0.8125 -1.53125 C 0.6875 -1.53125 0.515625 -1.53125 0.515625 -1.34375 C 0.515625 -1.140625 0.703125 -1.140625 0.84375 -1.140625 Z M 6.3125 -1.140625 "/>
</g>
<g id="glyph-6-1">
<path d="M 3.265625 -3.53125 C 3.078125 -3.484375 2.890625 -3.359375 2.890625 -3.109375 C 2.890625 -2.875 3.078125 -2.6875 3.3125 -2.6875 C 3.546875 -2.6875 3.734375 -2.84375 3.734375 -3.125 C 3.734375 -3.671875 3.109375 -4.015625 2.3125 -4.015625 C 1.171875 -4.015625 0.3125 -3.0625 0.3125 -1.9375 C 0.3125 -0.78125 1.234375 0.09375 2.296875 0.09375 C 3.546875 0.09375 3.828125 -0.984375 3.828125 -1.0625 C 3.828125 -1.171875 3.734375 -1.171875 3.703125 -1.171875 C 3.609375 -1.171875 3.609375 -1.15625 3.546875 -1 C 3.34375 -0.390625 2.84375 -0.15625 2.390625 -0.15625 C 1.8125 -0.15625 1.078125 -0.625 1.078125 -1.953125 C 1.078125 -3.34375 1.796875 -3.765625 2.328125 -3.765625 C 2.453125 -3.765625 2.9375 -3.75 3.265625 -3.53125 Z M 3.265625 -3.53125 "/>
</g>
<g id="glyph-6-2">
<path d="M 4.34375 -1.90625 C 4.34375 -3.078125 3.40625 -4.015625 2.3125 -4.015625 C 1.171875 -4.015625 0.265625 -3.0625 0.265625 -1.90625 C 0.265625 -0.796875 1.1875 0.09375 2.296875 0.09375 C 3.4375 0.09375 4.34375 -0.8125 4.34375 -1.90625 Z M 2.3125 -0.15625 C 1.859375 -0.15625 1.484375 -0.375 1.28125 -0.71875 C 1.046875 -1.109375 1.03125 -1.578125 1.03125 -1.984375 C 1.03125 -2.328125 1.03125 -2.828125 1.25 -3.203125 C 1.53125 -3.65625 1.96875 -3.796875 2.296875 -3.796875 C 2.8125 -3.796875 3.171875 -3.5 3.359375 -3.203125 C 3.5625 -2.828125 3.5625 -2.375 3.5625 -1.984375 C 3.5625 -1.65625 3.5625 -1.140625 3.34375 -0.75 C 3.09375 -0.328125 2.6875 -0.15625 2.3125 -0.15625 Z M 2.3125 -0.15625 "/>
</g>
<g id="glyph-6-3">
<path d="M 3.078125 -3.78125 C 3.078125 -3.9375 3.078125 -4.015625 2.984375 -4.015625 C 2.9375 -4.015625 2.921875 -4.015625 2.796875 -3.90625 C 2.78125 -3.890625 2.703125 -3.8125 2.640625 -3.765625 C 2.375 -3.96875 2.09375 -4.015625 1.78125 -4.015625 C 0.59375 -4.015625 0.3125 -3.359375 0.3125 -2.90625 C 0.3125 -2.625 0.4375 -2.390625 0.640625 -2.1875 C 0.9375 -1.90625 1.28125 -1.84375 1.734375 -1.765625 C 2.203125 -1.671875 2.34375 -1.65625 2.546875 -1.5 C 2.640625 -1.421875 2.859375 -1.25 2.859375 -0.921875 C 2.859375 -0.125 1.953125 -0.125 1.828125 -0.125 C 0.921875 -0.125 0.6875 -0.890625 0.578125 -1.375 C 0.546875 -1.46875 0.53125 -1.515625 0.4375 -1.515625 C 0.3125 -1.515625 0.3125 -1.4375 0.3125 -1.28125 L 0.3125 -0.140625 C 0.3125 0.015625 0.3125 0.09375 0.40625 0.09375 C 0.46875 0.09375 0.46875 0.09375 0.640625 -0.078125 C 0.671875 -0.140625 0.765625 -0.25 0.8125 -0.296875 C 1.1875 0.078125 1.609375 0.09375 1.828125 0.09375 C 2.9375 0.09375 3.3125 -0.546875 3.3125 -1.140625 C 3.3125 -1.546875 3.140625 -1.796875 2.9375 -2 C 2.640625 -2.296875 2.3125 -2.359375 1.65625 -2.484375 C 1.421875 -2.53125 0.765625 -2.640625 0.765625 -3.15625 C 0.765625 -3.4375 0.96875 -3.828125 1.78125 -3.828125 C 2.75 -3.828125 2.8125 -3.078125 2.828125 -2.859375 C 2.84375 -2.75 2.84375 -2.6875 2.953125 -2.6875 C 3.078125 -2.6875 3.078125 -2.75 3.078125 -2.921875 Z M 3.078125 -3.78125 "/>
</g>
</g>
<clipPath id="clip-0">
<path clip-rule="nonzero" d="M 29 73 L 91 73 L 91 142.726562 L 29 142.726562 Z M 29 73 "/>
</clipPath>
<clipPath id="clip-1">
<path clip-rule="nonzero" d="M 118 73 L 180 73 L 180 142.726562 L 118 142.726562 Z M 118 73 "/>
</clipPath>
</defs>
<path fill="none" stroke-width="0.3985" stroke-linecap="butt" stroke-linejoin="miter" stroke="rgb(0%, 0%, 0%)" stroke-opacity="1" stroke-miterlimit="10" d="M -99.213313 -0.00046875 L 98.814031 -0.00046875 " transform="matrix(1, 0, 0, -1, 104.393, 70.105)"/>
<path fill="none" stroke-width="0.3985" stroke-linecap="round" stroke-linejoin="round" stroke="rgb(0%, 0%, 0%)" stroke-opacity="1" stroke-miterlimit="10" d="M -2.071633 2.390156 C -1.692726 0.956563 -0.848976 0.280781 -0.00132 -0.00046875 C -0.848976 -0.277812 -1.692726 -0.9575 -2.071633 -2.391094 " transform="matrix(1, 0, 0, -1, 203.40757, 70.105)"/>
<g fill="rgb(0%, 0%, 0%)" fill-opacity="1">
<use xlink:href="#glyph-0-0" x="207.125" y="72.25"/>
</g>
<path fill="none" stroke-width="0.3985" stroke-linecap="butt" stroke-linejoin="miter" stroke="rgb(0%, 0%, 0%)" stroke-opacity="1" stroke-miterlimit="10" d="M 0.00153125 -49.605937 L 0.00153125 49.206563 " transform="matrix(1, 0, 0, -1, 104.393, 70.105)"/>
<path fill="none" stroke-width="0.3985" stroke-linecap="round" stroke-linejoin="round" stroke="rgb(0%, 0%, 0%)" stroke-opacity="1" stroke-miterlimit="10" d="M -2.072181 2.389094 C -1.693275 0.9555 -0.849525 0.279719 -0.00186875 -0.00153125 C -0.849525 -0.278875 -1.693275 -0.954656 -2.072181 -2.392156 " transform="matrix(0, -1, -1, 0, 104.393, 20.69735)"/>
<g fill="rgb(0%, 0%, 0%)" fill-opacity="1">
<use xlink:href="#glyph-0-1" x="101.772" y="15.042"/>
</g>
<path fill="none" stroke-width="0.3985" stroke-linecap="butt" stroke-linejoin="miter" stroke="rgb(50%, 50%, 50%)" stroke-opacity="1" stroke-dasharray="2.98883 2.98883" stroke-miterlimit="10" d="M -66.756281 -42.52 L -66.756281 42.519063 " transform="matrix(1, 0, 0, -1, 104.393, 70.105)"/>
<path fill="none" stroke-width="0.3985" stroke-linecap="butt" stroke-linejoin="miter" stroke="rgb(50%, 50%, 50%)" stroke-opacity="1" stroke-dasharray="2.98883 2.98883" stroke-miterlimit="10" d="M -22.252375 -42.52 L -22.252375 42.519063 " transform="matrix(1, 0, 0, -1, 104.393, 70.105)"/>
<path fill="none" stroke-width="0.3985" stroke-linecap="butt" stroke-linejoin="miter" stroke="rgb(50%, 50%, 50%)" stroke-opacity="1" stroke-dasharray="2.98883 2.98883" stroke-miterlimit="10" d="M 22.251531 -42.52 L 22.251531 42.519063 " transform="matrix(1, 0, 0, -1, 104.393, 70.105)"/>
<path fill="none" stroke-width="0.3985" stroke-linecap="butt" stroke-linejoin="miter" stroke="rgb(50%, 50%, 50%)" stroke-opacity="1" stroke-dasharray="2.98883 2.98883" stroke-miterlimit="10" d="M 66.755437 -42.52 L 66.755437 42.519063 " transform="matrix(1, 0, 0, -1, 104.393, 70.105)"/>
<path fill="none" stroke-width="0.3985" stroke-linecap="butt" stroke-linejoin="miter" stroke="rgb(89.411926%, 74.116516%, 75.881958%)" stroke-opacity="1" stroke-miterlimit="10" d="M -85.041438 13.608906 L -83.322688 13.030781 L -81.603938 12.26125 L -79.885188 11.312031 L -78.170344 10.194844 L -76.451594 8.929219 L -74.732844 7.534688 L -73.014094 6.026875 L -71.29925 4.433125 L -69.5805 2.772969 L -67.86175 1.069844 L -66.143 -0.645 L -64.428156 -2.352031 L -62.709406 -4.023906 L -60.990656 -5.637187 L -59.271906 -7.168437 L -57.557063 -8.594219 L -55.838313 -9.895 L -54.119563 -11.047344 L -52.400813 -12.039531 L -50.682063 -12.855937 L -48.967219 -13.484844 L -47.248469 -13.914531 L -45.529719 -14.137187 L -43.810969 -14.156719 L -42.096125 -13.965312 L -40.377375 -13.570781 L -38.658625 -12.977031 L -36.939875 -12.191875 L -35.225031 -11.227031 L -33.506281 -10.098125 L -31.787531 -8.824687 L -30.068781 -7.418437 L -28.353938 -5.902812 L -26.635188 -4.30125 L -24.916438 -2.637187 L -23.197688 -0.934062 L -21.482844 0.780781 L -19.764094 2.487813 L -18.045344 4.155781 L -16.326594 5.765156 L -14.607844 7.288594 L -12.893 8.702656 L -11.17425 9.991719 L -9.4555 11.132344 L -7.73675 12.112813 L -6.021906 12.913594 L -4.303156 13.522969 L -2.584406 13.937031 L -0.865656 14.147969 L 0.849187 14.147969 L 2.567937 13.940938 L 4.286687 13.530781 L 6.005437 12.921406 L 7.720281 12.120625 L 9.439031 11.144063 L 11.157781 10.003438 L 12.876531 8.714375 L 14.595281 7.300313 L 16.310125 5.776875 L 18.028875 4.171406 L 19.747625 2.503438 L 21.466375 0.796406 L 23.181219 -0.918437 L 24.899969 -2.621562 L 26.618719 -4.285625 L 28.337469 -5.887187 L 30.052312 -7.402812 L 31.771062 -8.809062 L 33.489812 -10.086406 L 35.208562 -11.219219 L 36.923406 -12.184062 L 38.642156 -12.969219 L 40.360906 -13.562969 L 42.079656 -13.961406 L 43.7945 -14.152812 L 45.51325 -14.137187 L 47.232 -13.914531 L 48.95075 -13.48875 L 50.6695 -12.86375 L 52.384344 -12.05125 L 54.103094 -11.059062 L 55.821844 -9.906719 L 57.540594 -8.609844 L 59.255437 -7.184062 L 60.974187 -5.652812 L 62.692937 -4.039531 L 64.411687 -2.367656 L 66.126531 -0.660625 L 67.845281 1.054219 L 69.564031 2.753438 L 71.282781 4.4175 L 72.997625 6.01125 L 74.716375 7.519063 L 76.435125 8.9175 L 78.153875 10.183125 L 79.872625 11.300313 L 81.587469 12.253438 L 83.306219 13.022969 L 85.024969 13.605 " transform="matrix(1, 0, 0, -1, 104.393, 70.105)"/>
<path fill="none" stroke-width="0.79701" stroke-linecap="butt" stroke-linejoin="miter" stroke="rgb(35.68573%, 64.312744%, 64.312744%)" stroke-opacity="1" stroke-miterlimit="10" d="M -19.135188 64.726094 L -18.353938 52.038594 L -17.572688 43.612813 L -16.791438 37.640156 L -16.010188 33.194844 L -15.228938 29.769063 L -14.447688 27.058125 L -13.666438 24.870625 L -12.885188 23.07375 L -12.103938 21.577656 L -11.326594 20.32375 L -10.545344 19.265156 L -9.764094 18.362813 L -8.982844 17.589375 L -8.201594 16.929219 L -7.420344 16.366719 L -6.639094 15.88625 L -5.857844 15.476094 L -5.076594 15.13625 L -4.295344 14.851094 L -3.514094 14.620625 L -2.732844 14.440938 L -1.951594 14.308125 L -1.17425 14.222188 L -0.393 14.179219 L 0.38825 14.179219 L 1.1695 14.222188 L 1.95075 14.308125 L 2.732 14.440938 L 3.51325 14.620625 L 4.2945 14.851094 L 5.07575 15.132344 L 5.857 15.476094 L 6.63825 15.882344 L 7.4195 16.362813 L 8.20075 16.929219 L 8.978094 17.585469 L 9.759344 18.358906 L 10.540594 19.26125 L 11.321844 20.319844 L 12.103094 21.57375 L 12.884344 23.065938 L 13.665594 24.862813 L 14.446844 27.054219 L 15.228094 29.757344 L 16.009344 33.187031 L 16.790594 37.632344 L 17.571844 43.597188 L 18.353094 52.015156 L 19.130437 64.690938 " transform="matrix(1, 0, 0, -1, 104.393, 70.105)"/>
<g clip-path="url(#clip-0)">
<path fill="none" stroke-width="0.79701" stroke-linecap="butt" stroke-linejoin="miter" stroke="rgb(35.68573%, 64.312744%, 64.312744%)" stroke-opacity="1" stroke-miterlimit="10" d="M -63.779719 -67.242656 L -62.998469 -53.633281 L -62.217219 -44.711406 L -61.435969 -38.437969 L -60.654719 -33.797344 L -59.877375 -30.23875 L -59.096125 -27.434062 L -58.314875 -25.17625 L -57.533625 -23.324687 L -56.752375 -21.789531 L -55.971125 -20.500469 L -55.189875 -19.414531 L -54.408625 -18.48875 L -53.627375 -17.699687 L -52.846125 -17.023906 L -52.064875 -16.445781 L -51.283625 -15.953594 L -50.502375 -15.535625 L -49.725031 -15.184062 L -48.943781 -14.891094 L -48.162531 -14.652812 L -47.381281 -14.465312 L -46.600031 -14.324687 L -45.818781 -14.230937 L -45.037531 -14.180156 L -44.256281 -14.17625 L -43.475031 -14.211406 L -42.693781 -14.293437 L -41.912531 -14.418437 L -41.131281 -14.590312 L -40.350031 -14.812969 L -39.572688 -15.086406 L -38.791438 -15.418437 L -38.010188 -15.816875 L -37.228938 -16.285625 L -36.447688 -16.836406 L -35.666438 -17.480937 L -34.885188 -18.230937 L -34.103938 -19.11375 L -33.322688 -20.148906 L -32.541438 -21.367656 L -31.760188 -22.820781 L -30.978938 -24.566875 L -30.197688 -26.687969 L -29.420344 -29.305156 L -28.639094 -32.605937 L -27.857844 -36.867656 L -27.076594 -42.559062 L -26.295344 -50.516094 L -25.514094 -62.355937 " transform="matrix(1, 0, 0, -1, 104.393, 70.105)"/>
</g>
<g clip-path="url(#clip-1)">
<path fill="none" stroke-width="0.79701" stroke-linecap="butt" stroke-linejoin="miter" stroke="rgb(35.68573%, 64.312744%, 64.312744%)" stroke-opacity="1" stroke-miterlimit="10" d="M 25.51325 -62.391094 L 26.2945 -50.535625 L 27.07575 -42.574687 L 27.853094 -36.879375 L 28.634344 -32.61375 L 29.415594 -29.309062 L 30.196844 -26.695781 L 30.978094 -24.570781 L 31.759344 -22.828594 L 32.540594 -21.371562 L 33.321844 -20.152812 L 34.103094 -19.11375 L 34.884344 -18.234844 L 35.665594 -17.480937 L 36.446844 -16.840312 L 37.228094 -16.285625 L 38.005437 -15.816875 L 38.786687 -15.422344 L 39.567937 -15.086406 L 40.349187 -14.812969 L 41.130437 -14.590312 L 41.911687 -14.418437 L 42.692937 -14.293437 L 43.474187 -14.211406 L 44.255437 -14.17625 L 45.036687 -14.180156 L 45.817937 -14.230937 L 46.599187 -14.324687 L 47.380437 -14.465312 L 48.157781 -14.652812 L 48.939031 -14.891094 L 49.720281 -15.180156 L 50.501531 -15.531719 L 51.282781 -15.953594 L 52.064031 -16.445781 L 52.845281 -17.023906 L 53.626531 -17.695781 L 54.407781 -18.484844 L 55.189031 -19.410625 L 55.970281 -20.500469 L 56.751531 -21.785625 L 57.532781 -23.320781 L 58.310125 -25.168437 L 59.091375 -27.430156 L 59.872625 -30.230937 L 60.653875 -33.785625 L 61.435125 -38.42625 L 62.216375 -44.695781 L 62.997625 -53.605937 L 63.778875 -67.211406 " transform="matrix(1, 0, 0, -1, 104.393, 70.105)"/>
</g>
<path fill="none" stroke-width="0.79701" stroke-linecap="butt" stroke-linejoin="miter" stroke="rgb(35.68573%, 64.312744%, 64.312744%)" stroke-opacity="1" stroke-miterlimit="10" d="M -86.459406 14.413594 L -85.920344 14.526875 L -85.381281 14.663594 L -84.846125 14.819844 L -84.307063 15.007344 L -83.771906 15.218281 L -83.232844 15.460469 L -82.697688 15.73 L -82.158625 16.034688 L -81.619563 16.374531 L -81.084406 16.753438 L -80.545344 17.179219 L -80.010188 17.647969 L -79.471125 18.171406 L -78.932063 18.753438 L -78.396906 19.405781 L -77.857844 20.13625 L -77.322688 20.952656 L -76.783625 21.870625 L -76.248469 22.905781 L -75.709406 24.085469 L -75.170344 25.429219 L -74.635188 26.968281 L -74.096125 28.753438 L -73.560969 30.839375 L -73.021906 33.300313 L -72.482844 36.249531 L -71.947688 39.835469 L -71.408625 44.272969 L -70.873469 49.909688 " transform="matrix(1, 0, 0, -1, 104.393, 70.105)"/>
<path fill="none" stroke-width="0.79701" stroke-linecap="butt" stroke-linejoin="miter" stroke="rgb(35.68573%, 64.312744%, 64.312744%)" stroke-opacity="1" stroke-miterlimit="10" d="M 70.868719 49.972188 L 71.403875 44.319844 L 71.942937 39.874531 L 72.478094 36.280781 L 73.017156 33.327656 L 73.552312 30.862813 L 74.091375 28.772969 L 74.630437 26.987813 L 75.165594 25.440938 L 75.704656 24.097188 L 76.239812 22.9175 L 76.778875 21.882344 L 77.317937 20.960469 L 77.853094 20.144063 L 78.392156 19.413594 L 78.927312 18.76125 L 79.466375 18.179219 L 80.001531 17.651875 L 80.540594 17.183125 L 81.079656 16.757344 L 81.614812 16.378438 L 82.153875 16.038594 L 82.689031 15.733906 L 83.228094 15.460469 L 83.767156 15.222188 L 84.302312 15.007344 L 84.841375 14.82375 L 85.376531 14.663594 L 85.915594 14.526875 L 86.45075 14.4175 " transform="matrix(1, 0, 0, -1, 104.393, 70.105)"/>
<g fill="rgb(0%, 0%, 0%)" fill-opacity="1">
<use xlink:href="#glyph-1-0" x="124.366" y="73.703"/>
</g>
<path fill="none" stroke-width="0.379" stroke-linecap="butt" stroke-linejoin="miter" stroke="rgb(0%, 0%, 0%)" stroke-opacity="1" stroke-miterlimit="10" d="M 0.0011875 -0.00171875 L 4.559781 -0.00171875 " transform="matrix(1, 0, 0, -1, 124.366, 75.135)"/>
<g fill="rgb(0%, 0%, 0%)" fill-opacity="1">
<use xlink:href="#glyph-2-0" x="124.819" y="80.419"/>
</g>
<g fill="rgb(0%, 0%, 0%)" fill-opacity="1">
<use xlink:href="#glyph-3-0" x="146.099" y="77.705"/>
</g>
<g fill="rgb(0%, 0%, 0%)" fill-opacity="1">
<use xlink:href="#glyph-4-0" x="75.082" y="77.377"/>
</g>
<g fill="rgb(0%, 0%, 0%)" fill-opacity="1">
<use xlink:href="#glyph-1-0" x="83.445" y="73.703"/>
</g>
<path fill="none" stroke-width="0.379" stroke-linecap="butt" stroke-linejoin="miter" stroke="rgb(0%, 0%, 0%)" stroke-opacity="1" stroke-miterlimit="10" d="M -0.0006875 -0.00171875 L 4.557906 -0.00171875 " transform="matrix(1, 0, 0, -1, 83.446, 75.135)"/>
<g fill="rgb(0%, 0%, 0%)" fill-opacity="1">
<use xlink:href="#glyph-2-0" x="83.898" y="80.419"/>
</g>
<g fill="rgb(0%, 0%, 0%)" fill-opacity="1">
<use xlink:href="#glyph-4-0" x="53.507" y="78.016"/>
</g>
<g fill="rgb(0%, 0%, 0%)" fill-opacity="1">
<use xlink:href="#glyph-3-0" x="60.67474" y="78.016"/>
</g>
<g fill="rgb(35.68573%, 64.312744%, 64.312744%)" fill-opacity="1">
<use xlink:href="#glyph-0-1" x="155.927" y="35.848"/>
</g>
<g fill="rgb(35.68573%, 64.312744%, 64.312744%)" fill-opacity="1">
<use xlink:href="#glyph-5-0" x="163.939919" y="35.848"/>
</g>
<g fill="rgb(35.68573%, 64.312744%, 64.312744%)" fill-opacity="1">
<use xlink:href="#glyph-5-1" x="174.44847" y="35.848"/>
<use xlink:href="#glyph-5-2" x="178.377719" y="35.848"/>
<use xlink:href="#glyph-5-3" x="182.805099" y="35.848"/>
</g>
<g fill="rgb(35.68573%, 64.312744%, 64.312744%)" fill-opacity="1">
<use xlink:href="#glyph-0-0" x="188.896232" y="35.848"/>
</g>
<g fill="rgb(89.411926%, 74.116516%, 75.881958%)" fill-opacity="1">
<use xlink:href="#glyph-3-1" x="157.137" y="92.423"/>
</g>
<g fill="rgb(89.411926%, 74.116516%, 75.881958%)" fill-opacity="1">
<use xlink:href="#glyph-6-0" x="164.554006" y="92.423"/>
</g>
<g fill="rgb(89.411926%, 74.116516%, 75.881958%)" fill-opacity="1">
<use xlink:href="#glyph-6-1" x="174.286137" y="92.423"/>
<use xlink:href="#glyph-6-2" x="178.381988" y="92.423"/>
<use xlink:href="#glyph-6-3" x="182.989821" y="92.423"/>
</g>
<g fill="rgb(89.411926%, 74.116516%, 75.881958%)" fill-opacity="1">
<use xlink:href="#glyph-3-2" x="188.158054" y="92.423"/>
</g>
</svg>
