<?xml version="1.0" encoding="UTF-8"?>
<svg xmlns="http://www.w3.org/2000/svg" xmlns:xlink="http://www.w3.org/1999/xlink" width="163.716pt" height="152.093pt" viewBox="0 0 163.716 152.093">
<defs>
<g>
<g id="glyph-0-0">
<path d="M 2.171875 -2.53125 L 3 -2.53125 C 2.890625 -2.109375 2.734375 -1.484375 2.734375 -0.921875 C 2.734375 -0.640625 2.78125 -0.453125 2.8125 -0.3125 C 2.921875 0.046875 3.015625 0.0625 3.125 0.0625 C 3.296875 0.0625 3.453125 -0.078125 3.453125 -0.25 C 3.453125 -0.296875 3.4375 -0.328125 3.40625 -0.390625 C 3.265625 -0.65625 3.140625 -1.046875 3.140625 -1.625 C 3.140625 -1.75 3.140625 -2.03125 3.234375 -2.53125 L 4.109375 -2.53125 C 4.234375 -2.53125 4.296875 -2.53125 4.375 -2.578125 C 4.46875 -2.65625 4.484375 -2.765625 4.484375 -2.796875 C 4.484375 -3 4.3125 -3 4.1875 -3 L 1.5625 -3 C 1.28125 -3 1.078125 -2.9375 0.765625 -2.640625 C 0.578125 -2.484375 0.3125 -2.109375 0.3125 -2.046875 C 0.3125 -1.96875 0.40625 -1.96875 0.4375 -1.96875 C 0.515625 -1.96875 0.515625 -1.984375 0.5625 -2.046875 C 0.90625 -2.53125 1.34375 -2.53125 1.5 -2.53125 L 1.921875 -2.53125 C 1.703125 -1.765625 1.328125 -0.9375 1.125 -0.515625 C 1.078125 -0.4375 1.015625 -0.28125 0.984375 -0.265625 C 0.984375 -0.234375 0.96875 -0.203125 0.96875 -0.15625 C 0.96875 -0.046875 1.046875 0.0625 1.21875 0.0625 C 1.484375 0.0625 1.5625 -0.25 1.734375 -0.875 Z M 2.171875 -2.53125 "/>
</g>
<g id="glyph-1-0">
<path d="M 1.90625 -2.328125 C 2.453125 -2.328125 2.84375 -1.953125 2.84375 -1.203125 C 2.84375 -0.34375 2.328125 -0.078125 1.9375 -0.078125 C 1.65625 -0.078125 1.03125 -0.15625 0.75 -0.578125 C 1.078125 -0.578125 1.15625 -0.8125 1.15625 -0.96875 C 1.15625 -1.1875 0.984375 -1.34375 0.765625 -1.34375 C 0.578125 -1.34375 0.375 -1.21875 0.375 -0.9375 C 0.375 -0.28125 1.09375 0.140625 1.9375 0.140625 C 2.90625 0.140625 3.578125 -0.515625 3.578125 -1.203125 C 3.578125 -1.75 3.140625 -2.296875 2.375 -2.453125 C 3.09375 -2.71875 3.359375 -3.234375 3.359375 -3.671875 C 3.359375 -4.21875 2.734375 -4.625 1.953125 -4.625 C 1.1875 -4.625 0.59375 -4.25 0.59375 -3.6875 C 0.59375 -3.453125 0.75 -3.328125 0.953125 -3.328125 C 1.171875 -3.328125 1.3125 -3.484375 1.3125 -3.671875 C 1.3125 -3.875 1.171875 -4.03125 0.953125 -4.046875 C 1.203125 -4.34375 1.671875 -4.421875 1.9375 -4.421875 C 2.25 -4.421875 2.6875 -4.265625 2.6875 -3.671875 C 2.6875 -3.375 2.59375 -3.046875 2.40625 -2.84375 C 2.1875 -2.578125 1.984375 -2.5625 1.640625 -2.53125 C 1.46875 -2.515625 1.453125 -2.515625 1.421875 -2.515625 C 1.40625 -2.515625 1.34375 -2.5 1.34375 -2.421875 C 1.34375 -2.328125 1.40625 -2.328125 1.53125 -2.328125 Z M 1.90625 -2.328125 "/>
</g>
<g id="glyph-2-0">
<path d="M 3.296875 2.390625 C 3.296875 2.359375 3.296875 2.34375 3.125 2.171875 C 1.890625 0.921875 1.5625 -0.96875 1.5625 -2.5 C 1.5625 -4.234375 1.9375 -5.96875 3.171875 -7.203125 C 3.296875 -7.328125 3.296875 -7.34375 3.296875 -7.375 C 3.296875 -7.453125 3.265625 -7.484375 3.203125 -7.484375 C 3.09375 -7.484375 2.203125 -6.796875 1.609375 -5.53125 C 1.109375 -4.4375 0.984375 -3.328125 0.984375 -2.5 C 0.984375 -1.71875 1.09375 -0.515625 1.640625 0.625 C 2.25 1.84375 3.09375 2.5 3.203125 2.5 C 3.265625 2.5 3.296875 2.46875 3.296875 2.390625 Z M 3.296875 2.390625 "/>
</g>
<g id="glyph-2-1">
<path d="M 1.265625 -0.765625 L 2.328125 -1.796875 C 3.875 -3.171875 4.46875 -3.703125 4.46875 -4.703125 C 4.46875 -5.84375 3.578125 -6.640625 2.359375 -6.640625 C 1.234375 -6.640625 0.5 -5.71875 0.5 -4.828125 C 0.5 -4.28125 1 -4.28125 1.03125 -4.28125 C 1.203125 -4.28125 1.546875 -4.390625 1.546875 -4.8125 C 1.546875 -5.0625 1.359375 -5.328125 1.015625 -5.328125 C 0.9375 -5.328125 0.921875 -5.328125 0.890625 -5.3125 C 1.109375 -5.96875 1.65625 -6.328125 2.234375 -6.328125 C 3.140625 -6.328125 3.5625 -5.515625 3.5625 -4.703125 C 3.5625 -3.90625 3.078125 -3.125 2.515625 -2.5 L 0.609375 -0.375 C 0.5 -0.265625 0.5 -0.234375 0.5 0 L 4.203125 0 L 4.46875 -1.734375 L 4.234375 -1.734375 C 4.171875 -1.4375 4.109375 -1 4 -0.84375 C 3.9375 -0.765625 3.28125 -0.765625 3.0625 -0.765625 Z M 1.265625 -0.765625 "/>
</g>
<g id="glyph-2-2">
<path d="M 2.875 -2.5 C 2.875 -3.265625 2.765625 -4.46875 2.21875 -5.609375 C 1.625 -6.828125 0.765625 -7.484375 0.671875 -7.484375 C 0.609375 -7.484375 0.5625 -7.4375 0.5625 -7.375 C 0.5625 -7.34375 0.5625 -7.328125 0.75 -7.140625 C 1.734375 -6.15625 2.296875 -4.578125 2.296875 -2.5 C 2.296875 -0.78125 1.9375 0.96875 0.703125 2.21875 C 0.5625 2.34375 0.5625 2.359375 0.5625 2.390625 C 0.5625 2.453125 0.609375 2.5 0.671875 2.5 C 0.765625 2.5 1.671875 1.8125 2.25 0.546875 C 2.765625 -0.546875 2.875 -1.65625 2.875 -2.5 Z M 2.875 -2.5 "/>
</g>
<g id="glyph-2-3">
<path d="M 4.578125 -3.1875 C 4.578125 -3.984375 4.53125 -4.78125 4.1875 -5.515625 C 3.734375 -6.484375 2.90625 -6.640625 2.5 -6.640625 C 1.890625 -6.640625 1.171875 -6.375 0.75 -5.453125 C 0.4375 -4.765625 0.390625 -3.984375 0.390625 -3.1875 C 0.390625 -2.4375 0.421875 -1.546875 0.84375 -0.78125 C 1.265625 0.015625 2 0.21875 2.484375 0.21875 C 3.015625 0.21875 3.78125 0.015625 4.21875 -0.9375 C 4.53125 -1.625 4.578125 -2.40625 4.578125 -3.1875 Z M 2.484375 0 C 2.09375 0 1.5 -0.25 1.328125 -1.203125 C 1.21875 -1.796875 1.21875 -2.71875 1.21875 -3.3125 C 1.21875 -3.953125 1.21875 -4.609375 1.296875 -5.140625 C 1.484375 -6.328125 2.234375 -6.421875 2.484375 -6.421875 C 2.8125 -6.421875 3.46875 -6.234375 3.65625 -5.25 C 3.765625 -4.6875 3.765625 -3.9375 3.765625 -3.3125 C 3.765625 -2.5625 3.765625 -1.890625 3.65625 -1.25 C 3.5 -0.296875 2.9375 0 2.484375 0 Z M 2.484375 0 "/>
</g>
<g id="glyph-3-0">
<path d="M 2.03125 -0.015625 C 2.03125 -0.671875 1.78125 -1.0625 1.390625 -1.0625 C 1.0625 -1.0625 0.859375 -0.8125 0.859375 -0.53125 C 0.859375 -0.265625 1.0625 0 1.390625 0 C 1.5 0 1.640625 -0.046875 1.734375 -0.125 C 1.765625 -0.15625 1.78125 -0.15625 1.78125 -0.15625 C 1.796875 -0.15625 1.796875 -0.15625 1.796875 -0.015625 C 1.796875 0.734375 1.453125 1.328125 1.125 1.65625 C 1.015625 1.765625 1.015625 1.78125 1.015625 1.8125 C 1.015625 1.890625 1.0625 1.921875 1.109375 1.921875 C 1.21875 1.921875 2.03125 1.15625 2.03125 -0.015625 Z M 2.03125 -0.015625 "/>
</g>
<g id="glyph-4-0">
<path d="M 6.5625 -2.296875 C 6.734375 -2.296875 6.921875 -2.296875 6.921875 -2.5 C 6.921875 -2.6875 6.734375 -2.6875 6.5625 -2.6875 L 1.171875 -2.6875 C 1 -2.6875 0.828125 -2.6875 0.828125 -2.5 C 0.828125 -2.296875 1 -2.296875 1.171875 -2.296875 Z M 6.5625 -2.296875 "/>
</g>
</g>
</defs>
<path fill="none" stroke-width="0.3985" stroke-linecap="butt" stroke-linejoin="miter" stroke="rgb(84.999084%, 84.999084%, 84.999084%)" stroke-opacity="1" stroke-miterlimit="10" d="M 56.695187 -0.000875 C 56.695187 31.311625 31.312375 56.694437 -0.000125 56.694437 C -31.312625 56.694437 -56.695438 31.311625 -56.695438 -0.000875 C -56.695438 -31.309469 -31.312625 -56.692281 -0.000125 -56.692281 C 31.312375 -56.692281 56.695187 -31.309469 56.695187 -0.000875 Z M 56.695187 -0.000875 " transform="matrix(1, 0, 0, -1, 76.047, 76.046)"/>
<path fill="none" stroke-width="0.3985" stroke-linecap="butt" stroke-linejoin="miter" stroke="rgb(84.999084%, 84.999084%, 84.999084%)" stroke-opacity="1" stroke-miterlimit="10" d="M -70.867313 -0.000875 L 70.867062 -0.000875 " transform="matrix(1, 0, 0, -1, 76.047, 76.046)"/>
<path fill="none" stroke-width="0.3985" stroke-linecap="butt" stroke-linejoin="miter" stroke="rgb(84.999084%, 84.999084%, 84.999084%)" stroke-opacity="1" stroke-miterlimit="10" d="M -0.000125 -70.868063 L -0.000125 70.866312 " transform="matrix(1, 0, 0, -1, 76.047, 76.046)"/>
<path fill="none" stroke-width="0.3985" stroke-linecap="butt" stroke-linejoin="miter" stroke="rgb(50%, 50%, 50%)" stroke-opacity="1" stroke-dasharray="2.98883 2.98883" stroke-miterlimit="10" d="M -0.000125 -0.000875 L 35.433469 61.374125 " transform="matrix(1, 0, 0, -1, 76.047, 76.046)"/>
<path fill="none" stroke-width="0.79701" stroke-linecap="butt" stroke-linejoin="miter" stroke="rgb(78.823853%, 48.234558%, 51.763916%)" stroke-opacity="1" stroke-miterlimit="10" d="M 17.007687 -0.000875 C 17.007687 6.07725 13.7655 11.690531 8.503781 14.729594 " transform="matrix(1, 0, 0, -1, 76.047, 76.046)"/>
<g fill="rgb(78.823853%, 48.234558%, 51.763916%)" fill-opacity="1">
<use xlink:href="#glyph-0-0" x="95.686" y="61.113"/>
</g>
<path fill="none" stroke-width="0.398" stroke-linecap="butt" stroke-linejoin="miter" stroke="rgb(78.823853%, 48.234558%, 51.763916%)" stroke-opacity="1" stroke-miterlimit="10" d="M 0.0015 -0.001875 L 4.90775 -0.001875 " transform="matrix(1, 0, 0, -1, 95.686, 62.545)"/>
<g fill="rgb(78.823853%, 48.234558%, 51.763916%)" fill-opacity="1">
<use xlink:href="#glyph-1-0" x="96.155" y="68.471"/>
</g>
<path fill-rule="nonzero" fill="rgb(35.68573%, 64.312744%, 64.312744%)" fill-opacity="1" stroke-width="0.3985" stroke-linecap="butt" stroke-linejoin="miter" stroke="rgb(35.68573%, 64.312744%, 64.312744%)" stroke-opacity="1" stroke-miterlimit="10" d="M 31.335812 49.096781 C 31.335812 50.749125 29.995969 52.088969 28.347531 52.088969 C 26.695187 52.088969 25.35925 50.749125 25.35925 49.096781 C 25.35925 47.448344 26.695187 46.1085 28.347531 46.1085 C 29.995969 46.1085 31.335812 47.448344 31.335812 49.096781 Z M 31.335812 49.096781 " transform="matrix(1, 0, 0, -1, 76.047, 76.046)"/>
<g fill="rgb(35.68573%, 64.312744%, 64.312744%)" fill-opacity="1">
<use xlink:href="#glyph-2-0" x="107.913" y="19.993"/>
<use xlink:href="#glyph-2-1" x="111.787455" y="19.993"/>
</g>
<g fill="rgb(35.68573%, 64.312744%, 64.312744%)" fill-opacity="1">
<use xlink:href="#glyph-3-0" x="116.768755" y="19.993"/>
</g>
<g fill="rgb(35.68573%, 64.312744%, 64.312744%)" fill-opacity="1">
<use xlink:href="#glyph-0-0" x="122.392" y="16.071"/>
</g>
<path fill="none" stroke-width="0.398" stroke-linecap="butt" stroke-linejoin="miter" stroke="rgb(35.68573%, 64.312744%, 64.312744%)" stroke-opacity="1" stroke-miterlimit="10" d="M -0.001375 -0.00090625 L 4.908781 -0.00090625 " transform="matrix(1, 0, 0, -1, 122.392, 17.503)"/>
<g fill="rgb(35.68573%, 64.312744%, 64.312744%)" fill-opacity="1">
<use xlink:href="#glyph-1-0" x="122.861" y="23.429"/>
</g>
<g fill="rgb(35.68573%, 64.312744%, 64.312744%)" fill-opacity="1">
<use xlink:href="#glyph-2-2" x="128.496" y="19.993"/>
</g>
<path fill-rule="nonzero" fill="rgb(48.234558%, 68.232727%, 49.804688%)" fill-opacity="1" stroke-width="0.3985" stroke-linecap="butt" stroke-linejoin="miter" stroke="rgb(48.234558%, 68.232727%, 49.804688%)" stroke-opacity="1" stroke-miterlimit="10" d="M -25.3595 -49.098531 C -25.3595 -47.446188 -26.695438 -46.11025 -28.347781 -46.11025 C -29.996219 -46.11025 -31.336063 -47.446188 -31.336063 -49.098531 C -31.336063 -50.750875 -29.996219 -52.086813 -28.347781 -52.086813 C -26.695438 -52.086813 -25.3595 -50.750875 -25.3595 -49.098531 Z M -25.3595 -49.098531 " transform="matrix(1, 0, 0, -1, 76.047, 76.046)"/>
<g fill="rgb(48.234558%, 68.232727%, 49.804688%)" fill-opacity="1">
<use xlink:href="#glyph-2-0" x="11.974" y="136.136"/>
</g>
<g fill="rgb(48.234558%, 68.232727%, 49.804688%)" fill-opacity="1">
<use xlink:href="#glyph-4-0" x="15.848455" y="136.136"/>
</g>
<g fill="rgb(48.234558%, 68.232727%, 49.804688%)" fill-opacity="1">
<use xlink:href="#glyph-2-1" x="23.597365" y="136.136"/>
</g>
<g fill="rgb(48.234558%, 68.232727%, 49.804688%)" fill-opacity="1">
<use xlink:href="#glyph-3-0" x="28.578665" y="136.136"/>
</g>
<g fill="rgb(48.234558%, 68.232727%, 49.804688%)" fill-opacity="1">
<use xlink:href="#glyph-0-0" x="34.202" y="132.213"/>
</g>
<path fill="none" stroke-width="0.398" stroke-linecap="butt" stroke-linejoin="miter" stroke="rgb(48.234558%, 68.232727%, 49.804688%)" stroke-opacity="1" stroke-miterlimit="10" d="M 0.001125 0.00046875 L 4.907375 0.00046875 " transform="matrix(1, 0, 0, -1, 34.202, 133.645)"/>
<g fill="rgb(48.234558%, 68.232727%, 49.804688%)" fill-opacity="1">
<use xlink:href="#glyph-1-0" x="34.67" y="139.571"/>
</g>
<g fill="rgb(48.234558%, 68.232727%, 49.804688%)" fill-opacity="1">
<use xlink:href="#glyph-2-2" x="40.306" y="136.136"/>
</g>
<path fill="none" stroke-width="0.79701" stroke-linecap="butt" stroke-linejoin="miter" stroke="rgb(48.234558%, 68.232727%, 49.804688%)" stroke-opacity="1" stroke-dasharray="2.98883 2.98883" stroke-miterlimit="10" d="M -0.000125 -0.000875 L -25.113406 -43.496969 " transform="matrix(1, 0, 0, -1, 76.047, 76.046)"/>
<path fill="none" stroke-width="0.79701" stroke-linecap="round" stroke-linejoin="round" stroke="rgb(48.234558%, 68.232727%, 49.804688%)" stroke-opacity="1" stroke-miterlimit="10" d="M -2.551338 3.109903 C -2.08421 1.246066 -1.045815 0.361573 0.00139581 0.000892459 C -1.04598 -0.364734 -2.085258 -1.244406 -2.550836 -3.109965 " transform="matrix(-0.49998, 0.86601, 0.86601, 0.49998, 50.7343, 119.88897)"/>
<path fill-rule="nonzero" fill="rgb(0%, 0%, 0%)" fill-opacity="1" stroke-width="0.3985" stroke-linecap="butt" stroke-linejoin="miter" stroke="rgb(0%, 0%, 0%)" stroke-opacity="1" stroke-miterlimit="10" d="M 1.992062 -0.000875 C 1.992062 1.100687 1.101437 1.991312 -0.000125 1.991312 C -1.101688 1.991312 -1.992313 1.100687 -1.992313 -0.000875 C -1.992313 -1.098531 -1.101688 -1.993063 -0.000125 -1.993063 C 1.101437 -1.993063 1.992062 -1.098531 1.992062 -0.000875 Z M 1.992062 -0.000875 " transform="matrix(1, 0, 0, -1, 76.047, 76.046)"/>
<g fill="rgb(0%, 0%, 0%)" fill-opacity="1">
<use xlink:href="#glyph-2-3" x="150.433" y="79.256"/>
</g>
</svg>
