<?xml version="1.0" encoding="UTF-8"?>
<svg xmlns="http://www.w3.org/2000/svg" xmlns:xlink="http://www.w3.org/1999/xlink" width="354.346pt" height="157.87pt" viewBox="0 0 354.346 157.87">
<defs>
<g>
<g id="glyph-0-0">
<path d="M 3.328125 -3.015625 C 3.390625 -3.265625 3.625 -4.1875 4.3125 -4.1875 C 4.359375 -4.1875 4.609375 -4.1875 4.8125 -4.0625 C 4.53125 -4 4.34375 -3.765625 4.34375 -3.515625 C 4.34375 -3.359375 4.453125 -3.171875 4.71875 -3.171875 C 4.9375 -3.171875 5.25 -3.34375 5.25 -3.75 C 5.25 -4.265625 4.671875 -4.40625 4.328125 -4.40625 C 3.75 -4.40625 3.40625 -3.875 3.28125 -3.65625 C 3.03125 -4.3125 2.5 -4.40625 2.203125 -4.40625 C 1.171875 -4.40625 0.59375 -3.125 0.59375 -2.875 C 0.59375 -2.765625 0.703125 -2.765625 0.71875 -2.765625 C 0.796875 -2.765625 0.828125 -2.796875 0.84375 -2.875 C 1.1875 -3.9375 1.84375 -4.1875 2.1875 -4.1875 C 2.375 -4.1875 2.71875 -4.09375 2.71875 -3.515625 C 2.71875 -3.203125 2.546875 -2.546875 2.1875 -1.140625 C 2.03125 -0.53125 1.671875 -0.109375 1.234375 -0.109375 C 1.171875 -0.109375 0.953125 -0.109375 0.734375 -0.234375 C 0.984375 -0.296875 1.203125 -0.5 1.203125 -0.78125 C 1.203125 -1.046875 0.984375 -1.125 0.84375 -1.125 C 0.53125 -1.125 0.296875 -0.875 0.296875 -0.546875 C 0.296875 -0.09375 0.78125 0.109375 1.21875 0.109375 C 1.890625 0.109375 2.25 -0.59375 2.265625 -0.640625 C 2.390625 -0.28125 2.75 0.109375 3.34375 0.109375 C 4.375 0.109375 4.9375 -1.171875 4.9375 -1.421875 C 4.9375 -1.53125 4.859375 -1.53125 4.828125 -1.53125 C 4.734375 -1.53125 4.71875 -1.484375 4.6875 -1.421875 C 4.359375 -0.34375 3.6875 -0.109375 3.375 -0.109375 C 2.984375 -0.109375 2.828125 -0.421875 2.828125 -0.765625 C 2.828125 -0.984375 2.875 -1.203125 2.984375 -1.640625 Z M 3.328125 -3.015625 "/>
</g>
<g id="glyph-0-1">
<path d="M 4.84375 -3.796875 C 4.890625 -3.9375 4.890625 -3.953125 4.890625 -4.03125 C 4.890625 -4.203125 4.75 -4.296875 4.59375 -4.296875 C 4.5 -4.296875 4.34375 -4.234375 4.25 -4.09375 C 4.234375 -4.03125 4.140625 -3.734375 4.109375 -3.546875 C 4.03125 -3.296875 3.96875 -3.015625 3.90625 -2.75 L 3.453125 -0.953125 C 3.421875 -0.8125 2.984375 -0.109375 2.328125 -0.109375 C 1.828125 -0.109375 1.71875 -0.546875 1.71875 -0.921875 C 1.71875 -1.375 1.890625 -2 2.21875 -2.875 C 2.375 -3.28125 2.421875 -3.390625 2.421875 -3.59375 C 2.421875 -4.03125 2.109375 -4.40625 1.609375 -4.40625 C 0.65625 -4.40625 0.296875 -2.953125 0.296875 -2.875 C 0.296875 -2.765625 0.390625 -2.765625 0.40625 -2.765625 C 0.515625 -2.765625 0.515625 -2.796875 0.5625 -2.953125 C 0.84375 -3.890625 1.234375 -4.1875 1.578125 -4.1875 C 1.65625 -4.1875 1.828125 -4.1875 1.828125 -3.875 C 1.828125 -3.625 1.71875 -3.359375 1.65625 -3.171875 C 1.25 -2.109375 1.078125 -1.546875 1.078125 -1.078125 C 1.078125 -0.1875 1.703125 0.109375 2.296875 0.109375 C 2.6875 0.109375 3.015625 -0.0625 3.296875 -0.34375 C 3.171875 0.171875 3.046875 0.671875 2.65625 1.203125 C 2.390625 1.53125 2.015625 1.828125 1.5625 1.828125 C 1.421875 1.828125 0.96875 1.796875 0.796875 1.40625 C 0.953125 1.40625 1.09375 1.40625 1.21875 1.28125 C 1.328125 1.203125 1.421875 1.0625 1.421875 0.875 C 1.421875 0.5625 1.15625 0.53125 1.0625 0.53125 C 0.828125 0.53125 0.5 0.6875 0.5 1.171875 C 0.5 1.671875 0.9375 2.046875 1.5625 2.046875 C 2.578125 2.046875 3.609375 1.140625 3.890625 0.015625 Z M 4.84375 -3.796875 "/>
</g>
<g id="glyph-1-0">
<path d="M 6.71875 -3.234375 C 6.859375 -3.296875 6.921875 -3.359375 6.921875 -3.453125 C 6.921875 -3.546875 6.875 -3.609375 6.71875 -3.671875 L 1.21875 -6.265625 C 1.09375 -6.34375 1.046875 -6.34375 1.03125 -6.34375 C 0.90625 -6.34375 0.828125 -6.25 0.828125 -6.140625 C 0.828125 -6.015625 0.90625 -5.96875 1.015625 -5.921875 L 6.25 -3.453125 L 1.03125 -1 C 0.84375 -0.90625 0.828125 -0.828125 0.828125 -0.765625 C 0.828125 -0.65625 0.921875 -0.5625 1.03125 -0.5625 C 1.0625 -0.5625 1.078125 -0.5625 1.203125 -0.640625 Z M 6.5625 1.359375 C 6.734375 1.359375 6.921875 1.359375 6.921875 1.171875 C 6.921875 0.96875 6.703125 0.96875 6.5625 0.96875 L 1.1875 0.96875 C 1.03125 0.96875 0.828125 0.96875 0.828125 1.171875 C 0.828125 1.359375 1 1.359375 1.171875 1.359375 Z M 6.5625 1.359375 "/>
</g>
<g id="glyph-1-1">
<path d="M 6.734375 -5.921875 C 6.84375 -5.96875 6.921875 -6.015625 6.921875 -6.140625 C 6.921875 -6.25 6.84375 -6.34375 6.71875 -6.34375 C 6.671875 -6.34375 6.578125 -6.296875 6.546875 -6.28125 L 1.03125 -3.671875 C 0.859375 -3.59375 0.828125 -3.53125 0.828125 -3.453125 C 0.828125 -3.359375 0.890625 -3.296875 1.03125 -3.234375 L 6.546875 -0.640625 C 6.671875 -0.5625 6.6875 -0.5625 6.71875 -0.5625 C 6.828125 -0.5625 6.921875 -0.65625 6.921875 -0.765625 C 6.921875 -0.859375 6.875 -0.921875 6.703125 -1 L 1.5 -3.453125 Z M 6.5625 1.359375 C 6.734375 1.359375 6.921875 1.359375 6.921875 1.171875 C 6.921875 0.96875 6.703125 0.96875 6.5625 0.96875 L 1.1875 0.96875 C 1.03125 0.96875 0.828125 0.96875 0.828125 1.171875 C 0.828125 1.359375 1 1.359375 1.171875 1.359375 Z M 6.5625 1.359375 "/>
</g>
<g id="glyph-2-0">
<path d="M 2.9375 -6.375 C 2.9375 -6.625 2.9375 -6.640625 2.703125 -6.640625 C 2.078125 -6 1.203125 -6 0.890625 -6 L 0.890625 -5.6875 C 1.09375 -5.6875 1.671875 -5.6875 2.1875 -5.953125 L 2.1875 -0.78125 C 2.1875 -0.421875 2.15625 -0.3125 1.265625 -0.3125 L 0.953125 -0.3125 L 0.953125 0 C 1.296875 -0.03125 2.15625 -0.03125 2.5625 -0.03125 C 2.953125 -0.03125 3.828125 -0.03125 4.171875 0 L 4.171875 -0.3125 L 3.859375 -0.3125 C 2.953125 -0.3125 2.9375 -0.421875 2.9375 -0.78125 Z M 2.9375 -6.375 "/>
</g>
<g id="glyph-2-1">
<path d="M 2.25 -6.03125 C 2.25 -6.390625 2.265625 -6.5 3.0625 -6.5 L 3.3125 -6.5 L 3.3125 -6.8125 C 2.96875 -6.78125 2.1875 -6.78125 1.796875 -6.78125 C 1.421875 -6.78125 0.625 -6.78125 0.28125 -6.8125 L 0.28125 -6.5 L 0.53125 -6.5 C 1.328125 -6.5 1.359375 -6.390625 1.359375 -6.03125 L 1.359375 -0.78125 C 1.359375 -0.421875 1.328125 -0.3125 0.53125 -0.3125 L 0.28125 -0.3125 L 0.28125 0 C 0.625 -0.03125 1.421875 -0.03125 1.796875 -0.03125 C 2.1875 -0.03125 2.96875 -0.03125 3.3125 0 L 3.3125 -0.3125 L 3.0625 -0.3125 C 2.265625 -0.3125 2.25 -0.421875 2.25 -0.78125 Z M 2.25 -6.03125 "/>
</g>
<g id="glyph-2-2">
<path d="M 1.09375 -3.421875 L 1.09375 -0.75 C 1.09375 -0.3125 0.984375 -0.3125 0.3125 -0.3125 L 0.3125 0 C 0.671875 -0.015625 1.171875 -0.03125 1.453125 -0.03125 C 1.703125 -0.03125 2.21875 -0.015625 2.5625 0 L 2.5625 -0.3125 C 1.890625 -0.3125 1.78125 -0.3125 1.78125 -0.75 L 1.78125 -2.59375 C 1.78125 -3.625 2.5 -4.1875 3.125 -4.1875 C 3.765625 -4.1875 3.875 -3.65625 3.875 -3.078125 L 3.875 -0.75 C 3.875 -0.3125 3.765625 -0.3125 3.09375 -0.3125 L 3.09375 0 C 3.4375 -0.015625 3.953125 -0.03125 4.21875 -0.03125 C 4.46875 -0.03125 5 -0.015625 5.328125 0 L 5.328125 -0.3125 C 4.8125 -0.3125 4.5625 -0.3125 4.5625 -0.609375 L 4.5625 -2.515625 C 4.5625 -3.375 4.5625 -3.671875 4.25 -4.03125 C 4.109375 -4.203125 3.78125 -4.40625 3.203125 -4.40625 C 2.46875 -4.40625 2 -3.984375 1.71875 -3.359375 L 1.71875 -4.40625 L 0.3125 -4.296875 L 0.3125 -3.984375 C 1.015625 -3.984375 1.09375 -3.921875 1.09375 -3.421875 Z M 1.09375 -3.421875 "/>
</g>
<g id="glyph-2-3">
<path d="M 1.71875 -3.984375 L 3.15625 -3.984375 L 3.15625 -4.296875 L 1.71875 -4.296875 L 1.71875 -6.125 L 1.46875 -6.125 C 1.46875 -5.3125 1.171875 -4.25 0.1875 -4.203125 L 0.1875 -3.984375 L 1.03125 -3.984375 L 1.03125 -1.234375 C 1.03125 -0.015625 1.96875 0.109375 2.328125 0.109375 C 3.03125 0.109375 3.3125 -0.59375 3.3125 -1.234375 L 3.3125 -1.796875 L 3.0625 -1.796875 L 3.0625 -1.25 C 3.0625 -0.515625 2.765625 -0.140625 2.390625 -0.140625 C 1.71875 -0.140625 1.71875 -1.046875 1.71875 -1.21875 Z M 1.71875 -3.984375 "/>
</g>
<g id="glyph-2-4">
<path d="M 1.109375 -2.515625 C 1.171875 -4 2.015625 -4.25 2.359375 -4.25 C 3.375 -4.25 3.484375 -2.90625 3.484375 -2.515625 Z M 1.109375 -2.296875 L 3.890625 -2.296875 C 4.109375 -2.296875 4.140625 -2.296875 4.140625 -2.515625 C 4.140625 -3.5 3.59375 -4.46875 2.359375 -4.46875 C 1.203125 -4.46875 0.28125 -3.4375 0.28125 -2.1875 C 0.28125 -0.859375 1.328125 0.109375 2.46875 0.109375 C 3.6875 0.109375 4.140625 -1 4.140625 -1.1875 C 4.140625 -1.28125 4.0625 -1.3125 4 -1.3125 C 3.921875 -1.3125 3.890625 -1.25 3.875 -1.171875 C 3.53125 -0.140625 2.625 -0.140625 2.53125 -0.140625 C 2.03125 -0.140625 1.640625 -0.4375 1.40625 -0.8125 C 1.109375 -1.28125 1.109375 -1.9375 1.109375 -2.296875 Z M 1.109375 -2.296875 "/>
</g>
<g id="glyph-2-5">
<path d="M 1.671875 -3.3125 L 1.671875 -4.40625 L 0.28125 -4.296875 L 0.28125 -3.984375 C 0.984375 -3.984375 1.0625 -3.921875 1.0625 -3.421875 L 1.0625 -0.75 C 1.0625 -0.3125 0.953125 -0.3125 0.28125 -0.3125 L 0.28125 0 C 0.671875 -0.015625 1.140625 -0.03125 1.421875 -0.03125 C 1.8125 -0.03125 2.28125 -0.03125 2.6875 0 L 2.6875 -0.3125 L 2.46875 -0.3125 C 1.734375 -0.3125 1.71875 -0.421875 1.71875 -0.78125 L 1.71875 -2.3125 C 1.71875 -3.296875 2.140625 -4.1875 2.890625 -4.1875 C 2.953125 -4.1875 2.984375 -4.1875 3 -4.171875 C 2.96875 -4.171875 2.765625 -4.046875 2.765625 -3.78125 C 2.765625 -3.515625 2.984375 -3.359375 3.203125 -3.359375 C 3.375 -3.359375 3.625 -3.484375 3.625 -3.796875 C 3.625 -4.109375 3.3125 -4.40625 2.890625 -4.40625 C 2.15625 -4.40625 1.796875 -3.734375 1.671875 -3.3125 Z M 1.671875 -3.3125 "/>
</g>
<g id="glyph-2-6">
<path d="M 2.078125 -1.9375 C 2.296875 -1.890625 3.109375 -1.734375 3.109375 -1.015625 C 3.109375 -0.515625 2.765625 -0.109375 1.984375 -0.109375 C 1.140625 -0.109375 0.78125 -0.671875 0.59375 -1.53125 C 0.5625 -1.65625 0.5625 -1.6875 0.453125 -1.6875 C 0.328125 -1.6875 0.328125 -1.625 0.328125 -1.453125 L 0.328125 -0.125 C 0.328125 0.046875 0.328125 0.109375 0.4375 0.109375 C 0.484375 0.109375 0.5 0.09375 0.6875 -0.09375 C 0.703125 -0.109375 0.703125 -0.125 0.890625 -0.3125 C 1.328125 0.09375 1.78125 0.109375 1.984375 0.109375 C 3.125 0.109375 3.59375 -0.5625 3.59375 -1.28125 C 3.59375 -1.796875 3.296875 -2.109375 3.171875 -2.21875 C 2.84375 -2.546875 2.453125 -2.625 2.03125 -2.703125 C 1.46875 -2.8125 0.8125 -2.9375 0.8125 -3.515625 C 0.8125 -3.875 1.0625 -4.28125 1.921875 -4.28125 C 3.015625 -4.28125 3.078125 -3.375 3.09375 -3.078125 C 3.09375 -2.984375 3.1875 -2.984375 3.203125 -2.984375 C 3.34375 -2.984375 3.34375 -3.03125 3.34375 -3.21875 L 3.34375 -4.234375 C 3.34375 -4.390625 3.34375 -4.46875 3.234375 -4.46875 C 3.1875 -4.46875 3.15625 -4.46875 3.03125 -4.34375 C 3 -4.3125 2.90625 -4.21875 2.859375 -4.1875 C 2.484375 -4.46875 2.078125 -4.46875 1.921875 -4.46875 C 0.703125 -4.46875 0.328125 -3.796875 0.328125 -3.234375 C 0.328125 -2.890625 0.484375 -2.609375 0.75 -2.390625 C 1.078125 -2.140625 1.359375 -2.078125 2.078125 -1.9375 Z M 2.078125 -1.9375 "/>
</g>
<g id="glyph-2-7">
<path d="M 1.171875 -2.171875 C 1.171875 -3.796875 1.984375 -4.21875 2.515625 -4.21875 C 2.609375 -4.21875 3.234375 -4.203125 3.578125 -3.84375 C 3.171875 -3.8125 3.109375 -3.515625 3.109375 -3.390625 C 3.109375 -3.125 3.296875 -2.9375 3.5625 -2.9375 C 3.828125 -2.9375 4.03125 -3.09375 4.03125 -3.40625 C 4.03125 -4.078125 3.265625 -4.46875 2.5 -4.46875 C 1.25 -4.46875 0.34375 -3.390625 0.34375 -2.15625 C 0.34375 -0.875 1.328125 0.109375 2.484375 0.109375 C 3.8125 0.109375 4.140625 -1.09375 4.140625 -1.1875 C 4.140625 -1.28125 4.03125 -1.28125 4 -1.28125 C 3.921875 -1.28125 3.890625 -1.25 3.875 -1.1875 C 3.59375 -0.265625 2.9375 -0.140625 2.578125 -0.140625 C 2.046875 -0.140625 1.171875 -0.5625 1.171875 -2.171875 Z M 1.171875 -2.171875 "/>
</g>
<g id="glyph-2-8">
<path d="M 1.765625 -4.40625 L 0.375 -4.296875 L 0.375 -3.984375 C 1.015625 -3.984375 1.109375 -3.921875 1.109375 -3.4375 L 1.109375 -0.75 C 1.109375 -0.3125 1 -0.3125 0.328125 -0.3125 L 0.328125 0 C 0.640625 -0.015625 1.1875 -0.03125 1.421875 -0.03125 C 1.78125 -0.03125 2.125 -0.015625 2.46875 0 L 2.46875 -0.3125 C 1.796875 -0.3125 1.765625 -0.359375 1.765625 -0.75 Z M 1.796875 -6.140625 C 1.796875 -6.453125 1.5625 -6.671875 1.28125 -6.671875 C 0.96875 -6.671875 0.75 -6.40625 0.75 -6.140625 C 0.75 -5.875 0.96875 -5.609375 1.28125 -5.609375 C 1.5625 -5.609375 1.796875 -5.828125 1.796875 -6.140625 Z M 1.796875 -6.140625 "/>
</g>
<g id="glyph-2-9">
<path d="M 4.6875 -2.140625 C 4.6875 -3.40625 3.703125 -4.46875 2.5 -4.46875 C 1.25 -4.46875 0.28125 -3.375 0.28125 -2.140625 C 0.28125 -0.84375 1.3125 0.109375 2.484375 0.109375 C 3.6875 0.109375 4.6875 -0.875 4.6875 -2.140625 Z M 2.5 -0.140625 C 2.0625 -0.140625 1.625 -0.34375 1.359375 -0.8125 C 1.109375 -1.25 1.109375 -1.859375 1.109375 -2.21875 C 1.109375 -2.609375 1.109375 -3.140625 1.34375 -3.578125 C 1.609375 -4.03125 2.078125 -4.25 2.484375 -4.25 C 2.921875 -4.25 3.34375 -4.03125 3.609375 -3.59375 C 3.875 -3.171875 3.875 -2.59375 3.875 -2.21875 C 3.875 -1.859375 3.875 -1.3125 3.65625 -0.875 C 3.421875 -0.421875 2.984375 -0.140625 2.5 -0.140625 Z M 2.5 -0.140625 "/>
</g>
<g id="glyph-2-10">
<path d="M 1.765625 -6.921875 L 0.328125 -6.8125 L 0.328125 -6.5 C 1.03125 -6.5 1.109375 -6.4375 1.109375 -5.9375 L 1.109375 -0.75 C 1.109375 -0.3125 1 -0.3125 0.328125 -0.3125 L 0.328125 0 C 0.65625 -0.015625 1.1875 -0.03125 1.4375 -0.03125 C 1.6875 -0.03125 2.171875 -0.015625 2.546875 0 L 2.546875 -0.3125 C 1.875 -0.3125 1.765625 -0.3125 1.765625 -0.75 Z M 1.765625 -6.921875 "/>
</g>
<g id="glyph-2-11">
<path d="M 3.890625 -0.78125 L 3.890625 0.109375 L 5.328125 0 L 5.328125 -0.3125 C 4.640625 -0.3125 4.5625 -0.375 4.5625 -0.875 L 4.5625 -4.40625 L 3.09375 -4.296875 L 3.09375 -3.984375 C 3.78125 -3.984375 3.875 -3.921875 3.875 -3.421875 L 3.875 -1.65625 C 3.875 -0.78125 3.390625 -0.109375 2.65625 -0.109375 C 1.828125 -0.109375 1.78125 -0.578125 1.78125 -1.09375 L 1.78125 -4.40625 L 0.3125 -4.296875 L 0.3125 -3.984375 C 1.09375 -3.984375 1.09375 -3.953125 1.09375 -3.078125 L 1.09375 -1.578125 C 1.09375 -0.796875 1.09375 0.109375 2.609375 0.109375 C 3.171875 0.109375 3.609375 -0.171875 3.890625 -0.78125 Z M 3.890625 -0.78125 "/>
</g>
<g id="glyph-2-12">
<path d="M 5.796875 -6.78125 L 0.328125 -6.78125 L 0.328125 -6.46875 L 0.5625 -6.46875 C 1.328125 -6.46875 1.359375 -6.359375 1.359375 -6 L 1.359375 -0.78125 C 1.359375 -0.421875 1.328125 -0.3125 0.5625 -0.3125 L 0.328125 -0.3125 L 0.328125 0 C 0.671875 -0.03125 1.453125 -0.03125 1.84375 -0.03125 C 2.25 -0.03125 3.15625 -0.03125 3.515625 0 L 3.515625 -0.3125 L 3.1875 -0.3125 C 2.25 -0.3125 2.25 -0.4375 2.25 -0.78125 L 2.25 -3.234375 L 3.09375 -3.234375 C 4.0625 -3.234375 4.15625 -2.921875 4.15625 -2.078125 L 4.40625 -2.078125 L 4.40625 -4.71875 L 4.15625 -4.71875 C 4.15625 -3.875 4.0625 -3.546875 3.09375 -3.546875 L 2.25 -3.546875 L 2.25 -6.078125 C 2.25 -6.40625 2.265625 -6.46875 2.734375 -6.46875 L 3.921875 -6.46875 C 5.421875 -6.46875 5.671875 -5.90625 5.828125 -4.53125 L 6.078125 -4.53125 Z M 5.796875 -6.78125 "/>
</g>
<g id="glyph-2-13">
<path d="M 3.78125 -0.609375 L 3.78125 1.171875 C 3.78125 1.625 3.671875 1.625 3.015625 1.625 L 3.015625 1.9375 C 3.34375 1.921875 3.875 1.90625 4.125 1.90625 C 4.390625 1.90625 4.90625 1.921875 5.25 1.9375 L 5.25 1.625 C 4.578125 1.625 4.46875 1.625 4.46875 1.171875 L 4.46875 -4.40625 L 4.25 -4.40625 L 3.875 -3.5 C 3.75 -3.78125 3.34375 -4.40625 2.546875 -4.40625 C 1.390625 -4.40625 0.34375 -3.4375 0.34375 -2.140625 C 0.34375 -0.890625 1.3125 0.109375 2.46875 0.109375 C 3.15625 0.109375 3.5625 -0.3125 3.78125 -0.609375 Z M 3.8125 -2.765625 L 3.8125 -1.359375 C 3.8125 -1.03125 3.640625 -0.75 3.421875 -0.515625 C 3.296875 -0.375 2.96875 -0.109375 2.5 -0.109375 C 1.78125 -0.109375 1.171875 -1 1.171875 -2.140625 C 1.171875 -3.328125 1.859375 -4.15625 2.609375 -4.15625 C 3.40625 -4.15625 3.8125 -3.296875 3.8125 -2.765625 Z M 3.8125 -2.765625 "/>
</g>
<g id="glyph-2-14">
<path d="M 3.3125 -0.75 C 3.359375 -0.359375 3.625 0.0625 4.09375 0.0625 C 4.3125 0.0625 4.921875 -0.078125 4.921875 -0.890625 L 4.921875 -1.453125 L 4.671875 -1.453125 L 4.671875 -0.890625 C 4.671875 -0.3125 4.421875 -0.25 4.3125 -0.25 C 3.984375 -0.25 3.9375 -0.703125 3.9375 -0.75 L 3.9375 -2.734375 C 3.9375 -3.15625 3.9375 -3.546875 3.578125 -3.921875 C 3.1875 -4.3125 2.6875 -4.46875 2.21875 -4.46875 C 1.390625 -4.46875 0.703125 -4 0.703125 -3.34375 C 0.703125 -3.046875 0.90625 -2.875 1.171875 -2.875 C 1.453125 -2.875 1.625 -3.078125 1.625 -3.328125 C 1.625 -3.453125 1.578125 -3.78125 1.109375 -3.78125 C 1.390625 -4.140625 1.875 -4.25 2.1875 -4.25 C 2.6875 -4.25 3.25 -3.859375 3.25 -2.96875 L 3.25 -2.609375 C 2.734375 -2.578125 2.046875 -2.546875 1.421875 -2.25 C 0.671875 -1.90625 0.421875 -1.390625 0.421875 -0.953125 C 0.421875 -0.140625 1.390625 0.109375 2.015625 0.109375 C 2.671875 0.109375 3.125 -0.296875 3.3125 -0.75 Z M 3.25 -2.390625 L 3.25 -1.390625 C 3.25 -0.453125 2.53125 -0.109375 2.078125 -0.109375 C 1.59375 -0.109375 1.1875 -0.453125 1.1875 -0.953125 C 1.1875 -1.5 1.609375 -2.328125 3.25 -2.390625 Z M 3.25 -2.390625 "/>
</g>
<g id="glyph-2-15">
<path d="M 4.140625 -3.34375 C 4.390625 -3.984375 4.90625 -3.984375 5.0625 -3.984375 L 5.0625 -4.296875 C 4.828125 -4.28125 4.546875 -4.265625 4.3125 -4.265625 C 4.140625 -4.265625 3.671875 -4.28125 3.453125 -4.296875 L 3.453125 -3.984375 C 3.765625 -3.984375 3.921875 -3.8125 3.921875 -3.5625 C 3.921875 -3.453125 3.90625 -3.4375 3.859375 -3.3125 L 2.84375 -0.875 L 1.75 -3.546875 C 1.703125 -3.65625 1.6875 -3.6875 1.6875 -3.734375 C 1.6875 -3.984375 2.046875 -3.984375 2.25 -3.984375 L 2.25 -4.296875 C 1.984375 -4.28125 1.328125 -4.265625 1.15625 -4.265625 C 0.890625 -4.265625 0.484375 -4.28125 0.1875 -4.296875 L 0.1875 -3.984375 C 0.671875 -3.984375 0.859375 -3.984375 1 -3.640625 L 2.5 0 C 2.4375 0.125 2.296875 0.453125 2.25 0.59375 C 2.03125 1.140625 1.75 1.828125 1.109375 1.828125 C 1.0625 1.828125 0.828125 1.828125 0.640625 1.640625 C 0.953125 1.609375 1.03125 1.390625 1.03125 1.21875 C 1.03125 0.96875 0.84375 0.8125 0.609375 0.8125 C 0.40625 0.8125 0.1875 0.9375 0.1875 1.234375 C 0.1875 1.6875 0.609375 2.046875 1.109375 2.046875 C 1.734375 2.046875 2.140625 1.46875 2.375 0.90625 Z M 4.140625 -3.34375 "/>
</g>
<g id="glyph-2-16">
<path d="M 3.484375 -3.875 L 2.203125 -4.171875 C 1.578125 -4.328125 1.203125 -4.859375 1.203125 -5.4375 C 1.203125 -6.140625 1.734375 -6.75 2.515625 -6.75 C 4.171875 -6.75 4.390625 -5.109375 4.453125 -4.671875 C 4.46875 -4.609375 4.46875 -4.546875 4.578125 -4.546875 C 4.703125 -4.546875 4.703125 -4.59375 4.703125 -4.78125 L 4.703125 -6.78125 C 4.703125 -6.953125 4.703125 -7.03125 4.59375 -7.03125 C 4.53125 -7.03125 4.515625 -7.015625 4.453125 -6.890625 L 4.09375 -6.328125 C 3.796875 -6.625 3.390625 -7.03125 2.5 -7.03125 C 1.390625 -7.03125 0.5625 -6.15625 0.5625 -5.09375 C 0.5625 -4.265625 1.09375 -3.53125 1.859375 -3.265625 C 1.96875 -3.234375 2.484375 -3.109375 3.1875 -2.9375 C 3.453125 -2.875 3.75 -2.796875 4.03125 -2.4375 C 4.234375 -2.171875 4.34375 -1.84375 4.34375 -1.515625 C 4.34375 -0.8125 3.84375 -0.09375 3 -0.09375 C 2.71875 -0.09375 1.953125 -0.140625 1.421875 -0.625 C 0.84375 -1.171875 0.8125 -1.796875 0.8125 -2.15625 C 0.796875 -2.265625 0.71875 -2.265625 0.6875 -2.265625 C 0.5625 -2.265625 0.5625 -2.1875 0.5625 -2.015625 L 0.5625 -0.015625 C 0.5625 0.15625 0.5625 0.21875 0.671875 0.21875 C 0.734375 0.21875 0.75 0.203125 0.8125 0.09375 C 0.8125 0.078125 0.84375 0.046875 1.171875 -0.484375 C 1.484375 -0.140625 2.125 0.21875 3.015625 0.21875 C 4.171875 0.21875 4.96875 -0.75 4.96875 -1.859375 C 4.96875 -2.84375 4.3125 -3.671875 3.484375 -3.875 Z M 3.484375 -3.875 "/>
</g>
<g id="glyph-2-17">
<path d="M 3.78125 -0.546875 L 3.78125 0.109375 L 5.25 0 L 5.25 -0.3125 C 4.5625 -0.3125 4.46875 -0.375 4.46875 -0.875 L 4.46875 -6.921875 L 3.046875 -6.8125 L 3.046875 -6.5 C 3.734375 -6.5 3.8125 -6.4375 3.8125 -5.9375 L 3.8125 -3.78125 C 3.53125 -4.140625 3.09375 -4.40625 2.5625 -4.40625 C 1.390625 -4.40625 0.34375 -3.421875 0.34375 -2.140625 C 0.34375 -0.875 1.3125 0.109375 2.453125 0.109375 C 3.09375 0.109375 3.53125 -0.234375 3.78125 -0.546875 Z M 3.78125 -3.21875 L 3.78125 -1.171875 C 3.78125 -1 3.78125 -0.984375 3.671875 -0.8125 C 3.375 -0.328125 2.9375 -0.109375 2.5 -0.109375 C 2.046875 -0.109375 1.6875 -0.375 1.453125 -0.75 C 1.203125 -1.15625 1.171875 -1.71875 1.171875 -2.140625 C 1.171875 -2.5 1.1875 -3.09375 1.46875 -3.546875 C 1.6875 -3.859375 2.0625 -4.1875 2.609375 -4.1875 C 2.953125 -4.1875 3.375 -4.03125 3.671875 -3.59375 C 3.78125 -3.421875 3.78125 -3.40625 3.78125 -3.21875 Z M 3.78125 -3.21875 "/>
</g>
<g id="glyph-2-18">
<path d="M 1.09375 -3.421875 L 1.09375 -0.75 C 1.09375 -0.3125 0.984375 -0.3125 0.3125 -0.3125 L 0.3125 0 C 0.671875 -0.015625 1.171875 -0.03125 1.453125 -0.03125 C 1.703125 -0.03125 2.21875 -0.015625 2.5625 0 L 2.5625 -0.3125 C 1.890625 -0.3125 1.78125 -0.3125 1.78125 -0.75 L 1.78125 -2.59375 C 1.78125 -3.625 2.5 -4.1875 3.125 -4.1875 C 3.765625 -4.1875 3.875 -3.65625 3.875 -3.078125 L 3.875 -0.75 C 3.875 -0.3125 3.765625 -0.3125 3.09375 -0.3125 L 3.09375 0 C 3.4375 -0.015625 3.953125 -0.03125 4.21875 -0.03125 C 4.46875 -0.03125 5 -0.015625 5.328125 0 L 5.328125 -0.3125 C 4.671875 -0.3125 4.5625 -0.3125 4.5625 -0.75 L 4.5625 -2.59375 C 4.5625 -3.625 5.265625 -4.1875 5.90625 -4.1875 C 6.53125 -4.1875 6.640625 -3.65625 6.640625 -3.078125 L 6.640625 -0.75 C 6.640625 -0.3125 6.53125 -0.3125 5.859375 -0.3125 L 5.859375 0 C 6.203125 -0.015625 6.71875 -0.03125 6.984375 -0.03125 C 7.25 -0.03125 7.765625 -0.015625 8.109375 0 L 8.109375 -0.3125 C 7.59375 -0.3125 7.34375 -0.3125 7.328125 -0.609375 L 7.328125 -2.515625 C 7.328125 -3.375 7.328125 -3.671875 7.015625 -4.03125 C 6.875 -4.203125 6.546875 -4.40625 5.96875 -4.40625 C 5.140625 -4.40625 4.6875 -3.8125 4.53125 -3.421875 C 4.390625 -4.296875 3.65625 -4.40625 3.203125 -4.40625 C 2.46875 -4.40625 2 -3.984375 1.71875 -3.359375 L 1.71875 -4.40625 L 0.3125 -4.296875 L 0.3125 -3.984375 C 1.015625 -3.984375 1.09375 -3.921875 1.09375 -3.421875 Z M 1.09375 -3.421875 "/>
</g>
</g>
</defs>
<path fill-rule="nonzero" fill="rgb(80.703735%, 89.292908%, 89.292908%)" fill-opacity="1" d="M 14.390625 123.28125 L 14.390625 31.152344 L 106.515625 31.152344 L 106.515625 123.28125 Z M 14.390625 123.28125 "/>
<path fill="none" stroke-width="0.3985" stroke-linecap="butt" stroke-linejoin="miter" stroke="rgb(0%, 0%, 0%)" stroke-opacity="1" stroke-miterlimit="10" d="M -156.613312 -0.0006875 L -46.460969 -0.0006875 " transform="matrix(1, 0, 0, -1, 161.793, 86.429)"/>
<path fill="none" stroke-width="0.3985" stroke-linecap="round" stroke-linejoin="round" stroke="rgb(0%, 0%, 0%)" stroke-opacity="1" stroke-miterlimit="10" d="M -2.073599 2.389937 C -1.694692 0.956344 -0.850942 0.280562 0.00062 -0.0006875 C -0.850942 -0.278031 -1.694692 -0.957719 -2.073599 -2.391313 " transform="matrix(1, 0, 0, -1, 115.53063, 86.429)"/>
<g fill="rgb(0%, 0%, 0%)" fill-opacity="1">
<use xlink:href="#glyph-0-0" x="119.25" y="88.574"/>
</g>
<path fill="none" stroke-width="0.3985" stroke-linecap="butt" stroke-linejoin="miter" stroke="rgb(0%, 0%, 0%)" stroke-opacity="1" stroke-miterlimit="10" d="M -110.550812 -46.063188 L -110.550812 64.089156 " transform="matrix(1, 0, 0, -1, 161.793, 86.429)"/>
<path fill="none" stroke-width="0.3985" stroke-linecap="round" stroke-linejoin="round" stroke="rgb(0%, 0%, 0%)" stroke-opacity="1" stroke-miterlimit="10" d="M -2.071048 2.389937 C -1.692141 0.956344 -0.848391 0.280562 -0.000735 -0.0006875 C -0.848391 -0.278031 -1.692141 -0.957719 -2.071048 -2.391313 " transform="matrix(0, -1, -1, 0, 51.2415, 22.13989)"/>
<g fill="rgb(0%, 0%, 0%)" fill-opacity="1">
<use xlink:href="#glyph-0-1" x="48.622" y="16.485"/>
</g>
<path fill="none" stroke-width="0.79701" stroke-linecap="butt" stroke-linejoin="miter" stroke="rgb(35.68573%, 64.312744%, 64.312744%)" stroke-opacity="1" stroke-miterlimit="10" d="M -92.125031 -46.063188 L -92.125031 64.487594 " transform="matrix(1, 0, 0, -1, 161.793, 86.429)"/>
<g fill="rgb(0%, 0%, 0%)" fill-opacity="1">
<use xlink:href="#glyph-0-0" x="48.476" y="147.922"/>
</g>
<g fill="rgb(0%, 0%, 0%)" fill-opacity="1">
<use xlink:href="#glyph-1-0" x="56.939229" y="147.922"/>
</g>
<g fill="rgb(0%, 0%, 0%)" fill-opacity="1">
<use xlink:href="#glyph-2-0" x="67.457742" y="147.922"/>
</g>
<path fill-rule="nonzero" fill="rgb(94.941711%, 89.762878%, 79.763794%)" fill-opacity="1" d="M 124.941406 123.28125 L 124.941406 68.003906 L 217.070312 68.003906 L 217.070312 123.28125 Z M 124.941406 123.28125 "/>
<path fill="none" stroke-width="0.3985" stroke-linecap="butt" stroke-linejoin="miter" stroke="rgb(0%, 0%, 0%)" stroke-opacity="1" stroke-miterlimit="10" d="M -46.062531 -0.0006875 L 64.089813 -0.0006875 " transform="matrix(1, 0, 0, -1, 161.793, 86.429)"/>
<path fill="none" stroke-width="0.3985" stroke-linecap="round" stroke-linejoin="round" stroke="rgb(0%, 0%, 0%)" stroke-opacity="1" stroke-miterlimit="10" d="M -2.070391 2.389937 C -1.695391 0.956344 -0.851641 0.280562 -0.00007875 -0.0006875 C -0.851641 -0.278031 -1.695391 -0.957719 -2.070391 -2.391313 " transform="matrix(1, 0, 0, -1, 226.08211, 86.429)"/>
<g fill="rgb(0%, 0%, 0%)" fill-opacity="1">
<use xlink:href="#glyph-0-0" x="229.8" y="88.574"/>
</g>
<path fill="none" stroke-width="0.3985" stroke-linecap="butt" stroke-linejoin="miter" stroke="rgb(0%, 0%, 0%)" stroke-opacity="1" stroke-miterlimit="10" d="M -0.00003125 -46.063188 L -0.00003125 64.089156 " transform="matrix(1, 0, 0, -1, 161.793, 86.429)"/>
<path fill="none" stroke-width="0.3985" stroke-linecap="round" stroke-linejoin="round" stroke="rgb(0%, 0%, 0%)" stroke-opacity="1" stroke-miterlimit="10" d="M -2.071048 2.390656 C -1.692141 0.957062 -0.848391 0.277375 -0.000735 0.00003125 C -0.848391 -0.277313 -1.692141 -0.957 -2.071048 -2.390594 " transform="matrix(0, -1, -1, 0, 161.793, 22.13989)"/>
<g fill="rgb(0%, 0%, 0%)" fill-opacity="1">
<use xlink:href="#glyph-0-1" x="159.172" y="16.485"/>
</g>
<path fill="none" stroke-width="0.79701" stroke-linecap="butt" stroke-linejoin="miter" stroke="rgb(83.137512%, 65.879822%, 32.548523%)" stroke-opacity="1" stroke-miterlimit="10" d="M -46.062531 18.425094 L 64.48825 18.425094 " transform="matrix(1, 0, 0, -1, 161.793, 86.429)"/>
<g fill="rgb(0%, 0%, 0%)" fill-opacity="1">
<use xlink:href="#glyph-0-1" x="159.252" y="147.631"/>
</g>
<g fill="rgb(0%, 0%, 0%)" fill-opacity="1">
<use xlink:href="#glyph-1-1" x="167.264919" y="147.631"/>
</g>
<g fill="rgb(0%, 0%, 0%)" fill-opacity="1">
<use xlink:href="#glyph-2-0" x="177.77347" y="147.631"/>
</g>
<path fill-rule="nonzero" fill="rgb(79.293823%, 87.29248%, 79.920959%)" fill-opacity="1" d="M 290.769531 123.28125 L 290.769531 68.003906 L 327.621094 68.003906 L 327.621094 123.28125 Z M 290.769531 123.28125 "/>
<path fill="none" stroke-width="0.3985" stroke-linecap="butt" stroke-linejoin="miter" stroke="rgb(0%, 0%, 0%)" stroke-opacity="1" stroke-miterlimit="10" d="M 64.48825 -0.0006875 L 174.640594 -0.0006875 " transform="matrix(1, 0, 0, -1, 161.793, 86.429)"/>
<path fill="none" stroke-width="0.3985" stroke-linecap="round" stroke-linejoin="round" stroke="rgb(0%, 0%, 0%)" stroke-opacity="1" stroke-miterlimit="10" d="M -2.07112 2.389937 C -1.692214 0.956344 -0.848464 0.280562 -0.0008075 -0.0006875 C -0.848464 -0.278031 -1.692214 -0.957719 -2.07112 -2.391313 " transform="matrix(1, 0, 0, -1, 336.63362, 86.429)"/>
<g fill="rgb(0%, 0%, 0%)" fill-opacity="1">
<use xlink:href="#glyph-0-0" x="340.35" y="88.574"/>
</g>
<path fill="none" stroke-width="0.3985" stroke-linecap="butt" stroke-linejoin="miter" stroke="rgb(0%, 0%, 0%)" stroke-opacity="1" stroke-miterlimit="10" d="M 110.55075 -46.063188 L 110.55075 64.089156 " transform="matrix(1, 0, 0, -1, 161.793, 86.429)"/>
<path fill="none" stroke-width="0.3985" stroke-linecap="round" stroke-linejoin="round" stroke="rgb(0%, 0%, 0%)" stroke-opacity="1" stroke-miterlimit="10" d="M -2.071048 2.391375 C -1.692141 0.957781 -0.848391 0.278094 -0.000735 0.00075 C -0.848391 -0.2805 -1.692141 -0.956281 -2.071048 -2.389875 " transform="matrix(0, -1, -1, 0, 272.3445, 22.13989)"/>
<g fill="rgb(0%, 0%, 0%)" fill-opacity="1">
<use xlink:href="#glyph-0-1" x="269.722" y="16.485"/>
</g>
<path fill="none" stroke-width="0.79701" stroke-linecap="butt" stroke-linejoin="miter" stroke="rgb(35.68573%, 64.312744%, 64.312744%)" stroke-opacity="1" stroke-miterlimit="10" d="M 128.976531 -46.063188 L 128.976531 64.487594 " transform="matrix(1, 0, 0, -1, 161.793, 86.429)"/>
<path fill="none" stroke-width="0.79701" stroke-linecap="butt" stroke-linejoin="miter" stroke="rgb(83.137512%, 65.879822%, 32.548523%)" stroke-opacity="1" stroke-miterlimit="10" d="M 64.48825 18.425094 L 175.039031 18.425094 " transform="matrix(1, 0, 0, -1, 161.793, 86.429)"/>
<g fill="rgb(0%, 0%, 0%)" fill-opacity="1">
<use xlink:href="#glyph-2-1" x="256.054" y="148.793"/>
<use xlink:href="#glyph-2-2" x="259.651495" y="148.793"/>
</g>
<g fill="rgb(0%, 0%, 0%)" fill-opacity="1">
<use xlink:href="#glyph-2-3" x="264.907763" y="148.793"/>
<use xlink:href="#glyph-2-4" x="268.782218" y="148.793"/>
<use xlink:href="#glyph-2-5" x="273.209597" y="148.793"/>
<use xlink:href="#glyph-2-6" x="277.111948" y="148.793"/>
<use xlink:href="#glyph-2-4" x="281.041197" y="148.793"/>
<use xlink:href="#glyph-2-7" x="285.468576" y="148.793"/>
<use xlink:href="#glyph-2-3" x="289.895956" y="148.793"/>
<use xlink:href="#glyph-2-8" x="293.770411" y="148.793"/>
<use xlink:href="#glyph-2-9" x="296.538021" y="148.793"/>
<use xlink:href="#glyph-2-2" x="301.519321" y="148.793"/>
</g>
<g fill="rgb(48.234558%, 68.232727%, 49.804688%)" fill-opacity="1">
<use xlink:href="#glyph-2-6" x="292.008" y="89.889"/>
<use xlink:href="#glyph-2-9" x="295.937249" y="89.889"/>
<use xlink:href="#glyph-2-10" x="300.918549" y="89.889"/>
<use xlink:href="#glyph-2-11" x="303.68616" y="89.889"/>
<use xlink:href="#glyph-2-3" x="309.22138" y="89.889"/>
<use xlink:href="#glyph-2-8" x="313.095835" y="89.889"/>
<use xlink:href="#glyph-2-9" x="315.863446" y="89.889"/>
<use xlink:href="#glyph-2-2" x="320.844746" y="89.889"/>
</g>
<g fill="rgb(0%, 0%, 0%)" fill-opacity="1">
<use xlink:href="#glyph-2-12" x="17.647" y="15.22"/>
<use xlink:href="#glyph-2-8" x="24.150585" y="15.22"/>
<use xlink:href="#glyph-2-5" x="26.918196" y="15.22"/>
<use xlink:href="#glyph-2-6" x="30.820546" y="15.22"/>
<use xlink:href="#glyph-2-3" x="34.749795" y="15.22"/>
</g>
<g fill="rgb(0%, 0%, 0%)" fill-opacity="1">
<use xlink:href="#glyph-2-8" x="41.941796" y="15.22"/>
<use xlink:href="#glyph-2-2" x="44.709407" y="15.22"/>
<use xlink:href="#glyph-2-4" x="50.244627" y="15.22"/>
<use xlink:href="#glyph-2-13" x="54.672007" y="15.22"/>
<use xlink:href="#glyph-2-11" x="59.930267" y="15.22"/>
<use xlink:href="#glyph-2-14" x="65.465487" y="15.22"/>
<use xlink:href="#glyph-2-10" x="70.446787" y="15.22"/>
<use xlink:href="#glyph-2-8" x="73.214398" y="15.22"/>
<use xlink:href="#glyph-2-3" x="75.982008" y="15.22"/>
</g>
<g fill="rgb(0%, 0%, 0%)" fill-opacity="1">
<use xlink:href="#glyph-2-15" x="79.57751" y="15.22"/>
</g>
<g fill="rgb(0%, 0%, 0%)" fill-opacity="1">
<use xlink:href="#glyph-2-16" x="123.465" y="15.22"/>
<use xlink:href="#glyph-2-4" x="129.000221" y="15.22"/>
<use xlink:href="#glyph-2-7" x="133.4276" y="15.22"/>
<use xlink:href="#glyph-2-9" x="137.854979" y="15.22"/>
<use xlink:href="#glyph-2-2" x="142.836279" y="15.22"/>
<use xlink:href="#glyph-2-17" x="148.3715" y="15.22"/>
</g>
<g fill="rgb(0%, 0%, 0%)" fill-opacity="1">
<use xlink:href="#glyph-2-8" x="157.224266" y="15.22"/>
<use xlink:href="#glyph-2-2" x="159.991877" y="15.22"/>
<use xlink:href="#glyph-2-4" x="165.527097" y="15.22"/>
<use xlink:href="#glyph-2-13" x="169.954477" y="15.22"/>
<use xlink:href="#glyph-2-11" x="175.212737" y="15.22"/>
<use xlink:href="#glyph-2-14" x="180.747957" y="15.22"/>
<use xlink:href="#glyph-2-10" x="185.729257" y="15.22"/>
<use xlink:href="#glyph-2-8" x="188.496868" y="15.22"/>
<use xlink:href="#glyph-2-3" x="191.264478" y="15.22"/>
</g>
<g fill="rgb(0%, 0%, 0%)" fill-opacity="1">
<use xlink:href="#glyph-2-15" x="194.85998" y="15.22"/>
</g>
<g fill="rgb(0%, 0%, 0%)" fill-opacity="1">
<use xlink:href="#glyph-2-16" x="237.834" y="15.22"/>
<use xlink:href="#glyph-2-15" x="243.369221" y="15.22"/>
<use xlink:href="#glyph-2-6" x="248.627481" y="15.22"/>
<use xlink:href="#glyph-2-3" x="252.55673" y="15.22"/>
<use xlink:href="#glyph-2-4" x="256.431185" y="15.22"/>
<use xlink:href="#glyph-2-18" x="260.858565" y="15.22"/>
</g>
<g fill="rgb(0%, 0%, 0%)" fill-opacity="1">
<use xlink:href="#glyph-2-6" x="272.477945" y="15.22"/>
<use xlink:href="#glyph-2-9" x="276.407195" y="15.22"/>
<use xlink:href="#glyph-2-10" x="281.388495" y="15.22"/>
<use xlink:href="#glyph-2-11" x="284.156105" y="15.22"/>
<use xlink:href="#glyph-2-3" x="289.691326" y="15.22"/>
<use xlink:href="#glyph-2-8" x="293.565781" y="15.22"/>
<use xlink:href="#glyph-2-9" x="296.333391" y="15.22"/>
<use xlink:href="#glyph-2-2" x="301.314691" y="15.22"/>
</g>
</svg>
