<svg xmlns="http://www.w3.org/2000/svg" viewBox="0 0 300 300" width="300" height="300">
  <defs>
    <marker id="arrowhead" markerWidth="10" markerHeight="7" refX="9" refY="3.5" orient="auto">
      <polygon points="0 0, 10 3.5, 0 7" fill="#333"/>
    </marker>
  </defs>
  
  <!-- Axes -->
  <line x1="15" y1="150" x2="285" y2="150" stroke="#333" stroke-width="1.5" marker-end="url(#arrowhead)"/>
  <line x1="150" y1="285" x2="150" y2="15" stroke="#333" stroke-width="1.5" marker-end="url(#arrowhead)"/>
  
  <!-- Axis labels -->
  <text x="280" y="168" font-family="serif" font-style="italic" font-size="14">x</text>
  <text x="135" y="25" font-family="serif" font-style="italic" font-size="14">y</text>
  
  <!-- Logarithmic spiral r = e^(θ/4) -->
  <!-- Exponential growth, constant angle intersections -->
  <path d="M 151 150
           C 152 149, 153 149, 153 150
           C 154 152, 152 154, 150 154
           C 147 153, 146 150, 148 147
           C 151 143, 157 143, 160 148
           C 164 155, 161 163, 153 166
           C 142 169, 133 161, 132 150
           C 131 136, 143 125, 158 125
           C 177 126, 190 144, 188 165
           C 185 190, 160 208, 132 202
           C 100 195, 82 160, 92 125
           C 105 85, 150 62, 195 78
           C 245 98, 270 155, 250 210
           C 228 270, 158 295, 90 265" 
        fill="none" stroke="#5BA3A3" stroke-width="2"/>
</svg>