<?xml version="1.0" encoding="UTF-8"?>
<svg xmlns="http://www.w3.org/2000/svg" xmlns:xlink="http://www.w3.org/1999/xlink" width="261.317pt" height="148.473pt" viewBox="0 0 261.317 148.473">
<defs>
<g>
<g id="glyph-0-0">
<path d="M 6.5625 -2.296875 C 6.734375 -2.296875 6.921875 -2.296875 6.921875 -2.5 C 6.921875 -2.6875 6.734375 -2.6875 6.5625 -2.6875 L 1.171875 -2.6875 C 1 -2.6875 0.828125 -2.6875 0.828125 -2.5 C 0.828125 -2.296875 1 -2.296875 1.171875 -2.296875 Z M 6.5625 -2.296875 "/>
</g>
<g id="glyph-1-0">
<path d="M 2.9375 -6.375 C 2.9375 -6.625 2.9375 -6.640625 2.703125 -6.640625 C 2.078125 -6 1.203125 -6 0.890625 -6 L 0.890625 -5.6875 C 1.09375 -5.6875 1.671875 -5.6875 2.1875 -5.953125 L 2.1875 -0.78125 C 2.1875 -0.421875 2.15625 -0.3125 1.265625 -0.3125 L 0.953125 -0.3125 L 0.953125 0 C 1.296875 -0.03125 2.15625 -0.03125 2.5625 -0.03125 C 2.953125 -0.03125 3.828125 -0.03125 4.171875 0 L 4.171875 -0.3125 L 3.859375 -0.3125 C 2.953125 -0.3125 2.9375 -0.421875 2.9375 -0.78125 Z M 2.9375 -6.375 "/>
</g>
<g id="glyph-1-1">
<path d="M 1.265625 -0.765625 L 2.328125 -1.796875 C 3.875 -3.171875 4.46875 -3.703125 4.46875 -4.703125 C 4.46875 -5.84375 3.578125 -6.640625 2.359375 -6.640625 C 1.234375 -6.640625 0.5 -5.71875 0.5 -4.828125 C 0.5 -4.28125 1 -4.28125 1.03125 -4.28125 C 1.203125 -4.28125 1.546875 -4.390625 1.546875 -4.8125 C 1.546875 -5.0625 1.359375 -5.328125 1.015625 -5.328125 C 0.9375 -5.328125 0.921875 -5.328125 0.890625 -5.3125 C 1.109375 -5.96875 1.65625 -6.328125 2.234375 -6.328125 C 3.140625 -6.328125 3.5625 -5.515625 3.5625 -4.703125 C 3.5625 -3.90625 3.078125 -3.125 2.515625 -2.5 L 0.609375 -0.375 C 0.5 -0.265625 0.5 -0.234375 0.5 0 L 4.203125 0 L 4.46875 -1.734375 L 4.234375 -1.734375 C 4.171875 -1.4375 4.109375 -1 4 -0.84375 C 3.9375 -0.765625 3.28125 -0.765625 3.0625 -0.765625 Z M 1.265625 -0.765625 "/>
</g>
<g id="glyph-1-2">
<path d="M 2.890625 -3.515625 C 3.703125 -3.78125 4.28125 -4.46875 4.28125 -5.265625 C 4.28125 -6.078125 3.40625 -6.640625 2.453125 -6.640625 C 1.453125 -6.640625 0.6875 -6.046875 0.6875 -5.28125 C 0.6875 -4.953125 0.90625 -4.765625 1.203125 -4.765625 C 1.5 -4.765625 1.703125 -4.984375 1.703125 -5.28125 C 1.703125 -5.765625 1.234375 -5.765625 1.09375 -5.765625 C 1.390625 -6.265625 2.046875 -6.390625 2.40625 -6.390625 C 2.828125 -6.390625 3.375 -6.171875 3.375 -5.28125 C 3.375 -5.15625 3.34375 -4.578125 3.09375 -4.140625 C 2.796875 -3.65625 2.453125 -3.625 2.203125 -3.625 C 2.125 -3.609375 1.890625 -3.59375 1.8125 -3.59375 C 1.734375 -3.578125 1.671875 -3.5625 1.671875 -3.46875 C 1.671875 -3.359375 1.734375 -3.359375 1.90625 -3.359375 L 2.34375 -3.359375 C 3.15625 -3.359375 3.53125 -2.6875 3.53125 -1.703125 C 3.53125 -0.34375 2.84375 -0.0625 2.40625 -0.0625 C 1.96875 -0.0625 1.21875 -0.234375 0.875 -0.8125 C 1.21875 -0.765625 1.53125 -0.984375 1.53125 -1.359375 C 1.53125 -1.71875 1.265625 -1.921875 0.984375 -1.921875 C 0.734375 -1.921875 0.421875 -1.78125 0.421875 -1.34375 C 0.421875 -0.4375 1.34375 0.21875 2.4375 0.21875 C 3.65625 0.21875 4.5625 -0.6875 4.5625 -1.703125 C 4.5625 -2.515625 3.921875 -3.296875 2.890625 -3.515625 Z M 2.890625 -3.515625 "/>
</g>
<g id="glyph-1-3">
<path d="M 2.9375 -1.640625 L 2.9375 -0.78125 C 2.9375 -0.421875 2.90625 -0.3125 2.171875 -0.3125 L 1.96875 -0.3125 L 1.96875 0 C 2.375 -0.03125 2.890625 -0.03125 3.3125 -0.03125 C 3.734375 -0.03125 4.25 -0.03125 4.671875 0 L 4.671875 -0.3125 L 4.453125 -0.3125 C 3.71875 -0.3125 3.703125 -0.421875 3.703125 -0.78125 L 3.703125 -1.640625 L 4.6875 -1.640625 L 4.6875 -1.953125 L 3.703125 -1.953125 L 3.703125 -6.484375 C 3.703125 -6.6875 3.703125 -6.75 3.53125 -6.75 C 3.453125 -6.75 3.421875 -6.75 3.34375 -6.625 L 0.28125 -1.953125 L 0.28125 -1.640625 Z M 2.984375 -1.953125 L 0.5625 -1.953125 L 2.984375 -5.671875 Z M 2.984375 -1.953125 "/>
</g>
<g id="glyph-1-4">
<path d="M 4.46875 -2 C 4.46875 -3.1875 3.65625 -4.1875 2.578125 -4.1875 C 2.109375 -4.1875 1.671875 -4.03125 1.3125 -3.671875 L 1.3125 -5.625 C 1.515625 -5.5625 1.84375 -5.5 2.15625 -5.5 C 3.390625 -5.5 4.09375 -6.40625 4.09375 -6.53125 C 4.09375 -6.59375 4.0625 -6.640625 3.984375 -6.640625 C 3.984375 -6.640625 3.953125 -6.640625 3.90625 -6.609375 C 3.703125 -6.515625 3.21875 -6.3125 2.546875 -6.3125 C 2.15625 -6.3125 1.6875 -6.390625 1.21875 -6.59375 C 1.140625 -6.625 1.125 -6.625 1.109375 -6.625 C 1 -6.625 1 -6.546875 1 -6.390625 L 1 -3.4375 C 1 -3.265625 1 -3.1875 1.140625 -3.1875 C 1.21875 -3.1875 1.234375 -3.203125 1.28125 -3.265625 C 1.390625 -3.421875 1.75 -3.96875 2.5625 -3.96875 C 3.078125 -3.96875 3.328125 -3.515625 3.40625 -3.328125 C 3.5625 -2.953125 3.59375 -2.578125 3.59375 -2.078125 C 3.59375 -1.71875 3.59375 -1.125 3.34375 -0.703125 C 3.109375 -0.3125 2.734375 -0.0625 2.28125 -0.0625 C 1.5625 -0.0625 0.984375 -0.59375 0.8125 -1.171875 C 0.84375 -1.171875 0.875 -1.15625 0.984375 -1.15625 C 1.3125 -1.15625 1.484375 -1.40625 1.484375 -1.640625 C 1.484375 -1.890625 1.3125 -2.140625 0.984375 -2.140625 C 0.84375 -2.140625 0.5 -2.0625 0.5 -1.609375 C 0.5 -0.75 1.1875 0.21875 2.296875 0.21875 C 3.453125 0.21875 4.46875 -0.734375 4.46875 -2 Z M 4.46875 -2 "/>
</g>
<g id="glyph-1-5">
<path d="M 1.3125 -3.265625 L 1.3125 -3.515625 C 1.3125 -6.03125 2.546875 -6.390625 3.0625 -6.390625 C 3.296875 -6.390625 3.71875 -6.328125 3.9375 -5.984375 C 3.78125 -5.984375 3.390625 -5.984375 3.390625 -5.546875 C 3.390625 -5.234375 3.625 -5.078125 3.84375 -5.078125 C 4 -5.078125 4.3125 -5.171875 4.3125 -5.5625 C 4.3125 -6.15625 3.875 -6.640625 3.046875 -6.640625 C 1.765625 -6.640625 0.421875 -5.359375 0.421875 -3.15625 C 0.421875 -0.484375 1.578125 0.21875 2.5 0.21875 C 3.609375 0.21875 4.5625 -0.71875 4.5625 -2.03125 C 4.5625 -3.296875 3.671875 -4.25 2.5625 -4.25 C 1.890625 -4.25 1.515625 -3.75 1.3125 -3.265625 Z M 2.5 -0.0625 C 1.875 -0.0625 1.578125 -0.65625 1.515625 -0.8125 C 1.328125 -1.28125 1.328125 -2.078125 1.328125 -2.25 C 1.328125 -3.03125 1.65625 -4.03125 2.546875 -4.03125 C 2.71875 -4.03125 3.171875 -4.03125 3.484375 -3.40625 C 3.65625 -3.046875 3.65625 -2.53125 3.65625 -2.046875 C 3.65625 -1.5625 3.65625 -1.0625 3.484375 -0.703125 C 3.1875 -0.109375 2.734375 -0.0625 2.5 -0.0625 Z M 2.5 -0.0625 "/>
</g>
<g id="glyph-1-6">
<path d="M 4.578125 -3.1875 C 4.578125 -3.984375 4.53125 -4.78125 4.1875 -5.515625 C 3.734375 -6.484375 2.90625 -6.640625 2.5 -6.640625 C 1.890625 -6.640625 1.171875 -6.375 0.75 -5.453125 C 0.4375 -4.765625 0.390625 -3.984375 0.390625 -3.1875 C 0.390625 -2.4375 0.421875 -1.546875 0.84375 -0.78125 C 1.265625 0.015625 2 0.21875 2.484375 0.21875 C 3.015625 0.21875 3.78125 0.015625 4.21875 -0.9375 C 4.53125 -1.625 4.578125 -2.40625 4.578125 -3.1875 Z M 2.484375 0 C 2.09375 0 1.5 -0.25 1.328125 -1.203125 C 1.21875 -1.796875 1.21875 -2.71875 1.21875 -3.3125 C 1.21875 -3.953125 1.21875 -4.609375 1.296875 -5.140625 C 1.484375 -6.328125 2.234375 -6.421875 2.484375 -6.421875 C 2.8125 -6.421875 3.46875 -6.234375 3.65625 -5.25 C 3.765625 -4.6875 3.765625 -3.9375 3.765625 -3.3125 C 3.765625 -2.5625 3.765625 -1.890625 3.65625 -1.25 C 3.5 -0.296875 2.9375 0 2.484375 0 Z M 2.484375 0 "/>
</g>
<g id="glyph-2-0">
<path d="M 1.90625 -0.53125 C 1.90625 -0.8125 1.671875 -1.0625 1.390625 -1.0625 C 1.09375 -1.0625 0.859375 -0.8125 0.859375 -0.53125 C 0.859375 -0.234375 1.09375 0 1.390625 0 C 1.671875 0 1.90625 -0.234375 1.90625 -0.53125 Z M 1.90625 -0.53125 "/>
</g>
<g id="glyph-2-1">
<path d="M 3.328125 -3.015625 C 3.390625 -3.265625 3.625 -4.1875 4.3125 -4.1875 C 4.359375 -4.1875 4.609375 -4.1875 4.8125 -4.0625 C 4.53125 -4 4.34375 -3.765625 4.34375 -3.515625 C 4.34375 -3.359375 4.453125 -3.171875 4.71875 -3.171875 C 4.9375 -3.171875 5.25 -3.34375 5.25 -3.75 C 5.25 -4.265625 4.671875 -4.40625 4.328125 -4.40625 C 3.75 -4.40625 3.40625 -3.875 3.28125 -3.65625 C 3.03125 -4.3125 2.5 -4.40625 2.203125 -4.40625 C 1.171875 -4.40625 0.59375 -3.125 0.59375 -2.875 C 0.59375 -2.765625 0.703125 -2.765625 0.71875 -2.765625 C 0.796875 -2.765625 0.828125 -2.796875 0.84375 -2.875 C 1.1875 -3.9375 1.84375 -4.1875 2.1875 -4.1875 C 2.375 -4.1875 2.71875 -4.09375 2.71875 -3.515625 C 2.71875 -3.203125 2.546875 -2.546875 2.1875 -1.140625 C 2.03125 -0.53125 1.671875 -0.109375 1.234375 -0.109375 C 1.171875 -0.109375 0.953125 -0.109375 0.734375 -0.234375 C 0.984375 -0.296875 1.203125 -0.5 1.203125 -0.78125 C 1.203125 -1.046875 0.984375 -1.125 0.84375 -1.125 C 0.53125 -1.125 0.296875 -0.875 0.296875 -0.546875 C 0.296875 -0.09375 0.78125 0.109375 1.21875 0.109375 C 1.890625 0.109375 2.25 -0.59375 2.265625 -0.640625 C 2.390625 -0.28125 2.75 0.109375 3.34375 0.109375 C 4.375 0.109375 4.9375 -1.171875 4.9375 -1.421875 C 4.9375 -1.53125 4.859375 -1.53125 4.828125 -1.53125 C 4.734375 -1.53125 4.71875 -1.484375 4.6875 -1.421875 C 4.359375 -0.34375 3.6875 -0.109375 3.375 -0.109375 C 2.984375 -0.109375 2.828125 -0.421875 2.828125 -0.765625 C 2.828125 -0.984375 2.875 -1.203125 2.984375 -1.640625 Z M 3.328125 -3.015625 "/>
</g>
<g id="glyph-2-2">
<path d="M 4.84375 -3.796875 C 4.890625 -3.9375 4.890625 -3.953125 4.890625 -4.03125 C 4.890625 -4.203125 4.75 -4.296875 4.59375 -4.296875 C 4.5 -4.296875 4.34375 -4.234375 4.25 -4.09375 C 4.234375 -4.03125 4.140625 -3.734375 4.109375 -3.546875 C 4.03125 -3.296875 3.96875 -3.015625 3.90625 -2.75 L 3.453125 -0.953125 C 3.421875 -0.8125 2.984375 -0.109375 2.328125 -0.109375 C 1.828125 -0.109375 1.71875 -0.546875 1.71875 -0.921875 C 1.71875 -1.375 1.890625 -2 2.21875 -2.875 C 2.375 -3.28125 2.421875 -3.390625 2.421875 -3.59375 C 2.421875 -4.03125 2.109375 -4.40625 1.609375 -4.40625 C 0.65625 -4.40625 0.296875 -2.953125 0.296875 -2.875 C 0.296875 -2.765625 0.390625 -2.765625 0.40625 -2.765625 C 0.515625 -2.765625 0.515625 -2.796875 0.5625 -2.953125 C 0.84375 -3.890625 1.234375 -4.1875 1.578125 -4.1875 C 1.65625 -4.1875 1.828125 -4.1875 1.828125 -3.875 C 1.828125 -3.625 1.71875 -3.359375 1.65625 -3.171875 C 1.25 -2.109375 1.078125 -1.546875 1.078125 -1.078125 C 1.078125 -0.1875 1.703125 0.109375 2.296875 0.109375 C 2.6875 0.109375 3.015625 -0.0625 3.296875 -0.34375 C 3.171875 0.171875 3.046875 0.671875 2.65625 1.203125 C 2.390625 1.53125 2.015625 1.828125 1.5625 1.828125 C 1.421875 1.828125 0.96875 1.796875 0.796875 1.40625 C 0.953125 1.40625 1.09375 1.40625 1.21875 1.28125 C 1.328125 1.203125 1.421875 1.0625 1.421875 0.875 C 1.421875 0.5625 1.15625 0.53125 1.0625 0.53125 C 0.828125 0.53125 0.5 0.6875 0.5 1.171875 C 0.5 1.671875 0.9375 2.046875 1.5625 2.046875 C 2.578125 2.046875 3.609375 1.140625 3.890625 0.015625 Z M 4.84375 -3.796875 "/>
</g>
<g id="glyph-3-0">
<path d="M 3.0625 2.140625 C 3.0625 2.09375 3.03125 2.0625 2.984375 2 C 1.828125 0.9375 1.46875 -0.671875 1.46875 -2.25 C 1.46875 -3.625 1.734375 -5.3125 3 -6.515625 C 3.046875 -6.5625 3.0625 -6.578125 3.0625 -6.625 C 3.0625 -6.6875 3.015625 -6.734375 2.953125 -6.734375 C 2.84375 -6.734375 2.03125 -6.078125 1.546875 -5.109375 C 1.125 -4.25 0.90625 -3.3125 0.90625 -2.25 C 0.90625 -1.609375 0.984375 -0.578125 1.484375 0.46875 C 2.015625 1.578125 2.84375 2.234375 2.953125 2.234375 C 3.015625 2.234375 3.0625 2.203125 3.0625 2.140625 Z M 3.0625 2.140625 "/>
</g>
<g id="glyph-3-1">
<path d="M 2.71875 -5.734375 C 2.71875 -5.953125 2.71875 -5.96875 2.5 -5.96875 C 1.9375 -5.40625 1.109375 -5.40625 0.828125 -5.40625 L 0.828125 -5.125 C 1 -5.125 1.546875 -5.125 2.03125 -5.359375 L 2.03125 -0.71875 C 2.03125 -0.390625 2.015625 -0.28125 1.171875 -0.28125 L 0.890625 -0.28125 L 0.890625 0 C 1.203125 -0.03125 2.015625 -0.03125 2.375 -0.03125 C 2.75 -0.03125 3.546875 -0.03125 3.875 0 L 3.875 -0.28125 L 3.59375 -0.28125 C 2.75 -0.28125 2.71875 -0.390625 2.71875 -0.71875 Z M 2.71875 -5.734375 "/>
</g>
<g id="glyph-3-2">
<path d="M 2.671875 -2.25 C 2.671875 -2.984375 2.5625 -3.96875 2.09375 -4.96875 C 1.5625 -6.078125 0.734375 -6.734375 0.625 -6.734375 C 0.53125 -6.734375 0.515625 -6.65625 0.515625 -6.625 C 0.515625 -6.578125 0.53125 -6.5625 0.59375 -6.5 C 1.125 -6.03125 2.109375 -4.8125 2.109375 -2.25 C 2.109375 -0.96875 1.875 0.8125 0.578125 2.03125 C 0.5625 2.046875 0.515625 2.09375 0.515625 2.140625 C 0.515625 2.15625 0.53125 2.234375 0.625 2.234375 C 0.734375 2.234375 1.546875 1.59375 2.03125 0.609375 C 2.453125 -0.25 2.671875 -1.171875 2.671875 -2.25 Z M 2.671875 -2.25 "/>
</g>
<g id="glyph-3-3">
<path d="M 1.65625 -3.96875 L 0.359375 -3.859375 L 0.359375 -3.59375 C 0.9375 -3.59375 1.015625 -3.53125 1.015625 -3.09375 L 1.015625 -0.6875 C 1.015625 -0.28125 0.921875 -0.28125 0.328125 -0.28125 L 0.328125 0 C 0.71875 -0.015625 0.921875 -0.03125 1.3125 -0.03125 C 1.453125 -0.03125 1.828125 -0.03125 2.265625 0 L 2.265625 -0.28125 C 1.6875 -0.28125 1.65625 -0.328125 1.65625 -0.671875 Z M 1.671875 -5.53125 C 1.671875 -5.796875 1.46875 -6.015625 1.1875 -6.015625 C 0.921875 -6.015625 0.703125 -5.78125 0.703125 -5.53125 C 0.703125 -5.265625 0.921875 -5.046875 1.1875 -5.046875 C 1.46875 -5.046875 1.671875 -5.25 1.671875 -5.53125 Z M 1.671875 -5.53125 "/>
</g>
<g id="glyph-3-4">
<path d="M 1.671875 -2.328125 C 1.671875 -3.28125 2.34375 -3.734375 2.90625 -3.734375 C 3.4375 -3.734375 3.546875 -3.296875 3.546875 -2.765625 L 3.546875 -0.6875 C 3.546875 -0.28125 3.453125 -0.28125 2.859375 -0.28125 L 2.859375 0 C 3.28125 -0.015625 3.453125 -0.03125 3.890625 -0.03125 C 4.3125 -0.03125 4.4375 -0.015625 4.90625 0 L 4.90625 -0.28125 C 4.453125 -0.28125 4.21875 -0.28125 4.21875 -0.5625 L 4.21875 -2.28125 C 4.21875 -3.015625 4.21875 -3.28125 3.96875 -3.59375 C 3.765625 -3.84375 3.421875 -3.96875 2.96875 -3.96875 C 2.140625 -3.96875 1.75 -3.34375 1.625 -3.09375 L 1.609375 -3.09375 L 1.609375 -3.96875 L 0.3125 -3.859375 L 0.3125 -3.59375 C 0.921875 -3.59375 1 -3.53125 1 -3.078125 L 1 -0.6875 C 1 -0.28125 0.90625 -0.28125 0.3125 -0.28125 L 0.3125 0 C 0.734375 -0.015625 0.90625 -0.03125 1.34375 -0.03125 C 1.765625 -0.03125 1.890625 -0.015625 2.359375 0 L 2.359375 -0.28125 C 1.765625 -0.28125 1.671875 -0.28125 1.671875 -0.6875 Z M 1.671875 -2.328125 "/>
</g>
<g id="glyph-3-5">
<path d="M 3.828125 -6.171875 C 3.796875 -6.171875 3.78125 -6.171875 3.71875 -6.203125 C 3.4375 -6.3125 3.09375 -6.328125 2.953125 -6.328125 C 1.921875 -6.328125 0.953125 -5.78125 0.953125 -4.875 L 0.953125 -3.859375 L 0.25 -3.859375 L 0.25 -3.59375 L 0.953125 -3.59375 L 0.953125 -0.6875 C 0.953125 -0.28125 0.859375 -0.28125 0.265625 -0.28125 L 0.265625 0 C 0.6875 -0.015625 0.859375 -0.03125 1.28125 -0.03125 C 1.6875 -0.03125 1.84375 -0.015625 2.28125 0 L 2.28125 -0.28125 C 1.6875 -0.28125 1.59375 -0.28125 1.59375 -0.6875 L 1.59375 -3.59375 L 3.515625 -3.59375 L 3.515625 -0.6875 C 3.515625 -0.28125 3.421875 -0.28125 2.828125 -0.28125 L 2.828125 0 C 3.25 -0.015625 3.421875 -0.03125 3.828125 -0.03125 C 4.25 -0.03125 4.40625 -0.015625 4.84375 0 L 4.84375 -0.28125 C 4.25 -0.28125 4.15625 -0.28125 4.15625 -0.6875 L 4.15625 -6.21875 Z M 1.5625 -4.859375 C 1.5625 -5.734375 2.3125 -6.09375 2.9375 -6.09375 C 3.125 -6.09375 3.3125 -6.078125 3.515625 -6.03125 C 3.390625 -5.96875 3.3125 -5.828125 3.3125 -5.671875 C 3.3125 -5.546875 3.375 -5.40625 3.515625 -5.328125 L 3.515625 -3.859375 L 1.5625 -3.859375 Z M 1.5625 -4.859375 "/>
</g>
<g id="glyph-3-6">
<path d="M 3.59375 -2.046875 C 3.78125 -2.046875 3.828125 -2.046875 3.828125 -2.25 C 3.828125 -3.171875 3.328125 -4.015625 2.171875 -4.015625 C 1.109375 -4.015625 0.265625 -3.078125 0.265625 -1.96875 C 0.265625 -0.796875 1.203125 0.09375 2.296875 0.09375 C 3.390625 0.09375 3.828125 -0.859375 3.828125 -1.0625 C 3.828125 -1.125 3.78125 -1.1875 3.703125 -1.1875 C 3.609375 -1.1875 3.59375 -1.125 3.578125 -1.078125 C 3.28125 -0.171875 2.46875 -0.15625 2.34375 -0.15625 C 1.90625 -0.15625 1.546875 -0.390625 1.34375 -0.703125 C 1.046875 -1.140625 1.03125 -1.671875 1.03125 -2.046875 Z M 1.046875 -2.265625 C 1.125 -3.65625 1.921875 -3.796875 2.171875 -3.796875 C 2.671875 -3.796875 3.203125 -3.421875 3.21875 -2.265625 Z M 1.046875 -2.265625 "/>
</g>
<g id="glyph-3-7">
<path d="M 3.265625 -3.53125 C 3.078125 -3.484375 2.890625 -3.359375 2.890625 -3.109375 C 2.890625 -2.875 3.078125 -2.6875 3.3125 -2.6875 C 3.546875 -2.6875 3.734375 -2.84375 3.734375 -3.125 C 3.734375 -3.671875 3.109375 -4.015625 2.3125 -4.015625 C 1.171875 -4.015625 0.3125 -3.0625 0.3125 -1.9375 C 0.3125 -0.78125 1.234375 0.09375 2.296875 0.09375 C 3.546875 0.09375 3.828125 -0.984375 3.828125 -1.0625 C 3.828125 -1.171875 3.734375 -1.171875 3.703125 -1.171875 C 3.609375 -1.171875 3.609375 -1.15625 3.546875 -1 C 3.34375 -0.390625 2.84375 -0.15625 2.390625 -0.15625 C 1.8125 -0.15625 1.078125 -0.625 1.078125 -1.953125 C 1.078125 -3.34375 1.796875 -3.765625 2.328125 -3.765625 C 2.453125 -3.765625 2.9375 -3.75 3.265625 -3.53125 Z M 3.265625 -3.53125 "/>
</g>
<g id="glyph-3-8">
<path d="M 2.921875 -3.59375 L 2.921875 -3.859375 L 1.609375 -3.859375 L 1.609375 -5.515625 L 1.359375 -5.515625 C 1.359375 -4.765625 1.046875 -3.84375 0.171875 -3.8125 L 0.171875 -3.59375 L 0.953125 -3.59375 L 0.953125 -1.109375 C 0.953125 -0.109375 1.671875 0.09375 2.15625 0.09375 C 2.75 0.09375 3.0625 -0.46875 3.0625 -1.109375 L 3.0625 -1.625 L 2.8125 -1.625 L 2.8125 -1.140625 C 2.8125 -0.46875 2.53125 -0.15625 2.21875 -0.15625 C 1.609375 -0.15625 1.609375 -0.9375 1.609375 -1.109375 L 1.609375 -3.59375 Z M 2.921875 -3.59375 "/>
</g>
<g id="glyph-3-9">
<path d="M 4.34375 -1.90625 C 4.34375 -3.078125 3.40625 -4.015625 2.3125 -4.015625 C 1.171875 -4.015625 0.265625 -3.0625 0.265625 -1.90625 C 0.265625 -0.796875 1.1875 0.09375 2.296875 0.09375 C 3.4375 0.09375 4.34375 -0.8125 4.34375 -1.90625 Z M 2.3125 -0.15625 C 1.859375 -0.15625 1.484375 -0.375 1.28125 -0.71875 C 1.046875 -1.109375 1.03125 -1.578125 1.03125 -1.984375 C 1.03125 -2.328125 1.03125 -2.828125 1.25 -3.203125 C 1.53125 -3.65625 1.96875 -3.796875 2.296875 -3.796875 C 2.8125 -3.796875 3.171875 -3.5 3.359375 -3.203125 C 3.5625 -2.828125 3.5625 -2.375 3.5625 -1.984375 C 3.5625 -1.65625 3.5625 -1.140625 3.34375 -0.75 C 3.09375 -0.328125 2.6875 -0.15625 2.3125 -0.15625 Z M 2.3125 -0.15625 "/>
</g>
<g id="glyph-4-0">
<path d="M 1.625 -0.140625 C 1.625 0.15625 1.625 0.890625 0.96875 1.53125 C 0.921875 1.578125 0.921875 1.59375 0.921875 1.625 C 0.921875 1.6875 0.984375 1.734375 1.03125 1.734375 C 1.125 1.734375 1.859375 1.03125 1.859375 -0.015625 C 1.859375 -0.578125 1.65625 -0.96875 1.28125 -0.96875 C 0.96875 -0.96875 0.796875 -0.734375 0.796875 -0.484375 C 0.796875 -0.234375 0.96875 0 1.28125 0 C 1.40625 0 1.546875 -0.046875 1.625 -0.140625 Z M 1.625 -0.140625 "/>
</g>
<g id="glyph-4-1">
<path d="M 4.03125 -6.375 C 4.09375 -6.5 4.09375 -6.515625 4.09375 -6.53125 C 4.09375 -6.640625 4 -6.734375 3.90625 -6.734375 C 3.78125 -6.734375 3.734375 -6.65625 3.734375 -6.640625 L 0.5625 1.890625 C 0.515625 2.015625 0.515625 2.03125 0.515625 2.046875 C 0.515625 2.15625 0.59375 2.25 0.703125 2.25 C 0.796875 2.25 0.859375 2.203125 0.921875 2.03125 Z M 4.03125 -6.375 "/>
</g>
<g id="glyph-4-2">
<path d="M 1.234375 -2.046875 C 1.78125 -2.046875 2.359375 -2.046875 2.828125 -2.171875 C 3.671875 -2.375 3.828125 -2.875 3.828125 -3.1875 C 3.828125 -3.6875 3.359375 -3.96875 2.828125 -3.96875 C 1.78125 -3.96875 0.421875 -3.078125 0.421875 -1.546875 C 0.421875 -0.6875 0.921875 0.09375 1.890625 0.09375 C 3.234375 0.09375 3.984375 -0.828125 3.984375 -0.953125 C 3.984375 -1 3.921875 -1.078125 3.859375 -1.078125 C 3.828125 -1.078125 3.8125 -1.0625 3.734375 -0.96875 C 3.1875 -0.3125 2.375 -0.125 1.90625 -0.125 C 1.28125 -0.125 1.109375 -0.71875 1.109375 -1.171875 C 1.109375 -1.1875 1.109375 -1.5 1.234375 -2.046875 Z M 1.296875 -2.28125 C 1.6875 -3.6875 2.6875 -3.734375 2.828125 -3.734375 C 3.125 -3.734375 3.5 -3.59375 3.5 -3.1875 C 3.5 -2.28125 2.140625 -2.28125 1.296875 -2.28125 Z M 1.296875 -2.28125 "/>
</g>
</g>
<clipPath id="clip-0">
<path clip-rule="nonzero" d="M 5.179688 20 L 243.804688 20 L 243.804688 143.289062 L 5.179688 143.289062 Z M 5.179688 20 "/>
</clipPath>
<clipPath id="clip-1">
<path clip-rule="nonzero" d="M 137 57 L 243.804688 57 L 243.804688 59 L 137 59 Z M 137 57 "/>
</clipPath>
</defs>
<path fill="none" stroke-width="0.19925" stroke-linecap="butt" stroke-linejoin="miter" stroke="rgb(50%, 50%, 50%)" stroke-opacity="1" stroke-miterlimit="10" d="M 26.514312 380.579469 L 26.514312 384.829469 M 79.541656 380.579469 L 79.541656 384.829469 M 106.053375 380.579469 L 106.053375 384.829469 M 132.569 380.579469 L 132.569 384.829469 M 159.080719 380.579469 L 159.080719 384.829469 M 185.596344 380.579469 L 185.596344 384.829469 M 212.111969 380.579469 L 212.111969 384.829469 " transform="matrix(1, 0, 0, -1, 5.181, 440.599)"/>
<path fill="none" stroke-width="0.19925" stroke-linecap="butt" stroke-linejoin="miter" stroke="rgb(50%, 50%, 50%)" stroke-opacity="1" stroke-miterlimit="10" d="M 50.901031 325.774781 L 55.154938 325.774781 M 50.901031 354.239625 L 55.154938 354.239625 M 50.901031 411.169312 L 55.154938 411.169312 " transform="matrix(1, 0, 0, -1, 5.181, 440.599)"/>
<path fill="none" stroke-width="0.3985" stroke-linecap="butt" stroke-linejoin="miter" stroke="rgb(0%, 0%, 0%)" stroke-opacity="1" stroke-miterlimit="10" d="M -0.0013125 382.704469 L 236.6315 382.704469 " transform="matrix(1, 0, 0, -1, 5.181, 440.599)"/>
<path fill-rule="nonzero" fill="rgb(0%, 0%, 0%)" fill-opacity="1" d="M 243.804688 57.894531 L 240.617188 56.300781 L 241.8125 57.894531 L 240.617188 59.488281 "/>
<path fill="none" stroke-width="0.3985" stroke-linecap="butt" stroke-linejoin="miter" stroke="rgb(0%, 0%, 0%)" stroke-opacity="1" stroke-miterlimit="10" d="M 53.026031 297.309937 L 53.026031 420.563844 " transform="matrix(1, 0, 0, -1, 5.181, 440.599)"/>
<path fill-rule="nonzero" fill="rgb(0%, 0%, 0%)" fill-opacity="1" d="M 58.207031 18.042969 L 56.613281 21.230469 L 58.207031 20.035156 L 59.800781 21.230469 "/>
<g fill="rgb(0%, 0%, 0%)" fill-opacity="1">
<use xlink:href="#glyph-0-0" x="25.329" y="69.965"/>
</g>
<g fill="rgb(0%, 0%, 0%)" fill-opacity="1">
<use xlink:href="#glyph-1-0" x="33.07791" y="69.965"/>
</g>
<g fill="rgb(0%, 0%, 0%)" fill-opacity="1">
<use xlink:href="#glyph-1-0" x="82.23" y="69.965"/>
</g>
<g fill="rgb(0%, 0%, 0%)" fill-opacity="1">
<use xlink:href="#glyph-1-1" x="108.744" y="69.965"/>
</g>
<g fill="rgb(0%, 0%, 0%)" fill-opacity="1">
<use xlink:href="#glyph-1-2" x="135.257" y="69.965"/>
</g>
<g fill="rgb(0%, 0%, 0%)" fill-opacity="1">
<use xlink:href="#glyph-1-3" x="161.77" y="69.965"/>
</g>
<g fill="rgb(0%, 0%, 0%)" fill-opacity="1">
<use xlink:href="#glyph-1-4" x="188.284" y="69.965"/>
</g>
<g fill="rgb(0%, 0%, 0%)" fill-opacity="1">
<use xlink:href="#glyph-1-5" x="214.797" y="69.965"/>
</g>
<g fill="rgb(0%, 0%, 0%)" fill-opacity="1">
<use xlink:href="#glyph-0-0" x="39.832" y="117.623"/>
</g>
<g fill="rgb(0%, 0%, 0%)" fill-opacity="1">
<use xlink:href="#glyph-1-0" x="47.58091" y="117.623"/>
</g>
<g fill="rgb(0%, 0%, 0%)" fill-opacity="1">
<use xlink:href="#glyph-0-0" x="32.083" y="89.158"/>
</g>
<g fill="rgb(0%, 0%, 0%)" fill-opacity="1">
<use xlink:href="#glyph-1-6" x="39.83191" y="89.158"/>
</g>
<g fill="rgb(0%, 0%, 0%)" fill-opacity="1">
<use xlink:href="#glyph-2-0" x="44.81321" y="89.158"/>
</g>
<g fill="rgb(0%, 0%, 0%)" fill-opacity="1">
<use xlink:href="#glyph-1-4" x="47.580821" y="89.158"/>
</g>
<g fill="rgb(0%, 0%, 0%)" fill-opacity="1">
<use xlink:href="#glyph-1-6" x="39.832" y="32.644"/>
</g>
<g fill="rgb(0%, 0%, 0%)" fill-opacity="1">
<use xlink:href="#glyph-2-0" x="44.8133" y="32.644"/>
</g>
<g fill="rgb(0%, 0%, 0%)" fill-opacity="1">
<use xlink:href="#glyph-1-4" x="47.58091" y="32.644"/>
</g>
<g clip-path="url(#clip-0)">
<path fill="none" stroke-width="1.19553" stroke-linecap="butt" stroke-linejoin="miter" stroke="rgb(35.68573%, 64.312744%, 64.312744%)" stroke-opacity="1" stroke-miterlimit="10" d="M 13.2565 0.00134375 C 13.2565 0.00134375 14.901031 38.102906 15.533844 51.602906 C 16.166656 65.102906 17.178375 85.341187 17.811187 97.290406 C 18.440094 109.235719 19.455719 127.141969 20.084625 137.700562 C 20.717437 148.259156 21.729156 164.075562 22.361969 173.395875 C 22.994781 182.720094 24.0065 196.665406 24.639312 204.88025 C 25.272125 213.095094 26.283844 225.372437 26.916656 232.595094 C 27.545562 239.821656 28.561187 250.610719 29.190094 256.954469 C 29.822906 263.298219 30.834625 272.763062 31.467437 278.321656 C 32.10025 283.88025 33.111969 292.165406 33.744781 297.024781 C 34.377594 301.888062 35.389313 309.118531 36.022125 313.356812 C 36.651031 317.599 37.666656 323.895875 38.295563 327.583375 C 38.928375 331.270875 39.944 336.735719 40.572906 339.934937 C 41.205719 343.134156 42.217438 347.864625 42.85025 350.626344 C 43.483063 353.391969 44.494781 357.474 45.127594 359.852906 C 45.7565 362.231812 46.772125 365.735719 47.404938 367.774781 C 48.033844 369.813844 49.049469 372.809937 49.678375 374.548219 C 50.311188 376.2865 51.322906 378.833375 51.955719 380.309937 C 52.588531 381.782594 53.60025 383.934937 54.233063 385.177125 C 54.865875 386.419312 55.877594 388.224 56.510406 389.263062 C 57.139313 390.298219 58.154938 391.798219 58.783844 392.657594 C 59.416656 393.516969 60.428375 394.747437 61.061188 395.450562 C 61.694 396.149781 62.705719 397.149781 63.338531 397.716187 C 63.971344 398.278687 64.983063 399.075562 65.615875 399.520875 C 66.244781 399.966187 67.260406 400.583375 67.889313 400.927125 C 68.522125 401.266969 69.533844 401.735719 70.166656 401.989625 C 70.799469 402.243531 71.811188 402.579469 72.444 402.75525 C 73.076813 402.931031 74.088531 403.149781 74.721344 403.259156 C 75.35025 403.368531 76.365875 403.493531 76.994781 403.548219 C 77.627594 403.602906 78.639313 403.645875 79.272125 403.649781 C 79.904938 403.657594 80.916656 403.626344 81.549469 403.595094 C 82.182281 403.559937 83.194 403.470094 83.826813 403.403687 C 84.455719 403.333375 85.471344 403.200562 86.10025 403.106812 C 86.733063 403.009156 87.748688 402.837281 88.377594 402.720094 C 89.010406 402.599 90.022125 402.388062 90.654938 402.251344 C 91.28775 402.114625 92.299469 401.884156 92.932281 401.731812 C 93.561188 401.579469 94.576813 401.321656 95.209625 401.157594 C 95.838531 400.993531 96.854156 400.720094 97.483063 400.548219 C 98.115875 400.38025 99.127594 400.106812 99.760406 399.927125 C 100.393219 399.751344 101.404938 399.450562 102.03775 399.270875 C 102.670563 399.091187 103.682281 398.802125 104.315094 398.622437 C 104.944 398.438844 105.959625 398.141969 106.588531 397.958375 C 107.221344 397.774781 108.233063 397.481812 108.865875 397.298219 C 109.498688 397.118531 110.510406 396.825562 111.143219 396.645875 C 111.776031 396.466187 112.78775 396.177125 113.420563 395.997437 C 114.049469 395.821656 115.065094 395.540406 115.694 395.364625 C 116.326813 395.188844 117.338531 394.915406 117.971344 394.743531 C 118.604156 394.575562 119.615875 394.306031 120.248688 394.141969 C 120.8815 393.977906 121.893219 393.716187 122.526031 393.556031 C 123.154938 393.395875 124.170563 393.145875 124.799469 392.989625 C 125.432281 392.833375 126.444 392.591187 127.076813 392.44275 C 127.709625 392.294312 128.721344 392.059937 129.354156 391.915406 C 129.986969 391.774781 130.998687 391.548219 131.6315 391.4115 C 132.260406 391.274781 133.276031 391.056031 133.904937 390.927125 C 134.53775 390.794312 135.553375 390.587281 136.182281 390.462281 C 136.815094 390.337281 137.826812 390.138062 138.459625 390.016969 C 139.092437 389.899781 140.104156 389.708375 140.736969 389.595094 C 141.365875 389.481812 142.3815 389.302125 143.014312 389.19275 C 143.643219 389.083375 144.658844 388.9115 145.28775 388.809937 C 145.920562 388.704469 146.932281 388.544312 147.565094 388.446656 C 148.197906 388.349 149.209625 388.19275 149.842437 388.099 C 150.47525 388.00525 151.486969 387.860719 152.119781 387.774781 C 152.748687 387.684937 153.764312 387.548219 154.393219 387.462281 C 155.026031 387.38025 156.03775 387.247437 156.670562 387.169312 C 157.303375 387.091187 158.315094 386.966187 158.947906 386.891969 C 159.580719 386.81775 160.592437 386.700562 161.22525 386.63025 C 161.854156 386.559937 162.869781 386.450562 163.498687 386.384156 C 164.1315 386.31775 165.143219 386.212281 165.776031 386.149781 C 166.408844 386.087281 167.420562 385.989625 168.053375 385.931031 C 168.686187 385.872437 169.697906 385.778687 170.330719 385.724 C 170.959625 385.669312 171.97525 385.583375 172.604156 385.528687 C 173.236969 385.477906 174.248687 385.395875 174.8815 385.345094 C 175.514312 385.298219 176.526031 385.220094 177.158844 385.173219 C 177.791656 385.126344 178.803375 385.056031 179.436187 385.013062 C 180.065094 384.970094 181.080719 384.899781 181.709625 384.860719 C 182.342437 384.821656 183.358062 384.75525 183.986969 384.720094 C 184.619781 384.681031 185.6315 384.622437 186.264312 384.583375 C 186.897125 384.548219 187.908844 384.493531 188.541656 384.458375 C 189.170562 384.427125 190.186187 384.372437 190.819 384.341187 C 191.447906 384.309937 192.463531 384.263062 193.092437 384.231812 C 193.72525 384.204469 194.736969 384.157594 195.369781 384.13025 C 196.002594 384.102906 197.014312 384.059937 197.647125 384.032594 C 198.279937 384.009156 199.291656 383.966187 199.924469 383.94275 C 200.553375 383.919312 201.569 383.88025 202.197906 383.860719 C 202.830719 383.837281 203.842437 383.802125 204.47525 383.778687 C 205.108062 383.759156 206.119781 383.727906 206.752594 383.708375 C 207.385406 383.688844 208.397125 383.657594 209.029937 383.638062 C 209.658844 383.618531 210.674469 383.591187 211.303375 383.575562 C 211.936187 383.556031 212.947906 383.528687 213.580719 383.513062 C 214.213531 383.497437 215.22525 383.474 215.858062 383.458375 C 216.490875 383.44275 217.502594 383.419312 218.135406 383.403687 C 218.764312 383.391969 219.779937 383.368531 220.408844 383.356812 C 221.041656 383.345094 222.053375 383.321656 222.686187 383.309937 C 223.319 383.298219 224.330719 383.278687 224.963531 383.270875 C 225.596344 383.259156 226.608062 383.239625 227.240875 383.227906 C 227.869781 383.220094 228.885406 383.200562 229.514312 383.19275 C 230.147125 383.181031 231.16275 383.169312 231.791656 383.157594 C 232.424469 383.149781 233.436187 383.134156 234.069 383.126344 C 234.701812 383.118531 235.713531 383.102906 236.346344 383.095094 C 236.97525 383.087281 238.623687 383.06775 238.623687 383.06775 " transform="matrix(1, 0, 0, -1, 5.181, 440.599)"/>
</g>
<g clip-path="url(#clip-1)">
<path fill="none" stroke-width="0.3985" stroke-linecap="butt" stroke-linejoin="miter" stroke="rgb(78.823853%, 48.234558%, 51.763916%)" stroke-opacity="1" stroke-dasharray="2.98883 2.98883" stroke-miterlimit="10" d="M 132.569 382.704469 L 238.623687 382.704469 " transform="matrix(1, 0, 0, -1, 5.181, 440.599)"/>
</g>
<g fill="rgb(83.137512%, 65.879822%, 32.548523%)" fill-opacity="1">
<use xlink:href="#glyph-3-0" x="88.241" y="31.187"/>
<use xlink:href="#glyph-3-1" x="91.82487" y="31.187"/>
</g>
<g fill="rgb(83.137512%, 65.879822%, 32.548523%)" fill-opacity="1">
<use xlink:href="#glyph-4-0" x="96.432703" y="31.187"/>
</g>
<g fill="rgb(83.137512%, 65.879822%, 32.548523%)" fill-opacity="1">
<use xlink:href="#glyph-3-1" x="100.525865" y="31.187"/>
</g>
<g fill="rgb(83.137512%, 65.879822%, 32.548523%)" fill-opacity="1">
<use xlink:href="#glyph-4-1" x="105.133698" y="31.187"/>
<use xlink:href="#glyph-4-2" x="109.741531" y="31.187"/>
</g>
<g fill="rgb(83.137512%, 65.879822%, 32.548523%)" fill-opacity="1">
<use xlink:href="#glyph-3-2" x="114.025676" y="31.187"/>
</g>
<g fill="rgb(83.137512%, 65.879822%, 32.548523%)" fill-opacity="1">
<use xlink:href="#glyph-3-3" x="114.754" y="52.217"/>
<use xlink:href="#glyph-3-4" x="117.313907" y="52.217"/>
<use xlink:href="#glyph-3-5" x="122.433722" y="52.217"/>
<use xlink:href="#glyph-3-6" x="127.553536" y="52.217"/>
<use xlink:href="#glyph-3-7" x="131.652974" y="52.217"/>
<use xlink:href="#glyph-3-8" x="135.748826" y="52.217"/>
<use xlink:href="#glyph-3-3" x="139.332696" y="52.217"/>
<use xlink:href="#glyph-3-9" x="141.892603" y="52.217"/>
<use xlink:href="#glyph-3-4" x="146.500436" y="52.217"/>
</g>
<path fill-rule="nonzero" fill="rgb(83.137512%, 65.879822%, 32.548523%)" fill-opacity="1" stroke-width="0.3985" stroke-linecap="butt" stroke-linejoin="miter" stroke="rgb(83.137512%, 65.879822%, 32.548523%)" stroke-opacity="1" stroke-miterlimit="10" d="M 55.518219 382.704469 C 55.518219 384.079469 54.404938 385.196656 53.026031 385.196656 C 51.651031 385.196656 50.53775 384.079469 50.53775 382.704469 C 50.53775 381.329469 51.651031 380.216187 53.026031 380.216187 C 54.404938 380.216187 55.518219 381.329469 55.518219 382.704469 Z M 55.518219 382.704469 " transform="matrix(1, 0, 0, -1, 5.181, 440.599)"/>
<path fill-rule="nonzero" fill="rgb(83.137512%, 65.879822%, 32.548523%)" fill-opacity="1" stroke-width="0.3985" stroke-linecap="butt" stroke-linejoin="miter" stroke="rgb(83.137512%, 65.879822%, 32.548523%)" stroke-opacity="1" stroke-miterlimit="10" d="M 82.033844 403.653687 C 82.033844 405.032594 80.916656 406.145875 79.541656 406.145875 C 78.166656 406.145875 77.049469 405.032594 77.049469 403.653687 C 77.049469 402.278687 78.166656 401.165406 79.541656 401.165406 C 80.916656 401.165406 82.033844 402.278687 82.033844 403.653687 Z M 82.033844 403.653687 " transform="matrix(1, 0, 0, -1, 5.181, 440.599)"/>
<path fill-rule="nonzero" fill="rgb(83.137512%, 65.879822%, 32.548523%)" fill-opacity="1" stroke-width="0.3985" stroke-linecap="butt" stroke-linejoin="miter" stroke="rgb(83.137512%, 65.879822%, 32.548523%)" stroke-opacity="1" stroke-miterlimit="10" d="M 108.545563 398.134156 C 108.545563 399.509156 107.432281 400.622437 106.053375 400.622437 C 104.678375 400.622437 103.565094 399.509156 103.565094 398.134156 C 103.565094 396.759156 104.678375 395.641969 106.053375 395.641969 C 107.432281 395.641969 108.545563 396.759156 108.545563 398.134156 Z M 108.545563 398.134156 " transform="matrix(1, 0, 0, -1, 5.181, 440.599)"/>
<g fill="rgb(0%, 0%, 0%)" fill-opacity="1">
<use xlink:href="#glyph-2-1" x="247.321" y="60.043"/>
</g>
<g fill="rgb(0%, 0%, 0%)" fill-opacity="1">
<use xlink:href="#glyph-2-2" x="55.586" y="12.591"/>
</g>
</svg>
