<?xml version="1.0" encoding="UTF-8"?>
<svg xmlns="http://www.w3.org/2000/svg" xmlns:xlink="http://www.w3.org/1999/xlink" width="271.593pt" height="186.776pt" viewBox="0 0 271.593 186.776">
<defs>
<g>
<g id="glyph-0-0">
<path d="M 6.5625 -2.296875 C 6.734375 -2.296875 6.921875 -2.296875 6.921875 -2.5 C 6.921875 -2.6875 6.734375 -2.6875 6.5625 -2.6875 L 1.171875 -2.6875 C 1 -2.6875 0.828125 -2.6875 0.828125 -2.5 C 0.828125 -2.296875 1 -2.296875 1.171875 -2.296875 Z M 6.5625 -2.296875 "/>
</g>
<g id="glyph-1-0">
<path d="M 2.9375 -6.375 C 2.9375 -6.625 2.9375 -6.640625 2.703125 -6.640625 C 2.078125 -6 1.203125 -6 0.890625 -6 L 0.890625 -5.6875 C 1.09375 -5.6875 1.671875 -5.6875 2.1875 -5.953125 L 2.1875 -0.78125 C 2.1875 -0.421875 2.15625 -0.3125 1.265625 -0.3125 L 0.953125 -0.3125 L 0.953125 0 C 1.296875 -0.03125 2.15625 -0.03125 2.5625 -0.03125 C 2.953125 -0.03125 3.828125 -0.03125 4.171875 0 L 4.171875 -0.3125 L 3.859375 -0.3125 C 2.953125 -0.3125 2.9375 -0.421875 2.9375 -0.78125 Z M 2.9375 -6.375 "/>
</g>
<g id="glyph-1-1">
<path d="M 1.265625 -0.765625 L 2.328125 -1.796875 C 3.875 -3.171875 4.46875 -3.703125 4.46875 -4.703125 C 4.46875 -5.84375 3.578125 -6.640625 2.359375 -6.640625 C 1.234375 -6.640625 0.5 -5.71875 0.5 -4.828125 C 0.5 -4.28125 1 -4.28125 1.03125 -4.28125 C 1.203125 -4.28125 1.546875 -4.390625 1.546875 -4.8125 C 1.546875 -5.0625 1.359375 -5.328125 1.015625 -5.328125 C 0.9375 -5.328125 0.921875 -5.328125 0.890625 -5.3125 C 1.109375 -5.96875 1.65625 -6.328125 2.234375 -6.328125 C 3.140625 -6.328125 3.5625 -5.515625 3.5625 -4.703125 C 3.5625 -3.90625 3.078125 -3.125 2.515625 -2.5 L 0.609375 -0.375 C 0.5 -0.265625 0.5 -0.234375 0.5 0 L 4.203125 0 L 4.46875 -1.734375 L 4.234375 -1.734375 C 4.171875 -1.4375 4.109375 -1 4 -0.84375 C 3.9375 -0.765625 3.28125 -0.765625 3.0625 -0.765625 Z M 1.265625 -0.765625 "/>
</g>
<g id="glyph-1-2">
<path d="M 2.890625 -3.515625 C 3.703125 -3.78125 4.28125 -4.46875 4.28125 -5.265625 C 4.28125 -6.078125 3.40625 -6.640625 2.453125 -6.640625 C 1.453125 -6.640625 0.6875 -6.046875 0.6875 -5.28125 C 0.6875 -4.953125 0.90625 -4.765625 1.203125 -4.765625 C 1.5 -4.765625 1.703125 -4.984375 1.703125 -5.28125 C 1.703125 -5.765625 1.234375 -5.765625 1.09375 -5.765625 C 1.390625 -6.265625 2.046875 -6.390625 2.40625 -6.390625 C 2.828125 -6.390625 3.375 -6.171875 3.375 -5.28125 C 3.375 -5.15625 3.34375 -4.578125 3.09375 -4.140625 C 2.796875 -3.65625 2.453125 -3.625 2.203125 -3.625 C 2.125 -3.609375 1.890625 -3.59375 1.8125 -3.59375 C 1.734375 -3.578125 1.671875 -3.5625 1.671875 -3.46875 C 1.671875 -3.359375 1.734375 -3.359375 1.90625 -3.359375 L 2.34375 -3.359375 C 3.15625 -3.359375 3.53125 -2.6875 3.53125 -1.703125 C 3.53125 -0.34375 2.84375 -0.0625 2.40625 -0.0625 C 1.96875 -0.0625 1.21875 -0.234375 0.875 -0.8125 C 1.21875 -0.765625 1.53125 -0.984375 1.53125 -1.359375 C 1.53125 -1.71875 1.265625 -1.921875 0.984375 -1.921875 C 0.734375 -1.921875 0.421875 -1.78125 0.421875 -1.34375 C 0.421875 -0.4375 1.34375 0.21875 2.4375 0.21875 C 3.65625 0.21875 4.5625 -0.6875 4.5625 -1.703125 C 4.5625 -2.515625 3.921875 -3.296875 2.890625 -3.515625 Z M 2.890625 -3.515625 "/>
</g>
<g id="glyph-1-3">
<path d="M 2.9375 -1.640625 L 2.9375 -0.78125 C 2.9375 -0.421875 2.90625 -0.3125 2.171875 -0.3125 L 1.96875 -0.3125 L 1.96875 0 C 2.375 -0.03125 2.890625 -0.03125 3.3125 -0.03125 C 3.734375 -0.03125 4.25 -0.03125 4.671875 0 L 4.671875 -0.3125 L 4.453125 -0.3125 C 3.71875 -0.3125 3.703125 -0.421875 3.703125 -0.78125 L 3.703125 -1.640625 L 4.6875 -1.640625 L 4.6875 -1.953125 L 3.703125 -1.953125 L 3.703125 -6.484375 C 3.703125 -6.6875 3.703125 -6.75 3.53125 -6.75 C 3.453125 -6.75 3.421875 -6.75 3.34375 -6.625 L 0.28125 -1.953125 L 0.28125 -1.640625 Z M 2.984375 -1.953125 L 0.5625 -1.953125 L 2.984375 -5.671875 Z M 2.984375 -1.953125 "/>
</g>
<g id="glyph-2-0">
<path d="M 1.65625 -6.21875 L 0.328125 -6.125 L 0.328125 -5.84375 C 0.9375 -5.84375 1.015625 -5.78125 1.015625 -5.34375 L 1.015625 -0.6875 C 1.015625 -0.28125 0.921875 -0.28125 0.328125 -0.28125 L 0.328125 0 C 0.75 -0.015625 0.921875 -0.03125 1.328125 -0.03125 C 1.75 -0.03125 1.90625 -0.015625 2.34375 0 L 2.34375 -0.28125 C 1.75 -0.28125 1.65625 -0.28125 1.65625 -0.6875 Z M 1.65625 -6.21875 "/>
</g>
<g id="glyph-2-1">
<path d="M 4.34375 -1.90625 C 4.34375 -3.078125 3.40625 -4.015625 2.3125 -4.015625 C 1.171875 -4.015625 0.265625 -3.0625 0.265625 -1.90625 C 0.265625 -0.796875 1.1875 0.09375 2.296875 0.09375 C 3.4375 0.09375 4.34375 -0.8125 4.34375 -1.90625 Z M 2.3125 -0.15625 C 1.859375 -0.15625 1.484375 -0.375 1.28125 -0.71875 C 1.046875 -1.109375 1.03125 -1.578125 1.03125 -1.984375 C 1.03125 -2.328125 1.03125 -2.828125 1.25 -3.203125 C 1.53125 -3.65625 1.96875 -3.796875 2.296875 -3.796875 C 2.8125 -3.796875 3.171875 -3.5 3.359375 -3.203125 C 3.5625 -2.828125 3.5625 -2.375 3.5625 -1.984375 C 3.5625 -1.65625 3.5625 -1.140625 3.34375 -0.75 C 3.09375 -0.328125 2.6875 -0.15625 2.3125 -0.15625 Z M 2.3125 -0.15625 "/>
</g>
<g id="glyph-2-2">
<path d="M 3.265625 -3.53125 C 3.078125 -3.484375 2.890625 -3.359375 2.890625 -3.109375 C 2.890625 -2.875 3.078125 -2.6875 3.3125 -2.6875 C 3.546875 -2.6875 3.734375 -2.84375 3.734375 -3.125 C 3.734375 -3.671875 3.109375 -4.015625 2.3125 -4.015625 C 1.171875 -4.015625 0.3125 -3.0625 0.3125 -1.9375 C 0.3125 -0.78125 1.234375 0.09375 2.296875 0.09375 C 3.546875 0.09375 3.828125 -0.984375 3.828125 -1.0625 C 3.828125 -1.171875 3.734375 -1.171875 3.703125 -1.171875 C 3.609375 -1.171875 3.609375 -1.15625 3.546875 -1 C 3.34375 -0.390625 2.84375 -0.15625 2.390625 -0.15625 C 1.8125 -0.15625 1.078125 -0.625 1.078125 -1.953125 C 1.078125 -3.34375 1.796875 -3.765625 2.328125 -3.765625 C 2.453125 -3.765625 2.9375 -3.75 3.265625 -3.53125 Z M 3.265625 -3.53125 "/>
</g>
<g id="glyph-2-3">
<path d="M 3.0625 -0.640625 C 3.109375 -0.265625 3.375 0.046875 3.765625 0.046875 C 3.984375 0.046875 4.546875 -0.078125 4.546875 -0.796875 L 4.546875 -1.296875 L 4.296875 -1.296875 L 4.296875 -0.8125 C 4.296875 -0.703125 4.296875 -0.265625 3.96875 -0.265625 C 3.65625 -0.265625 3.65625 -0.6875 3.65625 -0.828125 L 3.65625 -2.40625 C 3.65625 -2.921875 3.65625 -3.21875 3.25 -3.59375 C 2.921875 -3.890625 2.484375 -4.015625 2.03125 -4.015625 C 1.28125 -4.015625 0.65625 -3.640625 0.65625 -3.0625 C 0.65625 -2.796875 0.84375 -2.640625 1.078125 -2.640625 C 1.3125 -2.640625 1.484375 -2.8125 1.484375 -3.046875 C 1.484375 -3.4375 1.09375 -3.484375 1.078125 -3.484375 C 1.328125 -3.71875 1.765625 -3.796875 2.015625 -3.796875 C 2.46875 -3.796875 2.984375 -3.453125 2.984375 -2.65625 L 2.984375 -2.375 C 2.5 -2.34375 1.828125 -2.3125 1.234375 -2.015625 C 0.578125 -1.703125 0.390625 -1.234375 0.390625 -0.875 C 0.390625 -0.140625 1.25 0.09375 1.859375 0.09375 C 2.59375 0.09375 2.9375 -0.390625 3.0625 -0.640625 Z M 2.984375 -1.265625 C 2.984375 -0.390625 2.3125 -0.125 1.921875 -0.125 C 1.5 -0.125 1.109375 -0.4375 1.109375 -0.875 C 1.109375 -1.46875 1.609375 -2.09375 2.984375 -2.15625 Z M 2.984375 -1.265625 "/>
</g>
<g id="glyph-2-4">
<path d="M 1.671875 -2.328125 C 1.671875 -3.296875 2.375 -3.734375 2.90625 -3.734375 C 3.40625 -3.734375 3.5625 -3.390625 3.5625 -2.765625 L 3.5625 -0.6875 C 3.5625 -0.28125 3.46875 -0.28125 2.875 -0.28125 L 2.875 0 C 3.296875 -0.015625 3.46875 -0.03125 3.890625 -0.03125 C 4.328125 -0.03125 4.4375 -0.015625 4.921875 0 L 4.921875 -0.28125 C 4.328125 -0.28125 4.21875 -0.28125 4.21875 -0.6875 L 4.21875 -2.328125 C 4.21875 -3.296875 4.921875 -3.734375 5.46875 -3.734375 C 5.953125 -3.734375 6.109375 -3.390625 6.109375 -2.765625 L 6.109375 -0.6875 C 6.109375 -0.28125 6.015625 -0.28125 5.421875 -0.28125 L 5.421875 0 C 5.84375 -0.015625 6.015625 -0.03125 6.453125 -0.03125 C 6.875 -0.03125 7 -0.015625 7.46875 0 L 7.46875 -0.28125 C 7.015625 -0.28125 6.796875 -0.28125 6.78125 -0.5625 L 6.78125 -2.28125 C 6.78125 -3.0625 6.78125 -3.3125 6.484375 -3.640625 C 6.296875 -3.859375 5.9375 -3.96875 5.53125 -3.96875 C 4.875 -3.96875 4.4375 -3.59375 4.1875 -3.109375 C 4.078125 -3.640625 3.71875 -3.96875 2.96875 -3.96875 C 2.25 -3.96875 1.8125 -3.5 1.625 -3.078125 L 1.609375 -3.078125 L 1.609375 -3.96875 L 0.3125 -3.859375 L 0.3125 -3.59375 C 0.921875 -3.59375 1 -3.53125 1 -3.078125 L 1 -0.6875 C 1 -0.28125 0.90625 -0.28125 0.3125 -0.28125 L 0.3125 0 C 0.734375 -0.015625 0.90625 -0.03125 1.34375 -0.03125 C 1.765625 -0.03125 1.890625 -0.015625 2.359375 0 L 2.359375 -0.28125 C 1.765625 -0.28125 1.671875 -0.28125 1.671875 -0.6875 Z M 1.671875 -2.328125 "/>
</g>
<g id="glyph-2-5">
<path d="M 2.734375 -2.015625 C 2.671875 -2.09375 2.671875 -2.109375 2.671875 -2.109375 C 2.671875 -2.140625 3.375 -2.984375 3.4375 -3.0625 C 3.71875 -3.359375 4.03125 -3.578125 4.578125 -3.59375 L 4.578125 -3.859375 C 4.3125 -3.84375 4.078125 -3.84375 3.8125 -3.84375 C 3.46875 -3.84375 3.3125 -3.84375 2.953125 -3.859375 L 2.953125 -3.59375 C 3.078125 -3.5625 3.203125 -3.5 3.203125 -3.3125 C 3.203125 -3.171875 3.125 -3.078125 3.078125 -3.015625 L 2.5 -2.3125 L 1.796875 -3.203125 C 1.734375 -3.28125 1.71875 -3.296875 1.71875 -3.359375 C 1.71875 -3.46875 1.828125 -3.578125 2.03125 -3.59375 L 2.03125 -3.859375 C 1.6875 -3.84375 1.453125 -3.84375 1.046875 -3.84375 C 1.03125 -3.84375 0.515625 -3.84375 0.171875 -3.859375 L 0.171875 -3.59375 C 0.796875 -3.59375 0.8125 -3.5625 1.21875 -3.046875 L 2.140625 -1.890625 C 1.953125 -1.65625 1.46875 -1.0625 1.28125 -0.828125 C 0.828125 -0.296875 0.3125 -0.28125 0.125 -0.28125 L 0.125 0 C 0.390625 -0.03125 0.625 -0.03125 0.890625 -0.03125 C 1.171875 -0.03125 1.46875 -0.015625 1.75 0 L 1.75 -0.28125 C 1.53125 -0.3125 1.5 -0.453125 1.5 -0.546875 C 1.5 -0.578125 1.5 -0.703125 1.625 -0.859375 C 1.84375 -1.140625 2.078125 -1.40625 2.3125 -1.671875 L 3.015625 -0.765625 C 3.1875 -0.578125 3.1875 -0.5625 3.1875 -0.5 C 3.1875 -0.40625 3.09375 -0.28125 2.875 -0.28125 L 2.875 0 C 3.25 -0.015625 3.46875 -0.03125 3.859375 -0.03125 C 3.875 -0.03125 4.390625 -0.03125 4.734375 0 L 4.734375 -0.28125 C 4.375 -0.28125 4.109375 -0.28125 3.90625 -0.53125 Z M 2.734375 -2.015625 "/>
</g>
<g id="glyph-2-6">
<path d="M 1.65625 -3.96875 L 0.359375 -3.859375 L 0.359375 -3.59375 C 0.9375 -3.59375 1.015625 -3.53125 1.015625 -3.09375 L 1.015625 -0.6875 C 1.015625 -0.28125 0.921875 -0.28125 0.328125 -0.28125 L 0.328125 0 C 0.71875 -0.015625 0.921875 -0.03125 1.3125 -0.03125 C 1.453125 -0.03125 1.828125 -0.03125 2.265625 0 L 2.265625 -0.28125 C 1.6875 -0.28125 1.65625 -0.328125 1.65625 -0.671875 Z M 1.671875 -5.53125 C 1.671875 -5.796875 1.46875 -6.015625 1.1875 -6.015625 C 0.921875 -6.015625 0.703125 -5.78125 0.703125 -5.53125 C 0.703125 -5.265625 0.921875 -5.046875 1.1875 -5.046875 C 1.46875 -5.046875 1.671875 -5.25 1.671875 -5.53125 Z M 1.671875 -5.53125 "/>
</g>
<g id="glyph-2-7">
<path d="M 1.671875 -2.328125 C 1.671875 -3.28125 2.34375 -3.734375 2.90625 -3.734375 C 3.4375 -3.734375 3.546875 -3.296875 3.546875 -2.765625 L 3.546875 -0.6875 C 3.546875 -0.28125 3.453125 -0.28125 2.859375 -0.28125 L 2.859375 0 C 3.28125 -0.015625 3.453125 -0.03125 3.890625 -0.03125 C 4.3125 -0.03125 4.4375 -0.015625 4.90625 0 L 4.90625 -0.28125 C 4.453125 -0.28125 4.21875 -0.28125 4.21875 -0.5625 L 4.21875 -2.28125 C 4.21875 -3.015625 4.21875 -3.28125 3.96875 -3.59375 C 3.765625 -3.84375 3.421875 -3.96875 2.96875 -3.96875 C 2.140625 -3.96875 1.75 -3.34375 1.625 -3.09375 L 1.609375 -3.09375 L 1.609375 -3.96875 L 0.3125 -3.859375 L 0.3125 -3.59375 C 0.921875 -3.59375 1 -3.53125 1 -3.078125 L 1 -0.6875 C 1 -0.28125 0.90625 -0.28125 0.3125 -0.28125 L 0.3125 0 C 0.734375 -0.015625 0.90625 -0.03125 1.34375 -0.03125 C 1.765625 -0.03125 1.890625 -0.015625 2.359375 0 L 2.359375 -0.28125 C 1.765625 -0.28125 1.671875 -0.28125 1.671875 -0.6875 Z M 1.671875 -2.328125 "/>
</g>
<g id="glyph-3-0">
<path d="M 3.328125 -3.015625 C 3.390625 -3.265625 3.625 -4.1875 4.3125 -4.1875 C 4.359375 -4.1875 4.609375 -4.1875 4.8125 -4.0625 C 4.53125 -4 4.34375 -3.765625 4.34375 -3.515625 C 4.34375 -3.359375 4.453125 -3.171875 4.71875 -3.171875 C 4.9375 -3.171875 5.25 -3.34375 5.25 -3.75 C 5.25 -4.265625 4.671875 -4.40625 4.328125 -4.40625 C 3.75 -4.40625 3.40625 -3.875 3.28125 -3.65625 C 3.03125 -4.3125 2.5 -4.40625 2.203125 -4.40625 C 1.171875 -4.40625 0.59375 -3.125 0.59375 -2.875 C 0.59375 -2.765625 0.703125 -2.765625 0.71875 -2.765625 C 0.796875 -2.765625 0.828125 -2.796875 0.84375 -2.875 C 1.1875 -3.9375 1.84375 -4.1875 2.1875 -4.1875 C 2.375 -4.1875 2.71875 -4.09375 2.71875 -3.515625 C 2.71875 -3.203125 2.546875 -2.546875 2.1875 -1.140625 C 2.03125 -0.53125 1.671875 -0.109375 1.234375 -0.109375 C 1.171875 -0.109375 0.953125 -0.109375 0.734375 -0.234375 C 0.984375 -0.296875 1.203125 -0.5 1.203125 -0.78125 C 1.203125 -1.046875 0.984375 -1.125 0.84375 -1.125 C 0.53125 -1.125 0.296875 -0.875 0.296875 -0.546875 C 0.296875 -0.09375 0.78125 0.109375 1.21875 0.109375 C 1.890625 0.109375 2.25 -0.59375 2.265625 -0.640625 C 2.390625 -0.28125 2.75 0.109375 3.34375 0.109375 C 4.375 0.109375 4.9375 -1.171875 4.9375 -1.421875 C 4.9375 -1.53125 4.859375 -1.53125 4.828125 -1.53125 C 4.734375 -1.53125 4.71875 -1.484375 4.6875 -1.421875 C 4.359375 -0.34375 3.6875 -0.109375 3.375 -0.109375 C 2.984375 -0.109375 2.828125 -0.421875 2.828125 -0.765625 C 2.828125 -0.984375 2.875 -1.203125 2.984375 -1.640625 Z M 3.328125 -3.015625 "/>
</g>
<g id="glyph-3-1">
<path d="M 4.84375 -3.796875 C 4.890625 -3.9375 4.890625 -3.953125 4.890625 -4.03125 C 4.890625 -4.203125 4.75 -4.296875 4.59375 -4.296875 C 4.5 -4.296875 4.34375 -4.234375 4.25 -4.09375 C 4.234375 -4.03125 4.140625 -3.734375 4.109375 -3.546875 C 4.03125 -3.296875 3.96875 -3.015625 3.90625 -2.75 L 3.453125 -0.953125 C 3.421875 -0.8125 2.984375 -0.109375 2.328125 -0.109375 C 1.828125 -0.109375 1.71875 -0.546875 1.71875 -0.921875 C 1.71875 -1.375 1.890625 -2 2.21875 -2.875 C 2.375 -3.28125 2.421875 -3.390625 2.421875 -3.59375 C 2.421875 -4.03125 2.109375 -4.40625 1.609375 -4.40625 C 0.65625 -4.40625 0.296875 -2.953125 0.296875 -2.875 C 0.296875 -2.765625 0.390625 -2.765625 0.40625 -2.765625 C 0.515625 -2.765625 0.515625 -2.796875 0.5625 -2.953125 C 0.84375 -3.890625 1.234375 -4.1875 1.578125 -4.1875 C 1.65625 -4.1875 1.828125 -4.1875 1.828125 -3.875 C 1.828125 -3.625 1.71875 -3.359375 1.65625 -3.171875 C 1.25 -2.109375 1.078125 -1.546875 1.078125 -1.078125 C 1.078125 -0.1875 1.703125 0.109375 2.296875 0.109375 C 2.6875 0.109375 3.015625 -0.0625 3.296875 -0.34375 C 3.171875 0.171875 3.046875 0.671875 2.65625 1.203125 C 2.390625 1.53125 2.015625 1.828125 1.5625 1.828125 C 1.421875 1.828125 0.96875 1.796875 0.796875 1.40625 C 0.953125 1.40625 1.09375 1.40625 1.21875 1.28125 C 1.328125 1.203125 1.421875 1.0625 1.421875 0.875 C 1.421875 0.5625 1.15625 0.53125 1.0625 0.53125 C 0.828125 0.53125 0.5 0.6875 0.5 1.171875 C 0.5 1.671875 0.9375 2.046875 1.5625 2.046875 C 2.578125 2.046875 3.609375 1.140625 3.890625 0.015625 Z M 4.84375 -3.796875 "/>
</g>
</g>
<clipPath id="clip-0">
<path clip-rule="nonzero" d="M 10.46875 23.023438 L 244 23.023438 L 244 176.609375 L 10.46875 176.609375 Z M 10.46875 23.023438 "/>
</clipPath>
</defs>
<path fill="none" stroke-width="0.19925" stroke-linecap="butt" stroke-linejoin="miter" stroke="rgb(90.979004%, 89.802551%, 88.233948%)" stroke-opacity="1" stroke-miterlimit="10" d="M 9.178437 422.361625 L 9.178437 575.947563 M 100.959688 422.361625 L 100.959688 575.947563 M 146.850313 422.361625 L 146.850313 575.947563 M 192.737031 422.361625 L 192.737031 575.947563 " transform="matrix(1, 0, 0, -1, 10.47, 598.971)"/>
<path fill="none" stroke-width="0.19925" stroke-linecap="butt" stroke-linejoin="miter" stroke="rgb(90.979004%, 89.802551%, 88.233948%)" stroke-opacity="1" stroke-miterlimit="10" d="M -0.00125 441.560844 L 238.627656 441.560844 M -0.00125 460.760063 L 238.627656 460.760063 M -0.00125 479.955375 L 238.627656 479.955375 M -0.00125 499.154594 L 238.627656 499.154594 M -0.00125 537.553031 L 238.627656 537.553031 M -0.00125 556.748344 L 238.627656 556.748344 " transform="matrix(1, 0, 0, -1, 10.47, 598.971)"/>
<path fill="none" stroke-width="0.19925" stroke-linecap="butt" stroke-linejoin="miter" stroke="rgb(50%, 50%, 50%)" stroke-opacity="1" stroke-miterlimit="10" d="M 9.178437 516.228813 L 9.178437 520.478813 M 100.959688 516.228813 L 100.959688 520.478813 M 146.850313 516.228813 L 146.850313 520.478813 M 192.737031 516.228813 L 192.737031 520.478813 " transform="matrix(1, 0, 0, -1, 10.47, 598.971)"/>
<path fill="none" stroke-width="0.19925" stroke-linecap="butt" stroke-linejoin="miter" stroke="rgb(50%, 50%, 50%)" stroke-opacity="1" stroke-miterlimit="10" d="M 52.944063 441.560844 L 57.194063 441.560844 M 52.944063 460.760063 L 57.194063 460.760063 M 52.944063 479.955375 L 57.194063 479.955375 M 52.944063 499.154594 L 57.194063 499.154594 M 52.944063 537.553031 L 57.194063 537.553031 M 52.944063 556.748344 L 57.194063 556.748344 " transform="matrix(1, 0, 0, -1, 10.47, 598.971)"/>
<path fill="none" stroke-width="0.3985" stroke-linecap="butt" stroke-linejoin="miter" stroke="rgb(0%, 0%, 0%)" stroke-opacity="1" stroke-miterlimit="10" d="M -0.00125 518.353813 L 236.635469 518.353813 " transform="matrix(1, 0, 0, -1, 10.47, 598.971)"/>
<path fill-rule="nonzero" fill="rgb(0%, 0%, 0%)" fill-opacity="1" d="M 249.097656 80.617188 L 245.910156 79.023438 L 247.105469 80.617188 L 245.910156 82.210938 "/>
<path fill="none" stroke-width="0.3985" stroke-linecap="butt" stroke-linejoin="miter" stroke="rgb(0%, 0%, 0%)" stroke-opacity="1" stroke-miterlimit="10" d="M 55.069063 422.361625 L 55.069063 573.955375 " transform="matrix(1, 0, 0, -1, 10.47, 598.971)"/>
<path fill-rule="nonzero" fill="rgb(0%, 0%, 0%)" fill-opacity="1" d="M 65.539062 23.023438 L 63.945312 26.210938 L 65.539062 25.015625 L 67.132812 26.210938 "/>
<g fill="rgb(0%, 0%, 0%)" fill-opacity="1">
<use xlink:href="#glyph-0-0" x="13.283" y="92.69"/>
</g>
<g fill="rgb(0%, 0%, 0%)" fill-opacity="1">
<use xlink:href="#glyph-1-0" x="21.03191" y="92.69"/>
</g>
<g fill="rgb(0%, 0%, 0%)" fill-opacity="1">
<use xlink:href="#glyph-1-0" x="108.937" y="92.69"/>
</g>
<g fill="rgb(0%, 0%, 0%)" fill-opacity="1">
<use xlink:href="#glyph-1-1" x="154.826" y="92.69"/>
</g>
<g fill="rgb(0%, 0%, 0%)" fill-opacity="1">
<use xlink:href="#glyph-1-2" x="200.716" y="92.69"/>
</g>
<g fill="rgb(0%, 0%, 0%)" fill-opacity="1">
<use xlink:href="#glyph-0-0" x="47.162" y="160.211"/>
</g>
<g fill="rgb(0%, 0%, 0%)" fill-opacity="1">
<use xlink:href="#glyph-1-3" x="54.91091" y="160.211"/>
</g>
<g fill="rgb(0%, 0%, 0%)" fill-opacity="1">
<use xlink:href="#glyph-0-0" x="47.162" y="141.013"/>
</g>
<g fill="rgb(0%, 0%, 0%)" fill-opacity="1">
<use xlink:href="#glyph-1-2" x="54.91091" y="141.013"/>
</g>
<g fill="rgb(0%, 0%, 0%)" fill-opacity="1">
<use xlink:href="#glyph-0-0" x="47.162" y="121.815"/>
</g>
<g fill="rgb(0%, 0%, 0%)" fill-opacity="1">
<use xlink:href="#glyph-1-1" x="54.91091" y="121.815"/>
</g>
<g fill="rgb(0%, 0%, 0%)" fill-opacity="1">
<use xlink:href="#glyph-0-0" x="47.162" y="102.617"/>
</g>
<g fill="rgb(0%, 0%, 0%)" fill-opacity="1">
<use xlink:href="#glyph-1-0" x="54.91091" y="102.617"/>
</g>
<g fill="rgb(0%, 0%, 0%)" fill-opacity="1">
<use xlink:href="#glyph-1-0" x="54.911" y="64.636"/>
</g>
<g fill="rgb(0%, 0%, 0%)" fill-opacity="1">
<use xlink:href="#glyph-1-1" x="54.911" y="45.438"/>
</g>
<g clip-path="url(#clip-0)">
<path fill="none" stroke-width="1.19553" stroke-linecap="butt" stroke-linejoin="miter" stroke="rgb(35.68573%, 64.312744%, 64.312744%)" stroke-opacity="1" stroke-miterlimit="10" d="M 9.178437 -0.00165625 C 9.178437 -0.00165625 10.68625 22.431938 11.264375 30.822563 C 11.8425 39.213188 12.772187 52.4085 13.350312 60.478813 C 13.928437 68.549125 14.858125 81.232719 15.43625 88.986625 C 16.014375 96.744438 16.944063 108.924125 17.522188 116.369438 C 18.100313 123.818656 19.03 135.510063 19.608125 142.650688 C 20.18625 149.795219 21.115938 161.006156 21.694063 167.849906 C 22.272188 174.693656 23.201875 185.435844 23.78 191.986625 C 24.358125 198.541313 25.287813 208.818656 25.865938 215.088188 C 26.444063 221.357719 27.37375 231.181938 27.951875 237.170219 C 28.53 243.162406 29.459688 252.541313 30.037813 258.260063 C 30.615938 263.974906 31.545625 272.924125 32.12375 278.373344 C 32.701875 283.822563 33.631563 292.346 34.209688 297.5335 C 34.787813 302.724906 35.7175 310.834281 36.295625 315.767875 C 36.87375 320.701469 37.803438 328.404594 38.381563 333.088188 C 38.959688 337.775688 39.889375 345.084281 40.4675 349.525688 C 41.045625 353.967094 41.975313 360.892875 42.553438 365.096 C 43.131563 369.299125 44.06125 375.849906 44.639375 379.822563 C 45.2175 383.795219 46.147188 389.978813 46.725313 393.728813 C 47.303438 397.474906 48.233125 403.303031 48.81125 406.830375 C 49.389375 410.361625 50.319063 415.842094 50.897188 419.1585 C 51.475313 422.471 52.405 427.619438 52.983125 430.724906 C 53.56125 433.834281 54.487031 438.650688 55.069063 441.556938 C 55.647188 444.463188 56.572969 448.963188 57.155 451.678031 C 57.733125 454.388969 58.658906 458.580375 59.240938 461.103813 C 59.819063 463.623344 60.744844 467.517875 61.326875 469.857719 C 61.905 472.197563 62.830781 475.803031 63.412813 477.963188 C 63.990938 480.12725 64.916719 483.451469 65.49875 485.443656 C 66.076875 487.435844 67.002656 490.490531 67.584688 492.31475 C 68.162813 494.142875 69.088594 496.93975 69.670625 498.603813 C 70.24875 500.271781 71.174531 502.818656 71.756563 504.330375 C 72.334688 505.846 73.260469 508.150688 73.8425 509.517875 C 74.420625 510.885063 75.346406 512.959281 75.928438 514.181938 C 76.506563 515.4085 77.432344 517.260063 78.014375 518.353813 C 78.5925 519.443656 79.518281 521.084281 80.100313 522.045219 C 80.678438 523.006156 81.604219 524.443656 82.18625 525.2835 C 82.764375 526.123344 83.690156 527.365531 84.272188 528.088188 C 84.850313 528.810844 85.776094 529.873344 86.358125 530.482719 C 86.93625 531.092094 87.862031 531.982719 88.444063 532.486625 C 89.022188 532.994438 89.947969 533.721 90.53 534.12725 C 91.108125 534.5335 92.033906 535.103813 92.612031 535.416313 C 93.194063 535.728813 94.119844 536.1585 94.697969 536.381156 C 95.28 536.607719 96.205781 536.900688 96.783906 537.045219 C 97.365938 537.193656 98.291719 537.357719 98.869844 537.428031 C 99.451875 537.498344 100.377656 537.549125 100.955781 537.553031 C 101.537813 537.553031 102.463594 537.498344 103.041719 537.435844 C 103.62375 537.373344 104.549531 537.224906 105.127656 537.103813 C 105.709688 536.986625 106.635469 536.748344 107.213594 536.576469 C 107.795625 536.4085 108.721406 536.096 109.299531 535.87725 C 109.881563 535.662406 110.807344 535.2835 111.385469 535.029594 C 111.9675 534.775688 112.893281 534.334281 113.471406 534.045219 C 114.053438 533.760063 114.979219 533.271781 115.557344 532.959281 C 116.139375 532.642875 117.065156 532.119438 117.643281 531.7835 C 118.225313 531.447563 119.151094 530.892875 119.729219 530.541313 C 120.31125 530.193656 121.237031 529.619438 121.815156 529.260063 C 122.397188 528.900688 123.322969 528.31475 123.901094 527.951469 C 124.483125 527.592094 125.408906 527.006156 125.987031 526.646781 C 126.569063 526.287406 127.494844 525.713188 128.072969 525.365531 C 128.655 525.013969 129.580781 524.459281 130.158906 524.123344 C 130.737031 523.787406 131.666719 523.263969 132.244844 522.947563 C 132.822969 522.635063 133.752656 522.146781 134.330781 521.857719 C 134.908906 521.572563 135.838594 521.131156 136.416719 520.87725 C 136.994844 520.623344 137.924531 520.240531 138.502656 520.025688 C 139.080781 519.810844 140.010469 519.498344 140.588594 519.326469 C 141.166719 519.1585 142.096406 518.920219 142.674531 518.799125 C 143.252656 518.681938 144.182344 518.529594 144.760469 518.467094 C 145.338594 518.4085 146.268281 518.353813 146.846406 518.353813 C 147.424531 518.353813 148.354219 518.404594 148.932344 518.474906 C 149.510469 518.545219 150.440156 518.713188 151.018281 518.857719 C 151.596406 519.00225 152.526094 519.295219 153.104219 519.521781 C 153.682344 519.748344 154.612031 520.174125 155.190156 520.486625 C 155.768281 520.799125 156.697969 521.373344 157.276094 521.779594 C 157.854219 522.185844 158.783906 522.9085 159.362031 523.416313 C 159.940156 523.920219 160.869844 524.810844 161.447969 525.420219 C 162.026094 526.029594 162.955781 527.092094 163.533906 527.81475 C 164.112031 528.5335 165.041719 529.779594 165.619844 530.619438 C 166.197969 531.455375 167.127656 532.896781 167.705781 533.857719 C 168.283906 534.818656 169.213594 536.459281 169.791719 537.549125 C 170.369844 538.638969 171.299531 540.490531 171.877656 541.717094 C 172.455781 542.943656 173.385469 545.013969 173.963594 546.381156 C 174.541719 547.748344 175.471406 550.053031 176.049531 551.568656 C 176.627656 553.080375 177.557344 555.62725 178.135469 557.295219 C 178.713594 558.959281 179.643281 561.756156 180.221406 563.580375 C 180.799531 565.4085 181.729219 568.463188 182.307344 570.455375 C 182.885469 572.443656 183.815156 575.771781 184.393281 577.931938 C 184.971406 580.096 185.901094 583.697563 186.479219 586.037406 C 187.057344 588.37725 187.987031 592.271781 188.565156 594.791313 C 189.143281 597.31475 190.072969 601.506156 190.651094 604.217094 C 191.229219 606.931938 192.158906 611.428031 192.737031 614.334281 C 193.315156 617.240531 194.244844 622.060844 194.822969 625.166313 C 195.401094 628.275688 196.330781 633.420219 196.908906 636.736625 C 197.487031 640.049125 198.416719 645.529594 198.994844 649.060844 C 199.572969 652.588188 200.502656 658.416313 201.080781 662.162406 C 201.658906 665.9085 202.588594 672.092094 203.166719 676.06475 C 203.744844 680.037406 204.674531 686.588188 205.252656 690.791313 C 205.830781 694.994438 206.760469 701.920219 207.338594 706.361625 C 207.916719 710.803031 208.846406 718.111625 209.424531 722.795219 C 210.002656 727.478813 210.932344 735.185844 211.510469 740.119438 C 212.088594 745.053031 213.018281 753.162406 213.596406 758.349906 C 214.174531 763.537406 215.682344 777.510063 215.682344 777.510063 " transform="matrix(1, 0, 0, -1, 10.47, 598.971)"/>
</g>
<g fill="rgb(83.137512%, 65.879822%, 32.548523%)" fill-opacity="1">
<use xlink:href="#glyph-2-0" x="114.947" y="57.906"/>
<use xlink:href="#glyph-2-1" x="117.506907" y="57.906"/>
</g>
<g fill="rgb(83.137512%, 65.879822%, 32.548523%)" fill-opacity="1">
<use xlink:href="#glyph-2-2" x="122.374766" y="57.906"/>
<use xlink:href="#glyph-2-3" x="126.470617" y="57.906"/>
<use xlink:href="#glyph-2-0" x="131.07845" y="57.906"/>
</g>
<g fill="rgb(83.137512%, 65.879822%, 32.548523%)" fill-opacity="1">
<use xlink:href="#glyph-2-4" x="136.704866" y="57.906"/>
<use xlink:href="#glyph-2-3" x="144.384588" y="57.906"/>
<use xlink:href="#glyph-2-5" x="148.992421" y="57.906"/>
</g>
<g fill="rgb(83.137512%, 65.879822%, 32.548523%)" fill-opacity="1">
<use xlink:href="#glyph-2-0" x="160.837" y="90.37"/>
<use xlink:href="#glyph-2-1" x="163.396907" y="90.37"/>
</g>
<g fill="rgb(83.137512%, 65.879822%, 32.548523%)" fill-opacity="1">
<use xlink:href="#glyph-2-2" x="168.264766" y="90.37"/>
</g>
<g fill="rgb(83.137512%, 65.879822%, 32.548523%)" fill-opacity="1">
<use xlink:href="#glyph-2-3" x="172.351651" y="90.37"/>
<use xlink:href="#glyph-2-0" x="176.959484" y="90.37"/>
</g>
<g fill="rgb(83.137512%, 65.879822%, 32.548523%)" fill-opacity="1">
<use xlink:href="#glyph-2-4" x="182.594866" y="90.37"/>
<use xlink:href="#glyph-2-6" x="190.274588" y="90.37"/>
<use xlink:href="#glyph-2-7" x="192.834495" y="90.37"/>
</g>
<path fill-rule="nonzero" fill="rgb(83.137512%, 65.879822%, 32.548523%)" fill-opacity="1" stroke-width="0.3985" stroke-linecap="butt" stroke-linejoin="miter" stroke="rgb(83.137512%, 65.879822%, 32.548523%)" stroke-opacity="1" stroke-miterlimit="10" d="M 103.447969 537.553031 C 103.447969 538.928031 102.334688 540.041313 100.959688 540.041313 C 99.584688 540.041313 98.4675 538.928031 98.4675 537.553031 C 98.4675 536.178031 99.584688 535.060844 100.959688 535.060844 C 102.334688 535.060844 103.447969 536.178031 103.447969 537.553031 Z M 103.447969 537.553031 " transform="matrix(1, 0, 0, -1, 10.47, 598.971)"/>
<path fill-rule="nonzero" fill="rgb(83.137512%, 65.879822%, 32.548523%)" fill-opacity="1" stroke-width="0.3985" stroke-linecap="butt" stroke-linejoin="miter" stroke="rgb(83.137512%, 65.879822%, 32.548523%)" stroke-opacity="1" stroke-miterlimit="10" d="M 149.338594 518.353813 C 149.338594 519.728813 148.225313 520.846 146.850313 520.846 C 145.471406 520.846 144.358125 519.728813 144.358125 518.353813 C 144.358125 516.978813 145.471406 515.861625 146.850313 515.861625 C 148.225313 515.861625 149.338594 516.978813 149.338594 518.353813 Z M 149.338594 518.353813 " transform="matrix(1, 0, 0, -1, 10.47, 598.971)"/>
<path fill-rule="nonzero" fill="rgb(83.137512%, 65.879822%, 32.548523%)" fill-opacity="1" stroke-width="0.3985" stroke-linecap="butt" stroke-linejoin="miter" stroke="rgb(83.137512%, 65.879822%, 32.548523%)" stroke-opacity="1" stroke-miterlimit="10" d="M 126.393281 527.951469 C 126.393281 529.326469 125.28 530.443656 123.905 530.443656 C 122.526094 530.443656 121.412813 529.326469 121.412813 527.951469 C 121.412813 526.576469 122.526094 525.463188 123.905 525.463188 C 125.28 525.463188 126.393281 526.576469 126.393281 527.951469 Z M 126.393281 527.951469 " transform="matrix(1, 0, 0, -1, 10.47, 598.971)"/>
<g fill="rgb(0%, 0%, 0%)" fill-opacity="1">
<use xlink:href="#glyph-3-0" x="252.616" y="82.769"/>
</g>
<g fill="rgb(0%, 0%, 0%)" fill-opacity="1">
<use xlink:href="#glyph-3-1" x="62.917" y="17.573"/>
</g>
</svg>
