<?xml version="1.0" encoding="UTF-8"?>
<svg xmlns="http://www.w3.org/2000/svg" xmlns:xlink="http://www.w3.org/1999/xlink" width="305.381pt" height="254.414pt" viewBox="0 0 305.381 254.414">
<defs>
<g>
<g id="glyph-0-0">
<path d="M 4.390625 -1.109375 C 4.46875 -1.109375 4.59375 -1.109375 4.59375 -1.25 C 4.59375 -1.390625 4.46875 -1.390625 4.390625 -1.390625 L 1.015625 -1.390625 C 0.9375 -1.390625 0.796875 -1.390625 0.796875 -1.25 C 0.796875 -1.109375 0.9375 -1.109375 1.015625 -1.109375 Z M 4.390625 -1.109375 "/>
</g>
<g id="glyph-1-0">
<path d="M 2.9375 -0.96875 L 2.71875 -0.96875 C 2.71875 -0.875 2.65625 -0.5625 2.578125 -0.515625 C 2.546875 -0.484375 2.125 -0.484375 2.046875 -0.484375 L 1.078125 -0.484375 C 1.40625 -0.71875 1.765625 -1 2.0625 -1.203125 C 2.515625 -1.515625 2.9375 -1.796875 2.9375 -2.328125 C 2.9375 -2.96875 2.328125 -3.3125 1.625 -3.3125 C 0.953125 -3.3125 0.453125 -2.9375 0.453125 -2.4375 C 0.453125 -2.1875 0.671875 -2.140625 0.75 -2.140625 C 0.875 -2.140625 1.03125 -2.234375 1.03125 -2.4375 C 1.03125 -2.609375 0.90625 -2.71875 0.75 -2.71875 C 0.890625 -2.953125 1.1875 -3.09375 1.515625 -3.09375 C 2 -3.09375 2.40625 -2.8125 2.40625 -2.328125 C 2.40625 -1.90625 2.109375 -1.578125 1.734375 -1.265625 L 0.515625 -0.234375 C 0.46875 -0.1875 0.453125 -0.1875 0.453125 -0.15625 L 0.453125 0 L 2.765625 0 Z M 2.9375 -0.96875 "/>
</g>
<g id="glyph-1-1">
<path d="M 1.984375 -3.171875 C 1.984375 -3.3125 1.96875 -3.3125 1.796875 -3.3125 C 1.453125 -3 0.890625 -3 0.796875 -3 L 0.71875 -3 L 0.71875 -2.78125 L 0.796875 -2.78125 C 0.90625 -2.78125 1.234375 -2.796875 1.53125 -2.921875 L 1.53125 -0.421875 C 1.53125 -0.28125 1.53125 -0.21875 1 -0.21875 L 0.75 -0.21875 L 0.75 0 C 1.015625 -0.015625 1.46875 -0.015625 1.75 -0.015625 C 2.046875 -0.015625 2.484375 -0.015625 2.765625 0 L 2.765625 -0.21875 L 2.515625 -0.21875 C 1.984375 -0.21875 1.984375 -0.28125 1.984375 -0.421875 Z M 1.984375 -3.171875 "/>
</g>
<g id="glyph-1-2">
<path d="M 1.640625 -1.65625 C 2.109375 -1.65625 2.40625 -1.359375 2.40625 -0.875 C 2.40625 -0.359375 2.09375 -0.09375 1.65625 -0.09375 C 1.59375 -0.09375 1 -0.09375 0.75 -0.359375 C 0.953125 -0.390625 1.015625 -0.53125 1.015625 -0.65625 C 1.015625 -0.84375 0.875 -0.96875 0.703125 -0.96875 C 0.546875 -0.96875 0.40625 -0.859375 0.40625 -0.640625 C 0.40625 -0.125 0.984375 0.109375 1.671875 0.109375 C 2.484375 0.109375 2.984375 -0.390625 2.984375 -0.875 C 2.984375 -1.28125 2.625 -1.625 2.0625 -1.75 C 2.65625 -1.953125 2.8125 -2.328125 2.8125 -2.609375 C 2.8125 -3.015625 2.3125 -3.3125 1.6875 -3.3125 C 1.0625 -3.3125 0.578125 -3.0625 0.578125 -2.609375 C 0.578125 -2.375 0.765625 -2.3125 0.859375 -2.3125 C 1 -2.3125 1.140625 -2.421875 1.140625 -2.609375 C 1.140625 -2.71875 1.078125 -2.859375 0.90625 -2.890625 C 1.109375 -3.109375 1.5625 -3.125 1.671875 -3.125 C 2.03125 -3.125 2.28125 -2.953125 2.28125 -2.609375 C 2.28125 -2.3125 2.09375 -1.859375 1.578125 -1.828125 C 1.4375 -1.828125 1.421875 -1.828125 1.28125 -1.8125 C 1.234375 -1.8125 1.171875 -1.8125 1.171875 -1.734375 C 1.171875 -1.65625 1.21875 -1.65625 1.3125 -1.65625 Z M 1.640625 -1.65625 "/>
</g>
<g id="glyph-2-0">
<path d="M 4.125 -3 C 4.15625 -3.109375 4.15625 -3.125 4.15625 -3.1875 C 4.15625 -3.390625 4 -3.4375 3.90625 -3.4375 C 3.859375 -3.4375 3.6875 -3.421875 3.578125 -3.21875 C 3.5625 -3.171875 3.484375 -2.890625 3.453125 -2.71875 L 2.96875 -0.8125 C 2.96875 -0.78125 2.625 -0.140625 2.046875 -0.140625 C 1.65625 -0.140625 1.515625 -0.4375 1.515625 -0.78125 C 1.515625 -1.25 1.78125 -1.953125 1.96875 -2.421875 C 2.046875 -2.625 2.078125 -2.6875 2.078125 -2.84375 C 2.078125 -3.28125 1.71875 -3.515625 1.359375 -3.515625 C 0.5625 -3.515625 0.234375 -2.390625 0.234375 -2.296875 C 0.234375 -2.21875 0.296875 -2.1875 0.359375 -2.1875 C 0.46875 -2.1875 0.46875 -2.234375 0.5 -2.3125 C 0.703125 -3.015625 1.046875 -3.296875 1.328125 -3.296875 C 1.453125 -3.296875 1.515625 -3.21875 1.515625 -3.03125 C 1.515625 -2.859375 1.453125 -2.671875 1.40625 -2.53125 C 1.078125 -1.6875 0.9375 -1.28125 0.9375 -0.90625 C 0.9375 -0.125 1.53125 0.078125 2 0.078125 C 2.375 0.078125 2.640625 -0.09375 2.84375 -0.265625 C 2.71875 0.171875 2.640625 0.484375 2.34375 0.875 C 2.078125 1.1875 1.765625 1.40625 1.40625 1.40625 C 1.265625 1.40625 0.96875 1.375 0.8125 1.140625 C 1.234375 1.109375 1.265625 0.75 1.265625 0.703125 C 1.265625 0.515625 1.109375 0.40625 0.953125 0.40625 C 0.765625 0.40625 0.5 0.546875 0.5 0.9375 C 0.5 1.3125 0.84375 1.625 1.40625 1.625 C 2.21875 1.625 3.125 0.96875 3.375 0.015625 Z M 4.125 -3 "/>
</g>
<g id="glyph-2-1">
<path d="M 4 -3.171875 C 3.640625 -3.09375 3.625 -2.78125 3.625 -2.75 C 3.625 -2.578125 3.765625 -2.453125 3.9375 -2.453125 C 4.109375 -2.453125 4.375 -2.59375 4.375 -2.9375 C 4.375 -3.390625 3.875 -3.515625 3.578125 -3.515625 C 3.21875 -3.515625 2.90625 -3.25 2.71875 -2.9375 C 2.546875 -3.359375 2.140625 -3.515625 1.8125 -3.515625 C 0.9375 -3.515625 0.453125 -2.515625 0.453125 -2.296875 C 0.453125 -2.21875 0.515625 -2.1875 0.578125 -2.1875 C 0.671875 -2.1875 0.6875 -2.234375 0.703125 -2.328125 C 0.890625 -2.90625 1.375 -3.296875 1.78125 -3.296875 C 2.09375 -3.296875 2.25 -3.0625 2.25 -2.78125 C 2.25 -2.625 2.15625 -2.25 2.09375 -2 C 2.03125 -1.765625 1.859375 -1.0625 1.8125 -0.90625 C 1.703125 -0.484375 1.421875 -0.140625 1.0625 -0.140625 C 1.03125 -0.140625 0.828125 -0.140625 0.65625 -0.25 C 1.015625 -0.34375 1.015625 -0.671875 1.015625 -0.6875 C 1.015625 -0.875 0.875 -0.984375 0.703125 -0.984375 C 0.484375 -0.984375 0.25 -0.796875 0.25 -0.5 C 0.25 -0.125 0.640625 0.078125 1.046875 0.078125 C 1.46875 0.078125 1.765625 -0.234375 1.90625 -0.5 C 2.09375 -0.109375 2.453125 0.078125 2.84375 0.078125 C 3.703125 0.078125 4.1875 -0.921875 4.1875 -1.140625 C 4.1875 -1.21875 4.125 -1.25 4.0625 -1.25 C 3.96875 -1.25 3.953125 -1.1875 3.921875 -1.109375 C 3.765625 -0.578125 3.3125 -0.140625 2.859375 -0.140625 C 2.59375 -0.140625 2.40625 -0.3125 2.40625 -0.65625 C 2.40625 -0.8125 2.453125 -1 2.5625 -1.4375 C 2.609375 -1.6875 2.78125 -2.375 2.828125 -2.53125 C 2.9375 -2.953125 3.21875 -3.296875 3.578125 -3.296875 C 3.625 -3.296875 3.828125 -3.296875 4 -3.171875 Z M 4 -3.171875 "/>
</g>
<g id="glyph-2-2">
<path d="M 6.359375 -4.796875 C 6.453125 -5.109375 6.46875 -5.171875 7.015625 -5.171875 C 7.203125 -5.171875 7.296875 -5.171875 7.296875 -5.328125 C 7.296875 -5.34375 7.296875 -5.4375 7.15625 -5.4375 C 7.015625 -5.4375 6.828125 -5.421875 6.671875 -5.421875 L 6.171875 -5.421875 C 5.40625 -5.421875 5.203125 -5.4375 5.140625 -5.4375 C 5.109375 -5.4375 4.984375 -5.4375 4.984375 -5.296875 C 4.984375 -5.171875 5.078125 -5.171875 5.21875 -5.171875 C 5.46875 -5.171875 5.703125 -5.171875 5.703125 -5.046875 C 5.703125 -5.015625 5.703125 -5.015625 5.671875 -4.90625 L 5.203125 -2.96875 L 2.625 -2.96875 L 3.09375 -4.828125 C 3.15625 -5.109375 3.171875 -5.171875 3.765625 -5.171875 C 3.921875 -5.171875 4.015625 -5.171875 4.015625 -5.328125 C 4.015625 -5.34375 4.015625 -5.4375 3.875 -5.4375 C 3.734375 -5.4375 3.53125 -5.421875 3.390625 -5.421875 L 2.890625 -5.421875 C 2.125 -5.421875 1.90625 -5.4375 1.859375 -5.4375 C 1.828125 -5.4375 1.703125 -5.4375 1.703125 -5.296875 C 1.703125 -5.171875 1.796875 -5.171875 1.921875 -5.171875 C 2.1875 -5.171875 2.421875 -5.171875 2.421875 -5.046875 C 2.421875 -5.015625 2.421875 -5.015625 2.390625 -4.90625 L 1.328125 -0.625 C 1.25 -0.328125 1.234375 -0.265625 0.640625 -0.265625 C 0.5 -0.265625 0.390625 -0.265625 0.390625 -0.109375 C 0.390625 -0.078125 0.421875 0 0.53125 0 C 0.671875 0 0.875 -0.015625 1.015625 -0.03125 L 1.53125 -0.03125 C 2.296875 -0.03125 2.5 0 2.5625 0 C 2.609375 0 2.71875 0 2.71875 -0.15625 C 2.71875 -0.265625 2.609375 -0.265625 2.484375 -0.265625 C 2.453125 -0.265625 2.3125 -0.265625 2.171875 -0.28125 C 2.015625 -0.296875 1.984375 -0.3125 1.984375 -0.390625 C 1.984375 -0.4375 2.015625 -0.484375 2.015625 -0.515625 L 2.5625 -2.703125 L 5.125 -2.703125 C 4.890625 -1.765625 4.578125 -0.515625 4.578125 -0.515625 C 4.5 -0.265625 4.359375 -0.265625 3.875 -0.265625 C 3.78125 -0.265625 3.6875 -0.265625 3.6875 -0.109375 C 3.6875 -0.078125 3.703125 0 3.8125 0 C 3.953125 0 4.15625 -0.015625 4.296875 -0.03125 L 4.8125 -0.03125 C 5.578125 -0.03125 5.78125 0 5.84375 0 C 5.890625 0 6 0 6 -0.15625 C 6 -0.265625 5.890625 -0.265625 5.765625 -0.265625 C 5.734375 -0.265625 5.59375 -0.265625 5.453125 -0.28125 C 5.296875 -0.296875 5.28125 -0.3125 5.28125 -0.390625 C 5.28125 -0.4375 5.296875 -0.484375 5.296875 -0.515625 Z M 6.359375 -4.796875 "/>
</g>
<g id="glyph-3-0">
<path d="M 5.828125 -2.65625 C 5.9375 -2.65625 6.109375 -2.65625 6.109375 -2.84375 C 6.109375 -3.015625 5.90625 -3.015625 5.796875 -3.015625 L 0.78125 -3.015625 C 0.65625 -3.015625 0.46875 -3.015625 0.46875 -2.84375 C 0.46875 -2.65625 0.625 -2.65625 0.75 -2.65625 Z M 5.796875 -0.96875 C 5.90625 -0.96875 6.109375 -0.96875 6.109375 -1.140625 C 6.109375 -1.328125 5.9375 -1.328125 5.828125 -1.328125 L 0.75 -1.328125 C 0.625 -1.328125 0.46875 -1.328125 0.46875 -1.140625 C 0.46875 -0.96875 0.65625 -0.96875 0.78125 -0.96875 Z M 5.796875 -0.96875 "/>
</g>
<g id="glyph-3-1">
<path d="M 2.65625 1.984375 C 2.71875 1.984375 2.8125 1.984375 2.8125 1.890625 C 2.8125 1.859375 2.8125 1.859375 2.703125 1.75 C 1.609375 0.71875 1.34375 -0.75 1.34375 -1.984375 C 1.34375 -4.28125 2.28125 -5.359375 2.6875 -5.734375 C 2.8125 -5.828125 2.8125 -5.84375 2.8125 -5.875 C 2.8125 -5.921875 2.78125 -5.96875 2.703125 -5.96875 C 2.578125 -5.96875 2.171875 -5.5625 2.109375 -5.5 C 1.046875 -4.375 0.828125 -2.953125 0.828125 -1.984375 C 0.828125 -0.203125 1.5625 1.234375 2.65625 1.984375 Z M 2.65625 1.984375 "/>
</g>
<g id="glyph-3-2">
<path d="M 2.46875 -1.984375 C 2.46875 -2.75 2.328125 -3.65625 1.84375 -4.59375 C 1.453125 -5.328125 0.71875 -5.96875 0.578125 -5.96875 C 0.5 -5.96875 0.484375 -5.921875 0.484375 -5.875 C 0.484375 -5.84375 0.484375 -5.828125 0.578125 -5.734375 C 1.6875 -4.671875 1.9375 -3.21875 1.9375 -1.984375 C 1.9375 0.296875 1 1.375 0.59375 1.75 C 0.484375 1.84375 0.484375 1.859375 0.484375 1.890625 C 0.484375 1.9375 0.5 1.984375 0.578125 1.984375 C 0.703125 1.984375 1.109375 1.578125 1.171875 1.515625 C 2.234375 0.390625 2.46875 -1.03125 2.46875 -1.984375 Z M 2.46875 -1.984375 "/>
</g>
<g id="glyph-4-0">
<path d="M 1.359375 -5.671875 C 1.359375 -5.796875 1.359375 -5.96875 1.171875 -5.96875 C 0.984375 -5.96875 0.984375 -5.796875 0.984375 -5.671875 L 0.984375 1.6875 C 0.984375 1.8125 0.984375 1.984375 1.171875 1.984375 C 1.359375 1.984375 1.359375 1.8125 1.359375 1.6875 Z M 1.359375 -5.671875 "/>
</g>
<g id="glyph-4-1">
<path d="M 3.28125 6.734375 L 1.78125 3.640625 C 1.734375 3.546875 1.703125 3.515625 1.640625 3.515625 C 1.609375 3.515625 1.59375 3.515625 1.515625 3.578125 L 0.703125 4.140625 C 0.59375 4.21875 0.59375 4.25 0.59375 4.28125 C 0.59375 4.328125 0.625 4.390625 0.703125 4.390625 C 0.734375 4.390625 0.75 4.390625 0.84375 4.3125 C 0.953125 4.25 1.109375 4.125 1.25 4.03125 L 2.921875 7.46875 C 2.984375 7.609375 3.015625 7.609375 3.09375 7.609375 C 3.234375 7.609375 3.265625 7.5625 3.328125 7.4375 L 7.171875 -0.03125 C 7.234375 -0.140625 7.234375 -0.15625 7.234375 -0.1875 C 7.234375 -0.28125 7.15625 -0.359375 7.046875 -0.359375 C 6.953125 -0.359375 6.921875 -0.296875 6.859375 -0.203125 Z M 3.28125 6.734375 "/>
</g>
<g id="glyph-5-0">
<path d="M 3.53125 2.09375 C 3.53125 2.046875 3.5 2.015625 3.390625 1.90625 C 2.21875 0.8125 1.890625 -0.796875 1.890625 -2.25 C 1.890625 -3.734375 2.25 -5.296875 3.359375 -6.375 C 3.515625 -6.53125 3.53125 -6.53125 3.53125 -6.59375 C 3.53125 -6.703125 3.421875 -6.734375 3.34375 -6.734375 C 3.15625 -6.734375 2.6875 -6.28125 2.578125 -6.171875 C 1.6875 -5.34375 0.984375 -3.953125 0.984375 -2.25 C 0.984375 -0.078125 2.078125 1.234375 2.546875 1.671875 C 2.625 1.734375 3.140625 2.25 3.34375 2.25 C 3.375 2.25 3.53125 2.25 3.53125 2.09375 Z M 3.53125 2.09375 "/>
</g>
<g id="glyph-5-1">
<path d="M 4.34375 -2.671875 C 4.34375 -3.46875 3.6875 -4.0625 2.3125 -4.0625 C 1.796875 -4.0625 0.65625 -4.046875 0.65625 -3.21875 C 0.65625 -2.8125 0.953125 -2.625 1.234375 -2.625 C 1.546875 -2.625 1.828125 -2.84375 1.828125 -3.203125 C 1.828125 -3.46875 1.671875 -3.625 1.640625 -3.65625 C 1.734375 -3.671875 1.953125 -3.703125 2.28125 -3.703125 C 2.921875 -3.703125 3.296875 -3.375 3.296875 -2.671875 L 3.296875 -2.390625 C 1.796875 -2.390625 0.296875 -2 0.296875 -1 C 0.296875 -0.109375 1.421875 0.046875 2.0625 0.046875 C 2.75 0.046875 3.203125 -0.234375 3.453125 -0.65625 C 3.453125 -0.4375 3.453125 0 4.40625 0 L 4.859375 0 C 5.015625 0 5.140625 0 5.140625 -0.21875 C 5.140625 -0.4375 5 -0.4375 4.921875 -0.4375 C 4.34375 -0.453125 4.34375 -0.53125 4.34375 -0.75 Z M 3.296875 -1.25 C 3.296875 -0.3125 2.25 -0.3125 2.21875 -0.3125 C 1.765625 -0.3125 1.375 -0.59375 1.375 -1 C 1.375 -1.296875 1.546875 -2 3.296875 -2.078125 Z M 3.296875 -1.25 "/>
</g>
<g id="glyph-5-2">
<path d="M 3.125 -2.25 C 3.125 -4.40625 2.03125 -5.71875 1.5625 -6.15625 C 1.5 -6.21875 0.96875 -6.734375 0.765625 -6.734375 C 0.703125 -6.734375 0.59375 -6.703125 0.59375 -6.578125 C 0.59375 -6.53125 0.625 -6.5 0.71875 -6.40625 C 1.8125 -5.34375 2.21875 -3.921875 2.21875 -2.25 C 2.21875 -0.75 1.875 0.8125 0.765625 1.890625 C 0.59375 2.046875 0.59375 2.046875 0.59375 2.09375 C 0.59375 2.21875 0.703125 2.25 0.765625 2.25 C 0.953125 2.25 1.4375 1.796875 1.53125 1.6875 C 2.4375 0.859375 3.125 -0.53125 3.125 -2.25 Z M 3.125 -2.25 "/>
</g>
<g id="glyph-5-3">
<path d="M 7.0625 -6 C 7.0625 -6.15625 7.0625 -6.265625 6.890625 -6.265625 C 6.796875 -6.265625 6.78125 -6.25 6.703125 -6.171875 L 6.109375 -5.65625 C 5.59375 -6.0625 4.9375 -6.265625 4.28125 -6.265625 C 1.96875 -6.265625 0.59375 -4.890625 0.59375 -3.078125 C 0.59375 -1.296875 1.921875 0.109375 4.296875 0.109375 C 5.984375 0.109375 7.0625 -0.96875 7.0625 -2.046875 C 7.0625 -2.25 6.984375 -2.25 6.828125 -2.25 C 6.734375 -2.25 6.625 -2.25 6.609375 -2.09375 C 6.53125 -0.796875 5.34375 -0.328125 4.5 -0.328125 C 4.015625 -0.328125 3.140625 -0.4375 2.53125 -1.09375 C 2.0625 -1.625 2 -2.46875 2 -3.078125 C 2 -4.15625 2.21875 -4.6875 2.578125 -5.109375 C 3 -5.578125 3.734375 -5.828125 4.46875 -5.828125 C 5.265625 -5.828125 6.3125 -5.34375 6.53125 -3.921875 C 6.5625 -3.796875 6.65625 -3.796875 6.796875 -3.796875 C 7.046875 -3.796875 7.0625 -3.828125 7.0625 -4.0625 Z M 7.0625 -6 "/>
</g>
<g id="glyph-5-4">
<path d="M 5 -1.953125 C 5 -3.125 4.171875 -4.0625 2.65625 -4.0625 C 1.078125 -4.0625 0.296875 -3.078125 0.296875 -1.953125 C 0.296875 -0.84375 1.109375 0.046875 2.640625 0.046875 C 4.25 0.046875 5 -0.890625 5 -1.953125 Z M 2.65625 -0.328125 C 1.484375 -0.328125 1.484375 -1.28125 1.484375 -2.046875 C 1.484375 -2.8125 1.484375 -3.703125 2.640625 -3.703125 C 3.8125 -3.703125 3.8125 -2.8125 3.8125 -2.046875 C 3.8125 -1.28125 3.8125 -0.328125 2.65625 -0.328125 Z M 2.65625 -0.328125 "/>
</g>
<g id="glyph-5-5">
<path d="M 1.96875 -1.953125 C 1.96875 -2.609375 2.21875 -3.65625 3.078125 -3.671875 C 2.984375 -3.578125 2.9375 -3.421875 2.9375 -3.28125 C 2.9375 -2.890625 3.25 -2.703125 3.5 -2.703125 C 3.796875 -2.703125 4.078125 -2.90625 4.078125 -3.28125 C 4.078125 -3.734375 3.609375 -4.03125 3.078125 -4.03125 C 2.453125 -4.03125 2.078125 -3.578125 1.875 -3.0625 L 1.859375 -3.0625 L 1.859375 -4.03125 L 0.375 -3.96875 L 0.375 -3.53125 C 0.90625 -3.53125 0.984375 -3.53125 0.984375 -3.171875 L 0.984375 -0.4375 L 0.375 -0.4375 L 0.375 0 C 1.03125 -0.03125 1.078125 -0.03125 1.515625 -0.03125 C 1.734375 -0.03125 2.265625 -0.03125 2.734375 0 L 2.734375 -0.4375 L 1.96875 -0.4375 Z M 1.96875 -1.953125 "/>
</g>
<g id="glyph-5-6">
<path d="M 5.046875 -2.734375 C 5.046875 -3.796875 4.390625 -4.03125 3.609375 -4.03125 C 2.515625 -4.03125 2.078125 -3.234375 2.015625 -3.09375 L 2 -3.09375 L 2 -4.03125 L 0.453125 -3.96875 L 0.453125 -3.53125 C 0.984375 -3.53125 1.0625 -3.53125 1.0625 -3.171875 L 1.0625 -0.4375 L 0.453125 -0.4375 L 0.453125 0 C 1.109375 -0.03125 1.21875 -0.03125 1.578125 -0.03125 C 1.953125 -0.03125 2.03125 -0.03125 2.71875 0 L 2.71875 -0.4375 L 2.109375 -0.4375 L 2.109375 -2.28125 C 2.109375 -3.28125 2.9375 -3.671875 3.46875 -3.671875 C 3.8125 -3.671875 3.984375 -3.484375 3.984375 -2.8125 L 3.984375 -0.4375 L 3.375 -0.4375 L 3.375 0 C 4.046875 -0.03125 4.15625 -0.03125 4.515625 -0.03125 C 4.875 -0.03125 4.96875 -0.03125 5.65625 0 L 5.65625 -0.4375 L 5.046875 -0.4375 Z M 5.046875 -2.734375 "/>
</g>
<g id="glyph-5-7">
<path d="M 4.265625 -1.921875 C 4.453125 -1.921875 4.5625 -1.921875 4.5625 -2.171875 C 4.5625 -2.375 4.546875 -3.171875 3.96875 -3.65625 C 3.5625 -3.984375 3.015625 -4.0625 2.578125 -4.0625 C 1.046875 -4.0625 0.296875 -3.09375 0.296875 -2.015625 C 0.296875 -0.84375 1.1875 0.046875 2.703125 0.046875 C 4.1875 0.046875 4.5625 -0.890625 4.5625 -1.046875 C 4.5625 -1.21875 4.390625 -1.21875 4.328125 -1.21875 C 4.171875 -1.21875 4.15625 -1.171875 4.09375 -1.046875 C 3.890625 -0.578125 3.34375 -0.328125 2.78125 -0.328125 C 1.5 -0.328125 1.484375 -1.484375 1.484375 -1.921875 Z M 1.484375 -2.25 C 1.5 -2.65625 1.546875 -3.703125 2.578125 -3.703125 C 3.625 -3.703125 3.671875 -2.609375 3.6875 -2.25 Z M 1.484375 -2.25 "/>
</g>
<g id="glyph-5-8">
<path d="M 1.96875 -6.21875 L 0.375 -6.15625 L 0.375 -5.71875 C 0.90625 -5.71875 0.984375 -5.71875 0.984375 -5.359375 L 0.984375 0 L 1.4375 0 L 1.859375 -0.515625 C 2.140625 -0.21875 2.578125 0.046875 3.21875 0.046875 C 4.625 0.046875 5.53125 -0.796875 5.53125 -1.984375 C 5.53125 -3.203125 4.65625 -4.03125 3.34375 -4.03125 C 2.625 -4.03125 2.140625 -3.734375 1.96875 -3.609375 Z M 2.03125 -3.109375 C 2.25 -3.390625 2.6875 -3.671875 3.234375 -3.671875 C 4.34375 -3.671875 4.34375 -2.59375 4.34375 -2.015625 C 4.34375 -1.625 4.34375 -1.171875 4.15625 -0.84375 C 3.859375 -0.34375 3.3125 -0.3125 3.125 -0.3125 C 2.578125 -0.3125 2.21875 -0.640625 2.03125 -0.9375 Z M 2.03125 -3.109375 "/>
</g>
<g id="glyph-5-9">
<path d="M 3.375 -3.96875 L 3.375 -3.53125 C 3.921875 -3.53125 3.984375 -3.53125 3.984375 -3.171875 L 3.984375 -1.46875 C 3.984375 -0.75 3.53125 -0.3125 2.828125 -0.3125 C 2.140625 -0.3125 2.109375 -0.5 2.109375 -0.984375 L 2.109375 -4.03125 L 0.453125 -3.96875 L 0.453125 -3.53125 C 0.984375 -3.53125 1.0625 -3.53125 1.0625 -3.171875 L 1.0625 -1.109375 C 1.0625 -0.125 1.828125 0.046875 2.703125 0.046875 C 2.984375 0.046875 3.59375 0.046875 4.046875 -0.625 L 4.046875 0.046875 L 5.65625 0 L 5.65625 -0.4375 C 5.109375 -0.4375 5.046875 -0.4375 5.046875 -0.796875 L 5.046875 -4.03125 Z M 3.375 -3.96875 "/>
</g>
<g id="glyph-5-10">
<path d="M 3.5625 -3.796875 C 3.5625 -3.96875 3.5625 -4.0625 3.375 -4.0625 C 3.296875 -4.0625 3.140625 -3.984375 2.984375 -3.90625 C 2.703125 -4.03125 2.34375 -4.0625 2.046875 -4.0625 C 1.78125 -4.0625 0.34375 -4.0625 0.34375 -2.875 C 0.34375 -1.9375 1.53125 -1.734375 1.84375 -1.6875 C 2.578125 -1.5625 3.171875 -1.46875 3.171875 -0.953125 C 3.171875 -0.3125 2.328125 -0.3125 2.125 -0.3125 C 1.671875 -0.3125 1.078125 -0.421875 0.828125 -1.25 C 0.78125 -1.40625 0.765625 -1.421875 0.578125 -1.421875 C 0.34375 -1.421875 0.34375 -1.375 0.34375 -1.15625 L 0.34375 -0.203125 C 0.34375 -0.046875 0.34375 0.046875 0.53125 0.046875 C 0.59375 0.046875 0.609375 0.046875 0.8125 -0.078125 L 1.046875 -0.21875 C 1.46875 0.046875 1.953125 0.046875 2.125 0.046875 C 2.390625 0.046875 3.828125 0.046875 3.828125 -1.25 C 3.828125 -1.71875 3.5625 -2 3.40625 -2.140625 C 3 -2.46875 2.71875 -2.515625 2.015625 -2.640625 C 1.578125 -2.703125 1.015625 -2.796875 1.015625 -3.203125 C 1.015625 -3.734375 1.84375 -3.734375 2.046875 -3.734375 C 3.046875 -3.734375 3.078125 -3.203125 3.109375 -2.96875 C 3.109375 -2.84375 3.234375 -2.84375 3.328125 -2.84375 C 3.546875 -2.84375 3.5625 -2.890625 3.5625 -3.109375 Z M 3.5625 -3.796875 "/>
</g>
<g id="glyph-5-11">
<path d="M 2.640625 1.296875 L 2.03125 1.296875 L 2.03125 -0.34375 C 2.5625 0.046875 3.046875 0.046875 3.21875 0.046875 C 4.625 0.046875 5.53125 -0.796875 5.53125 -1.984375 C 5.53125 -3.171875 4.71875 -4.03125 3.359375 -4.03125 C 2.640625 -4.03125 2.140625 -3.734375 1.96875 -3.609375 L 1.96875 -4.03125 L 0.375 -3.96875 L 0.375 -3.53125 C 0.546875 -3.53125 0.6875 -3.53125 0.8125 -3.5 C 0.984375 -3.46875 0.984375 -3.375 0.984375 -3.1875 L 0.984375 1.296875 L 0.375 1.296875 L 0.375 1.734375 C 1.03125 1.71875 1.140625 1.71875 1.5 1.71875 C 1.859375 1.71875 1.953125 1.71875 2.640625 1.734375 Z M 2.03125 -3.09375 C 2.1875 -3.296875 2.609375 -3.65625 3.21875 -3.65625 C 3.84375 -3.65625 4.34375 -3.09375 4.34375 -2 C 4.34375 -0.75 3.703125 -0.3125 3.109375 -0.3125 C 2.65625 -0.3125 2.265625 -0.5625 2.03125 -0.9375 Z M 2.03125 -3.09375 "/>
</g>
<g id="glyph-5-12">
<path d="M 4.40625 -1.046875 C 4.40625 -1.1875 4.28125 -1.1875 4.171875 -1.1875 C 4 -1.1875 4 -1.171875 3.921875 -1.015625 C 3.75 -0.578125 3.34375 -0.328125 2.8125 -0.328125 C 1.546875 -0.328125 1.546875 -1.625 1.546875 -2.03125 C 1.546875 -2.5625 1.546875 -3.671875 2.71875 -3.671875 C 2.796875 -3.671875 3.28125 -3.671875 3.28125 -3.625 C 3.28125 -3.609375 3.25 -3.59375 3.25 -3.578125 C 3.171875 -3.484375 3.125 -3.34375 3.125 -3.203125 C 3.125 -2.84375 3.40625 -2.625 3.71875 -2.625 C 3.984375 -2.625 4.296875 -2.8125 4.296875 -3.21875 C 4.296875 -4.0625 3.046875 -4.0625 2.6875 -4.0625 C 0.96875 -4.0625 0.34375 -2.96875 0.34375 -1.984375 C 0.34375 -0.859375 1.15625 0.046875 2.640625 0.046875 C 2.984375 0.046875 3.421875 0 3.796875 -0.234375 C 4.3125 -0.546875 4.40625 -1.015625 4.40625 -1.046875 Z M 4.40625 -1.046875 "/>
</g>
<g id="glyph-5-13">
<path d="M 6.828125 -5.515625 C 6.890625 -5.625 6.921875 -5.71875 7.59375 -5.71875 L 7.75 -5.71875 L 7.75 -6.15625 C 7.265625 -6.125 7.0625 -6.125 6.703125 -6.125 C 6.203125 -6.125 5.984375 -6.140625 5.515625 -6.15625 L 5.515625 -5.71875 C 5.75 -5.71875 6.0625 -5.71875 6.296875 -5.609375 L 4.390625 -1.421875 L 2.453125 -5.71875 L 3.28125 -5.71875 L 3.28125 -6.15625 C 2.953125 -6.125 2.0625 -6.125 1.6875 -6.125 C 1.3125 -6.125 0.59375 -6.125 0.25 -6.15625 L 0.25 -5.71875 L 1.078125 -5.71875 L 3.59375 -0.15625 C 3.703125 0.078125 3.828125 0.078125 4 0.078125 C 4.171875 0.078125 4.296875 0.078125 4.40625 -0.15625 Z M 6.828125 -5.515625 "/>
</g>
<g id="glyph-5-14">
<path d="M 2 -3.546875 L 3.359375 -3.546875 L 3.359375 -3.984375 L 2 -3.984375 L 2 -5.6875 L 1.546875 -5.6875 C 1.53125 -4.859375 1.109375 -3.921875 0.203125 -3.90625 L 0.203125 -3.546875 L 0.953125 -3.546875 L 0.953125 -1.109375 C 0.953125 -0.078125 1.84375 0.046875 2.390625 0.046875 C 3.09375 0.046875 3.53125 -0.453125 3.53125 -1.109375 L 3.53125 -1.578125 L 3.0625 -1.578125 L 3.0625 -1.125 C 3.0625 -0.5 2.75 -0.328125 2.515625 -0.328125 C 2 -0.328125 2 -0.875 2 -1.078125 Z M 2 -3.546875 "/>
</g>
<g id="glyph-5-15">
<path d="M 2.15625 -5.53125 C 2.15625 -5.984375 1.78125 -6.234375 1.453125 -6.234375 C 1.046875 -6.234375 0.75 -5.890625 0.75 -5.53125 C 0.75 -5.15625 1.046875 -4.828125 1.453125 -4.828125 C 1.796875 -4.828125 2.15625 -5.09375 2.15625 -5.53125 Z M 0.5 -3.96875 L 0.5 -3.53125 C 1.015625 -3.53125 1.078125 -3.53125 1.078125 -3.171875 L 1.078125 -0.4375 L 0.46875 -0.4375 L 0.46875 0 C 1.0625 -0.015625 1.1875 -0.03125 1.5625 -0.03125 C 2 -0.03125 2.109375 -0.015625 2.625 0 L 2.625 -0.4375 L 2.078125 -0.4375 L 2.078125 -4.03125 Z M 0.5 -3.96875 "/>
</g>
<g id="glyph-5-16">
<path d="M 2.078125 -6.21875 L 0.46875 -6.15625 L 0.46875 -5.71875 C 1 -5.71875 1.078125 -5.71875 1.078125 -5.359375 L 1.078125 -0.4375 L 0.46875 -0.4375 L 0.46875 0 C 1.078125 -0.03125 1.1875 -0.03125 1.5625 -0.03125 C 1.96875 -0.03125 2.203125 -0.015625 2.6875 0 L 2.6875 -0.4375 L 2.078125 -0.4375 Z M 2.078125 -6.21875 "/>
</g>
<g id="glyph-5-17">
<path d="M 6.796875 -6.046875 L 0.578125 -6.046875 L 0.390625 -3.859375 L 0.84375 -3.859375 C 0.9375 -4.859375 1.015625 -5.609375 2.328125 -5.609375 L 3.046875 -5.609375 L 3.046875 -0.4375 L 1.671875 -0.4375 L 1.671875 0 C 2.0625 -0.03125 3.234375 -0.03125 3.6875 -0.03125 C 4.15625 -0.03125 5.3125 -0.03125 5.71875 0 L 5.71875 -0.4375 L 4.34375 -0.4375 L 4.34375 -5.609375 L 5.046875 -5.609375 C 6.375 -5.609375 6.4375 -4.84375 6.53125 -3.859375 L 6.984375 -3.859375 Z M 6.796875 -6.046875 "/>
</g>
<g id="glyph-5-18">
<path d="M 1.9375 -0.765625 C 1.65625 -0.765625 1.53125 -0.765625 1.375 -0.875 C 1.234375 -1 1.171875 -1.140625 1.171875 -1.328125 C 1.171875 -1.5 1.234375 -1.59375 1.234375 -1.609375 C 1.5625 -1.4375 1.96875 -1.375 2.359375 -1.375 C 3.734375 -1.375 4.203125 -2.109375 4.203125 -2.703125 C 4.203125 -3.0625 4.03125 -3.359375 3.84375 -3.546875 C 4.078125 -3.671875 4.265625 -3.6875 4.375 -3.71875 C 4.375 -3.671875 4.34375 -3.625 4.34375 -3.53125 C 4.34375 -3.296875 4.53125 -3.125 4.75 -3.125 C 4.953125 -3.125 5.15625 -3.28125 5.15625 -3.546875 C 5.15625 -3.78125 4.984375 -4.09375 4.5625 -4.09375 C 4.125 -4.09375 3.75 -3.875 3.578125 -3.75 C 3.203125 -3.96875 2.796875 -4.03125 2.359375 -4.03125 C 0.984375 -4.03125 0.515625 -3.296875 0.515625 -2.703125 C 0.515625 -2.21875 0.828125 -1.890625 0.984375 -1.765625 C 0.796875 -1.546875 0.6875 -1.25 0.6875 -0.984375 C 0.6875 -0.59375 0.875 -0.28125 1.0625 -0.109375 C 0.390625 0.078125 0.296875 0.453125 0.296875 0.65625 C 0.296875 1.1875 0.921875 1.796875 2.640625 1.796875 C 4.21875 1.796875 5 1.3125 5 0.625 C 5 0.3125 4.890625 -0.234375 4.265625 -0.53125 C 3.75 -0.765625 3.28125 -0.765625 2.390625 -0.765625 Z M 2.359375 -1.734375 C 1.546875 -1.734375 1.546875 -2.3125 1.546875 -2.703125 C 1.546875 -3.109375 1.546875 -3.671875 2.359375 -3.671875 C 3.171875 -3.671875 3.171875 -3.109375 3.171875 -2.703125 C 3.171875 -2.3125 3.171875 -1.734375 2.359375 -1.734375 Z M 2.890625 0.125 C 3.171875 0.125 4.203125 0.125 4.203125 0.65625 C 4.203125 0.953125 3.875 1.4375 2.65625 1.4375 C 1.46875 1.4375 1.09375 1 1.09375 0.640625 C 1.09375 0.125 1.671875 0.125 1.796875 0.125 Z M 2.890625 0.125 "/>
</g>
<g id="glyph-5-19">
<path d="M 3.296875 -6.15625 L 3.296875 -5.71875 C 3.84375 -5.71875 3.90625 -5.71875 3.90625 -5.359375 L 3.90625 -3.625 C 3.515625 -3.921875 3.09375 -4.03125 2.65625 -4.03125 C 1.203125 -4.03125 0.34375 -3.140625 0.34375 -1.984375 C 0.34375 -0.796875 1.1875 0.046875 2.5625 0.046875 C 3.125 0.046875 3.5625 -0.15625 3.859375 -0.390625 L 3.859375 0.046875 L 5.515625 0 L 5.515625 -0.4375 C 4.984375 -0.4375 4.90625 -0.4375 4.90625 -0.796875 L 4.90625 -6.21875 Z M 3.859375 -0.984375 C 3.65625 -0.65625 3.234375 -0.3125 2.65625 -0.3125 C 1.546875 -0.3125 1.546875 -1.375 1.546875 -1.96875 C 1.546875 -2.5 1.546875 -2.875 1.78125 -3.203125 C 2.015625 -3.5625 2.453125 -3.671875 2.765625 -3.671875 C 3.203125 -3.671875 3.578125 -3.484375 3.859375 -3.125 Z M 3.859375 -0.984375 "/>
</g>
<g id="glyph-5-20">
<path d="M 1.34375 -5.71875 L 1.34375 -0.4375 L 0.375 -0.4375 L 0.375 0 L 4.34375 0 C 6.125 0 7.53125 -1.078125 7.53125 -3.03125 C 7.53125 -4.9375 6.21875 -6.15625 4.328125 -6.15625 L 0.375 -6.15625 L 0.375 -5.71875 Z M 2.59375 -0.4375 L 2.59375 -5.71875 L 3.953125 -5.71875 C 4.65625 -5.71875 5.328125 -5.484375 5.71875 -5 C 6.109375 -4.5 6.171875 -3.859375 6.171875 -3.03125 C 6.171875 -2.15625 6.171875 -0.4375 3.96875 -0.4375 Z M 2.59375 -0.4375 "/>
</g>
<g id="glyph-5-21">
<path d="M 4.6875 -3.34375 C 4.75 -3.484375 4.78125 -3.546875 5.34375 -3.546875 L 5.34375 -3.984375 C 5.09375 -3.953125 4.875 -3.953125 4.625 -3.953125 C 4.34375 -3.953125 4.078125 -3.96875 3.8125 -3.984375 L 3.8125 -3.546875 C 3.828125 -3.546875 4.203125 -3.546875 4.203125 -3.4375 C 4.203125 -3.421875 4.203125 -3.421875 4.15625 -3.328125 L 3.09375 -1.140625 L 1.921875 -3.546875 L 2.390625 -3.546875 L 2.390625 -3.984375 C 1.890625 -3.96875 1.5625 -3.953125 1.28125 -3.953125 C 0.953125 -3.953125 0.78125 -3.953125 0.25 -3.984375 L 0.25 -3.546875 L 0.8125 -3.546875 L 2.53125 0 C 2.21875 0.734375 1.890625 1.4375 1.1875 1.4375 C 1.140625 1.4375 1.078125 1.4375 1.015625 1.40625 C 1.171875 1.328125 1.28125 1.171875 1.28125 0.9375 C 1.28125 0.59375 1.03125 0.40625 0.75 0.40625 C 0.453125 0.40625 0.203125 0.59375 0.203125 0.9375 C 0.203125 1.421875 0.65625 1.796875 1.1875 1.796875 C 1.890625 1.796875 2.4375 1.28125 2.71875 0.6875 Z M 4.6875 -3.34375 "/>
</g>
<g id="glyph-6-0">
<path d="M 3.21875 -1.125 L 3 -1.125 C 2.984375 -1.03125 2.921875 -0.640625 2.84375 -0.578125 C 2.796875 -0.53125 2.3125 -0.53125 2.21875 -0.53125 L 1.109375 -0.53125 L 1.875 -1.15625 C 2.078125 -1.328125 2.609375 -1.703125 2.796875 -1.890625 C 2.96875 -2.0625 3.21875 -2.375 3.21875 -2.796875 C 3.21875 -3.546875 2.546875 -3.984375 1.734375 -3.984375 C 0.96875 -3.984375 0.4375 -3.46875 0.4375 -2.90625 C 0.4375 -2.609375 0.6875 -2.5625 0.75 -2.5625 C 0.90625 -2.5625 1.078125 -2.671875 1.078125 -2.890625 C 1.078125 -3.015625 1 -3.21875 0.734375 -3.21875 C 0.875 -3.515625 1.234375 -3.75 1.65625 -3.75 C 2.28125 -3.75 2.609375 -3.28125 2.609375 -2.796875 C 2.609375 -2.375 2.328125 -1.9375 1.921875 -1.546875 L 0.5 -0.25 C 0.4375 -0.1875 0.4375 -0.1875 0.4375 0 L 3.03125 0 Z M 3.21875 -1.125 "/>
</g>
<g id="glyph-6-1">
<path d="M 1.765625 -1.984375 C 2.265625 -1.984375 2.609375 -1.640625 2.609375 -1.03125 C 2.609375 -0.375 2.21875 -0.09375 1.78125 -0.09375 C 1.609375 -0.09375 1 -0.125 0.734375 -0.46875 C 0.96875 -0.5 1.0625 -0.65625 1.0625 -0.8125 C 1.0625 -1.015625 0.921875 -1.15625 0.71875 -1.15625 C 0.5625 -1.15625 0.375 -1.046875 0.375 -0.796875 C 0.375 -0.203125 1.03125 0.125 1.796875 0.125 C 2.6875 0.125 3.265625 -0.4375 3.265625 -1.03125 C 3.265625 -1.46875 2.9375 -1.9375 2.21875 -2.109375 C 2.703125 -2.265625 3.078125 -2.65625 3.078125 -3.140625 C 3.078125 -3.625 2.515625 -3.984375 1.796875 -3.984375 C 1.09375 -3.984375 0.5625 -3.65625 0.5625 -3.171875 C 0.5625 -2.90625 0.765625 -2.84375 0.890625 -2.84375 C 1.046875 -2.84375 1.203125 -2.9375 1.203125 -3.15625 C 1.203125 -3.34375 1.078125 -3.453125 0.90625 -3.46875 C 1.1875 -3.78125 1.734375 -3.78125 1.796875 -3.78125 C 2.09375 -3.78125 2.484375 -3.640625 2.484375 -3.140625 C 2.484375 -2.8125 2.296875 -2.234375 1.6875 -2.203125 C 1.578125 -2.203125 1.421875 -2.1875 1.375 -2.1875 C 1.3125 -2.171875 1.25 -2.171875 1.25 -2.078125 C 1.25 -1.984375 1.3125 -1.984375 1.40625 -1.984375 Z M 1.765625 -1.984375 "/>
</g>
<g id="glyph-7-0">
<path d="M 3.21875 -4.203125 C 3.265625 -4.296875 3.265625 -4.3125 3.265625 -4.328125 C 3.265625 -4.421875 3.1875 -4.484375 3.109375 -4.484375 C 3 -4.484375 2.96875 -4.421875 2.9375 -4.328125 L 0.59375 1.203125 C 0.5625 1.296875 0.5625 1.3125 0.5625 1.34375 C 0.5625 1.421875 0.625 1.5 0.71875 1.5 C 0.8125 1.5 0.84375 1.421875 0.875 1.34375 Z M 3.21875 -4.203125 "/>
</g>
</g>
<clipPath id="clip-0">
<path clip-rule="nonzero" d="M 7.648438 27 L 75 27 L 75 105 L 7.648438 105 Z M 7.648438 27 "/>
</clipPath>
<clipPath id="clip-1">
<path clip-rule="nonzero" d="M 51 27 L 118.714844 27 L 118.714844 105 L 51 105 Z M 51 27 "/>
</clipPath>
<clipPath id="clip-2">
<path clip-rule="nonzero" d="M 115 42 L 118.714844 42 L 118.714844 47 L 115 47 Z M 115 42 "/>
</clipPath>
<clipPath id="clip-3">
<path clip-rule="nonzero" d="M 177.726562 38 L 245 38 L 245 104 L 177.726562 104 Z M 177.726562 38 "/>
</clipPath>
<clipPath id="clip-4">
<path clip-rule="nonzero" d="M 222 38 L 288.792969 38 L 288.792969 104 L 222 104 Z M 222 38 "/>
</clipPath>
<clipPath id="clip-5">
<path clip-rule="nonzero" d="M 285 34 L 288.792969 34 L 288.792969 39 L 285 39 Z M 285 34 "/>
</clipPath>
<clipPath id="clip-6">
<path clip-rule="nonzero" d="M 7.648438 202 L 75 202 L 75 249.234375 L 7.648438 249.234375 Z M 7.648438 202 "/>
</clipPath>
<clipPath id="clip-7">
<path clip-rule="nonzero" d="M 52 166.503906 L 118.714844 166.503906 L 118.714844 214 L 52 214 Z M 52 166.503906 "/>
</clipPath>
<clipPath id="clip-8">
<path clip-rule="nonzero" d="M 115 174 L 118.714844 174 L 118.714844 175 L 115 175 Z M 115 174 "/>
</clipPath>
<clipPath id="clip-9">
<path clip-rule="nonzero" d="M 116 176 L 118.714844 176 L 118.714844 181 L 116 181 Z M 116 176 "/>
</clipPath>
</defs>
<path fill="none" stroke-width="0.19925" stroke-linecap="butt" stroke-linejoin="miter" stroke="rgb(50%, 50%, 50%)" stroke-opacity="1" stroke-miterlimit="10" d="M 5.048312 11.661156 L 5.048312 15.915063 M 30.2905 11.661156 L 30.2905 15.915063 M 80.778781 11.661156 L 80.778781 15.915063 M 106.020969 11.661156 L 106.020969 15.915063 " transform="matrix(1, 0, 0, -1, 7.647, 107.501)"/>
<path fill="none" stroke-width="0.19925" stroke-linecap="butt" stroke-linejoin="miter" stroke="rgb(50%, 50%, 50%)" stroke-opacity="1" stroke-miterlimit="10" d="M 53.407688 41.364281 L 57.661594 41.364281 M 53.407688 68.942406 L 57.661594 68.942406 " transform="matrix(1, 0, 0, -1, 7.647, 107.501)"/>
<path fill="none" stroke-width="0.3985" stroke-linecap="butt" stroke-linejoin="miter" stroke="rgb(0%, 0%, 0%)" stroke-opacity="1" stroke-miterlimit="10" d="M 0.0014375 13.790063 L 109.075656 13.790063 " transform="matrix(1, 0, 0, -1, 7.647, 107.501)"/>
<path fill-rule="nonzero" fill="rgb(0%, 0%, 0%)" fill-opacity="1" d="M 118.714844 93.710938 L 115.527344 92.117188 L 116.722656 93.710938 L 115.527344 95.308594 "/>
<path fill="none" stroke-width="0.3985" stroke-linecap="butt" stroke-linejoin="miter" stroke="rgb(0%, 0%, 0%)" stroke-opacity="1" stroke-miterlimit="10" d="M 55.532688 0.001 L 55.532688 80.735375 " transform="matrix(1, 0, 0, -1, 7.647, 107.501)"/>
<path fill-rule="nonzero" fill="rgb(0%, 0%, 0%)" fill-opacity="1" d="M 63.179688 24.773438 L 61.585938 27.960938 L 63.179688 26.765625 L 64.773438 27.960938 "/>
<g fill="rgb(0%, 0%, 0%)" fill-opacity="1">
<use xlink:href="#glyph-0-0" x="8.302" y="102.68"/>
</g>
<g fill="rgb(0%, 0%, 0%)" fill-opacity="1">
<use xlink:href="#glyph-1-0" x="13.698242" y="102.68"/>
</g>
<g fill="rgb(0%, 0%, 0%)" fill-opacity="1">
<use xlink:href="#glyph-0-0" x="33.544" y="102.68"/>
</g>
<g fill="rgb(0%, 0%, 0%)" fill-opacity="1">
<use xlink:href="#glyph-1-1" x="38.940242" y="102.68"/>
</g>
<g fill="rgb(0%, 0%, 0%)" fill-opacity="1">
<use xlink:href="#glyph-1-1" x="86.728" y="102.569"/>
</g>
<g fill="rgb(0%, 0%, 0%)" fill-opacity="1">
<use xlink:href="#glyph-1-0" x="111.97" y="102.569"/>
</g>
<g fill="rgb(0%, 0%, 0%)" fill-opacity="1">
<use xlink:href="#glyph-1-1" x="54.144" y="67.742"/>
</g>
<g fill="rgb(0%, 0%, 0%)" fill-opacity="1">
<use xlink:href="#glyph-1-0" x="54.144" y="40.166"/>
</g>
<g clip-path="url(#clip-0)">
<path fill="none" stroke-width="0.79701" stroke-linecap="butt" stroke-linejoin="miter" stroke="rgb(35.68573%, 64.312744%, 64.312744%)" stroke-opacity="1" stroke-miterlimit="10" d="M 5.048312 68.942406 L 6.079562 67.8135 L 7.110812 66.6885 L 8.138156 65.5635 L 11.231906 62.1885 L 12.25925 61.0635 L 13.2905 59.934594 L 15.353 57.684594 L 16.380344 56.559594 L 19.474094 53.184594 L 20.501438 52.055688 L 23.595188 48.680688 L 24.622531 47.555688 L 27.716281 44.180688 L 28.747531 43.051781 L 29.774875 41.926781 L 32.868625 38.551781 L 33.895969 37.426781 L 34.927219 36.301781 L 35.958469 35.172875 L 36.989719 34.047875 L 38.017063 32.922875 L 41.110813 29.547875 L 42.138156 28.422875 L 43.169406 27.293969 L 45.231906 25.043969 L 46.25925 23.918969 L 49.353 20.543969 L 50.380344 19.415063 L 54.505344 14.915063 L 55.532688 13.790063 " transform="matrix(1, 0, 0, -1, 7.647, 107.501)"/>
</g>
<g clip-path="url(#clip-1)">
<path fill="none" stroke-width="0.79701" stroke-linecap="butt" stroke-linejoin="miter" stroke="rgb(35.68573%, 64.312744%, 64.312744%)" stroke-opacity="1" stroke-miterlimit="10" d="M 55.532688 13.790063 L 58.626438 17.165063 L 59.653781 18.290063 L 61.716281 20.540063 L 62.747531 21.668969 L 63.778781 22.793969 L 64.806125 23.918969 L 67.899875 27.293969 L 68.927219 28.418969 L 69.958469 29.547875 L 72.020969 31.797875 L 73.048312 32.922875 L 76.142062 36.297875 L 77.169406 37.426781 L 80.263156 40.801781 L 81.2905 41.926781 L 83.353 44.176781 L 84.38425 45.305688 L 85.411594 46.430688 L 89.536594 50.930688 L 90.563937 52.055688 L 91.595187 53.184594 L 93.657687 55.434594 L 94.685031 56.559594 L 97.778781 59.934594 L 98.806125 61.0635 L 101.899875 64.4385 L 102.927219 65.5635 L 104.989719 67.8135 L 106.020969 68.942406 " transform="matrix(1, 0, 0, -1, 7.647, 107.501)"/>
</g>
<g fill="rgb(35.68573%, 64.312744%, 64.312744%)" fill-opacity="1">
<use xlink:href="#glyph-2-0" x="96.991" y="46.069"/>
</g>
<g fill="rgb(35.68573%, 64.312744%, 64.312744%)" fill-opacity="1">
<use xlink:href="#glyph-3-0" x="103.815" y="46.069"/>
</g>
<g fill="rgb(35.68573%, 64.312744%, 64.312744%)" fill-opacity="1">
<use xlink:href="#glyph-4-0" x="112.75267" y="46.069"/>
</g>
<g clip-path="url(#clip-2)">
<g fill="rgb(35.68573%, 64.312744%, 64.312744%)" fill-opacity="1">
<use xlink:href="#glyph-2-1" x="115.104646" y="46.069"/>
</g>
</g>
<path fill-rule="nonzero" fill="rgb(97.645569%, 45.095825%, 8.625793%)" fill-opacity="1" stroke-width="0.3985" stroke-linecap="butt" stroke-linejoin="miter" stroke="rgb(97.645569%, 45.095825%, 8.625793%)" stroke-opacity="1" stroke-miterlimit="10" d="M 57.528781 13.790063 C 57.528781 14.887719 56.63425 15.78225 55.532688 15.78225 C 54.435031 15.78225 53.5405 14.887719 53.5405 13.790063 C 53.5405 12.6885 54.435031 11.793969 55.532688 11.793969 C 56.63425 11.793969 57.528781 12.6885 57.528781 13.790063 Z M 57.528781 13.790063 " transform="matrix(1, 0, 0, -1, 7.647, 107.501)"/>
<g fill="rgb(0%, 0%, 0%)" fill-opacity="1">
<use xlink:href="#glyph-2-1" x="122.234" y="95.429"/>
</g>
<g fill="rgb(0%, 0%, 0%)" fill-opacity="1">
<use xlink:href="#glyph-2-0" x="60.944" y="19.704"/>
</g>
<g fill="rgb(0%, 0%, 0%)" fill-opacity="1">
<use xlink:href="#glyph-5-0" x="38.465" y="15.027"/>
<use xlink:href="#glyph-5-1" x="42.591337" y="15.027"/>
<use xlink:href="#glyph-5-2" x="47.748811" y="15.027"/>
</g>
<g fill="rgb(0%, 0%, 0%)" fill-opacity="1">
<use xlink:href="#glyph-5-3" x="55.407909" y="15.027"/>
<use xlink:href="#glyph-5-4" x="63.070595" y="15.027"/>
<use xlink:href="#glyph-5-5" x="68.376014" y="15.027"/>
<use xlink:href="#glyph-5-6" x="72.752514" y="15.027"/>
<use xlink:href="#glyph-5-7" x="78.647025" y="15.027"/>
<use xlink:href="#glyph-5-5" x="83.51578" y="15.027"/>
</g>
<path fill="none" stroke-width="0.19925" stroke-linecap="butt" stroke-linejoin="miter" stroke="rgb(50%, 50%, 50%)" stroke-opacity="1" stroke-miterlimit="10" d="M 5.048438 11.661156 L 5.048438 15.915063 M 30.290625 11.661156 L 30.290625 15.915063 M 80.778906 11.661156 L 80.778906 15.915063 M 106.021094 11.661156 L 106.021094 15.915063 " transform="matrix(1, 0, 0, -1, 177.725, 107.501)"/>
<path fill="none" stroke-width="0.19925" stroke-linecap="butt" stroke-linejoin="miter" stroke="rgb(50%, 50%, 50%)" stroke-opacity="1" stroke-miterlimit="10" d="M 53.407813 41.364281 L 57.661719 41.364281 M 53.407813 68.942406 L 57.661719 68.942406 " transform="matrix(1, 0, 0, -1, 177.725, 107.501)"/>
<path fill="none" stroke-width="0.3985" stroke-linecap="butt" stroke-linejoin="miter" stroke="rgb(0%, 0%, 0%)" stroke-opacity="1" stroke-miterlimit="10" d="M 0.0015625 13.790063 L 109.075781 13.790063 " transform="matrix(1, 0, 0, -1, 177.725, 107.501)"/>
<path fill-rule="nonzero" fill="rgb(0%, 0%, 0%)" fill-opacity="1" d="M 288.792969 93.710938 L 285.605469 92.117188 L 286.800781 93.710938 L 285.605469 95.308594 "/>
<path fill="none" stroke-width="0.3985" stroke-linecap="butt" stroke-linejoin="miter" stroke="rgb(0%, 0%, 0%)" stroke-opacity="1" stroke-miterlimit="10" d="M 55.532813 0.001 L 55.532813 80.735375 " transform="matrix(1, 0, 0, -1, 177.725, 107.501)"/>
<path fill-rule="nonzero" fill="rgb(0%, 0%, 0%)" fill-opacity="1" d="M 233.257812 24.773438 L 231.664062 27.960938 L 233.257812 26.765625 L 234.851562 27.960938 "/>
<g fill="rgb(0%, 0%, 0%)" fill-opacity="1">
<use xlink:href="#glyph-0-0" x="178.381" y="102.68"/>
</g>
<g fill="rgb(0%, 0%, 0%)" fill-opacity="1">
<use xlink:href="#glyph-1-0" x="183.777242" y="102.68"/>
</g>
<g fill="rgb(0%, 0%, 0%)" fill-opacity="1">
<use xlink:href="#glyph-0-0" x="203.623" y="102.68"/>
</g>
<g fill="rgb(0%, 0%, 0%)" fill-opacity="1">
<use xlink:href="#glyph-1-1" x="209.019242" y="102.68"/>
</g>
<g fill="rgb(0%, 0%, 0%)" fill-opacity="1">
<use xlink:href="#glyph-1-1" x="256.806" y="102.569"/>
</g>
<g fill="rgb(0%, 0%, 0%)" fill-opacity="1">
<use xlink:href="#glyph-1-0" x="282.049" y="102.569"/>
</g>
<g fill="rgb(0%, 0%, 0%)" fill-opacity="1">
<use xlink:href="#glyph-1-1" x="224.223" y="67.742"/>
</g>
<g fill="rgb(0%, 0%, 0%)" fill-opacity="1">
<use xlink:href="#glyph-1-0" x="224.223" y="40.166"/>
</g>
<g clip-path="url(#clip-3)">
<path fill="none" stroke-width="0.79701" stroke-linecap="butt" stroke-linejoin="miter" stroke="rgb(35.68573%, 64.312744%, 64.312744%)" stroke-opacity="1" stroke-miterlimit="10" d="M 5.048438 57.559594 L 6.071875 56.961938 L 7.099219 56.364281 L 8.122656 55.758813 L 9.15 55.153344 L 10.173438 54.543969 L 11.200781 53.926781 L 12.224219 53.305688 L 13.251563 52.680688 L 14.275 52.051781 L 15.298438 51.411156 L 16.325781 50.774438 L 17.349219 50.122094 L 18.376563 49.46975 L 19.4 48.809594 L 20.427344 48.145531 L 21.450781 47.473656 L 22.474219 46.797875 L 23.501563 46.110375 L 24.525 45.418969 L 25.552344 44.715844 L 26.575781 44.008813 L 27.603125 43.290063 L 28.626563 42.5635 L 29.65 41.829125 L 30.677344 41.086938 L 31.700781 40.329125 L 32.728125 39.5635 L 33.751563 38.786156 L 34.778906 37.997094 L 35.802344 37.1885 L 36.829688 36.372094 L 37.853125 35.540063 L 38.876563 34.692406 L 39.903906 33.825219 L 40.927344 32.9385 L 41.954688 32.03225 L 42.978125 31.102563 L 44.005469 30.145531 L 45.028906 29.161156 L 46.052344 28.145531 L 47.079688 27.090844 L 48.103125 25.989281 L 49.130469 24.840844 L 50.153906 23.626 L 51.18125 22.336938 L 52.204688 20.934594 L 53.228125 19.379906 L 54.255469 17.5635 L 55.278906 15.075219 " transform="matrix(1, 0, 0, -1, 177.725, 107.501)"/>
</g>
<g clip-path="url(#clip-4)">
<path fill="none" stroke-width="0.79701" stroke-linecap="butt" stroke-linejoin="miter" stroke="rgb(35.68573%, 64.312744%, 64.312744%)" stroke-opacity="1" stroke-miterlimit="10" d="M 55.786719 15.067406 L 56.810156 17.559594 L 57.8375 19.376 L 58.860938 20.930688 L 59.888281 22.333031 L 60.911719 23.626 L 61.939063 24.840844 L 62.9625 25.989281 L 63.985938 27.086938 L 65.013281 28.141625 L 66.036719 29.161156 L 67.064063 30.145531 L 68.0875 31.102563 L 69.114844 32.03225 L 70.138281 32.9385 L 71.165625 33.825219 L 72.189063 34.692406 L 73.2125 35.540063 L 74.239844 36.372094 L 75.263281 37.1885 L 76.290625 37.993188 L 77.314063 38.786156 L 78.341406 39.5635 L 79.364844 40.329125 L 80.388281 41.086938 L 81.415625 41.825219 L 82.439063 42.5635 L 83.466406 43.290063 L 84.489844 44.004906 L 85.517188 44.715844 L 86.540625 45.415063 L 87.567969 46.110375 L 88.591406 46.793969 L 89.614844 47.473656 L 90.642188 48.145531 L 91.665625 48.809594 L 92.692969 49.46975 L 93.716406 50.122094 L 94.74375 50.770531 L 95.767188 51.411156 L 96.790625 52.047875 L 97.817969 52.680688 L 98.841406 53.305688 L 99.86875 53.926781 L 100.892188 54.543969 L 101.919531 55.153344 L 102.942969 55.762719 L 103.966406 56.360375 L 104.99375 56.961938 L 106.017188 57.555688 " transform="matrix(1, 0, 0, -1, 177.725, 107.501)"/>
</g>
<g fill="rgb(35.68573%, 64.312744%, 64.312744%)" fill-opacity="1">
<use xlink:href="#glyph-2-0" x="256.973" y="41.434"/>
</g>
<g fill="rgb(35.68573%, 64.312744%, 64.312744%)" fill-opacity="1">
<use xlink:href="#glyph-3-0" x="263.797" y="41.434"/>
</g>
<g fill="rgb(35.68573%, 64.312744%, 64.312744%)" fill-opacity="1">
<use xlink:href="#glyph-2-1" x="272.73467" y="41.434"/>
</g>
<g fill="rgb(35.68573%, 64.312744%, 64.312744%)" fill-opacity="1">
<use xlink:href="#glyph-6-0" x="277.502" y="38.621"/>
</g>
<g fill="rgb(35.68573%, 64.312744%, 64.312744%)" fill-opacity="1">
<use xlink:href="#glyph-7-0" x="281.154911" y="38.621"/>
</g>
<g clip-path="url(#clip-5)">
<g fill="rgb(35.68573%, 64.312744%, 64.312744%)" fill-opacity="1">
<use xlink:href="#glyph-6-1" x="284.974" y="38.621"/>
</g>
</g>
<path fill-rule="nonzero" fill="rgb(97.645569%, 45.095825%, 8.625793%)" fill-opacity="1" stroke-width="0.3985" stroke-linecap="butt" stroke-linejoin="miter" stroke="rgb(97.645569%, 45.095825%, 8.625793%)" stroke-opacity="1" stroke-miterlimit="10" d="M 57.525 13.790063 C 57.525 14.887719 56.634375 15.78225 55.532813 15.78225 C 54.435156 15.78225 53.540625 14.887719 53.540625 13.790063 C 53.540625 12.6885 54.435156 11.793969 55.532813 11.793969 C 56.634375 11.793969 57.525 12.6885 57.525 13.790063 Z M 57.525 13.790063 " transform="matrix(1, 0, 0, -1, 177.725, 107.501)"/>
<g fill="rgb(0%, 0%, 0%)" fill-opacity="1">
<use xlink:href="#glyph-2-1" x="292.312" y="95.429"/>
</g>
<g fill="rgb(0%, 0%, 0%)" fill-opacity="1">
<use xlink:href="#glyph-2-0" x="231.023" y="19.704"/>
</g>
<g fill="rgb(0%, 0%, 0%)" fill-opacity="1">
<use xlink:href="#glyph-5-0" x="212.599" y="15.027"/>
<use xlink:href="#glyph-5-8" x="216.725337" y="15.027"/>
<use xlink:href="#glyph-5-2" x="222.619849" y="15.027"/>
</g>
<g fill="rgb(0%, 0%, 0%)" fill-opacity="1">
<use xlink:href="#glyph-5-3" x="230.278948" y="15.027"/>
<use xlink:href="#glyph-5-9" x="237.941633" y="15.027"/>
<use xlink:href="#glyph-5-10" x="243.836144" y="15.027"/>
<use xlink:href="#glyph-5-11" x="248.02166" y="15.027"/>
</g>
<path fill="none" stroke-width="0.19925" stroke-linecap="butt" stroke-linejoin="miter" stroke="rgb(50%, 50%, 50%)" stroke-opacity="1" stroke-miterlimit="10" d="M 5.048312 39.236906 L 5.048312 43.490813 M 30.2905 39.236906 L 30.2905 43.490813 M 80.778781 39.236906 L 80.778781 43.490813 M 106.020969 39.236906 L 106.020969 43.490813 " transform="matrix(1, 0, 0, -1, 7.647, 249.233)"/>
<path fill="none" stroke-width="0.19925" stroke-linecap="butt" stroke-linejoin="miter" stroke="rgb(50%, 50%, 50%)" stroke-opacity="1" stroke-miterlimit="10" d="M 53.407688 13.787688 L 57.661594 13.787688 M 53.407688 68.940031 L 57.661594 68.940031 " transform="matrix(1, 0, 0, -1, 7.647, 249.233)"/>
<path fill="none" stroke-width="0.3985" stroke-linecap="butt" stroke-linejoin="miter" stroke="rgb(0%, 0%, 0%)" stroke-opacity="1" stroke-miterlimit="10" d="M 0.0014375 41.365813 L 109.075656 41.365813 " transform="matrix(1, 0, 0, -1, 7.647, 249.233)"/>
<path fill-rule="nonzero" fill="rgb(0%, 0%, 0%)" fill-opacity="1" d="M 118.714844 207.867188 L 115.527344 206.273438 L 116.722656 207.867188 L 115.527344 209.460938 "/>
<path fill="none" stroke-width="0.3985" stroke-linecap="butt" stroke-linejoin="miter" stroke="rgb(0%, 0%, 0%)" stroke-opacity="1" stroke-miterlimit="10" d="M 55.532688 -0.001375 L 55.532688 80.736906 " transform="matrix(1, 0, 0, -1, 7.647, 249.233)"/>
<path fill-rule="nonzero" fill="rgb(0%, 0%, 0%)" fill-opacity="1" d="M 63.179688 166.503906 L 61.585938 169.691406 L 63.179688 168.496094 L 64.773438 169.691406 "/>
<g fill="rgb(0%, 0%, 0%)" fill-opacity="1">
<use xlink:href="#glyph-0-0" x="8.302" y="216.836"/>
</g>
<g fill="rgb(0%, 0%, 0%)" fill-opacity="1">
<use xlink:href="#glyph-1-0" x="13.698242" y="216.836"/>
</g>
<g fill="rgb(0%, 0%, 0%)" fill-opacity="1">
<use xlink:href="#glyph-0-0" x="33.544" y="216.836"/>
</g>
<g fill="rgb(0%, 0%, 0%)" fill-opacity="1">
<use xlink:href="#glyph-1-1" x="38.940242" y="216.836"/>
</g>
<g fill="rgb(0%, 0%, 0%)" fill-opacity="1">
<use xlink:href="#glyph-1-1" x="86.728" y="216.725"/>
</g>
<g fill="rgb(0%, 0%, 0%)" fill-opacity="1">
<use xlink:href="#glyph-1-0" x="111.97" y="216.725"/>
</g>
<g fill="rgb(0%, 0%, 0%)" fill-opacity="1">
<use xlink:href="#glyph-0-0" x="48.748" y="236.691"/>
</g>
<g fill="rgb(0%, 0%, 0%)" fill-opacity="1">
<use xlink:href="#glyph-1-1" x="54.144242" y="236.691"/>
</g>
<g fill="rgb(0%, 0%, 0%)" fill-opacity="1">
<use xlink:href="#glyph-1-1" x="54.144" y="181.898"/>
</g>
<g clip-path="url(#clip-6)">
<path fill="none" stroke-width="0.79701" stroke-linecap="butt" stroke-linejoin="miter" stroke="rgb(35.68573%, 64.312744%, 64.312744%)" stroke-opacity="1" stroke-miterlimit="10" d="M 5.048312 6.623625 L 6.07175 6.861906 L 7.099094 7.100188 L 8.122531 7.342375 L 9.149875 7.588469 L 10.173312 7.842375 L 11.200656 8.096281 L 12.224094 8.354094 L 13.251437 8.615813 L 14.274875 8.881438 L 15.298312 9.154875 L 16.325656 9.428313 L 17.349094 9.709563 L 18.376438 9.994719 L 19.399875 10.287688 L 20.427219 10.584563 L 21.450656 10.885344 L 22.474094 11.193938 L 23.501438 11.510344 L 24.524875 11.830656 L 25.552219 12.158781 L 26.575656 12.498625 L 27.603 12.842375 L 28.626438 13.193938 L 29.653781 13.557219 L 30.677219 13.924406 L 31.700656 14.307219 L 32.728 14.70175 L 33.751438 15.104094 L 34.778781 15.525969 L 35.802219 15.959563 L 36.829563 16.404875 L 37.853 16.869719 L 38.876438 17.354094 L 39.903781 17.854094 L 40.927219 18.381438 L 41.954563 18.932219 L 42.978 19.510344 L 44.005344 20.123625 L 45.028781 20.772063 L 46.052219 21.467375 L 47.079563 22.209563 L 48.103 23.018156 L 49.130344 23.900969 L 50.153781 24.88925 L 51.181125 26.010344 L 52.204563 27.32675 L 53.231906 28.947844 L 54.255344 31.158781 L 55.278781 35.412688 " transform="matrix(1, 0, 0, -1, 7.647, 249.233)"/>
</g>
<g clip-path="url(#clip-7)">
<path fill="none" stroke-width="0.79701" stroke-linecap="butt" stroke-linejoin="miter" stroke="rgb(35.68573%, 64.312744%, 64.312744%)" stroke-opacity="1" stroke-miterlimit="10" d="M 55.786594 47.307219 L 56.810031 51.568938 L 57.837375 53.779875 L 58.860813 55.400969 L 59.888156 56.717375 L 60.911594 57.838469 L 61.938938 58.822844 L 62.962375 59.709563 L 63.989719 60.518156 L 65.013156 61.26425 L 66.036594 61.955656 L 67.063937 62.608 L 68.087375 63.217375 L 69.114719 63.799406 L 70.138156 64.346281 L 71.1655 64.873625 L 72.188937 65.373625 L 73.212375 65.858 L 74.239719 66.322844 L 75.263156 66.772063 L 76.2905 67.205656 L 77.313937 67.623625 L 78.341281 68.029875 L 79.364719 68.4205 L 80.388156 68.803313 L 81.4155 69.1705 L 82.438937 69.533781 L 83.466281 69.885344 L 84.489719 70.233 L 85.517062 70.568938 L 86.5405 70.897063 L 87.567844 71.217375 L 88.591281 71.533781 L 89.614719 71.842375 L 90.642062 72.147063 L 91.6655 72.440031 L 92.692844 72.733 L 93.716281 73.018156 L 94.743625 73.299406 L 95.767062 73.57675 L 96.7905 73.846281 L 97.817844 74.111906 L 98.841281 74.373625 L 99.868625 74.635344 L 100.892062 74.88925 L 101.919406 75.13925 L 102.942844 75.385344 L 103.970187 75.627531 L 104.993625 75.869719 L 106.017062 76.104094 " transform="matrix(1, 0, 0, -1, 7.647, 249.233)"/>
</g>
<path fill="none" stroke-width="0.79701" stroke-linecap="butt" stroke-linejoin="miter" stroke="rgb(64.99939%, 64.99939%, 64.99939%)" stroke-opacity="1" stroke-dasharray="2.98883 2.98883" stroke-miterlimit="10" d="M 55.532688 5.51425 L 55.532688 77.213469 " transform="matrix(1, 0, 0, -1, 7.647, 249.233)"/>
<g fill="rgb(35.68573%, 64.312744%, 64.312744%)" fill-opacity="1">
<use xlink:href="#glyph-2-0" x="91.943" y="180.423"/>
</g>
<g fill="rgb(35.68573%, 64.312744%, 64.312744%)" fill-opacity="1">
<use xlink:href="#glyph-3-0" x="98.767" y="180.423"/>
</g>
<g fill="rgb(35.68573%, 64.312744%, 64.312744%)" fill-opacity="1">
<use xlink:href="#glyph-1-2" x="110.058" y="177.665"/>
</g>
<g fill="rgb(35.68573%, 64.312744%, 64.312744%)" fill-opacity="1">
<use xlink:href="#glyph-4-1" x="108.743" y="174.677"/>
</g>
<g clip-path="url(#clip-8)">
<path fill="none" stroke-width="0.359" stroke-linecap="butt" stroke-linejoin="miter" stroke="rgb(35.68573%, 64.312744%, 64.312744%)" stroke-opacity="1" stroke-miterlimit="10" d="M 0.00078125 0.00190625 L 4.766406 0.00190625 " transform="matrix(1, 0, 0, -1, 115.8, 174.498)"/>
</g>
<g clip-path="url(#clip-9)">
<g fill="rgb(35.68573%, 64.312744%, 64.312744%)" fill-opacity="1">
<use xlink:href="#glyph-2-1" x="115.8" y="180.423"/>
</g>
</g>
<path fill-rule="nonzero" fill="rgb(97.645569%, 45.095825%, 8.625793%)" fill-opacity="1" stroke-width="0.3985" stroke-linecap="butt" stroke-linejoin="miter" stroke="rgb(97.645569%, 45.095825%, 8.625793%)" stroke-opacity="1" stroke-miterlimit="10" d="M 57.528781 41.365813 C 57.528781 42.463469 56.63425 43.358 55.532688 43.358 C 54.435031 43.358 53.5405 42.463469 53.5405 41.365813 C 53.5405 40.26425 54.435031 39.373625 55.532688 39.373625 C 56.63425 39.373625 57.528781 40.26425 57.528781 41.365813 Z M 57.528781 41.365813 " transform="matrix(1, 0, 0, -1, 7.647, 249.233)"/>
<g fill="rgb(0%, 0%, 0%)" fill-opacity="1">
<use xlink:href="#glyph-2-1" x="122.234" y="209.585"/>
</g>
<g fill="rgb(0%, 0%, 0%)" fill-opacity="1">
<use xlink:href="#glyph-2-0" x="60.944" y="161.436"/>
</g>
<g fill="rgb(0%, 0%, 0%)" fill-opacity="1">
<use xlink:href="#glyph-5-0" x="16.305" y="156.759"/>
<use xlink:href="#glyph-5-12" x="20.431337" y="156.759"/>
<use xlink:href="#glyph-5-2" x="25.146767" y="156.759"/>
</g>
<g fill="rgb(0%, 0%, 0%)" fill-opacity="1">
<use xlink:href="#glyph-5-13" x="32.805866" y="156.759"/>
</g>
<g fill="rgb(0%, 0%, 0%)" fill-opacity="1">
<use xlink:href="#glyph-5-7" x="39.933257" y="156.759"/>
<use xlink:href="#glyph-5-5" x="44.802012" y="156.759"/>
<use xlink:href="#glyph-5-14" x="49.178512" y="156.759"/>
<use xlink:href="#glyph-5-15" x="53.30485" y="156.759"/>
<use xlink:href="#glyph-5-12" x="56.252105" y="156.759"/>
<use xlink:href="#glyph-5-1" x="60.967535" y="156.759"/>
<use xlink:href="#glyph-5-16" x="66.125008" y="156.759"/>
</g>
<g fill="rgb(0%, 0%, 0%)" fill-opacity="1">
<use xlink:href="#glyph-5-17" x="72.605026" y="156.759"/>
</g>
<g fill="rgb(0%, 0%, 0%)" fill-opacity="1">
<use xlink:href="#glyph-5-1" x="79.106562" y="156.759"/>
<use xlink:href="#glyph-5-6" x="84.264036" y="156.759"/>
<use xlink:href="#glyph-5-18" x="90.158547" y="156.759"/>
<use xlink:href="#glyph-5-7" x="95.463966" y="156.759"/>
<use xlink:href="#glyph-5-6" x="100.332721" y="156.759"/>
</g>
<g fill="rgb(0%, 0%, 0%)" fill-opacity="1">
<use xlink:href="#glyph-5-14" x="105.931341" y="156.759"/>
</g>
<path fill="none" stroke-width="0.19925" stroke-linecap="butt" stroke-linejoin="miter" stroke="rgb(50%, 50%, 50%)" stroke-opacity="1" stroke-miterlimit="10" d="M 5.048438 15.858 L 5.048438 20.111906 M 30.290625 15.858 L 30.290625 20.111906 M 80.778906 15.858 L 80.778906 20.111906 M 106.021094 15.858 L 106.021094 20.111906 " transform="matrix(1, 0, 0, -1, 177.725, 249.233)"/>
<path fill="none" stroke-width="0.19925" stroke-linecap="butt" stroke-linejoin="miter" stroke="rgb(50%, 50%, 50%)" stroke-opacity="1" stroke-miterlimit="10" d="M 53.407813 53.955656 L 57.661719 53.955656 " transform="matrix(1, 0, 0, -1, 177.725, 249.233)"/>
<path fill="none" stroke-width="0.3985" stroke-linecap="butt" stroke-linejoin="miter" stroke="rgb(0%, 0%, 0%)" stroke-opacity="1" stroke-miterlimit="10" d="M 0.0015625 17.983 L 109.075781 17.983 " transform="matrix(1, 0, 0, -1, 177.725, 249.233)"/>
<path fill-rule="nonzero" fill="rgb(0%, 0%, 0%)" fill-opacity="1" d="M 288.792969 231.25 L 285.605469 229.652344 L 286.800781 231.25 L 285.605469 232.84375 "/>
<path fill="none" stroke-width="0.3985" stroke-linecap="butt" stroke-linejoin="miter" stroke="rgb(0%, 0%, 0%)" stroke-opacity="1" stroke-miterlimit="10" d="M 55.532813 -0.001375 L 55.532813 80.736906 " transform="matrix(1, 0, 0, -1, 177.725, 249.233)"/>
<path fill-rule="nonzero" fill="rgb(0%, 0%, 0%)" fill-opacity="1" d="M 233.257812 166.503906 L 231.664062 169.691406 L 233.257812 168.496094 L 234.851562 169.691406 "/>
<g fill="rgb(0%, 0%, 0%)" fill-opacity="1">
<use xlink:href="#glyph-0-0" x="178.381" y="240.216"/>
</g>
<g fill="rgb(0%, 0%, 0%)" fill-opacity="1">
<use xlink:href="#glyph-1-0" x="183.777242" y="240.216"/>
</g>
<g fill="rgb(0%, 0%, 0%)" fill-opacity="1">
<use xlink:href="#glyph-0-0" x="203.623" y="240.216"/>
</g>
<g fill="rgb(0%, 0%, 0%)" fill-opacity="1">
<use xlink:href="#glyph-1-1" x="209.019242" y="240.216"/>
</g>
<g fill="rgb(0%, 0%, 0%)" fill-opacity="1">
<use xlink:href="#glyph-1-1" x="256.806" y="240.105"/>
</g>
<g fill="rgb(0%, 0%, 0%)" fill-opacity="1">
<use xlink:href="#glyph-1-0" x="282.049" y="240.105"/>
</g>
<g fill="rgb(0%, 0%, 0%)" fill-opacity="1">
<use xlink:href="#glyph-1-1" x="224.223" y="196.885"/>
</g>
<path fill="none" stroke-width="0.79701" stroke-linecap="butt" stroke-linejoin="miter" stroke="rgb(35.68573%, 64.312744%, 64.312744%)" stroke-opacity="1" stroke-miterlimit="10" d="M 5.048438 17.983 L 55.532813 17.983 " transform="matrix(1, 0, 0, -1, 177.725, 249.233)"/>
<path fill="none" stroke-width="0.79701" stroke-linecap="butt" stroke-linejoin="miter" stroke="rgb(35.68573%, 64.312744%, 64.312744%)" stroke-opacity="1" stroke-miterlimit="10" d="M 55.532813 53.955656 L 106.021094 53.955656 " transform="matrix(1, 0, 0, -1, 177.725, 249.233)"/>
<g fill="rgb(35.68573%, 64.312744%, 64.312744%)" fill-opacity="1">
<use xlink:href="#glyph-2-0" x="249.4" y="182.885"/>
</g>
<g fill="rgb(35.68573%, 64.312744%, 64.312744%)" fill-opacity="1">
<use xlink:href="#glyph-3-0" x="256.224" y="182.885"/>
</g>
<g fill="rgb(35.68573%, 64.312744%, 64.312744%)" fill-opacity="1">
<use xlink:href="#glyph-2-2" x="265.16167" y="182.885"/>
</g>
<g fill="rgb(35.68573%, 64.312744%, 64.312744%)" fill-opacity="1">
<use xlink:href="#glyph-3-1" x="272.731671" y="182.885"/>
</g>
<g fill="rgb(35.68573%, 64.312744%, 64.312744%)" fill-opacity="1">
<use xlink:href="#glyph-2-1" x="276.024916" y="182.885"/>
</g>
<g fill="rgb(35.68573%, 64.312744%, 64.312744%)" fill-opacity="1">
<use xlink:href="#glyph-3-2" x="280.791833" y="182.885"/>
</g>
<path fill-rule="nonzero" fill="rgb(100%, 100%, 100%)" fill-opacity="1" stroke-width="0.3985" stroke-linecap="butt" stroke-linejoin="miter" stroke="rgb(100%, 100%, 100%)" stroke-opacity="1" stroke-miterlimit="10" d="M 58.025 17.983 C 58.025 19.361906 56.911719 20.475188 55.532813 20.475188 C 54.157813 20.475188 53.044531 19.361906 53.044531 17.983 C 53.044531 16.608 54.157813 15.494719 55.532813 15.494719 C 56.911719 15.494719 58.025 16.608 58.025 17.983 Z M 58.025 17.983 " transform="matrix(1, 0, 0, -1, 177.725, 249.233)"/>
<path fill="none" stroke-width="0.79701" stroke-linecap="butt" stroke-linejoin="miter" stroke="rgb(35.68573%, 64.312744%, 64.312744%)" stroke-opacity="1" stroke-miterlimit="10" d="M 58.025 17.983 C 58.025 19.361906 56.911719 20.475188 55.532813 20.475188 C 54.157813 20.475188 53.044531 19.361906 53.044531 17.983 C 53.044531 16.608 54.157813 15.494719 55.532813 15.494719 C 56.911719 15.494719 58.025 16.608 58.025 17.983 Z M 58.025 17.983 " transform="matrix(1, 0, 0, -1, 177.725, 249.233)"/>
<path fill-rule="nonzero" fill="rgb(97.645569%, 45.095825%, 8.625793%)" fill-opacity="1" stroke-width="0.3985" stroke-linecap="butt" stroke-linejoin="miter" stroke="rgb(97.645569%, 45.095825%, 8.625793%)" stroke-opacity="1" stroke-miterlimit="10" d="M 58.025 53.955656 C 58.025 55.330656 56.911719 56.443938 55.532813 56.443938 C 54.157813 56.443938 53.044531 55.330656 53.044531 53.955656 C 53.044531 52.57675 54.157813 51.463469 55.532813 51.463469 C 56.911719 51.463469 58.025 52.57675 58.025 53.955656 Z M 58.025 53.955656 " transform="matrix(1, 0, 0, -1, 177.725, 249.233)"/>
<g fill="rgb(0%, 0%, 0%)" fill-opacity="1">
<use xlink:href="#glyph-2-1" x="292.312" y="232.965"/>
</g>
<g fill="rgb(0%, 0%, 0%)" fill-opacity="1">
<use xlink:href="#glyph-2-0" x="231.023" y="161.435"/>
</g>
<g fill="rgb(0%, 0%, 0%)" fill-opacity="1">
<use xlink:href="#glyph-5-0" x="193.43" y="156.758"/>
<use xlink:href="#glyph-5-19" x="197.556337" y="156.758"/>
<use xlink:href="#glyph-5-2" x="203.450849" y="156.758"/>
</g>
<g fill="rgb(0%, 0%, 0%)" fill-opacity="1">
<use xlink:href="#glyph-5-20" x="211.109948" y="156.758"/>
<use xlink:href="#glyph-5-15" x="219.238886" y="156.758"/>
<use xlink:href="#glyph-5-10" x="222.186141" y="156.758"/>
<use xlink:href="#glyph-5-12" x="226.371657" y="156.758"/>
<use xlink:href="#glyph-5-4" x="231.087087" y="156.758"/>
<use xlink:href="#glyph-5-6" x="236.392506" y="156.758"/>
</g>
<g fill="rgb(0%, 0%, 0%)" fill-opacity="1">
<use xlink:href="#glyph-5-14" x="241.991126" y="156.758"/>
<use xlink:href="#glyph-5-15" x="246.117463" y="156.758"/>
<use xlink:href="#glyph-5-6" x="249.064719" y="156.758"/>
</g>
<g fill="rgb(0%, 0%, 0%)" fill-opacity="1">
<use xlink:href="#glyph-5-9" x="254.672305" y="156.758"/>
<use xlink:href="#glyph-5-15" x="260.566817" y="156.758"/>
<use xlink:href="#glyph-5-14" x="263.514072" y="156.758"/>
</g>
<g fill="rgb(0%, 0%, 0%)" fill-opacity="1">
<use xlink:href="#glyph-5-21" x="267.344518" y="156.758"/>
</g>
</svg>
