<?xml version="1.0" encoding="UTF-8"?>
<svg xmlns="http://www.w3.org/2000/svg" xmlns:xlink="http://www.w3.org/1999/xlink" width="177.953pt" height="166.759pt" viewBox="0 0 177.953 166.759">
<defs>
<g>
<g id="glyph-0-0">
<path d="M 3.328125 -3.015625 C 3.390625 -3.265625 3.625 -4.1875 4.3125 -4.1875 C 4.359375 -4.1875 4.609375 -4.1875 4.8125 -4.0625 C 4.53125 -4 4.34375 -3.765625 4.34375 -3.515625 C 4.34375 -3.359375 4.453125 -3.171875 4.71875 -3.171875 C 4.9375 -3.171875 5.25 -3.34375 5.25 -3.75 C 5.25 -4.265625 4.671875 -4.40625 4.328125 -4.40625 C 3.75 -4.40625 3.40625 -3.875 3.28125 -3.65625 C 3.03125 -4.3125 2.5 -4.40625 2.203125 -4.40625 C 1.171875 -4.40625 0.59375 -3.125 0.59375 -2.875 C 0.59375 -2.765625 0.703125 -2.765625 0.71875 -2.765625 C 0.796875 -2.765625 0.828125 -2.796875 0.84375 -2.875 C 1.1875 -3.9375 1.84375 -4.1875 2.1875 -4.1875 C 2.375 -4.1875 2.71875 -4.09375 2.71875 -3.515625 C 2.71875 -3.203125 2.546875 -2.546875 2.1875 -1.140625 C 2.03125 -0.53125 1.671875 -0.109375 1.234375 -0.109375 C 1.171875 -0.109375 0.953125 -0.109375 0.734375 -0.234375 C 0.984375 -0.296875 1.203125 -0.5 1.203125 -0.78125 C 1.203125 -1.046875 0.984375 -1.125 0.84375 -1.125 C 0.53125 -1.125 0.296875 -0.875 0.296875 -0.546875 C 0.296875 -0.09375 0.78125 0.109375 1.21875 0.109375 C 1.890625 0.109375 2.25 -0.59375 2.265625 -0.640625 C 2.390625 -0.28125 2.75 0.109375 3.34375 0.109375 C 4.375 0.109375 4.9375 -1.171875 4.9375 -1.421875 C 4.9375 -1.53125 4.859375 -1.53125 4.828125 -1.53125 C 4.734375 -1.53125 4.71875 -1.484375 4.6875 -1.421875 C 4.359375 -0.34375 3.6875 -0.109375 3.375 -0.109375 C 2.984375 -0.109375 2.828125 -0.421875 2.828125 -0.765625 C 2.828125 -0.984375 2.875 -1.203125 2.984375 -1.640625 Z M 3.328125 -3.015625 "/>
</g>
<g id="glyph-0-1">
<path d="M 4.84375 -3.796875 C 4.890625 -3.9375 4.890625 -3.953125 4.890625 -4.03125 C 4.890625 -4.203125 4.75 -4.296875 4.59375 -4.296875 C 4.5 -4.296875 4.34375 -4.234375 4.25 -4.09375 C 4.234375 -4.03125 4.140625 -3.734375 4.109375 -3.546875 C 4.03125 -3.296875 3.96875 -3.015625 3.90625 -2.75 L 3.453125 -0.953125 C 3.421875 -0.8125 2.984375 -0.109375 2.328125 -0.109375 C 1.828125 -0.109375 1.71875 -0.546875 1.71875 -0.921875 C 1.71875 -1.375 1.890625 -2 2.21875 -2.875 C 2.375 -3.28125 2.421875 -3.390625 2.421875 -3.59375 C 2.421875 -4.03125 2.109375 -4.40625 1.609375 -4.40625 C 0.65625 -4.40625 0.296875 -2.953125 0.296875 -2.875 C 0.296875 -2.765625 0.390625 -2.765625 0.40625 -2.765625 C 0.515625 -2.765625 0.515625 -2.796875 0.5625 -2.953125 C 0.84375 -3.890625 1.234375 -4.1875 1.578125 -4.1875 C 1.65625 -4.1875 1.828125 -4.1875 1.828125 -3.875 C 1.828125 -3.625 1.71875 -3.359375 1.65625 -3.171875 C 1.25 -2.109375 1.078125 -1.546875 1.078125 -1.078125 C 1.078125 -0.1875 1.703125 0.109375 2.296875 0.109375 C 2.6875 0.109375 3.015625 -0.0625 3.296875 -0.34375 C 3.171875 0.171875 3.046875 0.671875 2.65625 1.203125 C 2.390625 1.53125 2.015625 1.828125 1.5625 1.828125 C 1.421875 1.828125 0.96875 1.796875 0.796875 1.40625 C 0.953125 1.40625 1.09375 1.40625 1.21875 1.28125 C 1.328125 1.203125 1.421875 1.0625 1.421875 0.875 C 1.421875 0.5625 1.15625 0.53125 1.0625 0.53125 C 0.828125 0.53125 0.5 0.6875 0.5 1.171875 C 0.5 1.671875 0.9375 2.046875 1.5625 2.046875 C 2.578125 2.046875 3.609375 1.140625 3.890625 0.015625 Z M 4.84375 -3.796875 "/>
</g>
<g id="glyph-1-0">
<path d="M 1.765625 -6.921875 L 0.328125 -6.8125 L 0.328125 -6.5 C 1.03125 -6.5 1.109375 -6.4375 1.109375 -5.9375 L 1.109375 -0.75 C 1.109375 -0.3125 1 -0.3125 0.328125 -0.3125 L 0.328125 0 C 0.65625 -0.015625 1.1875 -0.03125 1.4375 -0.03125 C 1.6875 -0.03125 2.171875 -0.015625 2.546875 0 L 2.546875 -0.3125 C 1.875 -0.3125 1.765625 -0.3125 1.765625 -0.75 Z M 1.765625 -6.921875 "/>
</g>
<g id="glyph-1-1">
<path d="M 4.6875 -2.140625 C 4.6875 -3.40625 3.703125 -4.46875 2.5 -4.46875 C 1.25 -4.46875 0.28125 -3.375 0.28125 -2.140625 C 0.28125 -0.84375 1.3125 0.109375 2.484375 0.109375 C 3.6875 0.109375 4.6875 -0.875 4.6875 -2.140625 Z M 2.5 -0.140625 C 2.0625 -0.140625 1.625 -0.34375 1.359375 -0.8125 C 1.109375 -1.25 1.109375 -1.859375 1.109375 -2.21875 C 1.109375 -2.609375 1.109375 -3.140625 1.34375 -3.578125 C 1.609375 -4.03125 2.078125 -4.25 2.484375 -4.25 C 2.921875 -4.25 3.34375 -4.03125 3.609375 -3.59375 C 3.875 -3.171875 3.875 -2.59375 3.875 -2.21875 C 3.875 -1.859375 3.875 -1.3125 3.65625 -0.875 C 3.421875 -0.421875 2.984375 -0.140625 2.5 -0.140625 Z M 2.5 -0.140625 "/>
</g>
<g id="glyph-1-2">
<path d="M 2.21875 -1.71875 C 1.34375 -1.71875 1.34375 -2.71875 1.34375 -2.9375 C 1.34375 -3.203125 1.359375 -3.53125 1.5 -3.78125 C 1.578125 -3.890625 1.8125 -4.171875 2.21875 -4.171875 C 3.078125 -4.171875 3.078125 -3.1875 3.078125 -2.953125 C 3.078125 -2.6875 3.078125 -2.359375 2.921875 -2.109375 C 2.84375 -2 2.609375 -1.71875 2.21875 -1.71875 Z M 1.0625 -1.328125 C 1.0625 -1.359375 1.0625 -1.59375 1.21875 -1.796875 C 1.609375 -1.515625 2.03125 -1.484375 2.21875 -1.484375 C 3.140625 -1.484375 3.828125 -2.171875 3.828125 -2.9375 C 3.828125 -3.3125 3.671875 -3.671875 3.421875 -3.90625 C 3.78125 -4.25 4.140625 -4.296875 4.3125 -4.296875 C 4.34375 -4.296875 4.390625 -4.296875 4.421875 -4.28125 C 4.3125 -4.25 4.25 -4.140625 4.25 -4.015625 C 4.25 -3.84375 4.390625 -3.734375 4.546875 -3.734375 C 4.640625 -3.734375 4.828125 -3.796875 4.828125 -4.03125 C 4.828125 -4.203125 4.71875 -4.515625 4.328125 -4.515625 C 4.125 -4.515625 3.6875 -4.453125 3.265625 -4.046875 C 2.84375 -4.375 2.4375 -4.40625 2.21875 -4.40625 C 1.28125 -4.40625 0.59375 -3.71875 0.59375 -2.953125 C 0.59375 -2.515625 0.8125 -2.140625 1.0625 -1.921875 C 0.9375 -1.78125 0.75 -1.453125 0.75 -1.09375 C 0.75 -0.78125 0.890625 -0.40625 1.203125 -0.203125 C 0.59375 -0.046875 0.28125 0.390625 0.28125 0.78125 C 0.28125 1.5 1.265625 2.046875 2.484375 2.046875 C 3.65625 2.046875 4.6875 1.546875 4.6875 0.765625 C 4.6875 0.421875 4.5625 -0.09375 4.046875 -0.375 C 3.515625 -0.640625 2.9375 -0.640625 2.328125 -0.640625 C 2.078125 -0.640625 1.65625 -0.640625 1.578125 -0.65625 C 1.265625 -0.703125 1.0625 -1 1.0625 -1.328125 Z M 2.5 1.828125 C 1.484375 1.828125 0.796875 1.3125 0.796875 0.78125 C 0.796875 0.328125 1.171875 -0.046875 1.609375 -0.0625 L 2.203125 -0.0625 C 3.0625 -0.0625 4.171875 -0.0625 4.171875 0.78125 C 4.171875 1.328125 3.46875 1.828125 2.5 1.828125 Z M 2.5 1.828125 "/>
</g>
<g id="glyph-1-3">
<path d="M 1.09375 -3.421875 L 1.09375 -0.75 C 1.09375 -0.3125 0.984375 -0.3125 0.3125 -0.3125 L 0.3125 0 C 0.671875 -0.015625 1.171875 -0.03125 1.453125 -0.03125 C 1.703125 -0.03125 2.21875 -0.015625 2.5625 0 L 2.5625 -0.3125 C 1.890625 -0.3125 1.78125 -0.3125 1.78125 -0.75 L 1.78125 -2.59375 C 1.78125 -3.625 2.5 -4.1875 3.125 -4.1875 C 3.765625 -4.1875 3.875 -3.65625 3.875 -3.078125 L 3.875 -0.75 C 3.875 -0.3125 3.765625 -0.3125 3.09375 -0.3125 L 3.09375 0 C 3.4375 -0.015625 3.953125 -0.03125 4.21875 -0.03125 C 4.46875 -0.03125 5 -0.015625 5.328125 0 L 5.328125 -0.3125 C 4.8125 -0.3125 4.5625 -0.3125 4.5625 -0.609375 L 4.5625 -2.515625 C 4.5625 -3.375 4.5625 -3.671875 4.25 -4.03125 C 4.109375 -4.203125 3.78125 -4.40625 3.203125 -4.40625 C 2.46875 -4.40625 2 -3.984375 1.71875 -3.359375 L 1.71875 -4.40625 L 0.3125 -4.296875 L 0.3125 -3.984375 C 1.015625 -3.984375 1.09375 -3.921875 1.09375 -3.421875 Z M 1.09375 -3.421875 "/>
</g>
<g id="glyph-1-4">
<path d="M 2.9375 -6.375 C 2.9375 -6.625 2.9375 -6.640625 2.703125 -6.640625 C 2.078125 -6 1.203125 -6 0.890625 -6 L 0.890625 -5.6875 C 1.09375 -5.6875 1.671875 -5.6875 2.1875 -5.953125 L 2.1875 -0.78125 C 2.1875 -0.421875 2.15625 -0.3125 1.265625 -0.3125 L 0.953125 -0.3125 L 0.953125 0 C 1.296875 -0.03125 2.15625 -0.03125 2.5625 -0.03125 C 2.953125 -0.03125 3.828125 -0.03125 4.171875 0 L 4.171875 -0.3125 L 3.859375 -0.3125 C 2.953125 -0.3125 2.9375 -0.421875 2.9375 -0.78125 Z M 2.9375 -6.375 "/>
</g>
<g id="glyph-2-0">
<path d="M 3.515625 -1.265625 L 3.28125 -1.265625 C 3.265625 -1.109375 3.1875 -0.703125 3.09375 -0.640625 C 3.046875 -0.59375 2.515625 -0.59375 2.40625 -0.59375 L 1.125 -0.59375 C 1.859375 -1.234375 2.109375 -1.4375 2.515625 -1.765625 C 3.03125 -2.171875 3.515625 -2.609375 3.515625 -3.265625 C 3.515625 -4.109375 2.78125 -4.625 1.890625 -4.625 C 1.03125 -4.625 0.4375 -4.015625 0.4375 -3.375 C 0.4375 -3.03125 0.734375 -2.984375 0.8125 -2.984375 C 0.96875 -2.984375 1.171875 -3.109375 1.171875 -3.359375 C 1.171875 -3.484375 1.125 -3.734375 0.765625 -3.734375 C 0.984375 -4.21875 1.453125 -4.375 1.78125 -4.375 C 2.484375 -4.375 2.84375 -3.828125 2.84375 -3.265625 C 2.84375 -2.65625 2.40625 -2.1875 2.1875 -1.9375 L 0.515625 -0.265625 C 0.4375 -0.203125 0.4375 -0.1875 0.4375 0 L 3.3125 0 Z M 3.515625 -1.265625 "/>
</g>
</g>
<clipPath id="clip-0">
<path clip-rule="nonzero" d="M 7 19 L 153 19 L 153 166.757812 L 7 166.757812 Z M 7 19 "/>
</clipPath>
</defs>
<path fill="none" stroke-width="0.3985" stroke-linecap="butt" stroke-linejoin="miter" stroke="rgb(0%, 0%, 0%)" stroke-opacity="1" stroke-miterlimit="10" d="M -11.339313 0.000875 L 135.6685 0.000875 " transform="matrix(1, 0, 0, -1, 16.519, 86.079)"/>
<path fill="none" stroke-width="0.3985" stroke-linecap="round" stroke-linejoin="round" stroke="rgb(0%, 0%, 0%)" stroke-opacity="1" stroke-miterlimit="10" d="M -2.07244 2.3915 C -1.693534 0.957906 -0.849784 0.278219 0.00177875 0.000875 C -0.849784 -0.280375 -1.693534 -0.956156 -2.07244 -2.38975 " transform="matrix(1, 0, 0, -1, 152.38494, 86.079)"/>
<g fill="rgb(0%, 0%, 0%)" fill-opacity="1">
<use xlink:href="#glyph-0-0" x="156.102" y="88.224"/>
</g>
<path fill="none" stroke-width="0.3985" stroke-linecap="butt" stroke-linejoin="miter" stroke="rgb(0%, 0%, 0%)" stroke-opacity="1" stroke-miterlimit="10" d="M 0.00053125 -68.034281 L 0.00053125 67.633687 " transform="matrix(1, 0, 0, -1, 16.519, 86.079)"/>
<path fill="none" stroke-width="0.3985" stroke-linecap="round" stroke-linejoin="round" stroke="rgb(0%, 0%, 0%)" stroke-opacity="1" stroke-miterlimit="10" d="M -2.070736 2.390094 C -1.69183 0.9565 -0.84808 0.280719 -0.00042375 -0.00053125 C -0.84808 -0.277875 -1.69183 -0.957562 -2.070736 -2.391156 " transform="matrix(0, -1, -1, 0, 16.519, 18.24567)"/>
<g fill="rgb(0%, 0%, 0%)" fill-opacity="1">
<use xlink:href="#glyph-0-1" x="13.898" y="12.591"/>
</g>
<g clip-path="url(#clip-0)">
<path fill="none" stroke-width="0.79701" stroke-linecap="butt" stroke-linejoin="miter" stroke="rgb(35.68573%, 64.312744%, 64.312744%)" stroke-opacity="1" stroke-miterlimit="10" d="M 2.266156 -75.299906 L 4.344281 -54.01475 L 6.4185 -41.299906 L 8.492719 -32.131938 L 10.570844 -24.979594 L 12.645062 -19.112406 L 14.719281 -14.13975 L 16.797406 -9.823344 L 18.871625 -6.010844 L 20.945844 -2.596781 L 23.023969 0.493062 L 25.098187 3.317281 L 27.172406 5.918844 L 29.250531 8.325094 L 31.32475 10.567281 L 33.398969 12.668844 L 35.477094 14.6415 L 37.551312 16.500875 L 39.625531 18.262594 L 41.703656 19.930562 L 43.777875 21.520406 L 45.852094 23.039937 L 47.930219 24.48525 L 50.004437 25.871969 L 52.078656 27.204 L 54.156781 28.481344 L 56.231 29.711812 L 58.305219 30.899312 L 60.383344 32.043844 L 62.457562 33.149312 L 64.531781 34.219625 L 66.609906 35.254781 L 68.684125 36.258687 L 70.758344 37.231344 L 72.836469 38.176656 L 74.910687 39.098531 L 76.984906 39.993062 L 79.063031 40.86025 L 81.13725 41.707906 L 83.211469 42.536031 L 85.289594 43.344625 L 87.363812 44.129781 L 89.438031 44.899312 L 91.516156 45.649312 L 93.590375 46.383687 L 95.664594 47.102437 L 97.742719 47.801656 L 99.816937 48.489156 L 101.891156 49.164937 L 103.965375 49.825094 L 106.0435 50.469625 L 108.117719 51.106344 L 110.191937 51.727437 L 112.270062 52.336812 L 114.344281 52.938375 L 116.4185 53.524312 L 118.496625 54.106344 L 120.570844 54.67275 L 122.645062 55.231344 L 124.723187 55.778219 " transform="matrix(1, 0, 0, -1, 16.519, 86.079)"/>
</g>
<g fill="rgb(35.68573%, 64.312744%, 64.312744%)" fill-opacity="1">
<use xlink:href="#glyph-1-0" x="144.959" y="32.542"/>
<use xlink:href="#glyph-1-1" x="147.72661" y="32.542"/>
<use xlink:href="#glyph-1-2" x="152.70791" y="32.542"/>
</g>
<g fill="rgb(35.68573%, 64.312744%, 64.312744%)" fill-opacity="1">
<use xlink:href="#glyph-2-0" x="157.827" y="34.977"/>
</g>
<g fill="rgb(35.68573%, 64.312744%, 64.312744%)" fill-opacity="1">
<use xlink:href="#glyph-0-0" x="163.957" y="32.542"/>
</g>
<path fill="none" stroke-width="0.79701" stroke-linecap="butt" stroke-linejoin="miter" stroke="rgb(78.823853%, 48.234558%, 51.763916%)" stroke-opacity="1" stroke-miterlimit="10" d="M 2.266156 -52.186625 L 4.344281 -37.436625 L 6.4185 -28.620219 L 8.492719 -22.268656 L 10.570844 -17.311625 L 12.645062 -13.245219 L 14.719281 -9.799906 L 16.797406 -6.807719 L 18.871625 -4.167094 L 20.945844 -1.799906 L 23.023969 0.340719 L 25.098187 2.29775 L 27.172406 4.102437 L 29.250531 5.770406 L 31.32475 7.325094 L 33.398969 8.778219 L 35.477094 10.145406 L 37.551312 11.434469 L 39.625531 12.657125 L 41.703656 13.813375 L 43.777875 14.914937 L 45.852094 15.965719 L 47.930219 16.969625 L 50.004437 17.930562 L 52.078656 18.852437 L 54.156781 19.739156 L 56.231 20.594625 L 58.305219 21.414937 L 60.383344 22.207906 L 62.457562 22.973531 L 64.531781 23.715719 L 66.609906 24.434469 L 68.684125 25.129781 L 70.758344 25.801656 L 72.836469 26.457906 L 74.910687 27.098531 L 76.984906 27.715719 L 79.063031 28.321187 L 81.13725 28.907125 L 83.211469 29.481344 L 85.289594 30.039937 L 87.363812 30.582906 L 89.438031 31.118062 L 91.516156 31.637594 L 93.590375 32.145406 L 95.664594 32.6415 L 97.742719 33.129781 L 99.816937 33.606344 L 101.891156 34.071187 L 103.965375 34.532125 L 106.0435 34.977437 L 108.117719 35.418844 L 110.191937 35.848531 L 112.270062 36.274312 L 114.344281 36.688375 L 116.4185 37.094625 L 118.496625 37.496969 L 120.570844 37.8915 L 122.645062 38.278219 L 124.723187 38.657125 " transform="matrix(1, 0, 0, -1, 16.519, 86.079)"/>
<g fill="rgb(78.823853%, 48.234558%, 51.763916%)" fill-opacity="1">
<use xlink:href="#glyph-1-0" x="144.959" y="50.881"/>
<use xlink:href="#glyph-1-3" x="147.72661" y="50.881"/>
</g>
<g fill="rgb(78.823853%, 48.234558%, 51.763916%)" fill-opacity="1">
<use xlink:href="#glyph-0-0" x="154.925585" y="50.881"/>
</g>
<path fill="none" stroke-width="0.79701" stroke-linecap="butt" stroke-linejoin="miter" stroke="rgb(75%, 0%, 25%)" stroke-opacity="1" stroke-miterlimit="10" d="M 3.402875 -18.57725 L 5.457562 -14.026469 L 7.51225 -10.878031 L 9.570844 -8.499125 L 11.625531 -6.581156 L 13.680219 -4.975688 L 15.738812 -3.596781 L 17.7935 -2.38975 L 19.852094 -1.311625 L 21.906781 -0.342875 L 23.961469 0.543844 L 26.020062 1.352437 L 28.07475 2.102437 L 30.129437 2.79775 L 32.188031 3.450094 L 34.242719 4.059469 L 36.301312 4.633687 L 38.356 5.17275 L 40.410687 5.688375 L 42.469281 6.176656 L 44.523969 6.6415 L 46.578656 7.090719 L 48.63725 7.512594 L 50.691937 7.92275 L 52.746625 8.313375 L 54.805219 8.692281 L 56.859906 9.051656 L 58.9185 9.403219 L 60.973187 9.739156 L 63.027875 10.067281 L 65.086469 10.383687 L 67.141156 10.688375 L 69.195844 10.98525 L 71.254437 11.274312 L 73.309125 11.555562 L 75.363812 11.829 L 77.422406 12.090719 L 79.477094 12.352437 L 81.535687 12.602437 L 85.645062 13.086812 L 87.703656 13.321187 L 91.813031 13.774312 L 93.871625 13.989156 L 95.926312 14.204 L 97.984906 14.411031 L 100.039594 14.618062 L 102.094281 14.817281 L 104.152875 15.012594 L 106.207562 15.207906 L 108.26225 15.395406 L 110.320844 15.579 L 112.375531 15.762594 L 114.430219 15.942281 L 116.488812 16.114156 L 118.5435 16.289937 L 120.602094 16.457906 L 122.656781 16.625875 L 124.711469 16.789937 " transform="matrix(1, 0, 0, -1, 16.519, 86.079)"/>
<g fill="rgb(75%, 0%, 25%)" fill-opacity="1">
<use xlink:href="#glyph-1-0" x="144.949" y="71.782"/>
<use xlink:href="#glyph-1-1" x="147.71661" y="71.782"/>
<use xlink:href="#glyph-1-2" x="152.69791" y="71.782"/>
</g>
<g fill="rgb(75%, 0%, 25%)" fill-opacity="1">
<use xlink:href="#glyph-0-0" x="159.482441" y="71.782"/>
</g>
<path fill-rule="nonzero" fill="rgb(0%, 0%, 0%)" fill-opacity="1" stroke-width="0.3985" stroke-linecap="butt" stroke-linejoin="miter" stroke="rgb(0%, 0%, 0%)" stroke-opacity="1" stroke-miterlimit="10" d="M 24.270062 0.000875 C 24.270062 0.879781 23.559125 1.594625 22.676312 1.594625 C 21.797406 1.594625 21.082562 0.879781 21.082562 0.000875 C 21.082562 -0.881938 21.797406 -1.592875 22.676312 -1.592875 C 23.559125 -1.592875 24.270062 -0.881938 24.270062 0.000875 Z M 24.270062 0.000875 " transform="matrix(1, 0, 0, -1, 16.519, 86.079)"/>
<g fill="rgb(0%, 0%, 0%)" fill-opacity="1">
<use xlink:href="#glyph-1-4" x="36.706" y="100.555"/>
</g>
<path fill="none" stroke-width="0.19925" stroke-linecap="butt" stroke-linejoin="miter" stroke="rgb(50%, 50%, 50%)" stroke-opacity="1" stroke-miterlimit="10" d="M 22.676312 -68.034281 L 22.676312 68.032125 " transform="matrix(1, 0, 0, -1, 16.519, 86.079)"/>
</svg>
