<?xml version="1.0" encoding="UTF-8"?>
<svg xmlns="http://www.w3.org/2000/svg" xmlns:xlink="http://www.w3.org/1999/xlink" width="280.733pt" height="170.028pt" viewBox="0 0 280.733 170.028">
<defs>
<g>
<g id="glyph-0-0">
<path d="M 2.046875 -3.984375 L 2.984375 -3.984375 C 3.1875 -3.984375 3.296875 -3.984375 3.296875 -4.1875 C 3.296875 -4.296875 3.1875 -4.296875 3.015625 -4.296875 L 2.140625 -4.296875 C 2.5 -5.71875 2.546875 -5.90625 2.546875 -5.96875 C 2.546875 -6.140625 2.421875 -6.234375 2.25 -6.234375 C 2.21875 -6.234375 1.9375 -6.234375 1.859375 -5.875 L 1.46875 -4.296875 L 0.53125 -4.296875 C 0.328125 -4.296875 0.234375 -4.296875 0.234375 -4.109375 C 0.234375 -3.984375 0.3125 -3.984375 0.515625 -3.984375 L 1.390625 -3.984375 C 0.671875 -1.15625 0.625 -0.984375 0.625 -0.8125 C 0.625 -0.265625 1 0.109375 1.546875 0.109375 C 2.5625 0.109375 3.125 -1.34375 3.125 -1.421875 C 3.125 -1.53125 3.046875 -1.53125 3.015625 -1.53125 C 2.921875 -1.53125 2.90625 -1.5 2.859375 -1.390625 C 2.4375 -0.34375 1.90625 -0.109375 1.5625 -0.109375 C 1.359375 -0.109375 1.25 -0.234375 1.25 -0.5625 C 1.25 -0.8125 1.28125 -0.875 1.3125 -1.046875 Z M 2.046875 -3.984375 "/>
</g>
<g id="glyph-0-1">
<path d="M 1.78125 -1.140625 C 1.390625 -0.484375 1 -0.34375 0.5625 -0.3125 C 0.4375 -0.296875 0.34375 -0.296875 0.34375 -0.109375 C 0.34375 -0.046875 0.40625 0 0.484375 0 C 0.75 0 1.0625 -0.03125 1.328125 -0.03125 C 1.671875 -0.03125 2.015625 0 2.328125 0 C 2.390625 0 2.515625 0 2.515625 -0.1875 C 2.515625 -0.296875 2.4375 -0.3125 2.359375 -0.3125 C 2.140625 -0.328125 1.890625 -0.40625 1.890625 -0.65625 C 1.890625 -0.78125 1.953125 -0.890625 2.03125 -1.03125 L 2.796875 -2.296875 L 5.296875 -2.296875 C 5.3125 -2.09375 5.453125 -0.734375 5.453125 -0.640625 C 5.453125 -0.34375 4.9375 -0.3125 4.734375 -0.3125 C 4.59375 -0.3125 4.5 -0.3125 4.5 -0.109375 C 4.5 0 4.609375 0 4.640625 0 C 5.046875 0 5.46875 -0.03125 5.875 -0.03125 C 6.125 -0.03125 6.765625 0 7.015625 0 C 7.0625 0 7.1875 0 7.1875 -0.203125 C 7.1875 -0.3125 7.09375 -0.3125 6.953125 -0.3125 C 6.34375 -0.3125 6.34375 -0.375 6.3125 -0.671875 L 5.703125 -6.890625 C 5.6875 -7.09375 5.6875 -7.140625 5.515625 -7.140625 C 5.359375 -7.140625 5.3125 -7.0625 5.25 -6.96875 Z M 2.984375 -2.609375 L 4.9375 -5.90625 L 5.265625 -2.609375 Z M 2.984375 -2.609375 "/>
</g>
<g id="glyph-0-2">
<path d="M 1.859375 -2.296875 C 2.15625 -2.296875 2.890625 -2.328125 3.390625 -2.53125 C 4.09375 -2.828125 4.140625 -3.421875 4.140625 -3.5625 C 4.140625 -4 3.765625 -4.40625 3.078125 -4.40625 C 1.96875 -4.40625 0.453125 -3.4375 0.453125 -1.6875 C 0.453125 -0.671875 1.046875 0.109375 2.03125 0.109375 C 3.453125 0.109375 4.28125 -0.953125 4.28125 -1.0625 C 4.28125 -1.125 4.234375 -1.203125 4.171875 -1.203125 C 4.109375 -1.203125 4.09375 -1.171875 4.03125 -1.09375 C 3.25 -0.109375 2.15625 -0.109375 2.046875 -0.109375 C 1.265625 -0.109375 1.171875 -0.953125 1.171875 -1.265625 C 1.171875 -1.390625 1.1875 -1.6875 1.328125 -2.296875 Z M 1.390625 -2.515625 C 1.78125 -4.03125 2.8125 -4.1875 3.078125 -4.1875 C 3.53125 -4.1875 3.8125 -3.890625 3.8125 -3.5625 C 3.8125 -2.515625 2.21875 -2.515625 1.796875 -2.515625 Z M 1.390625 -2.515625 "/>
</g>
<g id="glyph-1-0">
<path d="M 3.296875 2.390625 C 3.296875 2.359375 3.296875 2.34375 3.125 2.171875 C 1.890625 0.921875 1.5625 -0.96875 1.5625 -2.5 C 1.5625 -4.234375 1.9375 -5.96875 3.171875 -7.203125 C 3.296875 -7.328125 3.296875 -7.34375 3.296875 -7.375 C 3.296875 -7.453125 3.265625 -7.484375 3.203125 -7.484375 C 3.09375 -7.484375 2.203125 -6.796875 1.609375 -5.53125 C 1.109375 -4.4375 0.984375 -3.328125 0.984375 -2.5 C 0.984375 -1.71875 1.09375 -0.515625 1.640625 0.625 C 2.25 1.84375 3.09375 2.5 3.203125 2.5 C 3.265625 2.5 3.296875 2.46875 3.296875 2.390625 Z M 3.296875 2.390625 "/>
</g>
<g id="glyph-1-1">
<path d="M 4.140625 -3.34375 C 4.390625 -3.984375 4.90625 -3.984375 5.0625 -3.984375 L 5.0625 -4.296875 C 4.828125 -4.28125 4.546875 -4.265625 4.3125 -4.265625 C 4.140625 -4.265625 3.671875 -4.28125 3.453125 -4.296875 L 3.453125 -3.984375 C 3.765625 -3.984375 3.921875 -3.8125 3.921875 -3.5625 C 3.921875 -3.453125 3.90625 -3.4375 3.859375 -3.3125 L 2.84375 -0.875 L 1.75 -3.546875 C 1.703125 -3.65625 1.6875 -3.6875 1.6875 -3.734375 C 1.6875 -3.984375 2.046875 -3.984375 2.25 -3.984375 L 2.25 -4.296875 C 1.984375 -4.28125 1.328125 -4.265625 1.15625 -4.265625 C 0.890625 -4.265625 0.484375 -4.28125 0.1875 -4.296875 L 0.1875 -3.984375 C 0.671875 -3.984375 0.859375 -3.984375 1 -3.640625 L 2.5 0 C 2.4375 0.125 2.296875 0.453125 2.25 0.59375 C 2.03125 1.140625 1.75 1.828125 1.109375 1.828125 C 1.0625 1.828125 0.828125 1.828125 0.640625 1.640625 C 0.953125 1.609375 1.03125 1.390625 1.03125 1.21875 C 1.03125 0.96875 0.84375 0.8125 0.609375 0.8125 C 0.40625 0.8125 0.1875 0.9375 0.1875 1.234375 C 0.1875 1.6875 0.609375 2.046875 1.109375 2.046875 C 1.734375 2.046875 2.140625 1.46875 2.375 0.90625 Z M 4.140625 -3.34375 "/>
</g>
<g id="glyph-1-2">
<path d="M 1.109375 -2.515625 C 1.171875 -4 2.015625 -4.25 2.359375 -4.25 C 3.375 -4.25 3.484375 -2.90625 3.484375 -2.515625 Z M 1.109375 -2.296875 L 3.890625 -2.296875 C 4.109375 -2.296875 4.140625 -2.296875 4.140625 -2.515625 C 4.140625 -3.5 3.59375 -4.46875 2.359375 -4.46875 C 1.203125 -4.46875 0.28125 -3.4375 0.28125 -2.1875 C 0.28125 -0.859375 1.328125 0.109375 2.46875 0.109375 C 3.6875 0.109375 4.140625 -1 4.140625 -1.1875 C 4.140625 -1.28125 4.0625 -1.3125 4 -1.3125 C 3.921875 -1.3125 3.890625 -1.25 3.875 -1.171875 C 3.53125 -0.140625 2.625 -0.140625 2.53125 -0.140625 C 2.03125 -0.140625 1.640625 -0.4375 1.40625 -0.8125 C 1.109375 -1.28125 1.109375 -1.9375 1.109375 -2.296875 Z M 1.109375 -2.296875 "/>
</g>
<g id="glyph-1-3">
<path d="M 3.3125 -0.75 C 3.359375 -0.359375 3.625 0.0625 4.09375 0.0625 C 4.3125 0.0625 4.921875 -0.078125 4.921875 -0.890625 L 4.921875 -1.453125 L 4.671875 -1.453125 L 4.671875 -0.890625 C 4.671875 -0.3125 4.421875 -0.25 4.3125 -0.25 C 3.984375 -0.25 3.9375 -0.703125 3.9375 -0.75 L 3.9375 -2.734375 C 3.9375 -3.15625 3.9375 -3.546875 3.578125 -3.921875 C 3.1875 -4.3125 2.6875 -4.46875 2.21875 -4.46875 C 1.390625 -4.46875 0.703125 -4 0.703125 -3.34375 C 0.703125 -3.046875 0.90625 -2.875 1.171875 -2.875 C 1.453125 -2.875 1.625 -3.078125 1.625 -3.328125 C 1.625 -3.453125 1.578125 -3.78125 1.109375 -3.78125 C 1.390625 -4.140625 1.875 -4.25 2.1875 -4.25 C 2.6875 -4.25 3.25 -3.859375 3.25 -2.96875 L 3.25 -2.609375 C 2.734375 -2.578125 2.046875 -2.546875 1.421875 -2.25 C 0.671875 -1.90625 0.421875 -1.390625 0.421875 -0.953125 C 0.421875 -0.140625 1.390625 0.109375 2.015625 0.109375 C 2.671875 0.109375 3.125 -0.296875 3.3125 -0.75 Z M 3.25 -2.390625 L 3.25 -1.390625 C 3.25 -0.453125 2.53125 -0.109375 2.078125 -0.109375 C 1.59375 -0.109375 1.1875 -0.453125 1.1875 -0.953125 C 1.1875 -1.5 1.609375 -2.328125 3.25 -2.390625 Z M 3.25 -2.390625 "/>
</g>
<g id="glyph-1-4">
<path d="M 1.671875 -3.3125 L 1.671875 -4.40625 L 0.28125 -4.296875 L 0.28125 -3.984375 C 0.984375 -3.984375 1.0625 -3.921875 1.0625 -3.421875 L 1.0625 -0.75 C 1.0625 -0.3125 0.953125 -0.3125 0.28125 -0.3125 L 0.28125 0 C 0.671875 -0.015625 1.140625 -0.03125 1.421875 -0.03125 C 1.8125 -0.03125 2.28125 -0.03125 2.6875 0 L 2.6875 -0.3125 L 2.46875 -0.3125 C 1.734375 -0.3125 1.71875 -0.421875 1.71875 -0.78125 L 1.71875 -2.3125 C 1.71875 -3.296875 2.140625 -4.1875 2.890625 -4.1875 C 2.953125 -4.1875 2.984375 -4.1875 3 -4.171875 C 2.96875 -4.171875 2.765625 -4.046875 2.765625 -3.78125 C 2.765625 -3.515625 2.984375 -3.359375 3.203125 -3.359375 C 3.375 -3.359375 3.625 -3.484375 3.625 -3.796875 C 3.625 -4.109375 3.3125 -4.40625 2.890625 -4.40625 C 2.15625 -4.40625 1.796875 -3.734375 1.671875 -3.3125 Z M 1.671875 -3.3125 "/>
</g>
<g id="glyph-1-5">
<path d="M 2.078125 -1.9375 C 2.296875 -1.890625 3.109375 -1.734375 3.109375 -1.015625 C 3.109375 -0.515625 2.765625 -0.109375 1.984375 -0.109375 C 1.140625 -0.109375 0.78125 -0.671875 0.59375 -1.53125 C 0.5625 -1.65625 0.5625 -1.6875 0.453125 -1.6875 C 0.328125 -1.6875 0.328125 -1.625 0.328125 -1.453125 L 0.328125 -0.125 C 0.328125 0.046875 0.328125 0.109375 0.4375 0.109375 C 0.484375 0.109375 0.5 0.09375 0.6875 -0.09375 C 0.703125 -0.109375 0.703125 -0.125 0.890625 -0.3125 C 1.328125 0.09375 1.78125 0.109375 1.984375 0.109375 C 3.125 0.109375 3.59375 -0.5625 3.59375 -1.28125 C 3.59375 -1.796875 3.296875 -2.109375 3.171875 -2.21875 C 2.84375 -2.546875 2.453125 -2.625 2.03125 -2.703125 C 1.46875 -2.8125 0.8125 -2.9375 0.8125 -3.515625 C 0.8125 -3.875 1.0625 -4.28125 1.921875 -4.28125 C 3.015625 -4.28125 3.078125 -3.375 3.09375 -3.078125 C 3.09375 -2.984375 3.1875 -2.984375 3.203125 -2.984375 C 3.34375 -2.984375 3.34375 -3.03125 3.34375 -3.21875 L 3.34375 -4.234375 C 3.34375 -4.390625 3.34375 -4.46875 3.234375 -4.46875 C 3.1875 -4.46875 3.15625 -4.46875 3.03125 -4.34375 C 3 -4.3125 2.90625 -4.21875 2.859375 -4.1875 C 2.484375 -4.46875 2.078125 -4.46875 1.921875 -4.46875 C 0.703125 -4.46875 0.328125 -3.796875 0.328125 -3.234375 C 0.328125 -2.890625 0.484375 -2.609375 0.75 -2.390625 C 1.078125 -2.140625 1.359375 -2.078125 2.078125 -1.9375 Z M 2.078125 -1.9375 "/>
</g>
<g id="glyph-1-6">
<path d="M 2.875 -2.5 C 2.875 -3.265625 2.765625 -4.46875 2.21875 -5.609375 C 1.625 -6.828125 0.765625 -7.484375 0.671875 -7.484375 C 0.609375 -7.484375 0.5625 -7.4375 0.5625 -7.375 C 0.5625 -7.34375 0.5625 -7.328125 0.75 -7.140625 C 1.734375 -6.15625 2.296875 -4.578125 2.296875 -2.5 C 2.296875 -0.78125 1.9375 0.96875 0.703125 2.21875 C 0.5625 2.34375 0.5625 2.359375 0.5625 2.390625 C 0.5625 2.453125 0.609375 2.5 0.671875 2.5 C 0.765625 2.5 1.671875 1.8125 2.25 0.546875 C 2.765625 -0.546875 2.875 -1.65625 2.875 -2.5 Z M 2.875 -2.5 "/>
</g>
<g id="glyph-1-7">
<path d="M 6.84375 -3.265625 C 7 -3.265625 7.1875 -3.265625 7.1875 -3.453125 C 7.1875 -3.65625 7 -3.65625 6.859375 -3.65625 L 0.890625 -3.65625 C 0.75 -3.65625 0.5625 -3.65625 0.5625 -3.453125 C 0.5625 -3.265625 0.75 -3.265625 0.890625 -3.265625 Z M 6.859375 -1.328125 C 7 -1.328125 7.1875 -1.328125 7.1875 -1.53125 C 7.1875 -1.71875 7 -1.71875 6.84375 -1.71875 L 0.890625 -1.71875 C 0.75 -1.71875 0.5625 -1.71875 0.5625 -1.53125 C 0.5625 -1.328125 0.75 -1.328125 0.890625 -1.328125 Z M 6.859375 -1.328125 "/>
</g>
<g id="glyph-2-0">
<path d="M 4.25 -2.875 C 4.25 -3.46875 4.21875 -4.25 3.90625 -4.921875 C 3.5 -5.765625 2.828125 -5.96875 2.3125 -5.96875 C 1.765625 -5.96875 1.078125 -5.765625 0.6875 -4.890625 C 0.40625 -4.28125 0.359375 -3.546875 0.359375 -2.875 C 0.359375 -2.28125 0.375 -1.421875 0.765625 -0.703125 C 1.1875 0.046875 1.890625 0.203125 2.296875 0.203125 C 2.875 0.203125 3.546875 -0.046875 3.921875 -0.875 C 4.1875 -1.484375 4.25 -2.15625 4.25 -2.875 Z M 2.3125 -0.03125 C 2.03125 -0.03125 1.390625 -0.15625 1.21875 -1.171875 C 1.125 -1.6875 1.125 -2.46875 1.125 -2.984375 C 1.125 -3.59375 1.125 -4.296875 1.234375 -4.796875 C 1.421875 -5.59375 1.984375 -5.75 2.296875 -5.75 C 2.640625 -5.75 3.203125 -5.5625 3.375 -4.734375 C 3.46875 -4.25 3.46875 -3.546875 3.46875 -2.984375 C 3.46875 -2.421875 3.46875 -1.671875 3.375 -1.140625 C 3.1875 -0.109375 2.53125 -0.03125 2.3125 -0.03125 Z M 2.3125 -0.03125 "/>
</g>
<g id="glyph-2-1">
<path d="M 4.140625 -1.59375 L 3.890625 -1.59375 C 3.875 -1.46875 3.796875 -0.9375 3.6875 -0.796875 C 3.625 -0.71875 3.015625 -0.71875 2.828125 -0.71875 L 1.234375 -0.71875 L 2.125 -1.5625 C 3.59375 -2.828125 4.140625 -3.3125 4.140625 -4.21875 C 4.140625 -5.25 3.296875 -5.96875 2.1875 -5.96875 C 1.15625 -5.96875 0.453125 -5.15625 0.453125 -4.34375 C 0.453125 -3.890625 0.84375 -3.84375 0.921875 -3.84375 C 1.125 -3.84375 1.390625 -3.984375 1.390625 -4.3125 C 1.390625 -4.578125 1.203125 -4.78125 0.921875 -4.78125 C 0.875 -4.78125 0.859375 -4.78125 0.8125 -4.765625 C 1.03125 -5.40625 1.609375 -5.6875 2.09375 -5.6875 C 3 -5.6875 3.3125 -4.84375 3.3125 -4.21875 C 3.3125 -3.3125 2.625 -2.5625 2.203125 -2.09375 L 0.5625 -0.328125 C 0.453125 -0.21875 0.453125 -0.203125 0.453125 0 L 3.890625 0 Z M 4.140625 -1.59375 "/>
</g>
<g id="glyph-2-2">
<path d="M 0.9375 -3.09375 C 0.9375 -2.9375 0.9375 -2.828125 1.0625 -2.828125 C 1.125 -2.828125 1.15625 -2.875 1.203125 -2.953125 C 1.484375 -3.328125 1.90625 -3.546875 2.375 -3.546875 C 3.34375 -3.546875 3.34375 -2.15625 3.34375 -1.84375 C 3.34375 -1.5625 3.34375 -1 3.078125 -0.59375 C 2.84375 -0.21875 2.46875 -0.046875 2.109375 -0.046875 C 1.59375 -0.046875 0.984375 -0.390625 0.765625 -1.046875 C 0.78125 -1.046875 0.828125 -1.03125 0.890625 -1.03125 C 1.078125 -1.03125 1.34375 -1.140625 1.34375 -1.46875 C 1.34375 -1.75 1.140625 -1.90625 0.890625 -1.90625 C 0.703125 -1.90625 0.453125 -1.796875 0.453125 -1.4375 C 0.453125 -0.625 1.140625 0.203125 2.140625 0.203125 C 3.21875 0.203125 4.140625 -0.6875 4.140625 -1.796875 C 4.140625 -2.875 3.375 -3.765625 2.390625 -3.765625 C 1.96875 -3.765625 1.53125 -3.625 1.203125 -3.296875 L 1.203125 -5.0625 C 1.484375 -4.984375 1.765625 -4.9375 2.03125 -4.9375 C 3.140625 -4.9375 3.78125 -5.734375 3.78125 -5.859375 C 3.78125 -5.9375 3.734375 -5.96875 3.6875 -5.96875 C 3.671875 -5.96875 3.65625 -5.96875 3.5625 -5.921875 C 3.140625 -5.765625 2.734375 -5.6875 2.359375 -5.6875 C 1.96875 -5.6875 1.5625 -5.765625 1.15625 -5.921875 C 1.0625 -5.96875 1.046875 -5.96875 1.046875 -5.96875 C 0.9375 -5.96875 0.9375 -5.890625 0.9375 -5.734375 Z M 0.9375 -3.09375 "/>
</g>
<g id="glyph-2-3">
<path d="M 6.34375 -2.96875 C 6.46875 -2.96875 6.640625 -2.96875 6.640625 -3.15625 C 6.640625 -3.359375 6.453125 -3.359375 6.3125 -3.359375 L 0.84375 -3.359375 C 0.703125 -3.359375 0.515625 -3.359375 0.515625 -3.15625 C 0.515625 -2.96875 0.6875 -2.96875 0.8125 -2.96875 Z M 6.3125 -1.140625 C 6.453125 -1.140625 6.640625 -1.140625 6.640625 -1.34375 C 6.640625 -1.53125 6.46875 -1.53125 6.34375 -1.53125 L 0.8125 -1.53125 C 0.6875 -1.53125 0.515625 -1.53125 0.515625 -1.34375 C 0.515625 -1.140625 0.703125 -1.140625 0.84375 -1.140625 Z M 6.3125 -1.140625 "/>
</g>
<g id="glyph-2-4">
<path d="M 2.03125 -3.75 C 1.3125 -3.921875 1.078125 -4.5 1.078125 -4.890625 C 1.078125 -5.5 1.5625 -6.078125 2.328125 -6.078125 C 3.484375 -6.078125 3.953125 -5.203125 4.078125 -4.3125 C 4.09375 -4.140625 4.109375 -4.09375 4.21875 -4.09375 C 4.34375 -4.09375 4.34375 -4.15625 4.34375 -4.34375 L 4.34375 -6.078125 C 4.34375 -6.25 4.34375 -6.328125 4.234375 -6.328125 C 4.171875 -6.328125 4.15625 -6.3125 4.09375 -6.203125 C 3.984375 -6.046875 4.078125 -6.15625 3.78125 -5.6875 C 3.625 -5.875 3.15625 -6.328125 2.3125 -6.328125 C 1.265625 -6.328125 0.515625 -5.5 0.515625 -4.59375 C 0.515625 -3.890625 0.9375 -3.46875 0.984375 -3.421875 C 1.375 -3.015625 1.546875 -2.984375 2.609375 -2.71875 C 3.34375 -2.5625 3.421875 -2.53125 3.71875 -2.234375 C 3.71875 -2.21875 4.03125 -1.890625 4.03125 -1.359375 C 4.03125 -0.75 3.59375 -0.078125 2.765625 -0.078125 C 2.078125 -0.078125 0.828125 -0.375 0.765625 -1.84375 C 0.75 -1.984375 0.75 -2.03125 0.640625 -2.03125 C 0.515625 -2.03125 0.515625 -1.96875 0.515625 -1.78125 L 0.515625 -0.046875 C 0.515625 0.125 0.515625 0.203125 0.625 0.203125 C 0.6875 0.203125 0.6875 0.1875 0.75 0.078125 C 0.875 -0.078125 0.78125 0.03125 1.078125 -0.4375 C 1.625 0.109375 2.34375 0.203125 2.78125 0.203125 C 3.875 0.203125 4.59375 -0.703125 4.59375 -1.65625 C 4.59375 -2.171875 4.40625 -2.5625 4.203125 -2.828125 C 3.8125 -3.328125 3.40625 -3.421875 2.828125 -3.5625 Z M 2.03125 -3.75 "/>
</g>
<g id="glyph-2-5">
<path d="M 4.34375 -1.90625 C 4.34375 -3.078125 3.40625 -4.015625 2.3125 -4.015625 C 1.171875 -4.015625 0.265625 -3.0625 0.265625 -1.90625 C 0.265625 -0.796875 1.1875 0.09375 2.296875 0.09375 C 3.4375 0.09375 4.34375 -0.8125 4.34375 -1.90625 Z M 2.3125 -0.15625 C 1.859375 -0.15625 1.484375 -0.375 1.28125 -0.71875 C 1.046875 -1.109375 1.03125 -1.578125 1.03125 -1.984375 C 1.03125 -2.328125 1.03125 -2.828125 1.25 -3.203125 C 1.53125 -3.65625 1.96875 -3.796875 2.296875 -3.796875 C 2.8125 -3.796875 3.171875 -3.5 3.359375 -3.203125 C 3.5625 -2.828125 3.5625 -2.375 3.5625 -1.984375 C 3.5625 -1.65625 3.5625 -1.140625 3.34375 -0.75 C 3.09375 -0.328125 2.6875 -0.15625 2.3125 -0.15625 Z M 2.3125 -0.15625 "/>
</g>
<g id="glyph-2-6">
<path d="M 1.65625 -6.21875 L 0.328125 -6.125 L 0.328125 -5.84375 C 0.9375 -5.84375 1.015625 -5.78125 1.015625 -5.34375 L 1.015625 -0.6875 C 1.015625 -0.28125 0.921875 -0.28125 0.328125 -0.28125 L 0.328125 0 C 0.75 -0.015625 0.921875 -0.03125 1.328125 -0.03125 C 1.75 -0.03125 1.90625 -0.015625 2.34375 0 L 2.34375 -0.28125 C 1.75 -0.28125 1.65625 -0.28125 1.65625 -0.6875 Z M 1.65625 -6.21875 "/>
</g>
<g id="glyph-2-7">
<path d="M 3.546875 -1.5 C 3.546875 -0.703125 3.109375 -0.125 2.453125 -0.125 C 1.71875 -0.125 1.671875 -0.515625 1.671875 -1 L 1.671875 -3.96875 L 0.3125 -3.859375 L 0.3125 -3.59375 C 1 -3.59375 1 -3.5625 1 -2.765625 L 1 -1.421875 C 1 -0.828125 1 -0.453125 1.421875 -0.140625 C 1.671875 0.03125 2.046875 0.09375 2.40625 0.09375 C 2.875 0.09375 3.3125 -0.109375 3.5625 -0.640625 L 3.578125 -0.640625 L 3.578125 0.09375 L 4.90625 0 L 4.90625 -0.28125 C 4.296875 -0.28125 4.21875 -0.34375 4.21875 -0.78125 L 4.21875 -3.96875 L 2.859375 -3.859375 L 2.859375 -3.59375 C 3.46875 -3.59375 3.546875 -3.53125 3.546875 -3.078125 Z M 3.546875 -1.5 "/>
</g>
<g id="glyph-2-8">
<path d="M 2.921875 -3.59375 L 2.921875 -3.859375 L 1.609375 -3.859375 L 1.609375 -5.515625 L 1.359375 -5.515625 C 1.359375 -4.765625 1.046875 -3.84375 0.171875 -3.8125 L 0.171875 -3.59375 L 0.953125 -3.59375 L 0.953125 -1.109375 C 0.953125 -0.109375 1.671875 0.09375 2.15625 0.09375 C 2.75 0.09375 3.0625 -0.46875 3.0625 -1.109375 L 3.0625 -1.625 L 2.8125 -1.625 L 2.8125 -1.140625 C 2.8125 -0.46875 2.53125 -0.15625 2.21875 -0.15625 C 1.609375 -0.15625 1.609375 -0.9375 1.609375 -1.109375 L 1.609375 -3.59375 Z M 2.921875 -3.59375 "/>
</g>
<g id="glyph-2-9">
<path d="M 1.65625 -3.96875 L 0.359375 -3.859375 L 0.359375 -3.59375 C 0.9375 -3.59375 1.015625 -3.53125 1.015625 -3.09375 L 1.015625 -0.6875 C 1.015625 -0.28125 0.921875 -0.28125 0.328125 -0.28125 L 0.328125 0 C 0.71875 -0.015625 0.921875 -0.03125 1.3125 -0.03125 C 1.453125 -0.03125 1.828125 -0.03125 2.265625 0 L 2.265625 -0.28125 C 1.6875 -0.28125 1.65625 -0.328125 1.65625 -0.671875 Z M 1.671875 -5.53125 C 1.671875 -5.796875 1.46875 -6.015625 1.1875 -6.015625 C 0.921875 -6.015625 0.703125 -5.78125 0.703125 -5.53125 C 0.703125 -5.265625 0.921875 -5.046875 1.1875 -5.046875 C 1.46875 -5.046875 1.671875 -5.25 1.671875 -5.53125 Z M 1.671875 -5.53125 "/>
</g>
<g id="glyph-2-10">
<path d="M 1.671875 -2.328125 C 1.671875 -3.28125 2.34375 -3.734375 2.90625 -3.734375 C 3.4375 -3.734375 3.546875 -3.296875 3.546875 -2.765625 L 3.546875 -0.6875 C 3.546875 -0.28125 3.453125 -0.28125 2.859375 -0.28125 L 2.859375 0 C 3.28125 -0.015625 3.453125 -0.03125 3.890625 -0.03125 C 4.3125 -0.03125 4.4375 -0.015625 4.90625 0 L 4.90625 -0.28125 C 4.453125 -0.28125 4.21875 -0.28125 4.21875 -0.5625 L 4.21875 -2.28125 C 4.21875 -3.015625 4.21875 -3.28125 3.96875 -3.59375 C 3.765625 -3.84375 3.421875 -3.96875 2.96875 -3.96875 C 2.140625 -3.96875 1.75 -3.34375 1.625 -3.09375 L 1.609375 -3.09375 L 1.609375 -3.96875 L 0.3125 -3.859375 L 0.3125 -3.59375 C 0.921875 -3.59375 1 -3.53125 1 -3.078125 L 1 -0.6875 C 1 -0.28125 0.90625 -0.28125 0.3125 -0.28125 L 0.3125 0 C 0.734375 -0.015625 0.90625 -0.03125 1.34375 -0.03125 C 1.765625 -0.03125 1.890625 -0.015625 2.359375 0 L 2.359375 -0.28125 C 1.765625 -0.28125 1.671875 -0.28125 1.671875 -0.6875 Z M 1.671875 -2.328125 "/>
</g>
<g id="glyph-3-0">
<path d="M 1.765625 -0.484375 C 1.765625 -0.75 1.546875 -0.96875 1.28125 -0.96875 C 1 -0.96875 0.796875 -0.75 0.796875 -0.484375 C 0.796875 -0.21875 1 0 1.28125 0 C 1.546875 0 1.765625 -0.21875 1.765625 -0.484375 Z M 1.765625 -0.484375 "/>
</g>
<g id="glyph-3-1">
<path d="M 1.625 -1.046875 C 1.1875 -0.328125 0.796875 -0.3125 0.4375 -0.28125 C 0.375 -0.265625 0.328125 -0.203125 0.328125 -0.109375 C 0.328125 -0.0625 0.375 0 0.453125 0 C 0.625 0 1.046875 -0.03125 1.21875 -0.03125 C 1.421875 -0.03125 1.90625 0 2.09375 0 C 2.15625 0 2.265625 0 2.265625 -0.15625 C 2.265625 -0.265625 2.15625 -0.28125 2.140625 -0.28125 C 2.046875 -0.28125 1.71875 -0.3125 1.71875 -0.578125 C 1.71875 -0.703125 1.8125 -0.875 1.84375 -0.921875 L 2.546875 -2.078125 L 4.890625 -2.078125 C 4.921875 -1.859375 4.9375 -1.5625 4.96875 -1.34375 C 5 -0.984375 5.0625 -0.59375 5.0625 -0.5625 C 5.0625 -0.4375 4.9375 -0.28125 4.40625 -0.28125 C 4.328125 -0.28125 4.203125 -0.28125 4.203125 -0.109375 C 4.203125 -0.015625 4.28125 0 4.34375 0 C 4.515625 0 4.734375 -0.015625 4.90625 -0.015625 C 5.078125 -0.015625 5.296875 -0.03125 5.4375 -0.03125 C 5.734375 -0.03125 5.765625 -0.03125 5.96875 -0.015625 C 6.109375 -0.015625 6.328125 0 6.46875 0 C 6.515625 0 6.640625 0 6.640625 -0.15625 C 6.640625 -0.28125 6.53125 -0.28125 6.4375 -0.28125 C 5.890625 -0.28125 5.890625 -0.34375 5.859375 -0.59375 L 5.234375 -6.171875 C 5.203125 -6.375 5.203125 -6.421875 5.046875 -6.421875 C 4.921875 -6.421875 4.875 -6.359375 4.796875 -6.25 Z M 2.71875 -2.34375 L 4.53125 -5.3125 L 4.859375 -2.34375 Z M 2.71875 -2.34375 "/>
</g>
<g id="glyph-3-2">
<path d="M 1.90625 -3.59375 L 2.765625 -3.59375 C 2.921875 -3.59375 3.03125 -3.59375 3.03125 -3.75 C 3.03125 -3.859375 2.9375 -3.859375 2.78125 -3.859375 L 1.984375 -3.859375 L 2.34375 -5.359375 C 2.34375 -5.5 2.234375 -5.609375 2.078125 -5.609375 C 1.78125 -5.609375 1.71875 -5.359375 1.6875 -5.265625 L 1.34375 -3.859375 L 0.5 -3.859375 C 0.328125 -3.859375 0.21875 -3.859375 0.21875 -3.703125 C 0.21875 -3.59375 0.3125 -3.59375 0.46875 -3.59375 L 1.28125 -3.59375 L 0.65625 -1.140625 C 0.59375 -0.875 0.59375 -0.859375 0.59375 -0.734375 C 0.59375 -0.203125 1 0.09375 1.46875 0.09375 C 2.390625 0.09375 2.921875 -1.1875 2.921875 -1.28125 C 2.921875 -1.328125 2.890625 -1.390625 2.8125 -1.390625 C 2.71875 -1.390625 2.703125 -1.359375 2.640625 -1.203125 C 2.375 -0.5625 1.921875 -0.125 1.484375 -0.125 C 1.296875 -0.125 1.1875 -0.234375 1.1875 -0.53125 C 1.1875 -0.734375 1.21875 -0.84375 1.25 -0.984375 Z M 1.90625 -3.59375 "/>
</g>
<g id="glyph-4-0">
<path d="M 3.296875 -1.90625 C 3.296875 -2.34375 3.296875 -3.984375 1.828125 -3.984375 C 0.359375 -3.984375 0.359375 -2.34375 0.359375 -1.90625 C 0.359375 -1.484375 0.359375 0.125 1.828125 0.125 C 3.296875 0.125 3.296875 -1.484375 3.296875 -1.90625 Z M 1.828125 -0.0625 C 1.578125 -0.0625 1.171875 -0.1875 1.015625 -0.6875 C 0.921875 -1.03125 0.921875 -1.609375 0.921875 -1.984375 C 0.921875 -2.390625 0.921875 -2.84375 1.015625 -3.171875 C 1.15625 -3.703125 1.609375 -3.78125 1.828125 -3.78125 C 2.09375 -3.78125 2.5 -3.65625 2.625 -3.203125 C 2.71875 -2.890625 2.71875 -2.453125 2.71875 -1.984375 C 2.71875 -1.609375 2.71875 -1 2.625 -0.671875 C 2.453125 -0.140625 2.015625 -0.0625 1.828125 -0.0625 Z M 1.828125 -0.0625 "/>
</g>
<g id="glyph-4-1">
<path d="M 2.140625 -3.796875 C 2.140625 -3.984375 2.125 -3.984375 1.9375 -3.984375 C 1.546875 -3.59375 0.9375 -3.59375 0.71875 -3.59375 L 0.71875 -3.359375 C 0.875 -3.359375 1.28125 -3.359375 1.640625 -3.53125 L 1.640625 -0.515625 C 1.640625 -0.3125 1.640625 -0.234375 1.015625 -0.234375 L 0.765625 -0.234375 L 0.765625 0 C 1.09375 -0.03125 1.5625 -0.03125 1.890625 -0.03125 C 2.21875 -0.03125 2.6875 -0.03125 3.015625 0 L 3.015625 -0.234375 L 2.765625 -0.234375 C 2.140625 -0.234375 2.140625 -0.3125 2.140625 -0.515625 Z M 2.140625 -3.796875 "/>
</g>
<g id="glyph-4-2">
<path d="M 3.21875 -1.125 L 3 -1.125 C 2.984375 -1.03125 2.921875 -0.640625 2.84375 -0.578125 C 2.796875 -0.53125 2.3125 -0.53125 2.21875 -0.53125 L 1.109375 -0.53125 L 1.875 -1.15625 C 2.078125 -1.328125 2.609375 -1.703125 2.796875 -1.890625 C 2.96875 -2.0625 3.21875 -2.375 3.21875 -2.796875 C 3.21875 -3.546875 2.546875 -3.984375 1.734375 -3.984375 C 0.96875 -3.984375 0.4375 -3.46875 0.4375 -2.90625 C 0.4375 -2.609375 0.6875 -2.5625 0.75 -2.5625 C 0.90625 -2.5625 1.078125 -2.671875 1.078125 -2.890625 C 1.078125 -3.015625 1 -3.21875 0.734375 -3.21875 C 0.875 -3.515625 1.234375 -3.75 1.65625 -3.75 C 2.28125 -3.75 2.609375 -3.28125 2.609375 -2.796875 C 2.609375 -2.375 2.328125 -1.9375 1.921875 -1.546875 L 0.5 -0.25 C 0.4375 -0.1875 0.4375 -0.1875 0.4375 0 L 3.03125 0 Z M 3.21875 -1.125 "/>
</g>
<g id="glyph-4-3">
<path d="M 1.328125 -4.15625 L 0.390625 -4.09375 L 0.390625 -3.859375 C 0.796875 -3.859375 0.859375 -3.8125 0.859375 -3.515625 L 0.859375 -0.484375 C 0.859375 -0.234375 0.796875 -0.234375 0.390625 -0.234375 L 0.390625 0 C 0.5625 -0.015625 1.046875 -0.03125 1.09375 -0.03125 C 1.328125 -0.03125 1.5625 -0.015625 1.796875 0 L 1.796875 -0.234375 C 1.390625 -0.234375 1.328125 -0.234375 1.328125 -0.484375 Z M 1.328125 -4.15625 "/>
</g>
<g id="glyph-4-4">
<path d="M 3.265625 -1.8125 C 3.265625 -2.390625 2.9375 -2.640625 2.328125 -2.640625 C 1.8125 -2.640625 1.484375 -2.359375 1.296875 -2.078125 L 1.296875 -2.640625 L 0.375 -2.578125 L 0.375 -2.34375 C 0.796875 -2.34375 0.84375 -2.296875 0.84375 -2 L 0.84375 -0.484375 C 0.84375 -0.234375 0.796875 -0.234375 0.375 -0.234375 L 0.375 0 C 0.421875 0 0.828125 -0.03125 1.09375 -0.03125 C 1.359375 -0.03125 1.765625 0 1.8125 0 L 1.8125 -0.234375 C 1.40625 -0.234375 1.34375 -0.234375 1.34375 -0.484375 L 1.34375 -1.546875 C 1.34375 -2.203125 1.90625 -2.453125 2.28125 -2.453125 C 2.6875 -2.453125 2.78125 -2.203125 2.78125 -1.828125 L 2.78125 -0.484375 C 2.78125 -0.234375 2.71875 -0.234375 2.296875 -0.234375 L 2.296875 0 C 2.34375 0 2.75 -0.03125 3.015625 -0.03125 C 3.296875 -0.03125 3.6875 0 3.75 0 L 3.75 -0.234375 C 3.328125 -0.234375 3.265625 -0.234375 3.265625 -0.484375 Z M 3.265625 -1.8125 "/>
</g>
<g id="glyph-4-5">
<path d="M 1.015625 -3.328125 C 1.21875 -3.265625 1.421875 -3.25 1.625 -3.25 C 1.765625 -3.25 2.09375 -3.25 2.46875 -3.453125 C 2.578125 -3.515625 2.9375 -3.765625 2.9375 -3.890625 C 2.9375 -3.96875 2.890625 -3.984375 2.859375 -3.984375 C 2.84375 -3.984375 2.84375 -3.984375 2.765625 -3.953125 C 2.5625 -3.875 2.25 -3.78125 1.859375 -3.78125 C 1.5625 -3.78125 1.25 -3.84375 0.96875 -3.9375 C 0.921875 -3.96875 0.890625 -3.984375 0.875 -3.984375 C 0.78125 -3.984375 0.78125 -3.90625 0.78125 -3.8125 L 0.78125 -2.015625 C 0.78125 -1.921875 0.78125 -1.84375 0.890625 -1.84375 C 0.953125 -1.84375 0.96875 -1.875 1 -1.921875 C 1.15625 -2.109375 1.421875 -2.3125 1.890625 -2.3125 C 2.625 -2.3125 2.625 -1.421875 2.625 -1.234375 C 2.625 -1 2.609375 -0.65625 2.40625 -0.40625 C 2.21875 -0.1875 1.9375 -0.09375 1.6875 -0.09375 C 1.28125 -0.09375 0.859375 -0.3125 0.71875 -0.671875 C 1.015625 -0.671875 1.046875 -0.90625 1.046875 -0.96875 C 1.046875 -1.140625 0.921875 -1.28125 0.734375 -1.28125 C 0.6875 -1.28125 0.4375 -1.25 0.4375 -0.953125 C 0.4375 -0.40625 0.953125 0.125 1.703125 0.125 C 2.53125 0.125 3.21875 -0.453125 3.21875 -1.203125 C 3.21875 -1.890625 2.671875 -2.5 1.890625 -2.5 C 1.515625 -2.5 1.203125 -2.375 1.015625 -2.21875 Z M 1.015625 -3.328125 "/>
</g>
<g id="glyph-5-0">
<path d="M 3.21875 -4.203125 C 3.265625 -4.296875 3.265625 -4.3125 3.265625 -4.328125 C 3.265625 -4.421875 3.1875 -4.484375 3.109375 -4.484375 C 3 -4.484375 2.96875 -4.421875 2.9375 -4.328125 L 0.59375 1.203125 C 0.5625 1.296875 0.5625 1.3125 0.5625 1.34375 C 0.5625 1.421875 0.625 1.5 0.71875 1.5 C 0.8125 1.5 0.84375 1.421875 0.875 1.34375 Z M 3.21875 -4.203125 "/>
</g>
<g id="glyph-5-1">
<path d="M 1.5 -0.359375 C 1.5 -0.578125 1.328125 -0.71875 1.140625 -0.71875 C 0.921875 -0.71875 0.765625 -0.546875 0.765625 -0.359375 C 0.765625 -0.15625 0.9375 0 1.140625 0 C 1.328125 0 1.5 -0.171875 1.5 -0.359375 Z M 1.5 -0.359375 "/>
</g>
<g id="glyph-5-2">
<path d="M 1.984375 -3.96875 C 2 -4 2 -4.03125 2 -4.0625 C 2 -4.15625 1.890625 -4.15625 1.8125 -4.140625 L 1.140625 -4.09375 C 1.046875 -4.09375 0.96875 -4.078125 0.96875 -3.9375 C 0.96875 -3.84375 1.046875 -3.84375 1.140625 -3.84375 C 1.3125 -3.84375 1.359375 -3.828125 1.4375 -3.8125 C 1.4375 -3.734375 1.4375 -3.71875 1.40625 -3.625 L 0.5625 -0.28125 C 0.546875 -0.1875 0.546875 -0.15625 0.546875 -0.140625 C 0.546875 0 0.671875 0.0625 0.75 0.0625 C 0.8125 0.0625 0.921875 0.03125 1 -0.078125 C 1.046875 -0.15625 1.28125 -1.15625 1.328125 -1.34375 C 1.71875 -1.3125 2.15625 -1.21875 2.15625 -0.859375 C 2.15625 -0.828125 2.15625 -0.796875 2.140625 -0.734375 C 2.125 -0.640625 2.125 -0.609375 2.125 -0.5625 C 2.125 -0.171875 2.453125 0.0625 2.796875 0.0625 C 3.375 0.0625 3.578125 -0.8125 3.578125 -0.859375 C 3.578125 -0.875 3.578125 -0.953125 3.46875 -0.953125 C 3.390625 -0.953125 3.375 -0.90625 3.34375 -0.8125 C 3.28125 -0.59375 3.125 -0.140625 2.8125 -0.140625 C 2.578125 -0.140625 2.578125 -0.390625 2.578125 -0.453125 C 2.578125 -0.5625 2.578125 -0.5625 2.609375 -0.6875 C 2.609375 -0.6875 2.640625 -0.8125 2.640625 -0.875 C 2.640625 -1.34375 2.125 -1.484375 1.65625 -1.53125 C 1.8125 -1.609375 1.9375 -1.71875 2.171875 -1.921875 C 2.46875 -2.1875 2.78125 -2.4375 3.109375 -2.4375 C 3.1875 -2.4375 3.265625 -2.421875 3.3125 -2.359375 C 3.109375 -2.328125 3.015625 -2.15625 3.015625 -2.03125 C 3.015625 -1.84375 3.171875 -1.796875 3.25 -1.796875 C 3.390625 -1.796875 3.609375 -1.890625 3.609375 -2.1875 C 3.609375 -2.453125 3.40625 -2.640625 3.125 -2.640625 C 2.734375 -2.640625 2.390625 -2.359375 2.109375 -2.109375 C 1.796875 -1.84375 1.609375 -1.6875 1.390625 -1.609375 Z M 1.984375 -3.96875 "/>
</g>
<g id="glyph-6-0">
<path d="M 4.765625 -1.34375 C 4.859375 -1.34375 5.015625 -1.34375 5.015625 -1.5 C 5.015625 -1.65625 4.859375 -1.65625 4.765625 -1.65625 L 1 -1.65625 C 0.890625 -1.65625 0.75 -1.65625 0.75 -1.5 C 0.75 -1.34375 0.890625 -1.34375 1 -1.34375 Z M 4.765625 -1.34375 "/>
</g>
<g id="glyph-7-0">
<path d="M 3.59375 -2.21875 C 3.59375 -2.984375 3.5 -3.546875 3.1875 -4.03125 C 2.96875 -4.34375 2.53125 -4.625 1.984375 -4.625 C 0.359375 -4.625 0.359375 -2.71875 0.359375 -2.21875 C 0.359375 -1.71875 0.359375 0.140625 1.984375 0.140625 C 3.59375 0.140625 3.59375 -1.71875 3.59375 -2.21875 Z M 1.984375 -0.0625 C 1.65625 -0.0625 1.234375 -0.25 1.09375 -0.8125 C 1 -1.21875 1 -1.796875 1 -2.3125 C 1 -2.828125 1 -3.359375 1.09375 -3.734375 C 1.25 -4.28125 1.6875 -4.4375 1.984375 -4.4375 C 2.359375 -4.4375 2.71875 -4.203125 2.84375 -3.796875 C 2.953125 -3.421875 2.96875 -2.921875 2.96875 -2.3125 C 2.96875 -1.796875 2.96875 -1.28125 2.875 -0.84375 C 2.734375 -0.203125 2.265625 -0.0625 1.984375 -0.0625 Z M 1.984375 -0.0625 "/>
</g>
<g id="glyph-8-0">
<path d="M 5.1875 -1.578125 C 5.296875 -1.578125 5.46875 -1.578125 5.46875 -1.734375 C 5.46875 -1.921875 5.296875 -1.921875 5.1875 -1.921875 L 1.03125 -1.921875 C 0.921875 -1.921875 0.75 -1.921875 0.75 -1.75 C 0.75 -1.578125 0.90625 -1.578125 1.03125 -1.578125 Z M 5.1875 -1.578125 "/>
</g>
<g id="glyph-9-0">
<path d="M 2.1875 -4.625 C 2.1875 -4.640625 2.203125 -4.734375 2.203125 -4.734375 C 2.203125 -4.78125 2.1875 -4.84375 2.09375 -4.84375 C 1.953125 -4.84375 1.375 -4.78125 1.203125 -4.765625 C 1.15625 -4.765625 1.046875 -4.75 1.046875 -4.609375 C 1.046875 -4.515625 1.15625 -4.515625 1.234375 -4.515625 C 1.5625 -4.515625 1.5625 -4.453125 1.5625 -4.40625 C 1.5625 -4.359375 1.546875 -4.3125 1.546875 -4.25 L 0.5625 -0.3125 C 0.515625 -0.1875 0.515625 -0.171875 0.515625 -0.15625 C 0.515625 -0.046875 0.609375 0.0625 0.765625 0.0625 C 0.953125 0.0625 1.03125 -0.0625 1.078125 -0.21875 C 1.09375 -0.25 1.390625 -1.484375 1.421875 -1.578125 C 1.921875 -1.53125 2.3125 -1.359375 2.3125 -1 C 2.3125 -0.96875 2.3125 -0.9375 2.296875 -0.859375 C 2.265625 -0.765625 2.265625 -0.71875 2.265625 -0.640625 C 2.265625 -0.15625 2.671875 0.0625 3.015625 0.0625 C 3.6875 0.0625 3.890625 -0.984375 3.890625 -1 C 3.890625 -1.09375 3.8125 -1.09375 3.78125 -1.09375 C 3.6875 -1.09375 3.671875 -1.046875 3.640625 -0.921875 C 3.5625 -0.625 3.375 -0.125 3.03125 -0.125 C 2.84375 -0.125 2.78125 -0.296875 2.78125 -0.484375 C 2.78125 -0.609375 2.78125 -0.625 2.828125 -0.796875 C 2.84375 -0.828125 2.859375 -0.9375 2.859375 -1.015625 C 2.859375 -1.640625 2.03125 -1.734375 1.734375 -1.75 C 1.9375 -1.875 2.1875 -2.109375 2.3125 -2.21875 C 2.671875 -2.546875 3.015625 -2.875 3.40625 -2.875 C 3.484375 -2.875 3.578125 -2.859375 3.640625 -2.78125 C 3.34375 -2.734375 3.28125 -2.5 3.28125 -2.390625 C 3.28125 -2.25 3.390625 -2.140625 3.546875 -2.140625 C 3.75 -2.140625 3.953125 -2.296875 3.953125 -2.578125 C 3.953125 -2.8125 3.78125 -3.078125 3.421875 -3.078125 C 3.015625 -3.078125 2.65625 -2.78125 2.296875 -2.453125 C 2 -2.1875 1.78125 -1.96875 1.484375 -1.84375 Z M 2.1875 -4.625 "/>
</g>
<g id="glyph-9-1">
<path d="M 1.71875 -2.75 L 2.421875 -2.75 C 2.5625 -2.75 2.640625 -2.75 2.640625 -2.90625 C 2.640625 -3 2.5625 -3 2.4375 -3 L 1.78125 -3 L 2.03125 -4.03125 C 2.046875 -4.0625 2.0625 -4.109375 2.0625 -4.125 C 2.0625 -4.265625 1.953125 -4.359375 1.8125 -4.359375 C 1.640625 -4.359375 1.546875 -4.234375 1.484375 -4.0625 C 1.4375 -3.875 1.53125 -4.21875 1.21875 -3 L 0.515625 -3 C 0.390625 -3 0.296875 -3 0.296875 -2.84375 C 0.296875 -2.75 0.375 -2.75 0.5 -2.75 L 1.15625 -2.75 L 0.75 -1.109375 C 0.703125 -0.9375 0.640625 -0.6875 0.640625 -0.59375 C 0.640625 -0.1875 1 0.0625 1.390625 0.0625 C 2.171875 0.0625 2.609375 -0.90625 2.609375 -1 C 2.609375 -1.09375 2.515625 -1.09375 2.5 -1.09375 C 2.40625 -1.09375 2.40625 -1.078125 2.34375 -0.953125 C 2.15625 -0.515625 1.796875 -0.125 1.421875 -0.125 C 1.265625 -0.125 1.171875 -0.21875 1.171875 -0.46875 C 1.171875 -0.53125 1.203125 -0.6875 1.21875 -0.75 Z M 1.71875 -2.75 "/>
</g>
</g>
</defs>
<path fill="none" stroke-width="0.3985" stroke-linecap="butt" stroke-linejoin="miter" stroke="rgb(0%, 0%, 0%)" stroke-opacity="1" stroke-miterlimit="10" d="M -11.340219 0.0011875 L 192.359 0.0011875 " transform="matrix(1, 0, 0, -1, 39.266, 146.509)"/>
<path fill="none" stroke-width="0.3985" stroke-linecap="round" stroke-linejoin="round" stroke="rgb(0%, 0%, 0%)" stroke-opacity="1" stroke-miterlimit="10" d="M -2.071864 2.391813 C -1.692957 0.958219 -0.849207 0.278531 -0.00155125 0.0011875 C -0.849207 -0.280062 -1.692957 -0.955844 -2.071864 -2.389437 " transform="matrix(1, 0, 0, -1, 231.82577, 146.509)"/>
<g fill="rgb(0%, 0%, 0%)" fill-opacity="1">
<use xlink:href="#glyph-0-0" x="235.542" y="149"/>
</g>
<g fill="rgb(0%, 0%, 0%)" fill-opacity="1">
<use xlink:href="#glyph-1-0" x="242.457041" y="149"/>
<use xlink:href="#glyph-1-1" x="246.331496" y="149"/>
</g>
<g fill="rgb(0%, 0%, 0%)" fill-opacity="1">
<use xlink:href="#glyph-1-2" x="251.320766" y="149"/>
<use xlink:href="#glyph-1-3" x="255.748145" y="149"/>
<use xlink:href="#glyph-1-4" x="260.729445" y="149"/>
<use xlink:href="#glyph-1-5" x="264.631796" y="149"/>
<use xlink:href="#glyph-1-6" x="268.561045" y="149"/>
</g>
<path fill="none" stroke-width="0.3985" stroke-linecap="butt" stroke-linejoin="miter" stroke="rgb(0%, 0%, 0%)" stroke-opacity="1" stroke-miterlimit="10" d="M -0.000375 -6.8035 L -0.000375 124.329313 " transform="matrix(1, 0, 0, -1, 39.266, 146.509)"/>
<path fill="none" stroke-width="0.3985" stroke-linecap="round" stroke-linejoin="round" stroke="rgb(0%, 0%, 0%)" stroke-opacity="1" stroke-miterlimit="10" d="M -2.072847 2.391 C -1.693941 0.957406 -0.850191 0.277719 0.00137125 0.000375 C -0.850191 -0.280875 -1.693941 -0.956656 -2.072847 -2.39025 " transform="matrix(0, -1, -1, 0, 39.266, 21.98184)"/>
<g fill="rgb(0%, 0%, 0%)" fill-opacity="1">
<use xlink:href="#glyph-0-1" x="29.857" y="15.774"/>
</g>
<g fill="rgb(0%, 0%, 0%)" fill-opacity="1">
<use xlink:href="#glyph-1-0" x="37.32895" y="15.774"/>
</g>
<g fill="rgb(0%, 0%, 0%)" fill-opacity="1">
<use xlink:href="#glyph-0-0" x="41.203405" y="15.774"/>
</g>
<g fill="rgb(0%, 0%, 0%)" fill-opacity="1">
<use xlink:href="#glyph-1-6" x="44.8009" y="15.774"/>
</g>
<path fill="none" stroke-width="0.79701" stroke-linecap="butt" stroke-linejoin="miter" stroke="rgb(35.68573%, 64.312744%, 64.312744%)" stroke-opacity="1" stroke-miterlimit="10" d="M -0.000375 113.387906 L 3.70275 107.993375 L 7.405875 102.833219 L 11.105094 97.911344 L 14.808219 93.239469 L 18.511344 88.782438 L 22.214469 84.528531 L 25.913687 80.489469 L 29.616812 76.645719 L 33.319937 72.981656 L 37.023062 69.501188 L 40.722281 66.176969 L 44.425406 63.012906 L 48.128531 59.993375 L 51.831656 57.126188 L 55.534781 54.403531 L 59.234 51.794156 L 62.937125 49.3215 L 66.64025 46.966031 L 70.343375 44.719938 L 74.042594 42.587125 L 77.745719 40.544156 L 81.448844 38.606656 L 85.151969 36.759 L 88.851187 35.009 L 92.554312 33.333219 L 96.257437 31.731656 L 99.960562 30.223844 L 103.659781 28.770719 L 107.362906 27.399625 L 111.066031 26.083219 L 114.769156 24.848844 L 118.468375 23.657438 L 122.1715 22.524625 L 125.874625 21.4465 L 129.57775 20.423063 L 133.280875 19.450406 L 136.980094 18.520719 L 140.683219 17.634 L 144.386344 16.782438 L 148.089469 15.981656 L 151.788687 15.219938 L 155.491812 14.493375 L 159.194937 13.801969 L 162.898062 13.145719 L 166.597281 12.509 L 170.300406 11.907438 L 174.003531 11.341031 L 177.706656 10.798063 L 181.405875 10.286344 " transform="matrix(1, 0, 0, -1, 39.266, 146.509)"/>
<path fill="none" stroke-width="0.79701" stroke-linecap="butt" stroke-linejoin="miter" stroke="rgb(97.645569%, 45.095825%, 8.625793%)" stroke-opacity="1" stroke-dasharray="2.98883 2.98883" stroke-miterlimit="10" d="M -0.000375 28.348844 L 181.4215 28.348844 " transform="matrix(1, 0, 0, -1, 39.266, 146.509)"/>
<g fill="rgb(97.645569%, 45.095825%, 8.625793%)" fill-opacity="1">
<use xlink:href="#glyph-2-0" x="8.302" y="120.728"/>
</g>
<g fill="rgb(97.645569%, 45.095825%, 8.625793%)" fill-opacity="1">
<use xlink:href="#glyph-3-0" x="12.909833" y="120.728"/>
</g>
<g fill="rgb(97.645569%, 45.095825%, 8.625793%)" fill-opacity="1">
<use xlink:href="#glyph-2-1" x="15.46974" y="120.728"/>
<use xlink:href="#glyph-2-2" x="20.077573" y="120.728"/>
</g>
<g fill="rgb(97.645569%, 45.095825%, 8.625793%)" fill-opacity="1">
<use xlink:href="#glyph-3-1" x="24.685406" y="120.728"/>
</g>
<g fill="rgb(97.645569%, 45.095825%, 8.625793%)" fill-opacity="1">
<use xlink:href="#glyph-4-0" x="31.595" y="121.724"/>
</g>
<path fill="none" stroke-width="0.79701" stroke-linecap="butt" stroke-linejoin="miter" stroke="rgb(50%, 50%, 50%)" stroke-opacity="1" stroke-dasharray="2.98883 2.98883" stroke-miterlimit="10" d="M -0.000375 56.692594 L 113.386344 56.692594 " transform="matrix(1, 0, 0, -1, 39.266, 146.509)"/>
<g fill="rgb(50%, 50%, 50%)" fill-opacity="1">
<use xlink:href="#glyph-2-0" x="12.91" y="92.381"/>
</g>
<g fill="rgb(50%, 50%, 50%)" fill-opacity="1">
<use xlink:href="#glyph-3-0" x="17.517833" y="92.381"/>
</g>
<g fill="rgb(50%, 50%, 50%)" fill-opacity="1">
<use xlink:href="#glyph-2-2" x="20.07774" y="92.381"/>
</g>
<g fill="rgb(50%, 50%, 50%)" fill-opacity="1">
<use xlink:href="#glyph-3-1" x="24.685573" y="92.381"/>
</g>
<g fill="rgb(50%, 50%, 50%)" fill-opacity="1">
<use xlink:href="#glyph-4-0" x="31.595" y="93.378"/>
</g>
<g fill="rgb(0%, 0%, 0%)" fill-opacity="1">
<use xlink:href="#glyph-3-1" x="24.685" y="35.688"/>
</g>
<g fill="rgb(0%, 0%, 0%)" fill-opacity="1">
<use xlink:href="#glyph-4-0" x="31.595" y="36.684"/>
</g>
<path fill-rule="nonzero" fill="rgb(0%, 0%, 0%)" fill-opacity="1" stroke-width="0.3985" stroke-linecap="butt" stroke-linejoin="miter" stroke="rgb(0%, 0%, 0%)" stroke-opacity="1" stroke-miterlimit="10" d="M 1.593375 113.387906 C 1.593375 114.266813 0.878531 114.981656 -0.000375 114.981656 C -0.879281 114.981656 -1.594125 114.266813 -1.594125 113.387906 C -1.594125 112.509 -0.879281 111.794156 -0.000375 111.794156 C 0.878531 111.794156 1.593375 112.509 1.593375 113.387906 Z M 1.593375 113.387906 " transform="matrix(1, 0, 0, -1, 39.266, 146.509)"/>
<path fill-rule="nonzero" fill="rgb(50%, 50%, 50%)" fill-opacity="1" stroke-width="0.3985" stroke-linecap="butt" stroke-linejoin="miter" stroke="rgb(50%, 50%, 50%)" stroke-opacity="1" stroke-miterlimit="10" d="M 53.980094 56.692594 C 53.980094 57.575406 53.26525 58.286344 52.386344 58.286344 C 51.503531 58.286344 50.792594 57.575406 50.792594 56.692594 C 50.792594 55.813688 51.503531 55.098844 52.386344 55.098844 C 53.26525 55.098844 53.980094 55.813688 53.980094 56.692594 Z M 53.980094 56.692594 " transform="matrix(1, 0, 0, -1, 39.266, 146.509)"/>
<path fill="none" stroke-width="0.3985" stroke-linecap="butt" stroke-linejoin="miter" stroke="rgb(50%, 50%, 50%)" stroke-opacity="1" stroke-dasharray="0.3985 1.99255" stroke-miterlimit="10" d="M 52.386344 0.0011875 L 52.386344 56.692594 " transform="matrix(1, 0, 0, -1, 39.266, 146.509)"/>
<g fill="rgb(50%, 50%, 50%)" fill-opacity="1">
<use xlink:href="#glyph-3-2" x="84.175" y="155.544"/>
</g>
<g fill="rgb(50%, 50%, 50%)" fill-opacity="1">
<use xlink:href="#glyph-4-1" x="87.503" y="156.939"/>
</g>
<g fill="rgb(50%, 50%, 50%)" fill-opacity="1">
<use xlink:href="#glyph-5-0" x="91.155911" y="156.939"/>
</g>
<g fill="rgb(50%, 50%, 50%)" fill-opacity="1">
<use xlink:href="#glyph-4-2" x="94.975" y="156.939"/>
</g>
<path fill-rule="nonzero" fill="rgb(48.234558%, 68.232727%, 49.804688%)" fill-opacity="1" stroke-width="0.3985" stroke-linecap="butt" stroke-linejoin="miter" stroke="rgb(48.234558%, 68.232727%, 49.804688%)" stroke-opacity="1" stroke-miterlimit="10" d="M 107.159781 28.348844 C 107.159781 29.669156 106.089469 30.739469 104.769156 30.739469 C 103.448844 30.739469 102.378531 29.669156 102.378531 28.348844 C 102.378531 27.024625 103.448844 25.954313 104.769156 25.954313 C 106.089469 25.954313 107.159781 27.024625 107.159781 28.348844 Z M 107.159781 28.348844 " transform="matrix(1, 0, 0, -1, 39.266, 146.509)"/>
<path fill="none" stroke-width="0.3985" stroke-linecap="butt" stroke-linejoin="miter" stroke="rgb(48.234558%, 68.232727%, 49.804688%)" stroke-opacity="1" stroke-dasharray="0.3985 1.99255" stroke-miterlimit="10" d="M 104.769156 0.0011875 L 104.769156 28.348844 " transform="matrix(1, 0, 0, -1, 39.266, 146.509)"/>
<g fill="rgb(0%, 0%, 0%)" fill-opacity="1">
<use xlink:href="#glyph-3-2" x="124.709" y="157.853"/>
</g>
<g fill="rgb(0%, 0%, 0%)" fill-opacity="1">
<use xlink:href="#glyph-2-3" x="130.600821" y="157.853"/>
</g>
<g fill="rgb(0%, 0%, 0%)" fill-opacity="1">
<use xlink:href="#glyph-4-3" x="141.52" y="154.18"/>
<use xlink:href="#glyph-4-4" x="143.62292" y="154.18"/>
</g>
<g fill="rgb(0%, 0%, 0%)" fill-opacity="1">
<use xlink:href="#glyph-4-0" x="148.936408" y="154.18"/>
</g>
<g fill="rgb(0%, 0%, 0%)" fill-opacity="1">
<use xlink:href="#glyph-5-1" x="152.58932" y="154.18"/>
</g>
<g fill="rgb(0%, 0%, 0%)" fill-opacity="1">
<use xlink:href="#glyph-4-2" x="154.858417" y="154.18"/>
<use xlink:href="#glyph-4-5" x="158.511328" y="154.18"/>
</g>
<path fill="none" stroke-width="0.379" stroke-linecap="butt" stroke-linejoin="miter" stroke="rgb(0%, 0%, 0%)" stroke-opacity="1" stroke-miterlimit="10" d="M -0.00046875 -0.00128125 L 20.644062 -0.00128125 " transform="matrix(1, 0, 0, -1, 141.52, 155.612)"/>
<g fill="rgb(0%, 0%, 0%)" fill-opacity="1">
<use xlink:href="#glyph-6-0" x="146.926" y="160.896"/>
</g>
<g fill="rgb(0%, 0%, 0%)" fill-opacity="1">
<use xlink:href="#glyph-5-2" x="152.682429" y="160.896"/>
</g>
<g fill="rgb(35.68573%, 64.312744%, 64.312744%)" fill-opacity="1">
<use xlink:href="#glyph-0-1" x="190.188" y="108.674"/>
</g>
<g fill="rgb(35.68573%, 64.312744%, 64.312744%)" fill-opacity="1">
<use xlink:href="#glyph-1-0" x="197.65995" y="108.674"/>
</g>
<g fill="rgb(35.68573%, 64.312744%, 64.312744%)" fill-opacity="1">
<use xlink:href="#glyph-0-0" x="201.534405" y="108.674"/>
</g>
<g fill="rgb(35.68573%, 64.312744%, 64.312744%)" fill-opacity="1">
<use xlink:href="#glyph-1-6" x="205.1319" y="108.674"/>
</g>
<g fill="rgb(35.68573%, 64.312744%, 64.312744%)" fill-opacity="1">
<use xlink:href="#glyph-1-7" x="211.775958" y="108.674"/>
</g>
<g fill="rgb(35.68573%, 64.312744%, 64.312744%)" fill-opacity="1">
<use xlink:href="#glyph-0-1" x="222.284508" y="108.674"/>
</g>
<g fill="rgb(35.68573%, 64.312744%, 64.312744%)" fill-opacity="1">
<use xlink:href="#glyph-7-0" x="229.761" y="110.168"/>
</g>
<g fill="rgb(35.68573%, 64.312744%, 64.312744%)" fill-opacity="1">
<use xlink:href="#glyph-0-2" x="234.231" y="108.674"/>
</g>
<g fill="rgb(35.68573%, 64.312744%, 64.312744%)" fill-opacity="1">
<use xlink:href="#glyph-8-0" x="238.87" y="105.058"/>
</g>
<g fill="rgb(35.68573%, 64.312744%, 64.312744%)" fill-opacity="1">
<use xlink:href="#glyph-9-0" x="245.096906" y="105.058"/>
</g>
<g fill="rgb(35.68573%, 64.312744%, 64.312744%)" fill-opacity="1">
<use xlink:href="#glyph-9-1" x="249.499466" y="105.058"/>
</g>
<path fill="none" stroke-width="0.79701" stroke-linecap="butt" stroke-linejoin="miter" stroke="rgb(48.234558%, 68.232727%, 49.804688%)" stroke-opacity="1" stroke-miterlimit="10" d="M 124.726187 68.032438 L 109.191031 34.739469 " transform="matrix(1, 0, 0, -1, 39.266, 146.509)"/>
<path fill="none" stroke-width="0.79701" stroke-linecap="round" stroke-linejoin="round" stroke="rgb(48.234558%, 68.232727%, 49.804688%)" stroke-opacity="1" stroke-miterlimit="10" d="M -2.549532 3.110595 C -2.084398 1.245577 -1.047463 0.362981 0.00174194 -0.000912765 C -1.044395 -0.3641 -2.08534 -1.246462 -2.551652 -3.110771 " transform="matrix(-0.42288, 0.90617, 0.90617, 0.42288, 148.28672, 112.13162)"/>
<g fill="rgb(48.234558%, 68.232727%, 49.804688%)" fill-opacity="1">
<use xlink:href="#glyph-2-4" x="167.51" y="77.055"/>
<use xlink:href="#glyph-2-5" x="172.629814" y="77.055"/>
<use xlink:href="#glyph-2-6" x="177.237647" y="77.055"/>
<use xlink:href="#glyph-2-7" x="179.797555" y="77.055"/>
<use xlink:href="#glyph-2-8" x="184.917369" y="77.055"/>
<use xlink:href="#glyph-2-9" x="188.501239" y="77.055"/>
<use xlink:href="#glyph-2-5" x="191.061146" y="77.055"/>
<use xlink:href="#glyph-2-10" x="195.668979" y="77.055"/>
</g>
</svg>
