<?xml version="1.0" encoding="UTF-8"?>
<svg xmlns="http://www.w3.org/2000/svg" xmlns:xlink="http://www.w3.org/1999/xlink" width="216.284pt" height="87.274pt" viewBox="0 0 216.284 87.274">
<defs>
<g>
<g id="glyph-0-0">
<path d="M 0.875 -0.59375 C 0.84375 -0.4375 0.78125 -0.203125 0.78125 -0.15625 C 0.78125 0.015625 0.921875 0.109375 1.078125 0.109375 C 1.203125 0.109375 1.375 0.03125 1.453125 -0.171875 C 1.453125 -0.1875 1.578125 -0.65625 1.640625 -0.90625 L 1.859375 -1.796875 C 1.90625 -2.03125 1.96875 -2.25 2.03125 -2.46875 C 2.0625 -2.640625 2.140625 -2.9375 2.15625 -2.96875 C 2.296875 -3.28125 2.828125 -4.1875 3.78125 -4.1875 C 4.234375 -4.1875 4.3125 -3.8125 4.3125 -3.484375 C 4.3125 -2.875 3.828125 -1.59375 3.671875 -1.171875 C 3.578125 -0.9375 3.5625 -0.8125 3.5625 -0.703125 C 3.5625 -0.234375 3.921875 0.109375 4.390625 0.109375 C 5.328125 0.109375 5.6875 -1.34375 5.6875 -1.421875 C 5.6875 -1.53125 5.609375 -1.53125 5.578125 -1.53125 C 5.46875 -1.53125 5.46875 -1.5 5.421875 -1.34375 C 5.21875 -0.671875 4.890625 -0.109375 4.40625 -0.109375 C 4.234375 -0.109375 4.171875 -0.203125 4.171875 -0.4375 C 4.171875 -0.6875 4.25 -0.921875 4.34375 -1.140625 C 4.53125 -1.671875 4.953125 -2.765625 4.953125 -3.34375 C 4.953125 -4 4.53125 -4.40625 3.8125 -4.40625 C 2.90625 -4.40625 2.421875 -3.765625 2.25 -3.53125 C 2.203125 -4.09375 1.796875 -4.40625 1.328125 -4.40625 C 0.875 -4.40625 0.6875 -4.015625 0.59375 -3.84375 C 0.421875 -3.5 0.296875 -2.90625 0.296875 -2.875 C 0.296875 -2.765625 0.390625 -2.765625 0.40625 -2.765625 C 0.515625 -2.765625 0.515625 -2.78125 0.578125 -3 C 0.75 -3.703125 0.953125 -4.1875 1.3125 -4.1875 C 1.5 -4.1875 1.609375 -4.0625 1.609375 -3.734375 C 1.609375 -3.515625 1.578125 -3.40625 1.453125 -2.890625 Z M 0.875 -0.59375 "/>
</g>
<g id="glyph-0-1">
<path d="M 3.71875 -3.765625 C 3.53125 -4.140625 3.25 -4.40625 2.796875 -4.40625 C 1.640625 -4.40625 0.40625 -2.9375 0.40625 -1.484375 C 0.40625 -0.546875 0.953125 0.109375 1.71875 0.109375 C 1.921875 0.109375 2.421875 0.0625 3.015625 -0.640625 C 3.09375 -0.21875 3.453125 0.109375 3.921875 0.109375 C 4.28125 0.109375 4.5 -0.125 4.671875 -0.4375 C 4.828125 -0.796875 4.96875 -1.40625 4.96875 -1.421875 C 4.96875 -1.53125 4.875 -1.53125 4.84375 -1.53125 C 4.75 -1.53125 4.734375 -1.484375 4.703125 -1.34375 C 4.53125 -0.703125 4.359375 -0.109375 3.953125 -0.109375 C 3.671875 -0.109375 3.65625 -0.375 3.65625 -0.5625 C 3.65625 -0.78125 3.671875 -0.875 3.78125 -1.3125 C 3.890625 -1.71875 3.90625 -1.828125 4 -2.203125 L 4.359375 -3.59375 C 4.421875 -3.875 4.421875 -3.890625 4.421875 -3.9375 C 4.421875 -4.109375 4.3125 -4.203125 4.140625 -4.203125 C 3.890625 -4.203125 3.75 -3.984375 3.71875 -3.765625 Z M 3.078125 -1.1875 C 3.015625 -1 3.015625 -0.984375 2.875 -0.8125 C 2.4375 -0.265625 2.03125 -0.109375 1.75 -0.109375 C 1.25 -0.109375 1.109375 -0.65625 1.109375 -1.046875 C 1.109375 -1.546875 1.421875 -2.765625 1.65625 -3.234375 C 1.96875 -3.8125 2.40625 -4.1875 2.8125 -4.1875 C 3.453125 -4.1875 3.59375 -3.375 3.59375 -3.3125 C 3.59375 -3.25 3.578125 -3.1875 3.5625 -3.140625 Z M 3.078125 -1.1875 "/>
</g>
<g id="glyph-1-0">
<path d="M 0.84375 -0.4375 C 0.828125 -0.34375 0.78125 -0.171875 0.78125 -0.15625 C 0.78125 0 0.90625 0.0625 1.015625 0.0625 C 1.140625 0.0625 1.25 -0.015625 1.296875 -0.078125 C 1.328125 -0.140625 1.375 -0.375 1.421875 -0.515625 C 1.453125 -0.640625 1.53125 -0.96875 1.5625 -1.140625 C 1.609375 -1.296875 1.65625 -1.453125 1.6875 -1.609375 C 1.765625 -1.890625 1.78125 -1.953125 1.984375 -2.234375 C 2.171875 -2.515625 2.5 -2.875 3.03125 -2.875 C 3.421875 -2.875 3.4375 -2.515625 3.4375 -2.390625 C 3.4375 -1.96875 3.140625 -1.203125 3.03125 -0.90625 C 2.953125 -0.703125 2.921875 -0.640625 2.921875 -0.53125 C 2.921875 -0.15625 3.21875 0.0625 3.578125 0.0625 C 4.28125 0.0625 4.578125 -0.890625 4.578125 -1 C 4.578125 -1.09375 4.5 -1.09375 4.46875 -1.09375 C 4.375 -1.09375 4.375 -1.046875 4.34375 -0.96875 C 4.1875 -0.40625 3.875 -0.125 3.609375 -0.125 C 3.453125 -0.125 3.421875 -0.21875 3.421875 -0.375 C 3.421875 -0.53125 3.46875 -0.625 3.59375 -0.9375 C 3.671875 -1.15625 3.953125 -1.890625 3.953125 -2.28125 C 3.953125 -2.953125 3.421875 -3.078125 3.046875 -3.078125 C 2.46875 -3.078125 2.078125 -2.71875 1.875 -2.4375 C 1.828125 -2.921875 1.421875 -3.078125 1.125 -3.078125 C 0.828125 -3.078125 0.671875 -2.859375 0.578125 -2.703125 C 0.421875 -2.4375 0.328125 -2.046875 0.328125 -2 C 0.328125 -1.921875 0.421875 -1.921875 0.453125 -1.921875 C 0.546875 -1.921875 0.546875 -1.9375 0.59375 -2.125 C 0.703125 -2.53125 0.84375 -2.875 1.109375 -2.875 C 1.296875 -2.875 1.34375 -2.71875 1.34375 -2.53125 C 1.34375 -2.40625 1.28125 -2.140625 1.21875 -1.953125 C 1.171875 -1.765625 1.109375 -1.484375 1.078125 -1.328125 Z M 0.84375 -0.4375 "/>
</g>
<g id="glyph-2-0">
<path d="M 3.421875 -5.421875 C 3.5 -5.765625 3.53125 -5.84375 4.359375 -5.84375 C 4.609375 -5.84375 4.6875 -5.84375 4.6875 -6.015625 C 4.6875 -6.125 4.578125 -6.125 4.546875 -6.125 C 4.34375 -6.125 4.109375 -6.109375 3.890625 -6.109375 C 3.671875 -6.109375 3.46875 -6.09375 3.25 -6.09375 C 3.046875 -6.09375 2.828125 -6.09375 2.625 -6.109375 C 2.46875 -6.109375 2.1875 -6.125 2.03125 -6.125 C 1.984375 -6.125 1.859375 -6.125 1.859375 -5.96875 C 1.859375 -5.84375 1.9375 -5.84375 2.125 -5.84375 C 2.15625 -5.84375 2.328125 -5.84375 2.46875 -5.828125 C 2.625 -5.8125 2.6875 -5.796875 2.6875 -5.6875 C 2.6875 -5.65625 2.671875 -5.609375 2.640625 -5.515625 L 1.4375 -0.6875 C 1.359375 -0.359375 1.34375 -0.28125 0.65625 -0.28125 C 0.5 -0.28125 0.390625 -0.28125 0.390625 -0.109375 C 0.390625 0 0.484375 0 0.640625 0 L 4.875 0 C 5.09375 0 5.109375 -0.015625 5.171875 -0.203125 C 5.265625 -0.421875 5.90625 -2.125 5.90625 -2.203125 C 5.90625 -2.265625 5.84375 -2.3125 5.78125 -2.3125 C 5.6875 -2.3125 5.6875 -2.28125 5.609375 -2.09375 C 5.3125 -1.296875 4.921875 -0.28125 3.34375 -0.28125 L 2.453125 -0.28125 C 2.328125 -0.28125 2.3125 -0.28125 2.28125 -0.28125 C 2.1875 -0.296875 2.15625 -0.3125 2.15625 -0.375 C 2.15625 -0.390625 2.15625 -0.40625 2.203125 -0.578125 Z M 3.421875 -5.421875 "/>
</g>
<g id="glyph-2-1">
<path d="M 3.421875 -3.40625 C 3.25 -3.734375 2.984375 -3.96875 2.578125 -3.96875 C 1.53125 -3.96875 0.375 -2.71875 0.375 -1.359375 C 0.375 -0.375 1 0.09375 1.609375 0.09375 C 2.1875 0.09375 2.65625 -0.390625 2.8125 -0.5625 C 2.90625 -0.0625 3.359375 0.09375 3.640625 0.09375 C 3.90625 0.09375 4.125 -0.015625 4.328125 -0.390625 C 4.484375 -0.6875 4.609375 -1.25 4.609375 -1.28125 C 4.609375 -1.328125 4.578125 -1.390625 4.5 -1.390625 C 4.390625 -1.390625 4.375 -1.34375 4.34375 -1.171875 C 4.140625 -0.390625 3.953125 -0.125 3.671875 -0.125 C 3.4375 -0.125 3.390625 -0.34375 3.390625 -0.53125 C 3.390625 -0.703125 3.4375 -0.890625 3.515625 -1.203125 L 3.734375 -2.125 C 3.796875 -2.34375 3.96875 -3.015625 4 -3.15625 C 4.03125 -3.28125 4.09375 -3.5 4.09375 -3.53125 C 4.09375 -3.671875 3.96875 -3.78125 3.8125 -3.78125 C 3.6875 -3.78125 3.46875 -3.71875 3.421875 -3.40625 Z M 2.84375 -1.09375 C 2.796875 -0.921875 2.796875 -0.921875 2.65625 -0.75 C 2.328125 -0.359375 1.96875 -0.125 1.625 -0.125 C 1.1875 -0.125 1.046875 -0.578125 1.046875 -0.96875 C 1.046875 -1.40625 1.296875 -2.4375 1.515625 -2.875 C 1.796875 -3.40625 2.21875 -3.734375 2.578125 -3.734375 C 3.171875 -3.734375 3.3125 -3.015625 3.3125 -2.953125 C 3.3125 -2.921875 3.296875 -2.859375 3.28125 -2.828125 Z M 2.84375 -1.09375 "/>
</g>
<g id="glyph-3-0">
<path d="M 6.34375 -2.96875 C 6.46875 -2.96875 6.640625 -2.96875 6.640625 -3.15625 C 6.640625 -3.359375 6.453125 -3.359375 6.3125 -3.359375 L 0.84375 -3.359375 C 0.703125 -3.359375 0.515625 -3.359375 0.515625 -3.15625 C 0.515625 -2.96875 0.6875 -2.96875 0.8125 -2.96875 Z M 6.3125 -1.140625 C 6.453125 -1.140625 6.640625 -1.140625 6.640625 -1.34375 C 6.640625 -1.53125 6.46875 -1.53125 6.34375 -1.53125 L 0.8125 -1.53125 C 0.6875 -1.53125 0.515625 -1.53125 0.515625 -1.34375 C 0.515625 -1.140625 0.703125 -1.140625 0.84375 -1.140625 Z M 6.3125 -1.140625 "/>
</g>
<g id="glyph-3-1">
<path d="M 2.71875 -5.734375 C 2.71875 -5.953125 2.71875 -5.96875 2.5 -5.96875 C 1.9375 -5.40625 1.109375 -5.40625 0.828125 -5.40625 L 0.828125 -5.125 C 1 -5.125 1.546875 -5.125 2.03125 -5.359375 L 2.03125 -0.71875 C 2.03125 -0.390625 2.015625 -0.28125 1.171875 -0.28125 L 0.890625 -0.28125 L 0.890625 0 C 1.203125 -0.03125 2.015625 -0.03125 2.375 -0.03125 C 2.75 -0.03125 3.546875 -0.03125 3.875 0 L 3.875 -0.28125 L 3.59375 -0.28125 C 2.75 -0.28125 2.71875 -0.390625 2.71875 -0.71875 Z M 2.71875 -5.734375 "/>
</g>
<g id="glyph-4-0">
<path d="M 2.5 -5.078125 C 2.5 -5.296875 2.484375 -5.296875 2.265625 -5.296875 C 1.9375 -4.984375 1.515625 -4.796875 0.765625 -4.796875 L 0.765625 -4.53125 C 0.984375 -4.53125 1.40625 -4.53125 1.875 -4.734375 L 1.875 -0.65625 C 1.875 -0.359375 1.84375 -0.265625 1.09375 -0.265625 L 0.8125 -0.265625 L 0.8125 0 C 1.140625 -0.03125 1.828125 -0.03125 2.1875 -0.03125 C 2.546875 -0.03125 3.234375 -0.03125 3.5625 0 L 3.5625 -0.265625 L 3.28125 -0.265625 C 2.53125 -0.265625 2.5 -0.359375 2.5 -0.65625 Z M 2.5 -5.078125 "/>
</g>
<g id="glyph-4-1">
<path d="M 2.25 -1.625 C 2.375 -1.75 2.703125 -2.015625 2.84375 -2.125 C 3.328125 -2.578125 3.796875 -3.015625 3.796875 -3.734375 C 3.796875 -4.6875 3 -5.296875 2.015625 -5.296875 C 1.046875 -5.296875 0.421875 -4.578125 0.421875 -3.859375 C 0.421875 -3.46875 0.734375 -3.421875 0.84375 -3.421875 C 1.015625 -3.421875 1.265625 -3.53125 1.265625 -3.84375 C 1.265625 -4.25 0.859375 -4.25 0.765625 -4.25 C 1 -4.84375 1.53125 -5.03125 1.921875 -5.03125 C 2.65625 -5.03125 3.046875 -4.40625 3.046875 -3.734375 C 3.046875 -2.90625 2.46875 -2.296875 1.515625 -1.34375 L 0.515625 -0.296875 C 0.421875 -0.21875 0.421875 -0.203125 0.421875 0 L 3.5625 0 L 3.796875 -1.421875 L 3.546875 -1.421875 C 3.53125 -1.265625 3.46875 -0.875 3.375 -0.71875 C 3.328125 -0.65625 2.71875 -0.65625 2.59375 -0.65625 L 1.171875 -0.65625 Z M 2.25 -1.625 "/>
</g>
<g id="glyph-4-2">
<path d="M 2.015625 -2.65625 C 2.640625 -2.65625 3.046875 -2.203125 3.046875 -1.359375 C 3.046875 -0.359375 2.484375 -0.078125 2.0625 -0.078125 C 1.625 -0.078125 1.015625 -0.234375 0.734375 -0.65625 C 1.03125 -0.65625 1.234375 -0.84375 1.234375 -1.09375 C 1.234375 -1.359375 1.046875 -1.53125 0.78125 -1.53125 C 0.578125 -1.53125 0.34375 -1.40625 0.34375 -1.078125 C 0.34375 -0.328125 1.15625 0.171875 2.078125 0.171875 C 3.125 0.171875 3.875 -0.5625 3.875 -1.359375 C 3.875 -2.03125 3.34375 -2.625 2.53125 -2.8125 C 3.15625 -3.03125 3.640625 -3.5625 3.640625 -4.203125 C 3.640625 -4.84375 2.921875 -5.296875 2.09375 -5.296875 C 1.234375 -5.296875 0.59375 -4.84375 0.59375 -4.234375 C 0.59375 -3.9375 0.78125 -3.8125 1 -3.8125 C 1.25 -3.8125 1.40625 -3.984375 1.40625 -4.21875 C 1.40625 -4.515625 1.140625 -4.625 0.96875 -4.625 C 1.3125 -5.0625 1.921875 -5.09375 2.0625 -5.09375 C 2.265625 -5.09375 2.875 -5.03125 2.875 -4.203125 C 2.875 -3.65625 2.640625 -3.3125 2.53125 -3.1875 C 2.296875 -2.9375 2.109375 -2.921875 1.625 -2.890625 C 1.46875 -2.890625 1.40625 -2.875 1.40625 -2.765625 C 1.40625 -2.65625 1.484375 -2.65625 1.625 -2.65625 Z M 2.015625 -2.65625 "/>
</g>
<g id="glyph-4-3">
<path d="M 3.140625 -5.15625 C 3.140625 -5.3125 3.140625 -5.375 2.96875 -5.375 C 2.875 -5.375 2.859375 -5.375 2.78125 -5.265625 L 0.234375 -1.5625 L 0.234375 -1.3125 L 2.484375 -1.3125 L 2.484375 -0.640625 C 2.484375 -0.34375 2.46875 -0.265625 1.84375 -0.265625 L 1.671875 -0.265625 L 1.671875 0 C 2.34375 -0.03125 2.359375 -0.03125 2.8125 -0.03125 C 3.265625 -0.03125 3.28125 -0.03125 3.953125 0 L 3.953125 -0.265625 L 3.78125 -0.265625 C 3.15625 -0.265625 3.140625 -0.34375 3.140625 -0.640625 L 3.140625 -1.3125 L 3.984375 -1.3125 L 3.984375 -1.5625 L 3.140625 -1.5625 Z M 2.546875 -4.515625 L 2.546875 -1.5625 L 0.515625 -1.5625 Z M 2.546875 -4.515625 "/>
</g>
<g id="glyph-4-4">
<path d="M 1.109375 -4.484375 C 1.21875 -4.453125 1.53125 -4.359375 1.875 -4.359375 C 2.875 -4.359375 3.46875 -5.0625 3.46875 -5.1875 C 3.46875 -5.28125 3.421875 -5.296875 3.375 -5.296875 C 3.359375 -5.296875 3.34375 -5.296875 3.28125 -5.265625 C 2.96875 -5.140625 2.59375 -5.046875 2.171875 -5.046875 C 1.703125 -5.046875 1.3125 -5.15625 1.0625 -5.265625 C 0.984375 -5.296875 0.96875 -5.296875 0.953125 -5.296875 C 0.859375 -5.296875 0.859375 -5.21875 0.859375 -5.0625 L 0.859375 -2.734375 C 0.859375 -2.59375 0.859375 -2.5 0.984375 -2.5 C 1.046875 -2.5 1.0625 -2.53125 1.109375 -2.59375 C 1.203125 -2.703125 1.5 -3.109375 2.1875 -3.109375 C 2.625 -3.109375 2.84375 -2.75 2.921875 -2.59375 C 3.046875 -2.3125 3.0625 -1.9375 3.0625 -1.640625 C 3.0625 -1.34375 3.0625 -0.90625 2.84375 -0.5625 C 2.6875 -0.3125 2.359375 -0.078125 1.9375 -0.078125 C 1.421875 -0.078125 0.921875 -0.390625 0.734375 -0.921875 C 0.75 -0.90625 0.8125 -0.90625 0.8125 -0.90625 C 1.03125 -0.90625 1.21875 -1.046875 1.21875 -1.296875 C 1.21875 -1.59375 0.984375 -1.703125 0.828125 -1.703125 C 0.671875 -1.703125 0.421875 -1.625 0.421875 -1.28125 C 0.421875 -0.5625 1.046875 0.171875 1.953125 0.171875 C 2.953125 0.171875 3.796875 -0.609375 3.796875 -1.59375 C 3.796875 -2.515625 3.125 -3.34375 2.1875 -3.34375 C 1.796875 -3.34375 1.421875 -3.21875 1.109375 -2.9375 Z M 1.109375 -4.484375 "/>
</g>
<g id="glyph-4-5">
<path d="M 1.09375 -2.640625 C 1.09375 -3.296875 1.15625 -3.875 1.4375 -4.359375 C 1.6875 -4.765625 2.09375 -5.09375 2.59375 -5.09375 C 2.75 -5.09375 3.109375 -5.0625 3.296875 -4.796875 C 2.9375 -4.765625 2.90625 -4.5 2.90625 -4.421875 C 2.90625 -4.171875 3.09375 -4.046875 3.28125 -4.046875 C 3.421875 -4.046875 3.65625 -4.125 3.65625 -4.4375 C 3.65625 -4.90625 3.296875 -5.296875 2.578125 -5.296875 C 1.46875 -5.296875 0.34375 -4.25 0.34375 -2.53125 C 0.34375 -0.359375 1.359375 0.171875 2.125 0.171875 C 2.515625 0.171875 2.921875 0.0625 3.28125 -0.28125 C 3.609375 -0.59375 3.875 -0.921875 3.875 -1.625 C 3.875 -2.65625 3.078125 -3.390625 2.203125 -3.390625 C 1.625 -3.390625 1.28125 -3.03125 1.09375 -2.640625 Z M 2.125 -0.078125 C 1.703125 -0.078125 1.4375 -0.359375 1.328125 -0.59375 C 1.140625 -0.953125 1.125 -1.484375 1.125 -1.796875 C 1.125 -2.578125 1.546875 -3.171875 2.171875 -3.171875 C 2.5625 -3.171875 2.8125 -2.96875 2.953125 -2.6875 C 3.125 -2.390625 3.125 -2.03125 3.125 -1.625 C 3.125 -1.21875 3.125 -0.875 2.96875 -0.578125 C 2.75 -0.21875 2.484375 -0.078125 2.125 -0.078125 Z M 2.125 -0.078125 "/>
</g>
<g id="glyph-4-6">
<path d="M 4.03125 -4.859375 C 4.109375 -4.9375 4.109375 -4.953125 4.109375 -5.125 L 2.078125 -5.125 C 1.875 -5.125 1.640625 -5.140625 1.4375 -5.15625 C 1.015625 -5.1875 1.015625 -5.265625 0.984375 -5.390625 L 0.734375 -5.390625 L 0.46875 -3.703125 L 0.71875 -3.703125 C 0.734375 -3.828125 0.828125 -4.375 0.9375 -4.4375 C 1.015625 -4.484375 1.625 -4.484375 1.734375 -4.484375 L 3.421875 -4.484375 L 2.609375 -3.375 C 1.703125 -2.171875 1.5 -0.90625 1.5 -0.28125 C 1.5 -0.203125 1.5 0.171875 1.875 0.171875 C 2.25 0.171875 2.25 -0.1875 2.25 -0.28125 L 2.25 -0.671875 C 2.25 -1.8125 2.453125 -2.75 2.84375 -3.28125 Z M 4.03125 -4.859375 "/>
</g>
<g id="glyph-4-7">
<path d="M 2.640625 -2.875 C 3.09375 -3.09375 3.640625 -3.484375 3.640625 -4.109375 C 3.640625 -4.875 2.859375 -5.296875 2.125 -5.296875 C 1.28125 -5.296875 0.59375 -4.71875 0.59375 -3.96875 C 0.59375 -3.671875 0.6875 -3.40625 0.890625 -3.171875 C 1.03125 -3 1.0625 -2.984375 1.546875 -2.671875 C 0.5625 -2.234375 0.34375 -1.65625 0.34375 -1.21875 C 0.34375 -0.328125 1.234375 0.171875 2.109375 0.171875 C 3.078125 0.171875 3.875 -0.5 3.875 -1.34375 C 3.875 -1.84375 3.609375 -2.171875 3.46875 -2.3125 C 3.34375 -2.4375 3.328125 -2.453125 2.640625 -2.875 Z M 1.40625 -3.625 C 1.171875 -3.765625 0.984375 -4 0.984375 -4.265625 C 0.984375 -4.765625 1.53125 -5.09375 2.109375 -5.09375 C 2.71875 -5.09375 3.234375 -4.671875 3.234375 -4.109375 C 3.234375 -3.65625 2.875 -3.265625 2.40625 -3.03125 Z M 1.796875 -2.53125 C 1.828125 -2.515625 2.734375 -1.953125 2.875 -1.875 C 3 -1.796875 3.421875 -1.546875 3.421875 -1.0625 C 3.421875 -0.453125 2.765625 -0.078125 2.125 -0.078125 C 1.40625 -0.078125 0.8125 -0.5625 0.8125 -1.21875 C 0.8125 -1.8125 1.25 -2.28125 1.796875 -2.53125 Z M 1.796875 -2.53125 "/>
</g>
<g id="glyph-5-0">
<path d="M 5.5625 -1.8125 C 5.703125 -1.8125 5.875 -1.8125 5.875 -1.984375 C 5.875 -2.171875 5.703125 -2.171875 5.5625 -2.171875 L 1 -2.171875 C 0.875 -2.171875 0.703125 -2.171875 0.703125 -1.984375 C 0.703125 -1.8125 0.875 -1.8125 1 -1.8125 Z M 5.5625 -1.8125 "/>
</g>
<g id="glyph-6-0">
<path d="M 1.75 -2.078125 C 1.71875 -2.53125 1.296875 -2.640625 1.078125 -2.640625 C 0.84375 -2.640625 0.6875 -2.5 0.59375 -2.3125 C 0.4375 -2.0625 0.359375 -1.75 0.359375 -1.71875 C 0.359375 -1.65625 0.421875 -1.640625 0.46875 -1.640625 C 0.5625 -1.640625 0.578125 -1.671875 0.609375 -1.765625 C 0.71875 -2.25 0.875 -2.4375 1.0625 -2.4375 C 1.28125 -2.4375 1.28125 -2.203125 1.28125 -2.140625 C 1.28125 -2.046875 1.21875 -1.796875 1.171875 -1.640625 C 1.125 -1.46875 1.078125 -1.234375 1.046875 -1.09375 C 1 -0.953125 0.96875 -0.796875 0.921875 -0.640625 C 0.875 -0.46875 0.8125 -0.171875 0.8125 -0.140625 C 0.8125 0 0.90625 0.0625 1.015625 0.0625 C 1.125 0.0625 1.234375 -0.015625 1.28125 -0.109375 C 1.28125 -0.140625 1.34375 -0.34375 1.375 -0.46875 L 1.5 -1 C 1.546875 -1.15625 1.5625 -1.265625 1.609375 -1.40625 C 1.65625 -1.609375 1.859375 -1.921875 2.09375 -2.140625 C 2.203125 -2.265625 2.46875 -2.4375 2.78125 -2.4375 C 3.171875 -2.4375 3.171875 -2.140625 3.171875 -2.015625 C 3.171875 -1.671875 2.921875 -1.03125 2.8125 -0.765625 C 2.765625 -0.65625 2.734375 -0.5625 2.734375 -0.453125 C 2.734375 -0.15625 3 0.0625 3.328125 0.0625 C 3.9375 0.0625 4.234375 -0.734375 4.234375 -0.859375 C 4.234375 -0.875 4.234375 -0.953125 4.125 -0.953125 C 4.046875 -0.953125 4.03125 -0.921875 4 -0.796875 C 3.90625 -0.484375 3.65625 -0.140625 3.34375 -0.140625 C 3.234375 -0.140625 3.1875 -0.234375 3.1875 -0.359375 C 3.1875 -0.46875 3.234375 -0.578125 3.28125 -0.703125 C 3.375 -0.9375 3.640625 -1.609375 3.640625 -1.9375 C 3.640625 -2.4375 3.265625 -2.640625 2.8125 -2.640625 C 2.515625 -2.640625 2.140625 -2.546875 1.75 -2.078125 Z M 1.75 -2.078125 "/>
</g>
<g id="glyph-7-0">
<path d="M 2.953125 -1.34375 L 4.890625 -1.34375 C 4.96875 -1.34375 5.109375 -1.34375 5.109375 -1.5 C 5.109375 -1.65625 4.96875 -1.65625 4.890625 -1.65625 L 2.953125 -1.65625 L 2.953125 -3.59375 C 2.953125 -3.671875 2.953125 -3.828125 2.796875 -3.828125 C 2.640625 -3.828125 2.640625 -3.671875 2.640625 -3.59375 L 2.640625 -1.65625 L 0.703125 -1.65625 C 0.625 -1.65625 0.46875 -1.65625 0.46875 -1.5 C 0.46875 -1.34375 0.625 -1.34375 0.703125 -1.34375 L 2.640625 -1.34375 L 2.640625 0.59375 C 2.640625 0.6875 2.640625 0.828125 2.796875 0.828125 C 2.953125 0.828125 2.953125 0.6875 2.953125 0.59375 Z M 2.953125 -1.34375 "/>
</g>
<g id="glyph-7-1">
<path d="M 2.140625 -3.796875 C 2.140625 -3.984375 2.125 -3.984375 1.9375 -3.984375 C 1.546875 -3.59375 0.9375 -3.59375 0.71875 -3.59375 L 0.71875 -3.359375 C 0.875 -3.359375 1.28125 -3.359375 1.640625 -3.53125 L 1.640625 -0.515625 C 1.640625 -0.3125 1.640625 -0.234375 1.015625 -0.234375 L 0.765625 -0.234375 L 0.765625 0 C 1.09375 -0.03125 1.5625 -0.03125 1.890625 -0.03125 C 2.21875 -0.03125 2.6875 -0.03125 3.015625 0 L 3.015625 -0.234375 L 2.765625 -0.234375 C 2.140625 -0.234375 2.140625 -0.3125 2.140625 -0.515625 Z M 2.140625 -3.796875 "/>
</g>
</g>
</defs>
<path fill="none" stroke-width="0.3985" stroke-linecap="butt" stroke-linejoin="miter" stroke="rgb(0%, 0%, 0%)" stroke-opacity="1" stroke-miterlimit="10" d="M -9.211562 -0.00103125 L 165.429063 -0.00103125 " transform="matrix(1, 0, 0, -1, 24.485, 54.456)"/>
<path fill="none" stroke-width="0.3985" stroke-linecap="round" stroke-linejoin="round" stroke="rgb(0%, 0%, 0%)" stroke-opacity="1" stroke-miterlimit="10" d="M -2.073937 2.389594 C -1.695031 0.956 -0.851281 0.280219 0.00028125 -0.00103125 C -0.851281 -0.278375 -1.695031 -0.958062 -2.073937 -2.391656 " transform="matrix(1, 0, 0, -1, 190.113, 54.456)"/>
<g fill="rgb(0%, 0%, 0%)" fill-opacity="1">
<use xlink:href="#glyph-0-0" x="193.83" y="56.601"/>
</g>
<path fill="none" stroke-width="0.3985" stroke-linecap="butt" stroke-linejoin="miter" stroke="rgb(0%, 0%, 0%)" stroke-opacity="1" stroke-miterlimit="10" d="M -0.000625 -27.63775 L -0.000625 36.452094 " transform="matrix(1, 0, 0, -1, 24.485, 54.456)"/>
<path fill="none" stroke-width="0.3985" stroke-linecap="round" stroke-linejoin="round" stroke="rgb(0%, 0%, 0%)" stroke-opacity="1" stroke-miterlimit="10" d="M -2.074136 2.39125 C -1.69523 0.957656 -0.85148 0.277969 0.0000825 0.000625 C -0.85148 -0.280625 -1.69523 -0.956406 -2.074136 -2.39 " transform="matrix(0, -1, -1, 0, 24.485, 17.80477)"/>
<g fill="rgb(0%, 0%, 0%)" fill-opacity="1">
<use xlink:href="#glyph-0-1" x="19.14" y="12.592"/>
</g>
<g fill="rgb(0%, 0%, 0%)" fill-opacity="1">
<use xlink:href="#glyph-1-0" x="24.406" y="14.086"/>
</g>
<path fill="none" stroke-width="0.79701" stroke-linecap="butt" stroke-linejoin="miter" stroke="rgb(48.234558%, 68.232727%, 49.804688%)" stroke-opacity="1" stroke-dasharray="2.98883 2.98883" stroke-miterlimit="10" d="M -0.000625 18.42475 L 156.616563 18.42475 " transform="matrix(1, 0, 0, -1, 24.485, 54.456)"/>
<g fill="rgb(48.234558%, 68.232727%, 49.804688%)" fill-opacity="1">
<use xlink:href="#glyph-2-0" x="184.817" y="39.094"/>
</g>
<g fill="rgb(48.234558%, 68.232727%, 49.804688%)" fill-opacity="1">
<use xlink:href="#glyph-3-0" x="193.643524" y="39.094"/>
</g>
<g fill="rgb(48.234558%, 68.232727%, 49.804688%)" fill-opacity="1">
<use xlink:href="#glyph-3-1" x="203.375655" y="39.094"/>
</g>
<path fill="none" stroke-width="0.19925" stroke-linecap="butt" stroke-linejoin="miter" stroke="rgb(89.99939%, 89.99939%, 89.99939%)" stroke-opacity="1" stroke-miterlimit="10" d="M -0.000625 -18.426812 L 156.616563 -18.426812 M -0.000625 -0.00103125 L 156.616563 -0.00103125 M -0.000625 18.42475 L 156.616563 18.42475 M -0.000625 -18.426812 L -0.000625 27.639594 M 18.425156 -18.426812 L 18.425156 27.639594 M 36.850938 -18.426812 L 36.850938 27.639594 M 55.276719 -18.426812 L 55.276719 27.639594 M 73.7025 -18.426812 L 73.7025 27.639594 M 92.124375 -18.426812 L 92.124375 27.639594 M 110.550156 -18.426812 L 110.550156 27.639594 M 128.975938 -18.426812 L 128.975938 27.639594 M 147.401719 -18.426812 L 147.401719 27.639594 " transform="matrix(1, 0, 0, -1, 24.485, 54.456)"/>
<path fill="none" stroke-width="0.3985" stroke-linecap="butt" stroke-linejoin="miter" stroke="rgb(0%, 0%, 0%)" stroke-opacity="1" stroke-miterlimit="10" d="M 18.425156 1.842719 L 18.425156 -1.840875 " transform="matrix(1, 0, 0, -1, 24.485, 54.456)"/>
<g fill="rgb(0%, 0%, 0%)" fill-opacity="1">
<use xlink:href="#glyph-4-0" x="40.793" y="64.955"/>
</g>
<path fill="none" stroke-width="0.3985" stroke-linecap="butt" stroke-linejoin="miter" stroke="rgb(0%, 0%, 0%)" stroke-opacity="1" stroke-miterlimit="10" d="M 36.850938 1.842719 L 36.850938 -1.840875 " transform="matrix(1, 0, 0, -1, 24.485, 54.456)"/>
<g fill="rgb(0%, 0%, 0%)" fill-opacity="1">
<use xlink:href="#glyph-4-1" x="59.218" y="64.955"/>
</g>
<path fill="none" stroke-width="0.3985" stroke-linecap="butt" stroke-linejoin="miter" stroke="rgb(0%, 0%, 0%)" stroke-opacity="1" stroke-miterlimit="10" d="M 55.276719 1.842719 L 55.276719 -1.840875 " transform="matrix(1, 0, 0, -1, 24.485, 54.456)"/>
<g fill="rgb(0%, 0%, 0%)" fill-opacity="1">
<use xlink:href="#glyph-4-2" x="77.643" y="64.955"/>
</g>
<path fill="none" stroke-width="0.3985" stroke-linecap="butt" stroke-linejoin="miter" stroke="rgb(0%, 0%, 0%)" stroke-opacity="1" stroke-miterlimit="10" d="M 73.7025 1.842719 L 73.7025 -1.840875 " transform="matrix(1, 0, 0, -1, 24.485, 54.456)"/>
<g fill="rgb(0%, 0%, 0%)" fill-opacity="1">
<use xlink:href="#glyph-4-3" x="96.068" y="64.955"/>
</g>
<path fill="none" stroke-width="0.3985" stroke-linecap="butt" stroke-linejoin="miter" stroke="rgb(0%, 0%, 0%)" stroke-opacity="1" stroke-miterlimit="10" d="M 92.124375 1.842719 L 92.124375 -1.840875 " transform="matrix(1, 0, 0, -1, 24.485, 54.456)"/>
<g fill="rgb(0%, 0%, 0%)" fill-opacity="1">
<use xlink:href="#glyph-4-4" x="114.493" y="64.955"/>
</g>
<path fill="none" stroke-width="0.3985" stroke-linecap="butt" stroke-linejoin="miter" stroke="rgb(0%, 0%, 0%)" stroke-opacity="1" stroke-miterlimit="10" d="M 110.550156 1.842719 L 110.550156 -1.840875 " transform="matrix(1, 0, 0, -1, 24.485, 54.456)"/>
<g fill="rgb(0%, 0%, 0%)" fill-opacity="1">
<use xlink:href="#glyph-4-5" x="132.918" y="64.955"/>
</g>
<path fill="none" stroke-width="0.3985" stroke-linecap="butt" stroke-linejoin="miter" stroke="rgb(0%, 0%, 0%)" stroke-opacity="1" stroke-miterlimit="10" d="M 128.975938 1.842719 L 128.975938 -1.840875 " transform="matrix(1, 0, 0, -1, 24.485, 54.456)"/>
<g fill="rgb(0%, 0%, 0%)" fill-opacity="1">
<use xlink:href="#glyph-4-6" x="151.343" y="64.955"/>
</g>
<path fill="none" stroke-width="0.3985" stroke-linecap="butt" stroke-linejoin="miter" stroke="rgb(0%, 0%, 0%)" stroke-opacity="1" stroke-miterlimit="10" d="M 147.401719 1.842719 L 147.401719 -1.840875 " transform="matrix(1, 0, 0, -1, 24.485, 54.456)"/>
<g fill="rgb(0%, 0%, 0%)" fill-opacity="1">
<use xlink:href="#glyph-4-7" x="169.768" y="64.955"/>
</g>
<g fill="rgb(0%, 0%, 0%)" fill-opacity="1">
<use xlink:href="#glyph-4-0" x="14.888" y="38.599"/>
</g>
<g fill="rgb(0%, 0%, 0%)" fill-opacity="1">
<use xlink:href="#glyph-5-0" x="8.302" y="75.034"/>
</g>
<g fill="rgb(0%, 0%, 0%)" fill-opacity="1">
<use xlink:href="#glyph-4-0" x="14.888491" y="75.034"/>
</g>
<path fill-rule="nonzero" fill="rgb(35.68573%, 64.312744%, 64.312744%)" fill-opacity="1" d="M 45.5 45.242188 C 45.5 43.8125 44.339844 42.652344 42.910156 42.652344 C 41.480469 42.652344 40.320312 43.8125 40.320312 45.242188 C 40.320312 46.675781 41.480469 47.832031 42.910156 47.832031 C 44.339844 47.832031 45.5 46.675781 45.5 45.242188 Z M 45.5 45.242188 "/>
<path fill-rule="nonzero" fill="rgb(35.68573%, 64.312744%, 64.312744%)" fill-opacity="1" d="M 63.925781 42.171875 C 63.925781 40.742188 62.765625 39.582031 61.335938 39.582031 C 59.90625 39.582031 58.746094 40.742188 58.746094 42.171875 C 58.746094 43.601562 59.90625 44.761719 61.335938 44.761719 C 62.765625 44.761719 63.925781 43.601562 63.925781 42.171875 Z M 63.925781 42.171875 "/>
<path fill-rule="nonzero" fill="rgb(35.68573%, 64.312744%, 64.312744%)" fill-opacity="1" d="M 82.351562 40.636719 C 82.351562 39.207031 81.191406 38.046875 79.761719 38.046875 C 78.332031 38.046875 77.171875 39.207031 77.171875 40.636719 C 77.171875 42.066406 78.332031 43.226562 79.761719 43.226562 C 81.191406 43.226562 82.351562 42.066406 82.351562 40.636719 Z M 82.351562 40.636719 "/>
<path fill-rule="nonzero" fill="rgb(35.68573%, 64.312744%, 64.312744%)" fill-opacity="1" d="M 100.777344 39.714844 C 100.777344 38.285156 99.617188 37.125 98.1875 37.125 C 96.753906 37.125 95.59375 38.285156 95.59375 39.714844 C 95.59375 41.148438 96.753906 42.304688 98.1875 42.304688 C 99.617188 42.304688 100.777344 41.148438 100.777344 39.714844 Z M 100.777344 39.714844 "/>
<path fill-rule="nonzero" fill="rgb(35.68573%, 64.312744%, 64.312744%)" fill-opacity="1" d="M 119.203125 39.101562 C 119.203125 37.671875 118.042969 36.511719 116.609375 36.511719 C 115.179688 36.511719 114.019531 37.671875 114.019531 39.101562 C 114.019531 40.53125 115.179688 41.691406 116.609375 41.691406 C 118.042969 41.691406 119.203125 40.53125 119.203125 39.101562 Z M 119.203125 39.101562 "/>
<path fill-rule="nonzero" fill="rgb(35.68573%, 64.312744%, 64.312744%)" fill-opacity="1" d="M 137.625 38.664062 C 137.625 37.234375 136.46875 36.074219 135.035156 36.074219 C 133.605469 36.074219 132.445312 37.234375 132.445312 38.664062 C 132.445312 40.09375 133.605469 41.253906 135.035156 41.253906 C 136.46875 41.253906 137.625 40.09375 137.625 38.664062 Z M 137.625 38.664062 "/>
<path fill-rule="nonzero" fill="rgb(35.68573%, 64.312744%, 64.312744%)" fill-opacity="1" d="M 156.050781 38.332031 C 156.050781 36.902344 154.890625 35.742188 153.460938 35.742188 C 152.03125 35.742188 150.871094 36.902344 150.871094 38.332031 C 150.871094 39.765625 152.03125 40.925781 153.460938 40.925781 C 154.890625 40.925781 156.050781 39.765625 156.050781 38.332031 Z M 156.050781 38.332031 "/>
<path fill-rule="nonzero" fill="rgb(35.68573%, 64.312744%, 64.312744%)" fill-opacity="1" d="M 174.476562 38.078125 C 174.476562 36.648438 173.316406 35.488281 171.886719 35.488281 C 170.457031 35.488281 169.296875 36.648438 169.296875 38.078125 C 169.296875 39.507812 170.457031 40.667969 171.886719 40.667969 C 173.316406 40.667969 174.476562 39.507812 174.476562 38.078125 Z M 174.476562 38.078125 "/>
<g fill="rgb(35.68573%, 64.312744%, 64.312744%)" fill-opacity="1">
<use xlink:href="#glyph-2-1" x="106.571" y="50.116"/>
</g>
<g fill="rgb(35.68573%, 64.312744%, 64.312744%)" fill-opacity="1">
<use xlink:href="#glyph-6-0" x="111.453" y="51.112"/>
</g>
<g fill="rgb(35.68573%, 64.312744%, 64.312744%)" fill-opacity="1">
<use xlink:href="#glyph-3-0" x="119.112" y="50.116"/>
</g>
<g fill="rgb(35.68573%, 64.312744%, 64.312744%)" fill-opacity="1">
<use xlink:href="#glyph-6-0" x="134.656" y="46.442"/>
</g>
<path fill="none" stroke-width="0.379" stroke-linecap="butt" stroke-linejoin="miter" stroke="rgb(35.68573%, 64.312744%, 64.312744%)" stroke-opacity="1" stroke-miterlimit="10" d="M 0.00015625 -0.001 L 13.843906 -0.001 " transform="matrix(1, 0, 0, -1, 130.035, 47.874)"/>
<g fill="rgb(35.68573%, 64.312744%, 64.312744%)" fill-opacity="1">
<use xlink:href="#glyph-6-0" x="130.035" y="53.158"/>
</g>
<g fill="rgb(35.68573%, 64.312744%, 64.312744%)" fill-opacity="1">
<use xlink:href="#glyph-7-0" x="134.635959" y="53.158"/>
<use xlink:href="#glyph-7-1" x="140.22621" y="53.158"/>
</g>
</svg>
