<?xml version="1.0" encoding="UTF-8"?>
<svg xmlns="http://www.w3.org/2000/svg" xmlns:xlink="http://www.w3.org/1999/xlink" width="208.112pt" height="89.116pt" viewBox="0 0 208.112 89.116">
<defs>
<g>
<g id="glyph-0-0">
<path d="M 0.875 -0.59375 C 0.84375 -0.4375 0.78125 -0.203125 0.78125 -0.15625 C 0.78125 0.015625 0.921875 0.109375 1.078125 0.109375 C 1.203125 0.109375 1.375 0.03125 1.453125 -0.171875 C 1.453125 -0.1875 1.578125 -0.65625 1.640625 -0.90625 L 1.859375 -1.796875 C 1.90625 -2.03125 1.96875 -2.25 2.03125 -2.46875 C 2.0625 -2.640625 2.140625 -2.9375 2.15625 -2.96875 C 2.296875 -3.28125 2.828125 -4.1875 3.78125 -4.1875 C 4.234375 -4.1875 4.3125 -3.8125 4.3125 -3.484375 C 4.3125 -2.875 3.828125 -1.59375 3.671875 -1.171875 C 3.578125 -0.9375 3.5625 -0.8125 3.5625 -0.703125 C 3.5625 -0.234375 3.921875 0.109375 4.390625 0.109375 C 5.328125 0.109375 5.6875 -1.34375 5.6875 -1.421875 C 5.6875 -1.53125 5.609375 -1.53125 5.578125 -1.53125 C 5.46875 -1.53125 5.46875 -1.5 5.421875 -1.34375 C 5.21875 -0.671875 4.890625 -0.109375 4.40625 -0.109375 C 4.234375 -0.109375 4.171875 -0.203125 4.171875 -0.4375 C 4.171875 -0.6875 4.25 -0.921875 4.34375 -1.140625 C 4.53125 -1.671875 4.953125 -2.765625 4.953125 -3.34375 C 4.953125 -4 4.53125 -4.40625 3.8125 -4.40625 C 2.90625 -4.40625 2.421875 -3.765625 2.25 -3.53125 C 2.203125 -4.09375 1.796875 -4.40625 1.328125 -4.40625 C 0.875 -4.40625 0.6875 -4.015625 0.59375 -3.84375 C 0.421875 -3.5 0.296875 -2.90625 0.296875 -2.875 C 0.296875 -2.765625 0.390625 -2.765625 0.40625 -2.765625 C 0.515625 -2.765625 0.515625 -2.78125 0.578125 -3 C 0.75 -3.703125 0.953125 -4.1875 1.3125 -4.1875 C 1.5 -4.1875 1.609375 -4.0625 1.609375 -3.734375 C 1.609375 -3.515625 1.578125 -3.40625 1.453125 -2.890625 Z M 0.875 -0.59375 "/>
</g>
<g id="glyph-0-1">
<path d="M 3.71875 -3.765625 C 3.53125 -4.140625 3.25 -4.40625 2.796875 -4.40625 C 1.640625 -4.40625 0.40625 -2.9375 0.40625 -1.484375 C 0.40625 -0.546875 0.953125 0.109375 1.71875 0.109375 C 1.921875 0.109375 2.421875 0.0625 3.015625 -0.640625 C 3.09375 -0.21875 3.453125 0.109375 3.921875 0.109375 C 4.28125 0.109375 4.5 -0.125 4.671875 -0.4375 C 4.828125 -0.796875 4.96875 -1.40625 4.96875 -1.421875 C 4.96875 -1.53125 4.875 -1.53125 4.84375 -1.53125 C 4.75 -1.53125 4.734375 -1.484375 4.703125 -1.34375 C 4.53125 -0.703125 4.359375 -0.109375 3.953125 -0.109375 C 3.671875 -0.109375 3.65625 -0.375 3.65625 -0.5625 C 3.65625 -0.78125 3.671875 -0.875 3.78125 -1.3125 C 3.890625 -1.71875 3.90625 -1.828125 4 -2.203125 L 4.359375 -3.59375 C 4.421875 -3.875 4.421875 -3.890625 4.421875 -3.9375 C 4.421875 -4.109375 4.3125 -4.203125 4.140625 -4.203125 C 3.890625 -4.203125 3.75 -3.984375 3.71875 -3.765625 Z M 3.078125 -1.1875 C 3.015625 -1 3.015625 -0.984375 2.875 -0.8125 C 2.4375 -0.265625 2.03125 -0.109375 1.75 -0.109375 C 1.25 -0.109375 1.109375 -0.65625 1.109375 -1.046875 C 1.109375 -1.546875 1.421875 -2.765625 1.65625 -3.234375 C 1.96875 -3.8125 2.40625 -4.1875 2.8125 -4.1875 C 3.453125 -4.1875 3.59375 -3.375 3.59375 -3.3125 C 3.59375 -3.25 3.578125 -3.1875 3.5625 -3.140625 Z M 3.078125 -1.1875 "/>
</g>
<g id="glyph-1-0">
<path d="M 0.84375 -0.4375 C 0.828125 -0.34375 0.78125 -0.171875 0.78125 -0.15625 C 0.78125 0 0.90625 0.0625 1.015625 0.0625 C 1.140625 0.0625 1.25 -0.015625 1.296875 -0.078125 C 1.328125 -0.140625 1.375 -0.375 1.421875 -0.515625 C 1.453125 -0.640625 1.53125 -0.96875 1.5625 -1.140625 C 1.609375 -1.296875 1.65625 -1.453125 1.6875 -1.609375 C 1.765625 -1.890625 1.78125 -1.953125 1.984375 -2.234375 C 2.171875 -2.515625 2.5 -2.875 3.03125 -2.875 C 3.421875 -2.875 3.4375 -2.515625 3.4375 -2.390625 C 3.4375 -1.96875 3.140625 -1.203125 3.03125 -0.90625 C 2.953125 -0.703125 2.921875 -0.640625 2.921875 -0.53125 C 2.921875 -0.15625 3.21875 0.0625 3.578125 0.0625 C 4.28125 0.0625 4.578125 -0.890625 4.578125 -1 C 4.578125 -1.09375 4.5 -1.09375 4.46875 -1.09375 C 4.375 -1.09375 4.375 -1.046875 4.34375 -0.96875 C 4.1875 -0.40625 3.875 -0.125 3.609375 -0.125 C 3.453125 -0.125 3.421875 -0.21875 3.421875 -0.375 C 3.421875 -0.53125 3.46875 -0.625 3.59375 -0.9375 C 3.671875 -1.15625 3.953125 -1.890625 3.953125 -2.28125 C 3.953125 -2.953125 3.421875 -3.078125 3.046875 -3.078125 C 2.46875 -3.078125 2.078125 -2.71875 1.875 -2.4375 C 1.828125 -2.921875 1.421875 -3.078125 1.125 -3.078125 C 0.828125 -3.078125 0.671875 -2.859375 0.578125 -2.703125 C 0.421875 -2.4375 0.328125 -2.046875 0.328125 -2 C 0.328125 -1.921875 0.421875 -1.921875 0.453125 -1.921875 C 0.546875 -1.921875 0.546875 -1.9375 0.59375 -2.125 C 0.703125 -2.53125 0.84375 -2.875 1.109375 -2.875 C 1.296875 -2.875 1.34375 -2.71875 1.34375 -2.53125 C 1.34375 -2.40625 1.28125 -2.140625 1.21875 -1.953125 C 1.171875 -1.765625 1.109375 -1.484375 1.078125 -1.328125 Z M 0.84375 -0.4375 "/>
</g>
<g id="glyph-2-0">
<path d="M 2.5 -5.078125 C 2.5 -5.296875 2.484375 -5.296875 2.265625 -5.296875 C 1.9375 -4.984375 1.515625 -4.796875 0.765625 -4.796875 L 0.765625 -4.53125 C 0.984375 -4.53125 1.40625 -4.53125 1.875 -4.734375 L 1.875 -0.65625 C 1.875 -0.359375 1.84375 -0.265625 1.09375 -0.265625 L 0.8125 -0.265625 L 0.8125 0 C 1.140625 -0.03125 1.828125 -0.03125 2.1875 -0.03125 C 2.546875 -0.03125 3.234375 -0.03125 3.5625 0 L 3.5625 -0.265625 L 3.28125 -0.265625 C 2.53125 -0.265625 2.5 -0.359375 2.5 -0.65625 Z M 2.5 -5.078125 "/>
</g>
<g id="glyph-2-1">
<path d="M 2.25 -1.625 C 2.375 -1.75 2.703125 -2.015625 2.84375 -2.125 C 3.328125 -2.578125 3.796875 -3.015625 3.796875 -3.734375 C 3.796875 -4.6875 3 -5.296875 2.015625 -5.296875 C 1.046875 -5.296875 0.421875 -4.578125 0.421875 -3.859375 C 0.421875 -3.46875 0.734375 -3.421875 0.84375 -3.421875 C 1.015625 -3.421875 1.265625 -3.53125 1.265625 -3.84375 C 1.265625 -4.25 0.859375 -4.25 0.765625 -4.25 C 1 -4.84375 1.53125 -5.03125 1.921875 -5.03125 C 2.65625 -5.03125 3.046875 -4.40625 3.046875 -3.734375 C 3.046875 -2.90625 2.46875 -2.296875 1.515625 -1.34375 L 0.515625 -0.296875 C 0.421875 -0.21875 0.421875 -0.203125 0.421875 0 L 3.5625 0 L 3.796875 -1.421875 L 3.546875 -1.421875 C 3.53125 -1.265625 3.46875 -0.875 3.375 -0.71875 C 3.328125 -0.65625 2.71875 -0.65625 2.59375 -0.65625 L 1.171875 -0.65625 Z M 2.25 -1.625 "/>
</g>
<g id="glyph-2-2">
<path d="M 2.015625 -2.65625 C 2.640625 -2.65625 3.046875 -2.203125 3.046875 -1.359375 C 3.046875 -0.359375 2.484375 -0.078125 2.0625 -0.078125 C 1.625 -0.078125 1.015625 -0.234375 0.734375 -0.65625 C 1.03125 -0.65625 1.234375 -0.84375 1.234375 -1.09375 C 1.234375 -1.359375 1.046875 -1.53125 0.78125 -1.53125 C 0.578125 -1.53125 0.34375 -1.40625 0.34375 -1.078125 C 0.34375 -0.328125 1.15625 0.171875 2.078125 0.171875 C 3.125 0.171875 3.875 -0.5625 3.875 -1.359375 C 3.875 -2.03125 3.34375 -2.625 2.53125 -2.8125 C 3.15625 -3.03125 3.640625 -3.5625 3.640625 -4.203125 C 3.640625 -4.84375 2.921875 -5.296875 2.09375 -5.296875 C 1.234375 -5.296875 0.59375 -4.84375 0.59375 -4.234375 C 0.59375 -3.9375 0.78125 -3.8125 1 -3.8125 C 1.25 -3.8125 1.40625 -3.984375 1.40625 -4.21875 C 1.40625 -4.515625 1.140625 -4.625 0.96875 -4.625 C 1.3125 -5.0625 1.921875 -5.09375 2.0625 -5.09375 C 2.265625 -5.09375 2.875 -5.03125 2.875 -4.203125 C 2.875 -3.65625 2.640625 -3.3125 2.53125 -3.1875 C 2.296875 -2.9375 2.109375 -2.921875 1.625 -2.890625 C 1.46875 -2.890625 1.40625 -2.875 1.40625 -2.765625 C 1.40625 -2.65625 1.484375 -2.65625 1.625 -2.65625 Z M 2.015625 -2.65625 "/>
</g>
<g id="glyph-2-3">
<path d="M 3.140625 -5.15625 C 3.140625 -5.3125 3.140625 -5.375 2.96875 -5.375 C 2.875 -5.375 2.859375 -5.375 2.78125 -5.265625 L 0.234375 -1.5625 L 0.234375 -1.3125 L 2.484375 -1.3125 L 2.484375 -0.640625 C 2.484375 -0.34375 2.46875 -0.265625 1.84375 -0.265625 L 1.671875 -0.265625 L 1.671875 0 C 2.34375 -0.03125 2.359375 -0.03125 2.8125 -0.03125 C 3.265625 -0.03125 3.28125 -0.03125 3.953125 0 L 3.953125 -0.265625 L 3.78125 -0.265625 C 3.15625 -0.265625 3.140625 -0.34375 3.140625 -0.640625 L 3.140625 -1.3125 L 3.984375 -1.3125 L 3.984375 -1.5625 L 3.140625 -1.5625 Z M 2.546875 -4.515625 L 2.546875 -1.5625 L 0.515625 -1.5625 Z M 2.546875 -4.515625 "/>
</g>
<g id="glyph-2-4">
<path d="M 1.109375 -4.484375 C 1.21875 -4.453125 1.53125 -4.359375 1.875 -4.359375 C 2.875 -4.359375 3.46875 -5.0625 3.46875 -5.1875 C 3.46875 -5.28125 3.421875 -5.296875 3.375 -5.296875 C 3.359375 -5.296875 3.34375 -5.296875 3.28125 -5.265625 C 2.96875 -5.140625 2.59375 -5.046875 2.171875 -5.046875 C 1.703125 -5.046875 1.3125 -5.15625 1.0625 -5.265625 C 0.984375 -5.296875 0.96875 -5.296875 0.953125 -5.296875 C 0.859375 -5.296875 0.859375 -5.21875 0.859375 -5.0625 L 0.859375 -2.734375 C 0.859375 -2.59375 0.859375 -2.5 0.984375 -2.5 C 1.046875 -2.5 1.0625 -2.53125 1.109375 -2.59375 C 1.203125 -2.703125 1.5 -3.109375 2.1875 -3.109375 C 2.625 -3.109375 2.84375 -2.75 2.921875 -2.59375 C 3.046875 -2.3125 3.0625 -1.9375 3.0625 -1.640625 C 3.0625 -1.34375 3.0625 -0.90625 2.84375 -0.5625 C 2.6875 -0.3125 2.359375 -0.078125 1.9375 -0.078125 C 1.421875 -0.078125 0.921875 -0.390625 0.734375 -0.921875 C 0.75 -0.90625 0.8125 -0.90625 0.8125 -0.90625 C 1.03125 -0.90625 1.21875 -1.046875 1.21875 -1.296875 C 1.21875 -1.59375 0.984375 -1.703125 0.828125 -1.703125 C 0.671875 -1.703125 0.421875 -1.625 0.421875 -1.28125 C 0.421875 -0.5625 1.046875 0.171875 1.953125 0.171875 C 2.953125 0.171875 3.796875 -0.609375 3.796875 -1.59375 C 3.796875 -2.515625 3.125 -3.34375 2.1875 -3.34375 C 1.796875 -3.34375 1.421875 -3.21875 1.109375 -2.9375 Z M 1.109375 -4.484375 "/>
</g>
<g id="glyph-2-5">
<path d="M 1.09375 -2.640625 C 1.09375 -3.296875 1.15625 -3.875 1.4375 -4.359375 C 1.6875 -4.765625 2.09375 -5.09375 2.59375 -5.09375 C 2.75 -5.09375 3.109375 -5.0625 3.296875 -4.796875 C 2.9375 -4.765625 2.90625 -4.5 2.90625 -4.421875 C 2.90625 -4.171875 3.09375 -4.046875 3.28125 -4.046875 C 3.421875 -4.046875 3.65625 -4.125 3.65625 -4.4375 C 3.65625 -4.90625 3.296875 -5.296875 2.578125 -5.296875 C 1.46875 -5.296875 0.34375 -4.25 0.34375 -2.53125 C 0.34375 -0.359375 1.359375 0.171875 2.125 0.171875 C 2.515625 0.171875 2.921875 0.0625 3.28125 -0.28125 C 3.609375 -0.59375 3.875 -0.921875 3.875 -1.625 C 3.875 -2.65625 3.078125 -3.390625 2.203125 -3.390625 C 1.625 -3.390625 1.28125 -3.03125 1.09375 -2.640625 Z M 2.125 -0.078125 C 1.703125 -0.078125 1.4375 -0.359375 1.328125 -0.59375 C 1.140625 -0.953125 1.125 -1.484375 1.125 -1.796875 C 1.125 -2.578125 1.546875 -3.171875 2.171875 -3.171875 C 2.5625 -3.171875 2.8125 -2.96875 2.953125 -2.6875 C 3.125 -2.390625 3.125 -2.03125 3.125 -1.625 C 3.125 -1.21875 3.125 -0.875 2.96875 -0.578125 C 2.75 -0.21875 2.484375 -0.078125 2.125 -0.078125 Z M 2.125 -0.078125 "/>
</g>
<g id="glyph-2-6">
<path d="M 4.03125 -4.859375 C 4.109375 -4.9375 4.109375 -4.953125 4.109375 -5.125 L 2.078125 -5.125 C 1.875 -5.125 1.640625 -5.140625 1.4375 -5.15625 C 1.015625 -5.1875 1.015625 -5.265625 0.984375 -5.390625 L 0.734375 -5.390625 L 0.46875 -3.703125 L 0.71875 -3.703125 C 0.734375 -3.828125 0.828125 -4.375 0.9375 -4.4375 C 1.015625 -4.484375 1.625 -4.484375 1.734375 -4.484375 L 3.421875 -4.484375 L 2.609375 -3.375 C 1.703125 -2.171875 1.5 -0.90625 1.5 -0.28125 C 1.5 -0.203125 1.5 0.171875 1.875 0.171875 C 2.25 0.171875 2.25 -0.1875 2.25 -0.28125 L 2.25 -0.671875 C 2.25 -1.8125 2.453125 -2.75 2.84375 -3.28125 Z M 4.03125 -4.859375 "/>
</g>
<g id="glyph-2-7">
<path d="M 2.640625 -2.875 C 3.09375 -3.09375 3.640625 -3.484375 3.640625 -4.109375 C 3.640625 -4.875 2.859375 -5.296875 2.125 -5.296875 C 1.28125 -5.296875 0.59375 -4.71875 0.59375 -3.96875 C 0.59375 -3.671875 0.6875 -3.40625 0.890625 -3.171875 C 1.03125 -3 1.0625 -2.984375 1.546875 -2.671875 C 0.5625 -2.234375 0.34375 -1.65625 0.34375 -1.21875 C 0.34375 -0.328125 1.234375 0.171875 2.109375 0.171875 C 3.078125 0.171875 3.875 -0.5 3.875 -1.34375 C 3.875 -1.84375 3.609375 -2.171875 3.46875 -2.3125 C 3.34375 -2.4375 3.328125 -2.453125 2.640625 -2.875 Z M 1.40625 -3.625 C 1.171875 -3.765625 0.984375 -4 0.984375 -4.265625 C 0.984375 -4.765625 1.53125 -5.09375 2.109375 -5.09375 C 2.71875 -5.09375 3.234375 -4.671875 3.234375 -4.109375 C 3.234375 -3.65625 2.875 -3.265625 2.40625 -3.03125 Z M 1.796875 -2.53125 C 1.828125 -2.515625 2.734375 -1.953125 2.875 -1.875 C 3 -1.796875 3.421875 -1.546875 3.421875 -1.0625 C 3.421875 -0.453125 2.765625 -0.078125 2.125 -0.078125 C 1.40625 -0.078125 0.8125 -0.5625 0.8125 -1.21875 C 0.8125 -1.8125 1.25 -2.28125 1.796875 -2.53125 Z M 1.796875 -2.53125 "/>
</g>
<g id="glyph-3-0">
<path d="M 5.5625 -1.8125 C 5.703125 -1.8125 5.875 -1.8125 5.875 -1.984375 C 5.875 -2.171875 5.703125 -2.171875 5.5625 -2.171875 L 1 -2.171875 C 0.875 -2.171875 0.703125 -2.171875 0.703125 -1.984375 C 0.703125 -1.8125 0.875 -1.8125 1 -1.8125 Z M 5.5625 -1.8125 "/>
</g>
<g id="glyph-4-0">
<path d="M 3.421875 -3.40625 C 3.25 -3.734375 2.984375 -3.96875 2.578125 -3.96875 C 1.53125 -3.96875 0.375 -2.71875 0.375 -1.359375 C 0.375 -0.375 1 0.09375 1.609375 0.09375 C 2.1875 0.09375 2.65625 -0.390625 2.8125 -0.5625 C 2.90625 -0.0625 3.359375 0.09375 3.640625 0.09375 C 3.90625 0.09375 4.125 -0.015625 4.328125 -0.390625 C 4.484375 -0.6875 4.609375 -1.25 4.609375 -1.28125 C 4.609375 -1.328125 4.578125 -1.390625 4.5 -1.390625 C 4.390625 -1.390625 4.375 -1.34375 4.34375 -1.171875 C 4.140625 -0.390625 3.953125 -0.125 3.671875 -0.125 C 3.4375 -0.125 3.390625 -0.34375 3.390625 -0.53125 C 3.390625 -0.703125 3.4375 -0.890625 3.515625 -1.203125 L 3.734375 -2.125 C 3.796875 -2.34375 3.96875 -3.015625 4 -3.15625 C 4.03125 -3.28125 4.09375 -3.5 4.09375 -3.53125 C 4.09375 -3.671875 3.96875 -3.78125 3.8125 -3.78125 C 3.6875 -3.78125 3.46875 -3.71875 3.421875 -3.40625 Z M 2.84375 -1.09375 C 2.796875 -0.921875 2.796875 -0.921875 2.65625 -0.75 C 2.328125 -0.359375 1.96875 -0.125 1.625 -0.125 C 1.1875 -0.125 1.046875 -0.578125 1.046875 -0.96875 C 1.046875 -1.40625 1.296875 -2.4375 1.515625 -2.875 C 1.796875 -3.40625 2.21875 -3.734375 2.578125 -3.734375 C 3.171875 -3.734375 3.3125 -3.015625 3.3125 -2.953125 C 3.3125 -2.921875 3.296875 -2.859375 3.28125 -2.828125 Z M 2.84375 -1.09375 "/>
</g>
<g id="glyph-5-0">
<path d="M 1.75 -2.078125 C 1.71875 -2.53125 1.296875 -2.640625 1.078125 -2.640625 C 0.84375 -2.640625 0.6875 -2.5 0.59375 -2.3125 C 0.4375 -2.0625 0.359375 -1.75 0.359375 -1.71875 C 0.359375 -1.65625 0.421875 -1.640625 0.46875 -1.640625 C 0.5625 -1.640625 0.578125 -1.671875 0.609375 -1.765625 C 0.71875 -2.25 0.875 -2.4375 1.0625 -2.4375 C 1.28125 -2.4375 1.28125 -2.203125 1.28125 -2.140625 C 1.28125 -2.046875 1.21875 -1.796875 1.171875 -1.640625 C 1.125 -1.46875 1.078125 -1.234375 1.046875 -1.09375 C 1 -0.953125 0.96875 -0.796875 0.921875 -0.640625 C 0.875 -0.46875 0.8125 -0.171875 0.8125 -0.140625 C 0.8125 0 0.90625 0.0625 1.015625 0.0625 C 1.125 0.0625 1.234375 -0.015625 1.28125 -0.109375 C 1.28125 -0.140625 1.34375 -0.34375 1.375 -0.46875 L 1.5 -1 C 1.546875 -1.15625 1.5625 -1.265625 1.609375 -1.40625 C 1.65625 -1.609375 1.859375 -1.921875 2.09375 -2.140625 C 2.203125 -2.265625 2.46875 -2.4375 2.78125 -2.4375 C 3.171875 -2.4375 3.171875 -2.140625 3.171875 -2.015625 C 3.171875 -1.671875 2.921875 -1.03125 2.8125 -0.765625 C 2.765625 -0.65625 2.734375 -0.5625 2.734375 -0.453125 C 2.734375 -0.15625 3 0.0625 3.328125 0.0625 C 3.9375 0.0625 4.234375 -0.734375 4.234375 -0.859375 C 4.234375 -0.875 4.234375 -0.953125 4.125 -0.953125 C 4.046875 -0.953125 4.03125 -0.921875 4 -0.796875 C 3.90625 -0.484375 3.65625 -0.140625 3.34375 -0.140625 C 3.234375 -0.140625 3.1875 -0.234375 3.1875 -0.359375 C 3.1875 -0.46875 3.234375 -0.578125 3.28125 -0.703125 C 3.375 -0.9375 3.640625 -1.609375 3.640625 -1.9375 C 3.640625 -2.4375 3.265625 -2.640625 2.8125 -2.640625 C 2.515625 -2.640625 2.140625 -2.546875 1.75 -2.078125 Z M 1.75 -2.078125 "/>
</g>
<g id="glyph-6-0">
<path d="M 6.34375 -2.96875 C 6.46875 -2.96875 6.640625 -2.96875 6.640625 -3.15625 C 6.640625 -3.359375 6.453125 -3.359375 6.3125 -3.359375 L 0.84375 -3.359375 C 0.703125 -3.359375 0.515625 -3.359375 0.515625 -3.15625 C 0.515625 -2.96875 0.6875 -2.96875 0.8125 -2.96875 Z M 6.3125 -1.140625 C 6.453125 -1.140625 6.640625 -1.140625 6.640625 -1.34375 C 6.640625 -1.53125 6.46875 -1.53125 6.34375 -1.53125 L 0.8125 -1.53125 C 0.6875 -1.53125 0.515625 -1.53125 0.515625 -1.34375 C 0.515625 -1.140625 0.703125 -1.140625 0.84375 -1.140625 Z M 6.3125 -1.140625 "/>
</g>
<g id="glyph-7-0">
<path d="M 2.375 1.359375 C 1.71875 0.84375 1.1875 -0.09375 1.1875 -1.5 C 1.1875 -2.875 1.71875 -3.84375 2.375 -4.34375 C 2.375 -4.34375 2.40625 -4.375 2.40625 -4.40625 C 2.40625 -4.4375 2.375 -4.484375 2.296875 -4.484375 C 2.203125 -4.484375 0.75 -3.546875 0.75 -1.5 C 0.75 0.546875 2.1875 1.5 2.296875 1.5 C 2.375 1.5 2.40625 1.453125 2.40625 1.40625 C 2.40625 1.375 2.375 1.359375 2.375 1.359375 Z M 2.375 1.359375 "/>
</g>
<g id="glyph-7-1">
<path d="M 2.140625 -3.796875 C 2.140625 -3.984375 2.125 -3.984375 1.9375 -3.984375 C 1.546875 -3.59375 0.9375 -3.59375 0.71875 -3.59375 L 0.71875 -3.359375 C 0.875 -3.359375 1.28125 -3.359375 1.640625 -3.53125 L 1.640625 -0.515625 C 1.640625 -0.3125 1.640625 -0.234375 1.015625 -0.234375 L 0.765625 -0.234375 L 0.765625 0 C 1.09375 -0.03125 1.5625 -0.03125 1.890625 -0.03125 C 2.21875 -0.03125 2.6875 -0.03125 3.015625 0 L 3.015625 -0.234375 L 2.765625 -0.234375 C 2.140625 -0.234375 2.140625 -0.3125 2.140625 -0.515625 Z M 2.140625 -3.796875 "/>
</g>
<g id="glyph-7-2">
<path d="M 2.125 -1.5 C 2.125 -3.546875 0.6875 -4.484375 0.5625 -4.484375 C 0.5 -4.484375 0.484375 -4.4375 0.484375 -4.40625 C 0.484375 -4.375 0.484375 -4.359375 0.59375 -4.265625 C 1.125 -3.8125 1.6875 -2.921875 1.6875 -1.5 C 1.6875 -0.234375 1.25 0.71875 0.5625 1.296875 C 0.484375 1.375 0.484375 1.375 0.484375 1.40625 C 0.484375 1.4375 0.5 1.5 0.5625 1.5 C 0.671875 1.5 2.125 0.5625 2.125 -1.5 Z M 2.125 -1.5 "/>
</g>
<g id="glyph-8-0">
<path d="M 4.765625 -1.34375 C 4.859375 -1.34375 5.015625 -1.34375 5.015625 -1.5 C 5.015625 -1.65625 4.859375 -1.65625 4.765625 -1.65625 L 1 -1.65625 C 0.890625 -1.65625 0.75 -1.65625 0.75 -1.5 C 0.75 -1.34375 0.890625 -1.34375 1 -1.34375 Z M 4.765625 -1.34375 "/>
</g>
<g id="glyph-9-0">
<path d="M 0.96875 -0.484375 C 0.9375 -0.359375 0.890625 -0.140625 0.890625 -0.125 C 0.890625 -0.015625 0.984375 0.0625 1.078125 0.0625 C 1.140625 0.0625 1.25 0.015625 1.3125 -0.109375 C 1.3125 -0.140625 1.375 -0.375 1.40625 -0.5 C 1.578125 -1.171875 1.578125 -1.1875 1.578125 -1.203125 C 1.65625 -1.328125 2.015625 -2.03125 2.609375 -2.03125 C 2.859375 -2.03125 2.96875 -1.90625 2.96875 -1.671875 C 2.96875 -1.390625 2.75 -0.875 2.640625 -0.59375 C 2.609375 -0.53125 2.59375 -0.46875 2.59375 -0.390625 C 2.59375 -0.125 2.84375 0.0625 3.140625 0.0625 C 3.671875 0.0625 3.9375 -0.59375 3.9375 -0.71875 C 3.9375 -0.78125 3.859375 -0.78125 3.84375 -0.78125 C 3.75 -0.78125 3.75 -0.765625 3.71875 -0.671875 C 3.625 -0.375 3.390625 -0.109375 3.15625 -0.109375 C 3.046875 -0.109375 3 -0.1875 3 -0.296875 C 3 -0.40625 3.03125 -0.453125 3.078125 -0.5625 C 3.15625 -0.765625 3.390625 -1.328125 3.390625 -1.609375 C 3.390625 -1.984375 3.125 -2.203125 2.640625 -2.203125 C 2.1875 -2.203125 1.875 -1.921875 1.703125 -1.703125 C 1.6875 -2.125 1.28125 -2.203125 1.09375 -2.203125 C 0.59375 -2.203125 0.453125 -1.4375 0.453125 -1.4375 C 0.453125 -1.359375 0.53125 -1.359375 0.5625 -1.359375 C 0.640625 -1.359375 0.65625 -1.390625 0.671875 -1.453125 C 0.75 -1.75 0.859375 -2.03125 1.078125 -2.03125 C 1.234375 -2.03125 1.28125 -1.875 1.28125 -1.765625 C 1.28125 -1.703125 1.21875 -1.515625 1.203125 -1.375 C 1.15625 -1.25 1.109375 -1.046875 1.09375 -0.9375 Z M 0.96875 -0.484375 "/>
</g>
</g>
</defs>
<path fill="none" stroke-width="0.3985" stroke-linecap="butt" stroke-linejoin="miter" stroke="rgb(0%, 0%, 0%)" stroke-opacity="1" stroke-miterlimit="10" d="M -9.211562 0.00046875 L 165.429063 0.00046875 " transform="matrix(1, 0, 0, -1, 24.485, 50.77)"/>
<path fill="none" stroke-width="0.3985" stroke-linecap="round" stroke-linejoin="round" stroke="rgb(0%, 0%, 0%)" stroke-opacity="1" stroke-miterlimit="10" d="M -2.073937 2.391094 C -1.695031 0.9575 -0.851281 0.277813 0.00028125 0.00046875 C -0.851281 -0.280781 -1.695031 -0.956562 -2.073937 -2.390156 " transform="matrix(1, 0, 0, -1, 190.113, 50.77)"/>
<g fill="rgb(0%, 0%, 0%)" fill-opacity="1">
<use xlink:href="#glyph-0-0" x="193.83" y="52.915"/>
</g>
<path fill="none" stroke-width="0.3985" stroke-linecap="butt" stroke-linejoin="miter" stroke="rgb(0%, 0%, 0%)" stroke-opacity="1" stroke-miterlimit="10" d="M -0.000625 -33.163594 L -0.000625 32.766094 " transform="matrix(1, 0, 0, -1, 24.485, 50.77)"/>
<path fill="none" stroke-width="0.3985" stroke-linecap="round" stroke-linejoin="round" stroke="rgb(0%, 0%, 0%)" stroke-opacity="1" stroke-miterlimit="10" d="M -2.07125 2.39125 C -1.692344 0.957656 -0.848594 0.277969 -0.0009375 0.000625 C -0.848594 -0.280625 -1.692344 -0.956406 -2.07125 -2.39 " transform="matrix(0, -1, -1, 0, 24.485, 17.80375)"/>
<g fill="rgb(0%, 0%, 0%)" fill-opacity="1">
<use xlink:href="#glyph-0-1" x="19.14" y="12.591"/>
</g>
<g fill="rgb(0%, 0%, 0%)" fill-opacity="1">
<use xlink:href="#glyph-1-0" x="24.406" y="14.085"/>
</g>
<path fill="none" stroke-width="0.3985" stroke-linecap="butt" stroke-linejoin="miter" stroke="rgb(50%, 50%, 50%)" stroke-opacity="1" stroke-dasharray="2.98883 2.98883" stroke-miterlimit="10" d="M -0.000625 18.42625 L 156.616563 18.42625 " transform="matrix(1, 0, 0, -1, 24.485, 50.77)"/>
<path fill="none" stroke-width="0.3985" stroke-linecap="butt" stroke-linejoin="miter" stroke="rgb(50%, 50%, 50%)" stroke-opacity="1" stroke-dasharray="2.98883 2.98883" stroke-miterlimit="10" d="M -0.000625 -18.425312 L 156.616563 -18.425312 " transform="matrix(1, 0, 0, -1, 24.485, 50.77)"/>
<path fill="none" stroke-width="0.3985" stroke-linecap="butt" stroke-linejoin="miter" stroke="rgb(0%, 0%, 0%)" stroke-opacity="1" stroke-miterlimit="10" d="M 18.425156 1.844219 L 18.425156 -1.843281 " transform="matrix(1, 0, 0, -1, 24.485, 50.77)"/>
<g fill="rgb(0%, 0%, 0%)" fill-opacity="1">
<use xlink:href="#glyph-2-0" x="40.793" y="61.269"/>
</g>
<path fill="none" stroke-width="0.3985" stroke-linecap="butt" stroke-linejoin="miter" stroke="rgb(0%, 0%, 0%)" stroke-opacity="1" stroke-miterlimit="10" d="M 36.850938 1.844219 L 36.850938 -1.843281 " transform="matrix(1, 0, 0, -1, 24.485, 50.77)"/>
<g fill="rgb(0%, 0%, 0%)" fill-opacity="1">
<use xlink:href="#glyph-2-1" x="59.218" y="61.269"/>
</g>
<path fill="none" stroke-width="0.3985" stroke-linecap="butt" stroke-linejoin="miter" stroke="rgb(0%, 0%, 0%)" stroke-opacity="1" stroke-miterlimit="10" d="M 55.276719 1.844219 L 55.276719 -1.843281 " transform="matrix(1, 0, 0, -1, 24.485, 50.77)"/>
<g fill="rgb(0%, 0%, 0%)" fill-opacity="1">
<use xlink:href="#glyph-2-2" x="77.643" y="61.269"/>
</g>
<path fill="none" stroke-width="0.3985" stroke-linecap="butt" stroke-linejoin="miter" stroke="rgb(0%, 0%, 0%)" stroke-opacity="1" stroke-miterlimit="10" d="M 73.7025 1.844219 L 73.7025 -1.843281 " transform="matrix(1, 0, 0, -1, 24.485, 50.77)"/>
<g fill="rgb(0%, 0%, 0%)" fill-opacity="1">
<use xlink:href="#glyph-2-3" x="96.068" y="61.269"/>
</g>
<path fill="none" stroke-width="0.3985" stroke-linecap="butt" stroke-linejoin="miter" stroke="rgb(0%, 0%, 0%)" stroke-opacity="1" stroke-miterlimit="10" d="M 92.124375 1.844219 L 92.124375 -1.843281 " transform="matrix(1, 0, 0, -1, 24.485, 50.77)"/>
<g fill="rgb(0%, 0%, 0%)" fill-opacity="1">
<use xlink:href="#glyph-2-4" x="114.493" y="61.269"/>
</g>
<path fill="none" stroke-width="0.3985" stroke-linecap="butt" stroke-linejoin="miter" stroke="rgb(0%, 0%, 0%)" stroke-opacity="1" stroke-miterlimit="10" d="M 110.550156 1.844219 L 110.550156 -1.843281 " transform="matrix(1, 0, 0, -1, 24.485, 50.77)"/>
<g fill="rgb(0%, 0%, 0%)" fill-opacity="1">
<use xlink:href="#glyph-2-5" x="132.918" y="61.269"/>
</g>
<path fill="none" stroke-width="0.3985" stroke-linecap="butt" stroke-linejoin="miter" stroke="rgb(0%, 0%, 0%)" stroke-opacity="1" stroke-miterlimit="10" d="M 128.975938 1.844219 L 128.975938 -1.843281 " transform="matrix(1, 0, 0, -1, 24.485, 50.77)"/>
<g fill="rgb(0%, 0%, 0%)" fill-opacity="1">
<use xlink:href="#glyph-2-6" x="151.343" y="61.269"/>
</g>
<path fill="none" stroke-width="0.3985" stroke-linecap="butt" stroke-linejoin="miter" stroke="rgb(0%, 0%, 0%)" stroke-opacity="1" stroke-miterlimit="10" d="M 147.401719 1.844219 L 147.401719 -1.843281 " transform="matrix(1, 0, 0, -1, 24.485, 50.77)"/>
<g fill="rgb(0%, 0%, 0%)" fill-opacity="1">
<use xlink:href="#glyph-2-7" x="169.768" y="61.269"/>
</g>
<g fill="rgb(0%, 0%, 0%)" fill-opacity="1">
<use xlink:href="#glyph-2-0" x="14.888" y="34.913"/>
</g>
<g fill="rgb(0%, 0%, 0%)" fill-opacity="1">
<use xlink:href="#glyph-3-0" x="8.302" y="71.348"/>
</g>
<g fill="rgb(0%, 0%, 0%)" fill-opacity="1">
<use xlink:href="#glyph-2-0" x="14.888491" y="71.348"/>
</g>
<path fill-rule="nonzero" fill="rgb(83.137512%, 65.879822%, 32.548523%)" fill-opacity="1" d="M 45.5 69.195312 C 45.5 67.765625 44.339844 66.605469 42.910156 66.605469 C 41.480469 66.605469 40.320312 67.765625 40.320312 69.195312 C 40.320312 70.625 41.480469 71.785156 42.910156 71.785156 C 44.339844 71.785156 45.5 70.625 45.5 69.195312 Z M 45.5 69.195312 "/>
<path fill-rule="nonzero" fill="rgb(83.137512%, 65.879822%, 32.548523%)" fill-opacity="1" d="M 63.925781 41.558594 C 63.925781 40.125 62.765625 38.96875 61.335938 38.96875 C 59.90625 38.96875 58.746094 40.125 58.746094 41.558594 C 58.746094 42.988281 59.90625 44.148438 61.335938 44.148438 C 62.765625 44.148438 63.925781 42.988281 63.925781 41.558594 Z M 63.925781 41.558594 "/>
<path fill-rule="nonzero" fill="rgb(83.137512%, 65.879822%, 32.548523%)" fill-opacity="1" d="M 82.351562 56.910156 C 82.351562 55.480469 81.191406 54.320312 79.761719 54.320312 C 78.332031 54.320312 77.171875 55.480469 77.171875 56.910156 C 77.171875 58.34375 78.332031 59.5 79.761719 59.5 C 81.191406 59.5 82.351562 58.34375 82.351562 56.910156 Z M 82.351562 56.910156 "/>
<path fill-rule="nonzero" fill="rgb(83.137512%, 65.879822%, 32.548523%)" fill-opacity="1" d="M 100.777344 46.164062 C 100.777344 44.734375 99.617188 43.574219 98.1875 43.574219 C 96.753906 43.574219 95.59375 44.734375 95.59375 46.164062 C 95.59375 47.59375 96.753906 48.753906 98.1875 48.753906 C 99.617188 48.753906 100.777344 47.59375 100.777344 46.164062 Z M 100.777344 46.164062 "/>
<path fill-rule="nonzero" fill="rgb(83.137512%, 65.879822%, 32.548523%)" fill-opacity="1" d="M 119.203125 54.453125 C 119.203125 53.023438 118.042969 51.863281 116.609375 51.863281 C 115.179688 51.863281 114.019531 53.023438 114.019531 54.453125 C 114.019531 55.886719 115.179688 57.046875 116.609375 57.046875 C 118.042969 57.046875 119.203125 55.886719 119.203125 54.453125 Z M 119.203125 54.453125 "/>
<path fill-rule="nonzero" fill="rgb(83.137512%, 65.879822%, 32.548523%)" fill-opacity="1" d="M 137.625 47.699219 C 137.625 46.269531 136.46875 45.109375 135.035156 45.109375 C 133.605469 45.109375 132.445312 46.269531 132.445312 47.699219 C 132.445312 49.128906 133.605469 50.289062 135.035156 50.289062 C 136.46875 50.289062 137.625 49.128906 137.625 47.699219 Z M 137.625 47.699219 "/>
<path fill-rule="nonzero" fill="rgb(83.137512%, 65.879822%, 32.548523%)" fill-opacity="1" d="M 156.050781 53.402344 C 156.050781 51.972656 154.890625 50.8125 153.460938 50.8125 C 152.03125 50.8125 150.871094 51.972656 150.871094 53.402344 C 150.871094 54.832031 152.03125 55.992188 153.460938 55.992188 C 154.890625 55.992188 156.050781 54.832031 156.050781 53.402344 Z M 156.050781 53.402344 "/>
<path fill-rule="nonzero" fill="rgb(83.137512%, 65.879822%, 32.548523%)" fill-opacity="1" d="M 174.476562 48.46875 C 174.476562 47.035156 173.316406 45.875 171.886719 45.875 C 170.457031 45.875 169.296875 47.035156 169.296875 48.46875 C 169.296875 49.898438 170.457031 51.058594 171.886719 51.058594 C 173.316406 51.058594 174.476562 49.898438 174.476562 48.46875 Z M 174.476562 48.46875 "/>
<path fill="none" stroke-width="0.3985" stroke-linecap="butt" stroke-linejoin="miter" stroke="rgb(48.234558%, 68.232727%, 49.804688%)" stroke-opacity="1" stroke-dasharray="0.3985 1.99255" stroke-miterlimit="10" d="M -0.000625 0.00046875 L 156.616563 0.00046875 " transform="matrix(1, 0, 0, -1, 24.485, 50.77)"/>
<g fill="rgb(83.137512%, 65.879822%, 32.548523%)" fill-opacity="1">
<use xlink:href="#glyph-4-0" x="121.893" y="77.68"/>
</g>
<g fill="rgb(83.137512%, 65.879822%, 32.548523%)" fill-opacity="1">
<use xlink:href="#glyph-5-0" x="126.775" y="78.676"/>
</g>
<g fill="rgb(83.137512%, 65.879822%, 32.548523%)" fill-opacity="1">
<use xlink:href="#glyph-6-0" x="134.433" y="77.68"/>
</g>
<g fill="rgb(83.137512%, 65.879822%, 32.548523%)" fill-opacity="1">
<use xlink:href="#glyph-7-0" x="145.356" y="73.376"/>
</g>
<g fill="rgb(83.137512%, 65.879822%, 32.548523%)" fill-opacity="1">
<use xlink:href="#glyph-8-0" x="148.234214" y="73.376"/>
</g>
<g fill="rgb(83.137512%, 65.879822%, 32.548523%)" fill-opacity="1">
<use xlink:href="#glyph-7-1" x="153.990643" y="73.376"/>
<use xlink:href="#glyph-7-2" x="157.643555" y="73.376"/>
</g>
<g fill="rgb(83.137512%, 65.879822%, 32.548523%)" fill-opacity="1">
<use xlink:href="#glyph-9-0" x="160.521" y="70.868"/>
</g>
<path fill="none" stroke-width="0.379" stroke-linecap="butt" stroke-linejoin="miter" stroke="rgb(83.137512%, 65.879822%, 32.548523%)" stroke-opacity="1" stroke-miterlimit="10" d="M -0.00053125 0.0005 L 20.05025 0.0005 " transform="matrix(1, 0, 0, -1, 145.356, 75.438)"/>
<g fill="rgb(83.137512%, 65.879822%, 32.548523%)" fill-opacity="1">
<use xlink:href="#glyph-5-0" x="153.081" y="80.723"/>
</g>
</svg>
